G04 #@! TF.FileFunction,Soldermask,Bot*
%FSLAX46Y46*%
G04 Gerber Fmt 4.6, Leading zero omitted, Abs format (unit mm)*
G04 Created by KiCad (PCBNEW (after 2015-may-01 BZR unknown)-product) date 06.05.2015 15:35:28*
%MOMM*%
G01*
G04 APERTURE LIST*
%ADD10C,0.100000*%
%ADD11C,1.473200*%
%ADD12R,1.473200X1.473200*%
%ADD13R,2.032000X1.727200*%
%ADD14O,2.032000X1.727200*%
%ADD15O,2.613660X1.305560*%
%ADD16O,2.032000X2.540000*%
%ADD17R,1.270000X0.965200*%
%ADD18R,1.397000X1.397000*%
%ADD19C,1.397000*%
%ADD20R,1.727200X1.727200*%
%ADD21O,1.727200X1.727200*%
%ADD22R,2.032000X2.032000*%
%ADD23O,2.032000X2.032000*%
%ADD24R,1.422400X1.422400*%
%ADD25C,1.422400*%
%ADD26R,1.400000X1.500000*%
%ADD27C,1.400000*%
%ADD28C,3.200000*%
G04 APERTURE END LIST*
D10*
D11*
X134620000Y-77470000D03*
X134620000Y-80010000D03*
X134620000Y-82550000D03*
X134620000Y-85090000D03*
X149860000Y-80010000D03*
X139700000Y-107950000D03*
X134620000Y-87630000D03*
X134620000Y-90170000D03*
X134620000Y-92710000D03*
X134620000Y-95250000D03*
X134620000Y-97790000D03*
X134620000Y-100330000D03*
X134620000Y-102870000D03*
X134620000Y-105410000D03*
X134620000Y-107950000D03*
X149860000Y-107950000D03*
X149860000Y-105410000D03*
X149860000Y-102870000D03*
X149860000Y-100330000D03*
X149860000Y-97790000D03*
X149860000Y-95250000D03*
X149860000Y-92710000D03*
X149860000Y-90170000D03*
X149860000Y-87630000D03*
X149860000Y-85090000D03*
X149860000Y-82550000D03*
X147320000Y-85090000D03*
X147320000Y-87630000D03*
X147320000Y-107950000D03*
X149860000Y-77470000D03*
X147320000Y-82550000D03*
D12*
X134620000Y-74930000D03*
D11*
X142240000Y-107950000D03*
X144780000Y-107950000D03*
X137160000Y-107950000D03*
X149860000Y-74930000D03*
X147320000Y-77470000D03*
D13*
X170180000Y-111125000D03*
D14*
X170180000Y-113665000D03*
X170180000Y-116205000D03*
D13*
X170180000Y-93345000D03*
D14*
X170180000Y-95885000D03*
X170180000Y-98425000D03*
D13*
X170180000Y-102235000D03*
D14*
X170180000Y-104775000D03*
X170180000Y-107315000D03*
D13*
X170180000Y-83185000D03*
D14*
X170180000Y-85725000D03*
X170180000Y-88265000D03*
D15*
X94107000Y-116205000D03*
X94107000Y-113665000D03*
D16*
X142875000Y-121285000D03*
X140335000Y-121285000D03*
X145415000Y-121285000D03*
D17*
X167005000Y-113665000D03*
X167005000Y-114935000D03*
D18*
X120015000Y-121920000D03*
D19*
X122555000Y-121920000D03*
X125095000Y-121920000D03*
X127635000Y-121920000D03*
X127635000Y-114300000D03*
X125095000Y-114300000D03*
X122555000Y-114300000D03*
X120015000Y-114300000D03*
D17*
X172720000Y-118745000D03*
X172720000Y-120015000D03*
D20*
X160655000Y-92710000D03*
D21*
X158115000Y-92710000D03*
X160655000Y-90170000D03*
X158115000Y-90170000D03*
X160655000Y-87630000D03*
X158115000Y-87630000D03*
X160655000Y-85090000D03*
X158115000Y-85090000D03*
D18*
X153035000Y-111125000D03*
D19*
X153035000Y-113665000D03*
X153035000Y-116205000D03*
X153035000Y-118745000D03*
X160655000Y-118745000D03*
X160655000Y-116205000D03*
X160655000Y-113665000D03*
X160655000Y-111125000D03*
D20*
X130810000Y-96520000D03*
D21*
X130810000Y-99060000D03*
X128270000Y-96520000D03*
X128270000Y-99060000D03*
D13*
X165100000Y-92075000D03*
D14*
X165100000Y-94615000D03*
X165100000Y-97155000D03*
X165100000Y-99695000D03*
D22*
X130810000Y-85090000D03*
D23*
X128270000Y-85090000D03*
D24*
X130302000Y-114808000D03*
D25*
X130302000Y-122428000D03*
D15*
X94107000Y-124460000D03*
X94107000Y-121920000D03*
X94107000Y-119380000D03*
X94107000Y-110490000D03*
X94107000Y-107950000D03*
X94107000Y-105410000D03*
X94107000Y-90170000D03*
X94107000Y-87630000D03*
D26*
X167640000Y-74930000D03*
D27*
X170180000Y-74930000D03*
X167640000Y-77470000D03*
X170180000Y-77470000D03*
X167640000Y-80010000D03*
X170180000Y-80010000D03*
D26*
X167640000Y-119380000D03*
D27*
X170180000Y-119380000D03*
X167640000Y-121920000D03*
X170180000Y-121920000D03*
X167640000Y-124460000D03*
X170180000Y-124460000D03*
D28*
X129540000Y-79756000D03*
X154940000Y-77470000D03*
X92075000Y-95885000D03*
X154940000Y-102235000D03*
X129540000Y-104140000D03*
M02*
