M48
;DRILL file {KiCad (after 2015-may-01 BZR unknown)-product} date 06.05.2015 15:35:25
;FORMAT={-:-/ absolute / metric / decimal}
FMAT,2
METRIC,TZ
T1C0.300
T2C0.610
T3C0.700
T4C0.800
T5C0.813
T6C0.965
T7C1.000
T8C1.016
%
G90
G05
M71
T1
X96.52Y-86.995
X96.52Y-95.885
X96.52Y-104.775
X99.06Y-86.995
X99.06Y-95.885
X99.06Y-104.775
X99.06Y-113.665
X101.6Y-86.995
X101.6Y-95.885
X101.6Y-104.775
X101.6Y-113.665
X102.235Y-77.47
X102.87Y-74.93
X104.14Y-86.995
X104.14Y-95.885
X104.14Y-104.775
X104.14Y-113.665
X106.68Y-86.995
X106.68Y-95.885
X106.68Y-104.775
X106.68Y-113.665
X107.315Y-82.55
X107.315Y-91.44
X107.315Y-100.33
X107.315Y-109.22
X107.315Y-118.11
X113.665Y-93.345
X116.205Y-101.6
X116.205Y-105.41
X116.205Y-111.125
X117.475Y-78.74
X117.475Y-81.915
X117.475Y-85.725
X117.475Y-88.9
X117.475Y-92.075
X119.38Y-109.22
X120.015Y-79.375
X121.92Y-103.505
X121.92Y-106.68
X122.555Y-80.645
X136.525Y-105.41
X138.43Y-105.41
X139.065Y-123.19
X141.605Y-123.825
X142.24Y-94.615
X142.24Y-102.235
X142.24Y-105.41
X143.256Y-118.364
X143.51Y-91.44
X143.764Y-114.808
X143.764Y-116.586
X144.145Y-90.17
X144.145Y-102.235
X144.145Y-123.825
X147.32Y-91.44
X147.32Y-97.79
X147.32Y-104.775
X148.59Y-109.855
X150.495Y-111.76
X150.495Y-122.555
X151.13Y-123.19
X152.146Y-105.918
X152.654Y-122.936
X156.845Y-113.03
X156.845Y-115.57
X156.845Y-118.11
X160.02Y-80.645
T2
X130.302Y-114.808
X130.302Y-122.428
T3
X165.735Y-88.265
T4
X134.62Y-74.93
X134.62Y-77.47
X134.62Y-80.01
X134.62Y-82.55
X134.62Y-85.09
X134.62Y-87.63
X134.62Y-90.17
X134.62Y-92.71
X134.62Y-95.25
X134.62Y-97.79
X134.62Y-100.33
X134.62Y-102.87
X134.62Y-105.41
X134.62Y-107.95
X137.16Y-107.95
X139.7Y-107.95
X142.24Y-107.95
X144.78Y-107.95
X147.32Y-77.47
X147.32Y-82.55
X147.32Y-85.09
X147.32Y-87.63
X147.32Y-107.95
X149.86Y-74.93
X149.86Y-77.47
X149.86Y-80.01
X149.86Y-82.55
X149.86Y-85.09
X149.86Y-87.63
X149.86Y-90.17
X149.86Y-92.71
X149.86Y-95.25
X149.86Y-97.79
X149.86Y-100.33
X149.86Y-102.87
X149.86Y-105.41
X149.86Y-107.95
T5
X120.015Y-114.3
X120.015Y-121.92
X122.555Y-114.3
X122.555Y-121.92
X125.095Y-114.3
X125.095Y-121.92
X127.635Y-114.3
X127.635Y-121.92
X153.035Y-111.125
X153.035Y-113.665
X153.035Y-116.205
X153.035Y-118.745
X160.655Y-111.125
X160.655Y-113.665
X160.655Y-116.205
X160.655Y-118.745
T6
X94.107Y-87.63
X94.107Y-90.17
X94.107Y-105.41
X94.107Y-107.95
X94.107Y-110.49
X94.107Y-113.665
X94.107Y-116.205
X94.107Y-119.38
X94.107Y-121.92
X94.107Y-124.46
T7
X140.335Y-121.285
X142.875Y-121.285
X145.415Y-121.285
X167.64Y-74.93
X167.64Y-77.47
X167.64Y-80.01
X167.64Y-119.38
X167.64Y-121.92
X167.64Y-124.46
X170.18Y-74.93
X170.18Y-77.47
X170.18Y-80.01
X170.18Y-119.38
X170.18Y-121.92
X170.18Y-124.46
T8
X128.27Y-85.09
X128.27Y-96.52
X128.27Y-99.06
X130.81Y-85.09
X130.81Y-96.52
X130.81Y-99.06
X158.115Y-85.09
X158.115Y-87.63
X158.115Y-90.17
X158.115Y-92.71
X160.655Y-85.09
X160.655Y-87.63
X160.655Y-90.17
X160.655Y-92.71
X165.1Y-92.075
X165.1Y-94.615
X165.1Y-97.155
X165.1Y-99.695
X170.18Y-83.185
X170.18Y-85.725
X170.18Y-88.265
X170.18Y-93.345
X170.18Y-95.885
X170.18Y-98.425
X170.18Y-102.235
X170.18Y-104.775
X170.18Y-107.315
X170.18Y-111.125
X170.18Y-113.665
X170.18Y-116.205
T0
M30
