G04 #@! TF.FileFunction,Legend,Top*
%FSLAX46Y46*%
G04 Gerber Fmt 4.6, Leading zero omitted, Abs format (unit mm)*
G04 Created by KiCad (PCBNEW (2015-01-16 BZR 5376)-product) date 28.03.2015 21:15:02*
%MOMM*%
G01*
G04 APERTURE LIST*
%ADD10C,0.100000*%
%ADD11C,0.300000*%
%ADD12C,0.150000*%
%ADD13C,0.378460*%
%ADD14C,0.127000*%
%ADD15C,0.203200*%
%ADD16C,0.190500*%
%ADD17C,0.637540*%
%ADD18C,0.066040*%
%ADD19C,0.152400*%
%ADD20C,0.099060*%
%ADD21C,0.125000*%
G04 APERTURE END LIST*
D10*
D11*
X172612857Y-119272857D02*
X172684286Y-119058571D01*
X172755714Y-118987143D01*
X172898571Y-118915714D01*
X173112857Y-118915714D01*
X173255714Y-118987143D01*
X173327143Y-119058571D01*
X173398571Y-119201429D01*
X173398571Y-119772857D01*
X171898571Y-119772857D01*
X171898571Y-119272857D01*
X171970000Y-119130000D01*
X172041429Y-119058571D01*
X172184286Y-118987143D01*
X172327143Y-118987143D01*
X172470000Y-119058571D01*
X172541429Y-119130000D01*
X172612857Y-119272857D01*
X172612857Y-119772857D01*
X165604000Y-119737143D02*
X165604000Y-119022857D01*
X166032571Y-119880000D02*
X164532571Y-119380000D01*
X166032571Y-118880000D01*
D12*
X93351429Y-112464857D02*
X93465715Y-112502952D01*
X93503810Y-112541048D01*
X93541905Y-112617238D01*
X93541905Y-112731524D01*
X93503810Y-112807714D01*
X93465715Y-112845810D01*
X93389524Y-112883905D01*
X93084762Y-112883905D01*
X93084762Y-112083905D01*
X93351429Y-112083905D01*
X93427619Y-112122000D01*
X93465715Y-112160095D01*
X93503810Y-112236286D01*
X93503810Y-112312476D01*
X93465715Y-112388667D01*
X93427619Y-112426762D01*
X93351429Y-112464857D01*
X93084762Y-112464857D01*
X93770476Y-112083905D02*
X94227619Y-112083905D01*
X93999048Y-112883905D02*
X93999048Y-112083905D01*
X94456191Y-112845810D02*
X94570477Y-112883905D01*
X94760953Y-112883905D01*
X94837143Y-112845810D01*
X94875239Y-112807714D01*
X94913334Y-112731524D01*
X94913334Y-112655333D01*
X94875239Y-112579143D01*
X94837143Y-112541048D01*
X94760953Y-112502952D01*
X94608572Y-112464857D01*
X94532381Y-112426762D01*
X94494286Y-112388667D01*
X94456191Y-112312476D01*
X94456191Y-112236286D01*
X94494286Y-112160095D01*
X94532381Y-112122000D01*
X94608572Y-112083905D01*
X94799048Y-112083905D01*
X94913334Y-112122000D01*
X93237143Y-115423905D02*
X93237143Y-114623905D01*
X94075238Y-115423905D02*
X93808571Y-115042952D01*
X93618095Y-115423905D02*
X93618095Y-114623905D01*
X93922857Y-114623905D01*
X93999048Y-114662000D01*
X94037143Y-114700095D01*
X94075238Y-114776286D01*
X94075238Y-114890571D01*
X94037143Y-114966762D01*
X93999048Y-115004857D01*
X93922857Y-115042952D01*
X93618095Y-115042952D01*
X94684762Y-115004857D02*
X94418095Y-115004857D01*
X94418095Y-115423905D02*
X94418095Y-114623905D01*
X94799048Y-114623905D01*
X92576857Y-86721905D02*
X92576857Y-86188571D01*
X92576857Y-86340952D02*
X92614952Y-86264762D01*
X92653048Y-86226667D01*
X92729238Y-86188571D01*
X92805429Y-86188571D01*
X93376857Y-86683810D02*
X93300667Y-86721905D01*
X93148286Y-86721905D01*
X93072095Y-86683810D01*
X93034000Y-86607619D01*
X93034000Y-86302857D01*
X93072095Y-86226667D01*
X93148286Y-86188571D01*
X93300667Y-86188571D01*
X93376857Y-86226667D01*
X93414952Y-86302857D01*
X93414952Y-86379048D01*
X93034000Y-86455238D01*
X94100666Y-86683810D02*
X94024476Y-86721905D01*
X93872095Y-86721905D01*
X93795904Y-86683810D01*
X93757809Y-86645714D01*
X93719714Y-86569524D01*
X93719714Y-86340952D01*
X93757809Y-86264762D01*
X93795904Y-86226667D01*
X93872095Y-86188571D01*
X94024476Y-86188571D01*
X94100666Y-86226667D01*
X94443523Y-86721905D02*
X94443523Y-85921905D01*
X94786380Y-86721905D02*
X94786380Y-86302857D01*
X94748285Y-86226667D01*
X94672095Y-86188571D01*
X94557809Y-86188571D01*
X94481618Y-86226667D01*
X94443523Y-86264762D01*
X95053047Y-86188571D02*
X95357809Y-86188571D01*
X95167333Y-85921905D02*
X95167333Y-86607619D01*
X95205428Y-86683810D01*
X95281619Y-86721905D01*
X95357809Y-86721905D01*
X95586381Y-86683810D02*
X95662571Y-86721905D01*
X95814952Y-86721905D01*
X95891143Y-86683810D01*
X95929238Y-86607619D01*
X95929238Y-86569524D01*
X95891143Y-86493333D01*
X95814952Y-86455238D01*
X95700667Y-86455238D01*
X95624476Y-86417143D01*
X95586381Y-86340952D01*
X95586381Y-86302857D01*
X95624476Y-86226667D01*
X95700667Y-86188571D01*
X95814952Y-86188571D01*
X95891143Y-86226667D01*
X93129238Y-89261905D02*
X93053047Y-89223810D01*
X93014952Y-89147619D01*
X93014952Y-88461905D01*
X93434000Y-89261905D02*
X93434000Y-88728571D01*
X93434000Y-88461905D02*
X93395905Y-88500000D01*
X93434000Y-88538095D01*
X93472095Y-88500000D01*
X93434000Y-88461905D01*
X93434000Y-88538095D01*
X93814952Y-88728571D02*
X93814952Y-89261905D01*
X93814952Y-88804762D02*
X93853047Y-88766667D01*
X93929238Y-88728571D01*
X94043524Y-88728571D01*
X94119714Y-88766667D01*
X94157809Y-88842857D01*
X94157809Y-89261905D01*
X94538762Y-89261905D02*
X94538762Y-88461905D01*
X94614953Y-88957143D02*
X94843524Y-89261905D01*
X94843524Y-88728571D02*
X94538762Y-89033333D01*
X95148286Y-89223810D02*
X95224476Y-89261905D01*
X95376857Y-89261905D01*
X95453048Y-89223810D01*
X95491143Y-89147619D01*
X95491143Y-89109524D01*
X95453048Y-89033333D01*
X95376857Y-88995238D01*
X95262572Y-88995238D01*
X95186381Y-88957143D01*
X95148286Y-88880952D01*
X95148286Y-88842857D01*
X95186381Y-88766667D01*
X95262572Y-88728571D01*
X95376857Y-88728571D01*
X95453048Y-88766667D01*
X93262667Y-104082857D02*
X93376953Y-104120952D01*
X93415048Y-104159048D01*
X93453143Y-104235238D01*
X93453143Y-104349524D01*
X93415048Y-104425714D01*
X93376953Y-104463810D01*
X93300762Y-104501905D01*
X92996000Y-104501905D01*
X92996000Y-103701905D01*
X93262667Y-103701905D01*
X93338857Y-103740000D01*
X93376953Y-103778095D01*
X93415048Y-103854286D01*
X93415048Y-103930476D01*
X93376953Y-104006667D01*
X93338857Y-104044762D01*
X93262667Y-104082857D01*
X92996000Y-104082857D01*
X93796000Y-104501905D02*
X93796000Y-103968571D01*
X93796000Y-104120952D02*
X93834095Y-104044762D01*
X93872191Y-104006667D01*
X93948381Y-103968571D01*
X94024572Y-103968571D01*
X94596000Y-104463810D02*
X94519810Y-104501905D01*
X94367429Y-104501905D01*
X94291238Y-104463810D01*
X94253143Y-104387619D01*
X94253143Y-104082857D01*
X94291238Y-104006667D01*
X94367429Y-103968571D01*
X94519810Y-103968571D01*
X94596000Y-104006667D01*
X94634095Y-104082857D01*
X94634095Y-104159048D01*
X94253143Y-104235238D01*
X94976952Y-104501905D02*
X94976952Y-103968571D01*
X94976952Y-104044762D02*
X95015047Y-104006667D01*
X95091238Y-103968571D01*
X95205524Y-103968571D01*
X95281714Y-104006667D01*
X95319809Y-104082857D01*
X95319809Y-104501905D01*
X95319809Y-104082857D02*
X95357905Y-104006667D01*
X95434095Y-103968571D01*
X95548381Y-103968571D01*
X95624571Y-104006667D01*
X95662666Y-104082857D01*
X95662666Y-104501905D01*
X96005524Y-104463810D02*
X96081714Y-104501905D01*
X96234095Y-104501905D01*
X96310286Y-104463810D01*
X96348381Y-104387619D01*
X96348381Y-104349524D01*
X96310286Y-104273333D01*
X96234095Y-104235238D01*
X96119810Y-104235238D01*
X96043619Y-104197143D01*
X96005524Y-104120952D01*
X96005524Y-104082857D01*
X96043619Y-104006667D01*
X96119810Y-103968571D01*
X96234095Y-103968571D01*
X96310286Y-104006667D01*
X96996000Y-104463810D02*
X96919810Y-104501905D01*
X96767429Y-104501905D01*
X96691238Y-104463810D01*
X96653143Y-104387619D01*
X96653143Y-104082857D01*
X96691238Y-104006667D01*
X96767429Y-103968571D01*
X96919810Y-103968571D01*
X96996000Y-104006667D01*
X97034095Y-104082857D01*
X97034095Y-104159048D01*
X96653143Y-104235238D01*
X93357810Y-107041905D02*
X92976857Y-107041905D01*
X92976857Y-106241905D01*
X93624476Y-107041905D02*
X93624476Y-106508571D01*
X93624476Y-106241905D02*
X93586381Y-106280000D01*
X93624476Y-106318095D01*
X93662571Y-106280000D01*
X93624476Y-106241905D01*
X93624476Y-106318095D01*
X94348285Y-107003810D02*
X94272095Y-107041905D01*
X94119714Y-107041905D01*
X94043523Y-107003810D01*
X94005428Y-106965714D01*
X93967333Y-106889524D01*
X93967333Y-106660952D01*
X94005428Y-106584762D01*
X94043523Y-106546667D01*
X94119714Y-106508571D01*
X94272095Y-106508571D01*
X94348285Y-106546667D01*
X94691142Y-107041905D02*
X94691142Y-106241905D01*
X95033999Y-107041905D02*
X95033999Y-106622857D01*
X94995904Y-106546667D01*
X94919714Y-106508571D01*
X94805428Y-106508571D01*
X94729237Y-106546667D01*
X94691142Y-106584762D01*
X95300666Y-106508571D02*
X95605428Y-106508571D01*
X95414952Y-106241905D02*
X95414952Y-106927619D01*
X95453047Y-107003810D01*
X95529238Y-107041905D01*
X95605428Y-107041905D01*
X92938762Y-109581905D02*
X92938762Y-108781905D01*
X92938762Y-109162857D02*
X93395905Y-109162857D01*
X93395905Y-109581905D02*
X93395905Y-108781905D01*
X94119714Y-109048571D02*
X94119714Y-109581905D01*
X93776857Y-109048571D02*
X93776857Y-109467619D01*
X93814952Y-109543810D01*
X93891143Y-109581905D01*
X94005429Y-109581905D01*
X94081619Y-109543810D01*
X94119714Y-109505714D01*
X94500667Y-109048571D02*
X94500667Y-109848571D01*
X94500667Y-109086667D02*
X94576858Y-109048571D01*
X94729239Y-109048571D01*
X94805429Y-109086667D01*
X94843524Y-109124762D01*
X94881620Y-109200952D01*
X94881620Y-109429524D01*
X94843524Y-109505714D01*
X94805429Y-109543810D01*
X94729239Y-109581905D01*
X94576858Y-109581905D01*
X94500667Y-109543810D01*
X95529239Y-109543810D02*
X95453049Y-109581905D01*
X95300668Y-109581905D01*
X95224477Y-109543810D01*
X95186382Y-109467619D01*
X95186382Y-109162857D01*
X95224477Y-109086667D01*
X95300668Y-109048571D01*
X95453049Y-109048571D01*
X95529239Y-109086667D01*
X95567334Y-109162857D01*
X95567334Y-109239048D01*
X95186382Y-109315238D01*
X92557810Y-120211905D02*
X92557810Y-120859524D01*
X92595905Y-120935714D01*
X92634001Y-120973810D01*
X92710191Y-121011905D01*
X92862572Y-121011905D01*
X92938763Y-120973810D01*
X92976858Y-120935714D01*
X93014953Y-120859524D01*
X93014953Y-120211905D01*
X93395905Y-121011905D02*
X93395905Y-120211905D01*
X93662572Y-120783333D01*
X93929239Y-120211905D01*
X93929239Y-121011905D01*
X94614953Y-120973810D02*
X94538763Y-121011905D01*
X94386382Y-121011905D01*
X94310191Y-120973810D01*
X94272096Y-120897619D01*
X94272096Y-120592857D01*
X94310191Y-120516667D01*
X94386382Y-120478571D01*
X94538763Y-120478571D01*
X94614953Y-120516667D01*
X94653048Y-120592857D01*
X94653048Y-120669048D01*
X94272096Y-120745238D01*
X94957810Y-120973810D02*
X95034000Y-121011905D01*
X95186381Y-121011905D01*
X95262572Y-120973810D01*
X95300667Y-120897619D01*
X95300667Y-120859524D01*
X95262572Y-120783333D01*
X95186381Y-120745238D01*
X95072096Y-120745238D01*
X94995905Y-120707143D01*
X94957810Y-120630952D01*
X94957810Y-120592857D01*
X94995905Y-120516667D01*
X95072096Y-120478571D01*
X95186381Y-120478571D01*
X95262572Y-120516667D01*
X95605429Y-120973810D02*
X95681619Y-121011905D01*
X95834000Y-121011905D01*
X95910191Y-120973810D01*
X95948286Y-120897619D01*
X95948286Y-120859524D01*
X95910191Y-120783333D01*
X95834000Y-120745238D01*
X95719715Y-120745238D01*
X95643524Y-120707143D01*
X95605429Y-120630952D01*
X95605429Y-120592857D01*
X95643524Y-120516667D01*
X95719715Y-120478571D01*
X95834000Y-120478571D01*
X95910191Y-120516667D01*
X93040381Y-122751905D02*
X93040381Y-123399524D01*
X93078476Y-123475714D01*
X93116572Y-123513810D01*
X93192762Y-123551905D01*
X93345143Y-123551905D01*
X93421334Y-123513810D01*
X93459429Y-123475714D01*
X93497524Y-123399524D01*
X93497524Y-122751905D01*
X94145143Y-123132857D02*
X94259429Y-123170952D01*
X94297524Y-123209048D01*
X94335619Y-123285238D01*
X94335619Y-123399524D01*
X94297524Y-123475714D01*
X94259429Y-123513810D01*
X94183238Y-123551905D01*
X93878476Y-123551905D01*
X93878476Y-122751905D01*
X94145143Y-122751905D01*
X94221333Y-122790000D01*
X94259429Y-122828095D01*
X94297524Y-122904286D01*
X94297524Y-122980476D01*
X94259429Y-123056667D01*
X94221333Y-123094762D01*
X94145143Y-123132857D01*
X93878476Y-123132857D01*
X95021333Y-123551905D02*
X95021333Y-123132857D01*
X94983238Y-123056667D01*
X94907048Y-123018571D01*
X94754667Y-123018571D01*
X94678476Y-123056667D01*
X95021333Y-123513810D02*
X94945143Y-123551905D01*
X94754667Y-123551905D01*
X94678476Y-123513810D01*
X94640381Y-123437619D01*
X94640381Y-123361429D01*
X94678476Y-123285238D01*
X94754667Y-123247143D01*
X94945143Y-123247143D01*
X95021333Y-123209048D01*
X95288000Y-123018571D02*
X95592762Y-123018571D01*
X95402286Y-122751905D02*
X95402286Y-123437619D01*
X95440381Y-123513810D01*
X95516572Y-123551905D01*
X95592762Y-123551905D01*
X95745143Y-123018571D02*
X96049905Y-123018571D01*
X95859429Y-122751905D02*
X95859429Y-123437619D01*
X95897524Y-123513810D01*
X95973715Y-123551905D01*
X96049905Y-123551905D01*
X93370477Y-117456000D02*
X93294286Y-117417905D01*
X93180001Y-117417905D01*
X93065715Y-117456000D01*
X92989524Y-117532190D01*
X92951429Y-117608381D01*
X92913334Y-117760762D01*
X92913334Y-117875048D01*
X92951429Y-118027429D01*
X92989524Y-118103619D01*
X93065715Y-118179810D01*
X93180001Y-118217905D01*
X93256191Y-118217905D01*
X93370477Y-118179810D01*
X93408572Y-118141714D01*
X93408572Y-117875048D01*
X93256191Y-117875048D01*
X93751429Y-118217905D02*
X93751429Y-117417905D01*
X94208572Y-118217905D01*
X94208572Y-117417905D01*
X94589524Y-118217905D02*
X94589524Y-117417905D01*
X94780000Y-117417905D01*
X94894286Y-117456000D01*
X94970477Y-117532190D01*
X95008572Y-117608381D01*
X95046667Y-117760762D01*
X95046667Y-117875048D01*
X95008572Y-118027429D01*
X94970477Y-118103619D01*
X94894286Y-118179810D01*
X94780000Y-118217905D01*
X94589524Y-118217905D01*
X127722381Y-94440190D02*
X127722381Y-93821142D01*
X128103333Y-94154476D01*
X128103333Y-94011618D01*
X128150952Y-93916380D01*
X128198571Y-93868761D01*
X128293810Y-93821142D01*
X128531905Y-93821142D01*
X128627143Y-93868761D01*
X128674762Y-93916380D01*
X128722381Y-94011618D01*
X128722381Y-94297333D01*
X128674762Y-94392571D01*
X128627143Y-94440190D01*
X128627143Y-93392571D02*
X128674762Y-93344952D01*
X128722381Y-93392571D01*
X128674762Y-93440190D01*
X128627143Y-93392571D01*
X128722381Y-93392571D01*
X127722381Y-93011619D02*
X127722381Y-92392571D01*
X128103333Y-92725905D01*
X128103333Y-92583047D01*
X128150952Y-92487809D01*
X128198571Y-92440190D01*
X128293810Y-92392571D01*
X128531905Y-92392571D01*
X128627143Y-92440190D01*
X128674762Y-92487809D01*
X128722381Y-92583047D01*
X128722381Y-92868762D01*
X128674762Y-92964000D01*
X128627143Y-93011619D01*
X127722381Y-92106857D02*
X128722381Y-91773524D01*
X127722381Y-91440190D01*
X131770381Y-93821238D02*
X131294190Y-94154572D01*
X131770381Y-94392667D02*
X130770381Y-94392667D01*
X130770381Y-94011714D01*
X130818000Y-93916476D01*
X130865619Y-93868857D01*
X130960857Y-93821238D01*
X131103714Y-93821238D01*
X131198952Y-93868857D01*
X131246571Y-93916476D01*
X131294190Y-94011714D01*
X131294190Y-94392667D01*
X131770381Y-93487905D02*
X131103714Y-92964095D01*
X131103714Y-93487905D02*
X131770381Y-92964095D01*
X132040381Y-102036476D02*
X132040381Y-101465047D01*
X133040381Y-101750762D02*
X132040381Y-101750762D01*
X133040381Y-101226952D02*
X132373714Y-100703142D01*
X132373714Y-101226952D02*
X133040381Y-100703142D01*
D11*
X172612857Y-74568857D02*
X172684286Y-74354571D01*
X172755714Y-74283143D01*
X172898571Y-74211714D01*
X173112857Y-74211714D01*
X173255714Y-74283143D01*
X173327143Y-74354571D01*
X173398571Y-74497429D01*
X173398571Y-75068857D01*
X171898571Y-75068857D01*
X171898571Y-74568857D01*
X171970000Y-74426000D01*
X172041429Y-74354571D01*
X172184286Y-74283143D01*
X172327143Y-74283143D01*
X172470000Y-74354571D01*
X172541429Y-74426000D01*
X172612857Y-74568857D01*
X172612857Y-75068857D01*
X165604000Y-75033143D02*
X165604000Y-74318857D01*
X166032571Y-75176000D02*
X164532571Y-74676000D01*
X166032571Y-74176000D01*
D12*
X136120571Y-93583143D02*
X136120571Y-92726000D01*
X137620571Y-93154571D02*
X136120571Y-93154571D01*
X137549143Y-91654572D02*
X137620571Y-91797429D01*
X137620571Y-92083143D01*
X137549143Y-92226000D01*
X137406286Y-92297429D01*
X136834857Y-92297429D01*
X136692000Y-92226000D01*
X136620571Y-92083143D01*
X136620571Y-91797429D01*
X136692000Y-91654572D01*
X136834857Y-91583143D01*
X136977714Y-91583143D01*
X137120571Y-92297429D01*
X137549143Y-90368858D02*
X137620571Y-90511715D01*
X137620571Y-90797429D01*
X137549143Y-90940286D01*
X137406286Y-91011715D01*
X136834857Y-91011715D01*
X136692000Y-90940286D01*
X136620571Y-90797429D01*
X136620571Y-90511715D01*
X136692000Y-90368858D01*
X136834857Y-90297429D01*
X136977714Y-90297429D01*
X137120571Y-91011715D01*
X136620571Y-89654572D02*
X137620571Y-89654572D01*
X136763429Y-89654572D02*
X136692000Y-89583144D01*
X136620571Y-89440286D01*
X136620571Y-89226001D01*
X136692000Y-89083144D01*
X136834857Y-89011715D01*
X137620571Y-89011715D01*
X137549143Y-88368858D02*
X137620571Y-88226001D01*
X137620571Y-87940286D01*
X137549143Y-87797429D01*
X137406286Y-87726001D01*
X137334857Y-87726001D01*
X137192000Y-87797429D01*
X137120571Y-87940286D01*
X137120571Y-88154572D01*
X137049143Y-88297429D01*
X136906286Y-88368858D01*
X136834857Y-88368858D01*
X136692000Y-88297429D01*
X136620571Y-88154572D01*
X136620571Y-87940286D01*
X136692000Y-87797429D01*
X136620571Y-87226000D02*
X137620571Y-86868857D01*
X136620571Y-86511715D02*
X137620571Y-86868857D01*
X137977714Y-87011715D01*
X138049143Y-87083143D01*
X138120571Y-87226000D01*
X137620571Y-85940286D02*
X136120571Y-85940286D01*
X136692000Y-85940286D02*
X136620571Y-85797429D01*
X136620571Y-85511715D01*
X136692000Y-85368858D01*
X136763429Y-85297429D01*
X136906286Y-85226000D01*
X137334857Y-85226000D01*
X137477714Y-85297429D01*
X137549143Y-85368858D01*
X137620571Y-85511715D01*
X137620571Y-85797429D01*
X137549143Y-85940286D01*
X137620571Y-84368857D02*
X137549143Y-84511715D01*
X137477714Y-84583143D01*
X137334857Y-84654572D01*
X136906286Y-84654572D01*
X136763429Y-84583143D01*
X136692000Y-84511715D01*
X136620571Y-84368857D01*
X136620571Y-84154572D01*
X136692000Y-84011715D01*
X136763429Y-83940286D01*
X136906286Y-83868857D01*
X137334857Y-83868857D01*
X137477714Y-83940286D01*
X137549143Y-84011715D01*
X137620571Y-84154572D01*
X137620571Y-84368857D01*
X137620571Y-82583143D02*
X136834857Y-82583143D01*
X136692000Y-82654572D01*
X136620571Y-82797429D01*
X136620571Y-83083143D01*
X136692000Y-83226000D01*
X137549143Y-82583143D02*
X137620571Y-82726000D01*
X137620571Y-83083143D01*
X137549143Y-83226000D01*
X137406286Y-83297429D01*
X137263429Y-83297429D01*
X137120571Y-83226000D01*
X137049143Y-83083143D01*
X137049143Y-82726000D01*
X136977714Y-82583143D01*
X137620571Y-81868857D02*
X136620571Y-81868857D01*
X136906286Y-81868857D02*
X136763429Y-81797429D01*
X136692000Y-81726000D01*
X136620571Y-81583143D01*
X136620571Y-81440286D01*
X137620571Y-80297429D02*
X136120571Y-80297429D01*
X137549143Y-80297429D02*
X137620571Y-80440286D01*
X137620571Y-80726000D01*
X137549143Y-80868858D01*
X137477714Y-80940286D01*
X137334857Y-81011715D01*
X136906286Y-81011715D01*
X136763429Y-80940286D01*
X136692000Y-80868858D01*
X136620571Y-80726000D01*
X136620571Y-80440286D01*
X136692000Y-80297429D01*
X136263429Y-78511715D02*
X136192000Y-78440286D01*
X136120571Y-78297429D01*
X136120571Y-77940286D01*
X136192000Y-77797429D01*
X136263429Y-77726000D01*
X136406286Y-77654572D01*
X136549143Y-77654572D01*
X136763429Y-77726000D01*
X137620571Y-78583143D01*
X137620571Y-77654572D01*
X137477714Y-77011715D02*
X137549143Y-76940287D01*
X137620571Y-77011715D01*
X137549143Y-77083144D01*
X137477714Y-77011715D01*
X137620571Y-77011715D01*
X136120571Y-76440286D02*
X136120571Y-75440286D01*
X137620571Y-76083143D01*
X138370571Y-93083143D02*
X138370571Y-92940286D01*
X138442000Y-92797429D01*
X138513429Y-92726000D01*
X138656286Y-92654571D01*
X138942000Y-92583143D01*
X139299143Y-92583143D01*
X139584857Y-92654571D01*
X139727714Y-92726000D01*
X139799143Y-92797429D01*
X139870571Y-92940286D01*
X139870571Y-93083143D01*
X139799143Y-93226000D01*
X139727714Y-93297429D01*
X139584857Y-93368857D01*
X139299143Y-93440286D01*
X138942000Y-93440286D01*
X138656286Y-93368857D01*
X138513429Y-93297429D01*
X138442000Y-93226000D01*
X138370571Y-93083143D01*
X139870571Y-91868858D02*
X139870571Y-91583143D01*
X139799143Y-91440286D01*
X139727714Y-91368858D01*
X139513429Y-91226000D01*
X139227714Y-91154572D01*
X138656286Y-91154572D01*
X138513429Y-91226000D01*
X138442000Y-91297429D01*
X138370571Y-91440286D01*
X138370571Y-91726000D01*
X138442000Y-91868858D01*
X138513429Y-91940286D01*
X138656286Y-92011715D01*
X139013429Y-92011715D01*
X139156286Y-91940286D01*
X139227714Y-91868858D01*
X139299143Y-91726000D01*
X139299143Y-91440286D01*
X139227714Y-91297429D01*
X139156286Y-91226000D01*
X139013429Y-91154572D01*
X139727714Y-90511715D02*
X139799143Y-90440287D01*
X139870571Y-90511715D01*
X139799143Y-90583144D01*
X139727714Y-90511715D01*
X139870571Y-90511715D01*
X138370571Y-89511715D02*
X138370571Y-89368858D01*
X138442000Y-89226001D01*
X138513429Y-89154572D01*
X138656286Y-89083143D01*
X138942000Y-89011715D01*
X139299143Y-89011715D01*
X139584857Y-89083143D01*
X139727714Y-89154572D01*
X139799143Y-89226001D01*
X139870571Y-89368858D01*
X139870571Y-89511715D01*
X139799143Y-89654572D01*
X139727714Y-89726001D01*
X139584857Y-89797429D01*
X139299143Y-89868858D01*
X138942000Y-89868858D01*
X138656286Y-89797429D01*
X138513429Y-89726001D01*
X138442000Y-89654572D01*
X138370571Y-89511715D01*
X138370571Y-88511715D02*
X138370571Y-87583144D01*
X138942000Y-88083144D01*
X138942000Y-87868858D01*
X139013429Y-87726001D01*
X139084857Y-87654572D01*
X139227714Y-87583144D01*
X139584857Y-87583144D01*
X139727714Y-87654572D01*
X139799143Y-87726001D01*
X139870571Y-87868858D01*
X139870571Y-88297430D01*
X139799143Y-88440287D01*
X139727714Y-88511715D01*
X139727714Y-86940287D02*
X139799143Y-86868859D01*
X139870571Y-86940287D01*
X139799143Y-87011716D01*
X139727714Y-86940287D01*
X139870571Y-86940287D01*
X138513429Y-86297430D02*
X138442000Y-86226001D01*
X138370571Y-86083144D01*
X138370571Y-85726001D01*
X138442000Y-85583144D01*
X138513429Y-85511715D01*
X138656286Y-85440287D01*
X138799143Y-85440287D01*
X139013429Y-85511715D01*
X139870571Y-86368858D01*
X139870571Y-85440287D01*
X138370571Y-84511716D02*
X138370571Y-84368859D01*
X138442000Y-84226002D01*
X138513429Y-84154573D01*
X138656286Y-84083144D01*
X138942000Y-84011716D01*
X139299143Y-84011716D01*
X139584857Y-84083144D01*
X139727714Y-84154573D01*
X139799143Y-84226002D01*
X139870571Y-84368859D01*
X139870571Y-84511716D01*
X139799143Y-84654573D01*
X139727714Y-84726002D01*
X139584857Y-84797430D01*
X139299143Y-84868859D01*
X138942000Y-84868859D01*
X138656286Y-84797430D01*
X138513429Y-84726002D01*
X138442000Y-84654573D01*
X138370571Y-84511716D01*
X139870571Y-82583145D02*
X139870571Y-83440288D01*
X139870571Y-83011716D02*
X138370571Y-83011716D01*
X138584857Y-83154573D01*
X138727714Y-83297431D01*
X138799143Y-83440288D01*
X138370571Y-81226002D02*
X138370571Y-81940288D01*
X139084857Y-82011717D01*
X139013429Y-81940288D01*
X138942000Y-81797431D01*
X138942000Y-81440288D01*
X139013429Y-81297431D01*
X139084857Y-81226002D01*
X139227714Y-81154574D01*
X139584857Y-81154574D01*
X139727714Y-81226002D01*
X139799143Y-81297431D01*
X139870571Y-81440288D01*
X139870571Y-81797431D01*
X139799143Y-81940288D01*
X139727714Y-82011717D01*
X141334857Y-92868857D02*
X141406286Y-92654571D01*
X141477714Y-92583143D01*
X141620571Y-92511714D01*
X141834857Y-92511714D01*
X141977714Y-92583143D01*
X142049143Y-92654571D01*
X142120571Y-92797429D01*
X142120571Y-93368857D01*
X140620571Y-93368857D01*
X140620571Y-92868857D01*
X140692000Y-92726000D01*
X140763429Y-92654571D01*
X140906286Y-92583143D01*
X141049143Y-92583143D01*
X141192000Y-92654571D01*
X141263429Y-92726000D01*
X141334857Y-92868857D01*
X141334857Y-93368857D01*
X142120571Y-91226000D02*
X141334857Y-91226000D01*
X141192000Y-91297429D01*
X141120571Y-91440286D01*
X141120571Y-91726000D01*
X141192000Y-91868857D01*
X142049143Y-91226000D02*
X142120571Y-91368857D01*
X142120571Y-91726000D01*
X142049143Y-91868857D01*
X141906286Y-91940286D01*
X141763429Y-91940286D01*
X141620571Y-91868857D01*
X141549143Y-91726000D01*
X141549143Y-91368857D01*
X141477714Y-91226000D01*
X142120571Y-90511714D02*
X141120571Y-90511714D01*
X141406286Y-90511714D02*
X141263429Y-90440286D01*
X141192000Y-90368857D01*
X141120571Y-90226000D01*
X141120571Y-90083143D01*
X141120571Y-89583143D02*
X142120571Y-89583143D01*
X141263429Y-89583143D02*
X141192000Y-89511715D01*
X141120571Y-89368857D01*
X141120571Y-89154572D01*
X141192000Y-89011715D01*
X141334857Y-88940286D01*
X142120571Y-88940286D01*
X142049143Y-87654572D02*
X142120571Y-87797429D01*
X142120571Y-88083143D01*
X142049143Y-88226000D01*
X141906286Y-88297429D01*
X141334857Y-88297429D01*
X141192000Y-88226000D01*
X141120571Y-88083143D01*
X141120571Y-87797429D01*
X141192000Y-87654572D01*
X141334857Y-87583143D01*
X141477714Y-87583143D01*
X141620571Y-88297429D01*
X141120571Y-87083143D02*
X142120571Y-86726000D01*
X141120571Y-86368858D02*
X142120571Y-86726000D01*
X142477714Y-86868858D01*
X142549143Y-86940286D01*
X142620571Y-87083143D01*
D13*
X124510800Y-69088000D02*
X124510800Y-74051160D01*
X111709200Y-69088000D02*
X111709200Y-74051160D01*
X123190000Y-74168000D02*
X123190000Y-94742000D01*
X123190000Y-94742000D02*
X112776000Y-94742000D01*
X112776000Y-94742000D02*
X112776000Y-74168000D01*
X114409220Y-69753480D02*
X114409220Y-72552560D01*
X113108740Y-69753480D02*
X113108740Y-72552560D01*
X114411760Y-72550020D02*
X113111280Y-72550020D01*
X117007640Y-69750940D02*
X117007640Y-72550020D01*
X115707160Y-69750940D02*
X115707160Y-72550020D01*
X117010180Y-72547480D02*
X115709700Y-72547480D01*
X115707160Y-69748400D02*
X114406680Y-69748400D01*
X119608600Y-69750940D02*
X119608600Y-72550020D01*
X118308120Y-69750940D02*
X118308120Y-72550020D01*
X119611140Y-72547480D02*
X118310660Y-72547480D01*
X118308120Y-69748400D02*
X117007640Y-69748400D01*
X123510040Y-69750940D02*
X123510040Y-74051160D01*
X122209560Y-69750940D02*
X122209560Y-72550020D01*
X120909080Y-69750940D02*
X120909080Y-72550020D01*
X114647980Y-94396560D02*
X114647980Y-88496140D01*
X122648980Y-88496140D02*
X122648980Y-94396560D01*
X114647980Y-88493600D02*
X122648980Y-88493600D01*
X122648980Y-94396560D02*
X114647980Y-94396560D01*
X122648980Y-79349600D02*
X122648980Y-87350600D01*
X122648980Y-87350600D02*
X114647980Y-87350600D01*
X114647980Y-87350600D02*
X114647980Y-79349600D01*
X114647980Y-79349600D02*
X122648980Y-79349600D01*
X113108740Y-69750940D02*
X112709960Y-69750940D01*
X122212100Y-72547480D02*
X120911620Y-72547480D01*
X120909080Y-69748400D02*
X119608600Y-69748400D01*
X123510040Y-69748400D02*
X122209560Y-69748400D01*
X124510800Y-74051160D02*
X111709200Y-74051160D01*
X111709200Y-69049900D02*
X124510800Y-69049900D01*
D14*
X133350000Y-73660000D02*
X151130000Y-73660000D01*
X151130000Y-73660000D02*
X151130000Y-109220000D01*
X151130000Y-109220000D02*
X133350000Y-109220000D01*
X133350000Y-109220000D02*
X133350000Y-73660000D01*
D15*
X140970000Y-74930000D02*
X143510000Y-74930000D01*
X143510000Y-74930000D02*
X143510000Y-73660000D01*
X143510000Y-73660000D02*
X151130000Y-73660000D01*
X151130000Y-73660000D02*
X151130000Y-109220000D01*
X151130000Y-109220000D02*
X133350000Y-109220000D01*
X133350000Y-109220000D02*
X133350000Y-73660000D01*
X133350000Y-73660000D02*
X140970000Y-73660000D01*
X140970000Y-73660000D02*
X140970000Y-74930000D01*
D12*
X100076000Y-124460000D02*
X101346000Y-124460000D01*
X101092000Y-123952000D02*
X101092000Y-124968000D01*
D16*
X101092000Y-124460000D02*
X100484940Y-123860560D01*
X100484940Y-123860560D02*
X100484940Y-125059440D01*
X100484940Y-125059440D02*
X101092000Y-124460000D01*
X99882960Y-123659900D02*
X99882960Y-125260100D01*
X99283520Y-123659900D02*
X101884480Y-123659900D01*
X101884480Y-125260100D02*
X99283520Y-125260100D01*
D14*
X92075000Y-91440000D02*
X92075000Y-86360000D01*
X92075000Y-86360000D02*
X88773000Y-86360000D01*
X88773000Y-91440000D02*
X92075000Y-91440000D01*
D12*
X88775540Y-91440000D02*
X88775540Y-86360000D01*
D17*
X92075000Y-90170000D02*
X81280000Y-90170000D01*
X92075000Y-87630000D02*
X81280000Y-87630000D01*
D14*
X88773000Y-91440000D02*
X88773000Y-90170000D01*
X88773000Y-90170000D02*
X88773000Y-87630000D01*
X88773000Y-87630000D02*
X88773000Y-86360000D01*
X84838540Y-90170000D02*
X80645000Y-90170000D01*
X80645000Y-90170000D02*
X80645000Y-87630000D01*
X80645000Y-87630000D02*
X86741000Y-87630000D01*
X86725760Y-90170000D02*
X86725760Y-87630000D01*
X84838540Y-87630000D02*
X84838540Y-90170000D01*
D12*
X157090000Y-122190000D02*
X157090000Y-124190000D01*
X159140000Y-124190000D02*
X159140000Y-122190000D01*
D18*
X169875200Y-74625200D02*
X169875200Y-75234800D01*
X169875200Y-75234800D02*
X170484800Y-75234800D01*
X170484800Y-74625200D02*
X170484800Y-75234800D01*
X169875200Y-74625200D02*
X170484800Y-74625200D01*
X169875200Y-77165200D02*
X169875200Y-77774800D01*
X169875200Y-77774800D02*
X170484800Y-77774800D01*
X170484800Y-77165200D02*
X170484800Y-77774800D01*
X169875200Y-77165200D02*
X170484800Y-77165200D01*
X169875200Y-79705200D02*
X169875200Y-80314800D01*
X169875200Y-80314800D02*
X170484800Y-80314800D01*
X170484800Y-79705200D02*
X170484800Y-80314800D01*
X169875200Y-79705200D02*
X170484800Y-79705200D01*
X167335200Y-74625200D02*
X167335200Y-75234800D01*
X167335200Y-75234800D02*
X167944800Y-75234800D01*
X167944800Y-74625200D02*
X167944800Y-75234800D01*
X167335200Y-74625200D02*
X167944800Y-74625200D01*
X167335200Y-77165200D02*
X167335200Y-77774800D01*
X167335200Y-77774800D02*
X167944800Y-77774800D01*
X167944800Y-77165200D02*
X167944800Y-77774800D01*
X167335200Y-77165200D02*
X167944800Y-77165200D01*
X167335200Y-79705200D02*
X167335200Y-80314800D01*
X167335200Y-80314800D02*
X167944800Y-80314800D01*
X167944800Y-79705200D02*
X167944800Y-80314800D01*
X167335200Y-79705200D02*
X167944800Y-79705200D01*
D19*
X166751000Y-73660000D02*
X171069000Y-73660000D01*
X171450000Y-75819000D02*
X171069000Y-76200000D01*
X171069000Y-76200000D02*
X171450000Y-76581000D01*
X171450000Y-76581000D02*
X171450000Y-78359000D01*
X171069000Y-78740000D02*
X171450000Y-78359000D01*
X171069000Y-78740000D02*
X171450000Y-79121000D01*
X171450000Y-79121000D02*
X171450000Y-80899000D01*
X171069000Y-81280000D02*
X171450000Y-80899000D01*
X171069000Y-81280000D02*
X166751000Y-81280000D01*
X166370000Y-80899000D02*
X166751000Y-81280000D01*
X166370000Y-80899000D02*
X166370000Y-79121000D01*
X166751000Y-78740000D02*
X166370000Y-79121000D01*
X166751000Y-78740000D02*
X166370000Y-78359000D01*
X166370000Y-78359000D02*
X166370000Y-76581000D01*
X166751000Y-76200000D02*
X166370000Y-76581000D01*
X166751000Y-76200000D02*
X166370000Y-75819000D01*
X171069000Y-73660000D02*
X171450000Y-74041000D01*
X171450000Y-74041000D02*
X171450000Y-75819000D01*
X166751000Y-73660000D02*
X166370000Y-74041000D01*
X166370000Y-74041000D02*
X166370000Y-75819000D01*
D12*
X148209000Y-120015000D02*
G75*
G03X148209000Y-120015000I-254000J0D01*
G01*
X148717000Y-119253000D02*
X148717000Y-125253000D01*
X148717000Y-125253000D02*
X137117000Y-125253000D01*
X137117000Y-125253000D02*
X137117000Y-119253000D01*
X137117000Y-119253000D02*
X148717000Y-119253000D01*
X114030000Y-122995000D02*
X112030000Y-122995000D01*
X112030000Y-120845000D02*
X114030000Y-120845000D01*
X105664000Y-114808000D02*
X105664000Y-114808000D01*
X105664000Y-114681000D02*
X105664000Y-114808000D01*
X105664000Y-114808000D02*
X105664000Y-114681000D01*
X99441000Y-121666000D02*
X105664000Y-121666000D01*
X105664000Y-121666000D02*
X105664000Y-118110000D01*
X99441000Y-121666000D02*
X97917000Y-121666000D01*
X97917000Y-121666000D02*
X97917000Y-121666000D01*
X97917000Y-121666000D02*
X97917000Y-121666000D01*
X97917000Y-121666000D02*
X97663000Y-121666000D01*
X97663000Y-121666000D02*
X97663000Y-121666000D01*
X97663000Y-121666000D02*
X97663000Y-121666000D01*
X105664000Y-118110000D02*
X105664000Y-114681000D01*
X105664000Y-114681000D02*
X97663000Y-114681000D01*
X97663000Y-114681000D02*
X97663000Y-121666000D01*
X114030000Y-120455000D02*
X112030000Y-120455000D01*
X112030000Y-118305000D02*
X114030000Y-118305000D01*
X114030000Y-117915000D02*
X112030000Y-117915000D01*
X112030000Y-115765000D02*
X114030000Y-115765000D01*
X105664000Y-105918000D02*
X105664000Y-105918000D01*
X105664000Y-105791000D02*
X105664000Y-105918000D01*
X105664000Y-105918000D02*
X105664000Y-105791000D01*
X99441000Y-112776000D02*
X105664000Y-112776000D01*
X105664000Y-112776000D02*
X105664000Y-109220000D01*
X99441000Y-112776000D02*
X97917000Y-112776000D01*
X97917000Y-112776000D02*
X97917000Y-112776000D01*
X97917000Y-112776000D02*
X97917000Y-112776000D01*
X97917000Y-112776000D02*
X97663000Y-112776000D01*
X97663000Y-112776000D02*
X97663000Y-112776000D01*
X97663000Y-112776000D02*
X97663000Y-112776000D01*
X105664000Y-109220000D02*
X105664000Y-105791000D01*
X105664000Y-105791000D02*
X97663000Y-105791000D01*
X97663000Y-105791000D02*
X97663000Y-112776000D01*
X105664000Y-97028000D02*
X105664000Y-97028000D01*
X105664000Y-96901000D02*
X105664000Y-97028000D01*
X105664000Y-97028000D02*
X105664000Y-96901000D01*
X99441000Y-103886000D02*
X105664000Y-103886000D01*
X105664000Y-103886000D02*
X105664000Y-100330000D01*
X99441000Y-103886000D02*
X97917000Y-103886000D01*
X97917000Y-103886000D02*
X97917000Y-103886000D01*
X97917000Y-103886000D02*
X97917000Y-103886000D01*
X97917000Y-103886000D02*
X97663000Y-103886000D01*
X97663000Y-103886000D02*
X97663000Y-103886000D01*
X97663000Y-103886000D02*
X97663000Y-103886000D01*
X105664000Y-100330000D02*
X105664000Y-96901000D01*
X105664000Y-96901000D02*
X97663000Y-96901000D01*
X97663000Y-96901000D02*
X97663000Y-103886000D01*
X105664000Y-88138000D02*
X105664000Y-88138000D01*
X105664000Y-88011000D02*
X105664000Y-88138000D01*
X105664000Y-88138000D02*
X105664000Y-88011000D01*
X99441000Y-94996000D02*
X105664000Y-94996000D01*
X105664000Y-94996000D02*
X105664000Y-91440000D01*
X99441000Y-94996000D02*
X97917000Y-94996000D01*
X97917000Y-94996000D02*
X97917000Y-94996000D01*
X97917000Y-94996000D02*
X97917000Y-94996000D01*
X97917000Y-94996000D02*
X97663000Y-94996000D01*
X97663000Y-94996000D02*
X97663000Y-94996000D01*
X97663000Y-94996000D02*
X97663000Y-94996000D01*
X105664000Y-91440000D02*
X105664000Y-88011000D01*
X105664000Y-88011000D02*
X97663000Y-88011000D01*
X97663000Y-88011000D02*
X97663000Y-94996000D01*
X105664000Y-79248000D02*
X105664000Y-79248000D01*
X105664000Y-79121000D02*
X105664000Y-79248000D01*
X105664000Y-79248000D02*
X105664000Y-79121000D01*
X99441000Y-86106000D02*
X105664000Y-86106000D01*
X105664000Y-86106000D02*
X105664000Y-82550000D01*
X99441000Y-86106000D02*
X97917000Y-86106000D01*
X97917000Y-86106000D02*
X97917000Y-86106000D01*
X97917000Y-86106000D02*
X97917000Y-86106000D01*
X97917000Y-86106000D02*
X97663000Y-86106000D01*
X97663000Y-86106000D02*
X97663000Y-86106000D01*
X97663000Y-86106000D02*
X97663000Y-86106000D01*
X105664000Y-82550000D02*
X105664000Y-79121000D01*
X105664000Y-79121000D02*
X97663000Y-79121000D01*
X97663000Y-79121000D02*
X97663000Y-86106000D01*
X114030000Y-115375000D02*
X112030000Y-115375000D01*
X112030000Y-113225000D02*
X114030000Y-113225000D01*
X114030000Y-112835000D02*
X112030000Y-112835000D01*
X112030000Y-110685000D02*
X114030000Y-110685000D01*
X114030000Y-110295000D02*
X112030000Y-110295000D01*
X112030000Y-108145000D02*
X114030000Y-108145000D01*
X114030000Y-107755000D02*
X112030000Y-107755000D01*
X112030000Y-105605000D02*
X114030000Y-105605000D01*
X114030000Y-105215000D02*
X112030000Y-105215000D01*
X112030000Y-103065000D02*
X114030000Y-103065000D01*
X114030000Y-102675000D02*
X112030000Y-102675000D01*
X112030000Y-100525000D02*
X114030000Y-100525000D01*
X114030000Y-100135000D02*
X112030000Y-100135000D01*
X112030000Y-97985000D02*
X114030000Y-97985000D01*
X118745000Y-116840000D02*
X120015000Y-116840000D01*
X120015000Y-116840000D02*
X120015000Y-119380000D01*
X120015000Y-119380000D02*
X118745000Y-119380000D01*
X118745000Y-115570000D02*
X128905000Y-115570000D01*
X128905000Y-115570000D02*
X128905000Y-120650000D01*
X128905000Y-120650000D02*
X118745000Y-120650000D01*
X118745000Y-120650000D02*
X118745000Y-115570000D01*
X127365000Y-112200000D02*
X125365000Y-112200000D01*
X125365000Y-110050000D02*
X127365000Y-110050000D01*
X117915000Y-121555000D02*
X117915000Y-123555000D01*
X115765000Y-123555000D02*
X115765000Y-121555000D01*
X131640000Y-119745000D02*
X131640000Y-117745000D01*
X133790000Y-117745000D02*
X133790000Y-119745000D01*
X136330000Y-117745000D02*
X136330000Y-119745000D01*
X134180000Y-119745000D02*
X134180000Y-117745000D01*
X165930000Y-114665000D02*
X165930000Y-112665000D01*
X168080000Y-112665000D02*
X168080000Y-114665000D01*
X161925000Y-91440000D02*
X161925000Y-83820000D01*
X161925000Y-83820000D02*
X156845000Y-83820000D01*
X156845000Y-83820000D02*
X156845000Y-93980000D01*
X156845000Y-93980000D02*
X159385000Y-93980000D01*
X161925000Y-93980000D02*
X161925000Y-91440000D01*
X159385000Y-93980000D02*
X159385000Y-91440000D01*
X159385000Y-91440000D02*
X161925000Y-91440000D01*
X161925000Y-93980000D02*
X159385000Y-93980000D01*
X158115000Y-109855000D02*
X158115000Y-111125000D01*
X158115000Y-111125000D02*
X155575000Y-111125000D01*
X155575000Y-111125000D02*
X155575000Y-109855000D01*
X159385000Y-109855000D02*
X159385000Y-120015000D01*
X159385000Y-120015000D02*
X154305000Y-120015000D01*
X154305000Y-120015000D02*
X154305000Y-109855000D01*
X154305000Y-109855000D02*
X159385000Y-109855000D01*
X152670000Y-106875000D02*
X154670000Y-106875000D01*
X154670000Y-109025000D02*
X152670000Y-109025000D01*
X162120000Y-118475000D02*
X162120000Y-116475000D01*
X164270000Y-116475000D02*
X164270000Y-118475000D01*
X174244000Y-112395000D02*
X171704000Y-109855000D01*
X174244000Y-109855000D02*
X171704000Y-112395000D01*
X174371000Y-110998000D02*
X180213000Y-110998000D01*
X180213000Y-110998000D02*
X180213000Y-111252000D01*
X180213000Y-111252000D02*
X174371000Y-111252000D01*
X174371000Y-111252000D02*
X174371000Y-111125000D01*
X174371000Y-111125000D02*
X180213000Y-111125000D01*
X171704000Y-110871000D02*
X171323000Y-110871000D01*
X171704000Y-111379000D02*
X171323000Y-111379000D01*
X171704000Y-113411000D02*
X171323000Y-113411000D01*
X171704000Y-113919000D02*
X171323000Y-113919000D01*
X171704000Y-115951000D02*
X171323000Y-115951000D01*
X171704000Y-116459000D02*
X171323000Y-116459000D01*
X174244000Y-112395000D02*
X174244000Y-109855000D01*
X180340000Y-111379000D02*
X174244000Y-111379000D01*
X180340000Y-110871000D02*
X180340000Y-111379000D01*
X174244000Y-110871000D02*
X180340000Y-110871000D01*
X171704000Y-112395000D02*
X174244000Y-112395000D01*
X171704000Y-109855000D02*
X171704000Y-112395000D01*
X171704000Y-109855000D02*
X174244000Y-109855000D01*
X171704000Y-114935000D02*
X174244000Y-114935000D01*
X171704000Y-114935000D02*
X171704000Y-117475000D01*
X174244000Y-115951000D02*
X180340000Y-115951000D01*
X180340000Y-115951000D02*
X180340000Y-116459000D01*
X180340000Y-116459000D02*
X174244000Y-116459000D01*
X174244000Y-117475000D02*
X174244000Y-114935000D01*
X174244000Y-114935000D02*
X174244000Y-112395000D01*
X180340000Y-113919000D02*
X174244000Y-113919000D01*
X180340000Y-113411000D02*
X180340000Y-113919000D01*
X174244000Y-113411000D02*
X180340000Y-113411000D01*
X171704000Y-114935000D02*
X174244000Y-114935000D01*
X171704000Y-112395000D02*
X171704000Y-114935000D01*
X171704000Y-112395000D02*
X174244000Y-112395000D01*
X171704000Y-117475000D02*
X174244000Y-117475000D01*
X151570000Y-115205000D02*
X151570000Y-117205000D01*
X149420000Y-117205000D02*
X149420000Y-115205000D01*
X162120000Y-124190000D02*
X162120000Y-122190000D01*
X164270000Y-122190000D02*
X164270000Y-124190000D01*
X168880000Y-81635000D02*
X168880000Y-83185000D01*
X170180000Y-81635000D02*
X168880000Y-81635000D01*
X174371000Y-83058000D02*
X180213000Y-83058000D01*
X180213000Y-83058000D02*
X180213000Y-83312000D01*
X180213000Y-83312000D02*
X174371000Y-83312000D01*
X174371000Y-83312000D02*
X174371000Y-83185000D01*
X174371000Y-83185000D02*
X180213000Y-83185000D01*
X171704000Y-82931000D02*
X171323000Y-82931000D01*
X171704000Y-83439000D02*
X171323000Y-83439000D01*
X171704000Y-85471000D02*
X171323000Y-85471000D01*
X171704000Y-85979000D02*
X171323000Y-85979000D01*
X171704000Y-88011000D02*
X171323000Y-88011000D01*
X171704000Y-88519000D02*
X171323000Y-88519000D01*
X174244000Y-84455000D02*
X174244000Y-81915000D01*
X180340000Y-83439000D02*
X174244000Y-83439000D01*
X180340000Y-82931000D02*
X180340000Y-83439000D01*
X174244000Y-82931000D02*
X180340000Y-82931000D01*
X171704000Y-84455000D02*
X174244000Y-84455000D01*
X171704000Y-81915000D02*
X171704000Y-84455000D01*
X171704000Y-81915000D02*
X174244000Y-81915000D01*
X171704000Y-86995000D02*
X174244000Y-86995000D01*
X171704000Y-86995000D02*
X171704000Y-89535000D01*
X174244000Y-88011000D02*
X180340000Y-88011000D01*
X180340000Y-88011000D02*
X180340000Y-88519000D01*
X180340000Y-88519000D02*
X174244000Y-88519000D01*
X174244000Y-89535000D02*
X174244000Y-86995000D01*
X174244000Y-86995000D02*
X174244000Y-84455000D01*
X180340000Y-85979000D02*
X174244000Y-85979000D01*
X180340000Y-85471000D02*
X180340000Y-85979000D01*
X174244000Y-85471000D02*
X180340000Y-85471000D01*
X171704000Y-86995000D02*
X174244000Y-86995000D01*
X171704000Y-84455000D02*
X171704000Y-86995000D01*
X171704000Y-84455000D02*
X174244000Y-84455000D01*
X171704000Y-89535000D02*
X174244000Y-89535000D01*
X130810000Y-94970000D02*
X132360000Y-94970000D01*
X132360000Y-96520000D02*
X132360000Y-94970000D01*
X129540000Y-95250000D02*
X129540000Y-97790000D01*
X129540000Y-97790000D02*
X132080000Y-97790000D01*
X132080000Y-97790000D02*
X132080000Y-100330000D01*
X132080000Y-100330000D02*
X127000000Y-100330000D01*
X127000000Y-100330000D02*
X127000000Y-95250000D01*
X127000000Y-95250000D02*
X129540000Y-95250000D01*
X163830000Y-93345000D02*
X163830000Y-100965000D01*
X166370000Y-93345000D02*
X166370000Y-100965000D01*
X166650000Y-90525000D02*
X166650000Y-92075000D01*
X163830000Y-100965000D02*
X166370000Y-100965000D01*
X166370000Y-93345000D02*
X163830000Y-93345000D01*
X163550000Y-92075000D02*
X163550000Y-90525000D01*
X163550000Y-90525000D02*
X166650000Y-90525000D01*
X129540000Y-86360000D02*
X127000000Y-86360000D01*
X132360000Y-86640000D02*
X130810000Y-86640000D01*
X129540000Y-86360000D02*
X129540000Y-83820000D01*
X130810000Y-83540000D02*
X132360000Y-83540000D01*
X132360000Y-83540000D02*
X132360000Y-86640000D01*
X129540000Y-83820000D02*
X127000000Y-83820000D01*
X127000000Y-83820000D02*
X127000000Y-86360000D01*
X106950000Y-73855000D02*
X108950000Y-73855000D01*
X108950000Y-76005000D02*
X106950000Y-76005000D01*
X98060000Y-76395000D02*
X100060000Y-76395000D01*
X100060000Y-78545000D02*
X98060000Y-78545000D01*
X98060000Y-73855000D02*
X100060000Y-73855000D01*
X100060000Y-76005000D02*
X98060000Y-76005000D01*
X170450000Y-89730000D02*
X172450000Y-89730000D01*
X172450000Y-91880000D02*
X170450000Y-91880000D01*
X91577160Y-82250280D02*
X91577160Y-81925160D01*
X91577160Y-81925160D02*
X91076780Y-81925160D01*
X91076780Y-82250280D02*
X91076780Y-81925160D01*
X91577160Y-82250280D02*
X91076780Y-82250280D01*
X91577160Y-82872580D02*
X91577160Y-82722720D01*
X91577160Y-82722720D02*
X91325700Y-82722720D01*
X91325700Y-82872580D02*
X91325700Y-82722720D01*
X91577160Y-82872580D02*
X91325700Y-82872580D01*
X91577160Y-82377280D02*
X91577160Y-82227420D01*
X91577160Y-82227420D02*
X91325700Y-82227420D01*
X91325700Y-82377280D02*
X91325700Y-82227420D01*
X91577160Y-82377280D02*
X91325700Y-82377280D01*
X91577160Y-82748120D02*
X91577160Y-82351880D01*
X91577160Y-82351880D02*
X91401900Y-82351880D01*
X91401900Y-82748120D02*
X91401900Y-82351880D01*
X91577160Y-82748120D02*
X91401900Y-82748120D01*
X93073220Y-82250280D02*
X93073220Y-81925160D01*
X93073220Y-81925160D02*
X92572840Y-81925160D01*
X92572840Y-82250280D02*
X92572840Y-81925160D01*
X93073220Y-82250280D02*
X92572840Y-82250280D01*
X93073220Y-83174840D02*
X93073220Y-82849720D01*
X93073220Y-82849720D02*
X92572840Y-82849720D01*
X92572840Y-83174840D02*
X92572840Y-82849720D01*
X93073220Y-83174840D02*
X92572840Y-83174840D01*
X92824300Y-82377280D02*
X92824300Y-82227420D01*
X92824300Y-82227420D02*
X92572840Y-82227420D01*
X92572840Y-82377280D02*
X92572840Y-82227420D01*
X92824300Y-82377280D02*
X92572840Y-82377280D01*
X92824300Y-82872580D02*
X92824300Y-82722720D01*
X92824300Y-82722720D02*
X92572840Y-82722720D01*
X92572840Y-82872580D02*
X92572840Y-82722720D01*
X92824300Y-82872580D02*
X92572840Y-82872580D01*
X92748100Y-82748120D02*
X92748100Y-82351880D01*
X92748100Y-82351880D02*
X92572840Y-82351880D01*
X92572840Y-82748120D02*
X92572840Y-82351880D01*
X92748100Y-82748120D02*
X92572840Y-82748120D01*
X92075000Y-82649060D02*
X92075000Y-82450940D01*
X92075000Y-82450940D02*
X91876880Y-82450940D01*
X91876880Y-82649060D02*
X91876880Y-82450940D01*
X92075000Y-82649060D02*
X91876880Y-82649060D01*
X91577160Y-83149440D02*
X91577160Y-82849720D01*
X91577160Y-82849720D02*
X91277440Y-82849720D01*
X91277440Y-83149440D02*
X91277440Y-82849720D01*
X91577160Y-83149440D02*
X91277440Y-83149440D01*
X91150440Y-83174840D02*
X91150440Y-82948780D01*
X91150440Y-82948780D02*
X91076780Y-82948780D01*
X91076780Y-83174840D02*
X91076780Y-82948780D01*
X91150440Y-83174840D02*
X91076780Y-83174840D01*
X91551760Y-81975960D02*
X92598240Y-81975960D01*
X92572840Y-83124040D02*
X91150440Y-83124040D01*
X91298482Y-82999580D02*
G75*
G03X91298482Y-82999580I-71842J0D01*
G01*
X91076780Y-82897980D02*
G75*
G03X91076780Y-82202020I0J347980D01*
G01*
X93073220Y-82202020D02*
G75*
G03X93073220Y-82897980I0J-347980D01*
G01*
X168880000Y-100685000D02*
X168880000Y-102235000D01*
X170180000Y-100685000D02*
X168880000Y-100685000D01*
X174371000Y-102108000D02*
X180213000Y-102108000D01*
X180213000Y-102108000D02*
X180213000Y-102362000D01*
X180213000Y-102362000D02*
X174371000Y-102362000D01*
X174371000Y-102362000D02*
X174371000Y-102235000D01*
X174371000Y-102235000D02*
X180213000Y-102235000D01*
X171704000Y-101981000D02*
X171323000Y-101981000D01*
X171704000Y-102489000D02*
X171323000Y-102489000D01*
X171704000Y-104521000D02*
X171323000Y-104521000D01*
X171704000Y-105029000D02*
X171323000Y-105029000D01*
X171704000Y-107061000D02*
X171323000Y-107061000D01*
X171704000Y-107569000D02*
X171323000Y-107569000D01*
X174244000Y-103505000D02*
X174244000Y-100965000D01*
X180340000Y-102489000D02*
X174244000Y-102489000D01*
X180340000Y-101981000D02*
X180340000Y-102489000D01*
X174244000Y-101981000D02*
X180340000Y-101981000D01*
X171704000Y-103505000D02*
X174244000Y-103505000D01*
X171704000Y-100965000D02*
X171704000Y-103505000D01*
X171704000Y-100965000D02*
X174244000Y-100965000D01*
X171704000Y-106045000D02*
X174244000Y-106045000D01*
X171704000Y-106045000D02*
X171704000Y-108585000D01*
X174244000Y-107061000D02*
X180340000Y-107061000D01*
X180340000Y-107061000D02*
X180340000Y-107569000D01*
X180340000Y-107569000D02*
X174244000Y-107569000D01*
X174244000Y-108585000D02*
X174244000Y-106045000D01*
X174244000Y-106045000D02*
X174244000Y-103505000D01*
X180340000Y-105029000D02*
X174244000Y-105029000D01*
X180340000Y-104521000D02*
X180340000Y-105029000D01*
X174244000Y-104521000D02*
X180340000Y-104521000D01*
X171704000Y-106045000D02*
X174244000Y-106045000D01*
X171704000Y-103505000D02*
X171704000Y-106045000D01*
X171704000Y-103505000D02*
X174244000Y-103505000D01*
X171704000Y-108585000D02*
X174244000Y-108585000D01*
X168880000Y-91795000D02*
X168880000Y-93345000D01*
X170180000Y-91795000D02*
X168880000Y-91795000D01*
X174371000Y-93218000D02*
X180213000Y-93218000D01*
X180213000Y-93218000D02*
X180213000Y-93472000D01*
X180213000Y-93472000D02*
X174371000Y-93472000D01*
X174371000Y-93472000D02*
X174371000Y-93345000D01*
X174371000Y-93345000D02*
X180213000Y-93345000D01*
X171704000Y-93091000D02*
X171323000Y-93091000D01*
X171704000Y-93599000D02*
X171323000Y-93599000D01*
X171704000Y-95631000D02*
X171323000Y-95631000D01*
X171704000Y-96139000D02*
X171323000Y-96139000D01*
X171704000Y-98171000D02*
X171323000Y-98171000D01*
X171704000Y-98679000D02*
X171323000Y-98679000D01*
X174244000Y-94615000D02*
X174244000Y-92075000D01*
X180340000Y-93599000D02*
X174244000Y-93599000D01*
X180340000Y-93091000D02*
X180340000Y-93599000D01*
X174244000Y-93091000D02*
X180340000Y-93091000D01*
X171704000Y-94615000D02*
X174244000Y-94615000D01*
X171704000Y-92075000D02*
X171704000Y-94615000D01*
X171704000Y-92075000D02*
X174244000Y-92075000D01*
X171704000Y-97155000D02*
X174244000Y-97155000D01*
X171704000Y-97155000D02*
X171704000Y-99695000D01*
X174244000Y-98171000D02*
X180340000Y-98171000D01*
X180340000Y-98171000D02*
X180340000Y-98679000D01*
X180340000Y-98679000D02*
X174244000Y-98679000D01*
X174244000Y-99695000D02*
X174244000Y-97155000D01*
X174244000Y-97155000D02*
X174244000Y-94615000D01*
X180340000Y-96139000D02*
X174244000Y-96139000D01*
X180340000Y-95631000D02*
X180340000Y-96139000D01*
X174244000Y-95631000D02*
X180340000Y-95631000D01*
X171704000Y-97155000D02*
X174244000Y-97155000D01*
X171704000Y-94615000D02*
X171704000Y-97155000D01*
X171704000Y-94615000D02*
X174244000Y-94615000D01*
X171704000Y-99695000D02*
X174244000Y-99695000D01*
X91577160Y-75900280D02*
X91577160Y-75575160D01*
X91577160Y-75575160D02*
X91076780Y-75575160D01*
X91076780Y-75900280D02*
X91076780Y-75575160D01*
X91577160Y-75900280D02*
X91076780Y-75900280D01*
X91577160Y-76522580D02*
X91577160Y-76372720D01*
X91577160Y-76372720D02*
X91325700Y-76372720D01*
X91325700Y-76522580D02*
X91325700Y-76372720D01*
X91577160Y-76522580D02*
X91325700Y-76522580D01*
X91577160Y-76027280D02*
X91577160Y-75877420D01*
X91577160Y-75877420D02*
X91325700Y-75877420D01*
X91325700Y-76027280D02*
X91325700Y-75877420D01*
X91577160Y-76027280D02*
X91325700Y-76027280D01*
X91577160Y-76398120D02*
X91577160Y-76001880D01*
X91577160Y-76001880D02*
X91401900Y-76001880D01*
X91401900Y-76398120D02*
X91401900Y-76001880D01*
X91577160Y-76398120D02*
X91401900Y-76398120D01*
X93073220Y-75900280D02*
X93073220Y-75575160D01*
X93073220Y-75575160D02*
X92572840Y-75575160D01*
X92572840Y-75900280D02*
X92572840Y-75575160D01*
X93073220Y-75900280D02*
X92572840Y-75900280D01*
X93073220Y-76824840D02*
X93073220Y-76499720D01*
X93073220Y-76499720D02*
X92572840Y-76499720D01*
X92572840Y-76824840D02*
X92572840Y-76499720D01*
X93073220Y-76824840D02*
X92572840Y-76824840D01*
X92824300Y-76027280D02*
X92824300Y-75877420D01*
X92824300Y-75877420D02*
X92572840Y-75877420D01*
X92572840Y-76027280D02*
X92572840Y-75877420D01*
X92824300Y-76027280D02*
X92572840Y-76027280D01*
X92824300Y-76522580D02*
X92824300Y-76372720D01*
X92824300Y-76372720D02*
X92572840Y-76372720D01*
X92572840Y-76522580D02*
X92572840Y-76372720D01*
X92824300Y-76522580D02*
X92572840Y-76522580D01*
X92748100Y-76398120D02*
X92748100Y-76001880D01*
X92748100Y-76001880D02*
X92572840Y-76001880D01*
X92572840Y-76398120D02*
X92572840Y-76001880D01*
X92748100Y-76398120D02*
X92572840Y-76398120D01*
X92075000Y-76299060D02*
X92075000Y-76100940D01*
X92075000Y-76100940D02*
X91876880Y-76100940D01*
X91876880Y-76299060D02*
X91876880Y-76100940D01*
X92075000Y-76299060D02*
X91876880Y-76299060D01*
X91577160Y-76799440D02*
X91577160Y-76499720D01*
X91577160Y-76499720D02*
X91277440Y-76499720D01*
X91277440Y-76799440D02*
X91277440Y-76499720D01*
X91577160Y-76799440D02*
X91277440Y-76799440D01*
X91150440Y-76824840D02*
X91150440Y-76598780D01*
X91150440Y-76598780D02*
X91076780Y-76598780D01*
X91076780Y-76824840D02*
X91076780Y-76598780D01*
X91150440Y-76824840D02*
X91076780Y-76824840D01*
X91551760Y-75625960D02*
X92598240Y-75625960D01*
X92572840Y-76774040D02*
X91150440Y-76774040D01*
X91298482Y-76649580D02*
G75*
G03X91298482Y-76649580I-71842J0D01*
G01*
X91076780Y-76547980D02*
G75*
G03X91076780Y-75852020I0J347980D01*
G01*
X93073220Y-75852020D02*
G75*
G03X93073220Y-76547980I0J-347980D01*
G01*
X91577160Y-79075280D02*
X91577160Y-78750160D01*
X91577160Y-78750160D02*
X91076780Y-78750160D01*
X91076780Y-79075280D02*
X91076780Y-78750160D01*
X91577160Y-79075280D02*
X91076780Y-79075280D01*
X91577160Y-79697580D02*
X91577160Y-79547720D01*
X91577160Y-79547720D02*
X91325700Y-79547720D01*
X91325700Y-79697580D02*
X91325700Y-79547720D01*
X91577160Y-79697580D02*
X91325700Y-79697580D01*
X91577160Y-79202280D02*
X91577160Y-79052420D01*
X91577160Y-79052420D02*
X91325700Y-79052420D01*
X91325700Y-79202280D02*
X91325700Y-79052420D01*
X91577160Y-79202280D02*
X91325700Y-79202280D01*
X91577160Y-79573120D02*
X91577160Y-79176880D01*
X91577160Y-79176880D02*
X91401900Y-79176880D01*
X91401900Y-79573120D02*
X91401900Y-79176880D01*
X91577160Y-79573120D02*
X91401900Y-79573120D01*
X93073220Y-79075280D02*
X93073220Y-78750160D01*
X93073220Y-78750160D02*
X92572840Y-78750160D01*
X92572840Y-79075280D02*
X92572840Y-78750160D01*
X93073220Y-79075280D02*
X92572840Y-79075280D01*
X93073220Y-79999840D02*
X93073220Y-79674720D01*
X93073220Y-79674720D02*
X92572840Y-79674720D01*
X92572840Y-79999840D02*
X92572840Y-79674720D01*
X93073220Y-79999840D02*
X92572840Y-79999840D01*
X92824300Y-79202280D02*
X92824300Y-79052420D01*
X92824300Y-79052420D02*
X92572840Y-79052420D01*
X92572840Y-79202280D02*
X92572840Y-79052420D01*
X92824300Y-79202280D02*
X92572840Y-79202280D01*
X92824300Y-79697580D02*
X92824300Y-79547720D01*
X92824300Y-79547720D02*
X92572840Y-79547720D01*
X92572840Y-79697580D02*
X92572840Y-79547720D01*
X92824300Y-79697580D02*
X92572840Y-79697580D01*
X92748100Y-79573120D02*
X92748100Y-79176880D01*
X92748100Y-79176880D02*
X92572840Y-79176880D01*
X92572840Y-79573120D02*
X92572840Y-79176880D01*
X92748100Y-79573120D02*
X92572840Y-79573120D01*
X92075000Y-79474060D02*
X92075000Y-79275940D01*
X92075000Y-79275940D02*
X91876880Y-79275940D01*
X91876880Y-79474060D02*
X91876880Y-79275940D01*
X92075000Y-79474060D02*
X91876880Y-79474060D01*
X91577160Y-79974440D02*
X91577160Y-79674720D01*
X91577160Y-79674720D02*
X91277440Y-79674720D01*
X91277440Y-79974440D02*
X91277440Y-79674720D01*
X91577160Y-79974440D02*
X91277440Y-79974440D01*
X91150440Y-79999840D02*
X91150440Y-79773780D01*
X91150440Y-79773780D02*
X91076780Y-79773780D01*
X91076780Y-79999840D02*
X91076780Y-79773780D01*
X91150440Y-79999840D02*
X91076780Y-79999840D01*
X91551760Y-78800960D02*
X92598240Y-78800960D01*
X92572840Y-79949040D02*
X91150440Y-79949040D01*
X91298482Y-79824580D02*
G75*
G03X91298482Y-79824580I-71842J0D01*
G01*
X91076780Y-79722980D02*
G75*
G03X91076780Y-79027020I0J347980D01*
G01*
X93073220Y-79027020D02*
G75*
G03X93073220Y-79722980I0J-347980D01*
G01*
X108204000Y-124460000D02*
X108204000Y-121920000D01*
X106426000Y-121920000D02*
X106426000Y-124460000D01*
X106426000Y-121920000D02*
X108204000Y-121920000D01*
X108204000Y-124460000D02*
X106426000Y-124460000D01*
X149420000Y-124190000D02*
X149420000Y-122190000D01*
X151570000Y-122190000D02*
X151570000Y-124190000D01*
X151960000Y-124190000D02*
X151960000Y-122190000D01*
X154110000Y-122190000D02*
X154110000Y-124190000D01*
X156650000Y-122190000D02*
X156650000Y-124190000D01*
X154500000Y-124190000D02*
X154500000Y-122190000D01*
X163560000Y-79620000D02*
X161560000Y-79620000D01*
X161560000Y-81670000D02*
X163560000Y-81670000D01*
X167903000Y-107680000D02*
X167903000Y-105680000D01*
X165853000Y-105680000D02*
X165853000Y-107680000D01*
X126120000Y-100695000D02*
X126120000Y-98695000D01*
X124070000Y-98695000D02*
X124070000Y-100695000D01*
X162569000Y-99552000D02*
X162569000Y-97552000D01*
X160519000Y-97552000D02*
X160519000Y-99552000D01*
X145025000Y-114316000D02*
X145025000Y-116316000D01*
X147075000Y-116316000D02*
X147075000Y-114316000D01*
X141970000Y-111370000D02*
X139970000Y-111370000D01*
X139970000Y-113420000D02*
X141970000Y-113420000D01*
D18*
X169875200Y-119075200D02*
X169875200Y-119684800D01*
X169875200Y-119684800D02*
X170484800Y-119684800D01*
X170484800Y-119075200D02*
X170484800Y-119684800D01*
X169875200Y-119075200D02*
X170484800Y-119075200D01*
X169875200Y-121615200D02*
X169875200Y-122224800D01*
X169875200Y-122224800D02*
X170484800Y-122224800D01*
X170484800Y-121615200D02*
X170484800Y-122224800D01*
X169875200Y-121615200D02*
X170484800Y-121615200D01*
X169875200Y-124155200D02*
X169875200Y-124764800D01*
X169875200Y-124764800D02*
X170484800Y-124764800D01*
X170484800Y-124155200D02*
X170484800Y-124764800D01*
X169875200Y-124155200D02*
X170484800Y-124155200D01*
X167335200Y-119075200D02*
X167335200Y-119684800D01*
X167335200Y-119684800D02*
X167944800Y-119684800D01*
X167944800Y-119075200D02*
X167944800Y-119684800D01*
X167335200Y-119075200D02*
X167944800Y-119075200D01*
X167335200Y-121615200D02*
X167335200Y-122224800D01*
X167335200Y-122224800D02*
X167944800Y-122224800D01*
X167944800Y-121615200D02*
X167944800Y-122224800D01*
X167335200Y-121615200D02*
X167944800Y-121615200D01*
X167335200Y-124155200D02*
X167335200Y-124764800D01*
X167335200Y-124764800D02*
X167944800Y-124764800D01*
X167944800Y-124155200D02*
X167944800Y-124764800D01*
X167335200Y-124155200D02*
X167944800Y-124155200D01*
D19*
X166751000Y-118110000D02*
X171069000Y-118110000D01*
X171450000Y-120269000D02*
X171069000Y-120650000D01*
X171069000Y-120650000D02*
X171450000Y-121031000D01*
X171450000Y-121031000D02*
X171450000Y-122809000D01*
X171069000Y-123190000D02*
X171450000Y-122809000D01*
X171069000Y-123190000D02*
X171450000Y-123571000D01*
X171450000Y-123571000D02*
X171450000Y-125349000D01*
X171069000Y-125730000D02*
X171450000Y-125349000D01*
X171069000Y-125730000D02*
X166751000Y-125730000D01*
X166370000Y-125349000D02*
X166751000Y-125730000D01*
X166370000Y-125349000D02*
X166370000Y-123571000D01*
X166751000Y-123190000D02*
X166370000Y-123571000D01*
X166751000Y-123190000D02*
X166370000Y-122809000D01*
X166370000Y-122809000D02*
X166370000Y-121031000D01*
X166751000Y-120650000D02*
X166370000Y-121031000D01*
X166751000Y-120650000D02*
X166370000Y-120269000D01*
X171069000Y-118110000D02*
X171450000Y-118491000D01*
X171450000Y-118491000D02*
X171450000Y-120269000D01*
X166751000Y-118110000D02*
X166370000Y-118491000D01*
X166370000Y-118491000D02*
X166370000Y-120269000D01*
D12*
X165363000Y-107680000D02*
X165363000Y-105680000D01*
X163313000Y-105680000D02*
X163313000Y-107680000D01*
X163592000Y-101795000D02*
X165592000Y-101795000D01*
X165592000Y-103945000D02*
X163592000Y-103945000D01*
D20*
X162859720Y-77304900D02*
X162859720Y-78905100D01*
X162958780Y-77304900D02*
X162958780Y-78905100D01*
X163060380Y-78905100D02*
X163060380Y-77304900D01*
X163159440Y-77304900D02*
X163159440Y-78905100D01*
X163261040Y-78905100D02*
X163261040Y-77304900D01*
X163860480Y-77304900D02*
X163860480Y-78854300D01*
X163758880Y-78905100D02*
X163758880Y-77304900D01*
X163659820Y-78905100D02*
X163659820Y-77304900D01*
X163560760Y-77304900D02*
X163560760Y-78905100D01*
X163459160Y-78905100D02*
X163459160Y-77304900D01*
X163360100Y-77304900D02*
X163360100Y-78905100D01*
X161211260Y-77304900D02*
X163908740Y-77304900D01*
X163908740Y-77304900D02*
X163908740Y-78905100D01*
X163908740Y-78905100D02*
X161211260Y-78905100D01*
X161211260Y-78905100D02*
X161211260Y-77304900D01*
X162859720Y-75399900D02*
X162859720Y-77000100D01*
X162958780Y-75399900D02*
X162958780Y-77000100D01*
X163060380Y-77000100D02*
X163060380Y-75399900D01*
X163159440Y-75399900D02*
X163159440Y-77000100D01*
X163261040Y-77000100D02*
X163261040Y-75399900D01*
X163860480Y-75399900D02*
X163860480Y-76949300D01*
X163758880Y-77000100D02*
X163758880Y-75399900D01*
X163659820Y-77000100D02*
X163659820Y-75399900D01*
X163560760Y-75399900D02*
X163560760Y-77000100D01*
X163459160Y-77000100D02*
X163459160Y-75399900D01*
X163360100Y-75399900D02*
X163360100Y-77000100D01*
X161211260Y-75399900D02*
X163908740Y-75399900D01*
X163908740Y-75399900D02*
X163908740Y-77000100D01*
X163908740Y-77000100D02*
X161211260Y-77000100D01*
X161211260Y-77000100D02*
X161211260Y-75399900D01*
D14*
X92075000Y-111760000D02*
X92075000Y-104140000D01*
X92075000Y-104140000D02*
X88773000Y-104140000D01*
X88773000Y-111760000D02*
X92075000Y-111760000D01*
X88775540Y-111760000D02*
X88775540Y-106680000D01*
D17*
X92075000Y-110490000D02*
X81280000Y-110490000D01*
X92075000Y-107950000D02*
X81280000Y-107950000D01*
D14*
X88773000Y-110490000D02*
X88773000Y-104140000D01*
D12*
X86741000Y-110490000D02*
X86725760Y-110490000D01*
D14*
X84838540Y-110490000D02*
X80645000Y-110490000D01*
X80645000Y-110490000D02*
X80645000Y-105410000D01*
X86725760Y-110490000D02*
X86725760Y-105410000D01*
X84838540Y-105410000D02*
X84838540Y-110490000D01*
D17*
X92075000Y-105410000D02*
X81280000Y-105410000D01*
D14*
X80645000Y-105410000D02*
X81915000Y-105410000D01*
X92075000Y-117475000D02*
X92075000Y-112395000D01*
X92075000Y-112395000D02*
X88773000Y-112395000D01*
X88773000Y-117475000D02*
X92075000Y-117475000D01*
D12*
X88775540Y-117475000D02*
X88775540Y-112395000D01*
D17*
X92075000Y-116205000D02*
X81280000Y-116205000D01*
X92075000Y-113665000D02*
X81280000Y-113665000D01*
D14*
X88773000Y-117475000D02*
X88773000Y-116205000D01*
X88773000Y-116205000D02*
X88773000Y-113665000D01*
X88773000Y-113665000D02*
X88773000Y-112395000D01*
X84838540Y-116205000D02*
X80645000Y-116205000D01*
X80645000Y-116205000D02*
X80645000Y-113665000D01*
X80645000Y-113665000D02*
X86741000Y-113665000D01*
X86725760Y-116205000D02*
X86725760Y-113665000D01*
X84838540Y-113665000D02*
X84838540Y-116205000D01*
X92075000Y-125730000D02*
X92075000Y-118110000D01*
X92075000Y-118110000D02*
X88773000Y-118110000D01*
X88773000Y-125730000D02*
X92075000Y-125730000D01*
X88775540Y-125730000D02*
X88775540Y-120650000D01*
D17*
X92075000Y-124460000D02*
X81280000Y-124460000D01*
X92075000Y-121920000D02*
X81280000Y-121920000D01*
D14*
X88773000Y-124460000D02*
X88773000Y-118110000D01*
D12*
X86741000Y-124460000D02*
X86725760Y-124460000D01*
D14*
X84838540Y-124460000D02*
X80645000Y-124460000D01*
X80645000Y-124460000D02*
X80645000Y-119380000D01*
X86725760Y-124460000D02*
X86725760Y-119380000D01*
X84838540Y-119380000D02*
X84838540Y-124460000D01*
D17*
X92075000Y-119380000D02*
X81280000Y-119380000D01*
D14*
X80645000Y-119380000D02*
X81915000Y-119380000D01*
D12*
X130302000Y-116586000D02*
X130302000Y-114808000D01*
X130302000Y-120650000D02*
X130302000Y-122428000D01*
X129286000Y-117094000D02*
X131318000Y-117094000D01*
X129286000Y-120650000D02*
X131318000Y-120650000D01*
X131318000Y-120650000D02*
X131318000Y-116586000D01*
X131318000Y-116586000D02*
X129286000Y-116586000D01*
X129286000Y-116586000D02*
X129286000Y-120650000D01*
X132630043Y-79756000D02*
G75*
G03X132630043Y-79756000I-3090043J0D01*
G01*
X158030043Y-77470000D02*
G75*
G03X158030043Y-77470000I-3090043J0D01*
G01*
X95165043Y-95885000D02*
G75*
G03X95165043Y-95885000I-3090043J0D01*
G01*
X132630043Y-104140000D02*
G75*
G03X132630043Y-104140000I-3090043J0D01*
G01*
X158030043Y-102235000D02*
G75*
G03X158030043Y-102235000I-3090043J0D01*
G01*
X125690381Y-82803905D02*
X126499905Y-82803905D01*
X126595143Y-82756286D01*
X126642762Y-82708667D01*
X126690381Y-82613429D01*
X126690381Y-82422952D01*
X126642762Y-82327714D01*
X126595143Y-82280095D01*
X126499905Y-82232476D01*
X125690381Y-82232476D01*
X125785619Y-81803905D02*
X125738000Y-81756286D01*
X125690381Y-81661048D01*
X125690381Y-81422952D01*
X125738000Y-81327714D01*
X125785619Y-81280095D01*
X125880857Y-81232476D01*
X125976095Y-81232476D01*
X126118952Y-81280095D01*
X126690381Y-81851524D01*
X126690381Y-81232476D01*
X126690381Y-93305048D02*
X125690381Y-93305048D01*
X126166571Y-93305048D02*
X126166571Y-92733619D01*
X126690381Y-92733619D02*
X125690381Y-92733619D01*
X126595143Y-91686000D02*
X126642762Y-91733619D01*
X126690381Y-91876476D01*
X126690381Y-91971714D01*
X126642762Y-92114572D01*
X126547524Y-92209810D01*
X126452286Y-92257429D01*
X126261810Y-92305048D01*
X126118952Y-92305048D01*
X125928476Y-92257429D01*
X125833238Y-92209810D01*
X125738000Y-92114572D01*
X125690381Y-91971714D01*
X125690381Y-91876476D01*
X125738000Y-91733619D01*
X125785619Y-91686000D01*
X126785619Y-91495524D02*
X126785619Y-90733619D01*
X125690381Y-90305048D02*
X125690381Y-90209809D01*
X125738000Y-90114571D01*
X125785619Y-90066952D01*
X125880857Y-90019333D01*
X126071333Y-89971714D01*
X126309429Y-89971714D01*
X126499905Y-90019333D01*
X126595143Y-90066952D01*
X126642762Y-90114571D01*
X126690381Y-90209809D01*
X126690381Y-90305048D01*
X126642762Y-90400286D01*
X126595143Y-90447905D01*
X126499905Y-90495524D01*
X126309429Y-90543143D01*
X126071333Y-90543143D01*
X125880857Y-90495524D01*
X125785619Y-90447905D01*
X125738000Y-90400286D01*
X125690381Y-90305048D01*
X125690381Y-89066952D02*
X125690381Y-89543143D01*
X126166571Y-89590762D01*
X126118952Y-89543143D01*
X126071333Y-89447905D01*
X126071333Y-89209809D01*
X126118952Y-89114571D01*
X126166571Y-89066952D01*
X126261810Y-89019333D01*
X126499905Y-89019333D01*
X126595143Y-89066952D01*
X126642762Y-89114571D01*
X126690381Y-89209809D01*
X126690381Y-89447905D01*
X126642762Y-89543143D01*
X126595143Y-89590762D01*
X131318095Y-74128381D02*
X131318095Y-74937905D01*
X131365714Y-75033143D01*
X131413333Y-75080762D01*
X131508571Y-75128381D01*
X131699048Y-75128381D01*
X131794286Y-75080762D01*
X131841905Y-75033143D01*
X131889524Y-74937905D01*
X131889524Y-74128381D01*
X132889524Y-75128381D02*
X132318095Y-75128381D01*
X132603809Y-75128381D02*
X132603809Y-74128381D01*
X132508571Y-74271238D01*
X132413333Y-74366476D01*
X132318095Y-74414095D01*
X96818524Y-124821905D02*
X96818524Y-124021905D01*
X97009000Y-124021905D01*
X97123286Y-124060000D01*
X97199477Y-124136190D01*
X97237572Y-124212381D01*
X97275667Y-124364762D01*
X97275667Y-124479048D01*
X97237572Y-124631429D01*
X97199477Y-124707619D01*
X97123286Y-124783810D01*
X97009000Y-124821905D01*
X96818524Y-124821905D01*
X97961381Y-124288571D02*
X97961381Y-124821905D01*
X97770905Y-123983810D02*
X97580429Y-124555238D01*
X98075667Y-124555238D01*
X98615714Y-123297905D02*
X98158571Y-123297905D01*
X98387142Y-123297905D02*
X98387142Y-122497905D01*
X98310952Y-122612190D01*
X98234761Y-122688381D01*
X98158571Y-122726476D01*
X98958571Y-123297905D02*
X98958571Y-122497905D01*
X99415714Y-123297905D01*
X99415714Y-122497905D01*
X100139523Y-122764571D02*
X100139523Y-123297905D01*
X99949047Y-122459810D02*
X99758571Y-123031238D01*
X100253809Y-123031238D01*
X100710952Y-122497905D02*
X100787143Y-122497905D01*
X100863333Y-122536000D01*
X100901428Y-122574095D01*
X100939524Y-122650286D01*
X100977619Y-122802667D01*
X100977619Y-122993143D01*
X100939524Y-123145524D01*
X100901428Y-123221714D01*
X100863333Y-123259810D01*
X100787143Y-123297905D01*
X100710952Y-123297905D01*
X100634762Y-123259810D01*
X100596666Y-123221714D01*
X100558571Y-123145524D01*
X100520476Y-122993143D01*
X100520476Y-122802667D01*
X100558571Y-122650286D01*
X100596666Y-122574095D01*
X100634762Y-122536000D01*
X100710952Y-122497905D01*
X101472857Y-122497905D02*
X101549048Y-122497905D01*
X101625238Y-122536000D01*
X101663333Y-122574095D01*
X101701429Y-122650286D01*
X101739524Y-122802667D01*
X101739524Y-122993143D01*
X101701429Y-123145524D01*
X101663333Y-123221714D01*
X101625238Y-123259810D01*
X101549048Y-123297905D01*
X101472857Y-123297905D01*
X101396667Y-123259810D01*
X101358571Y-123221714D01*
X101320476Y-123145524D01*
X101282381Y-122993143D01*
X101282381Y-122802667D01*
X101320476Y-122650286D01*
X101358571Y-122574095D01*
X101396667Y-122536000D01*
X101472857Y-122497905D01*
X102501429Y-123297905D02*
X102044286Y-123297905D01*
X102272857Y-123297905D02*
X102272857Y-122497905D01*
X102196667Y-122612190D01*
X102120476Y-122688381D01*
X102044286Y-122726476D01*
X89844571Y-85669333D02*
X89892190Y-85526476D01*
X89939810Y-85478857D01*
X90035048Y-85431238D01*
X90177905Y-85431238D01*
X90273143Y-85478857D01*
X90320762Y-85526476D01*
X90368381Y-85621714D01*
X90368381Y-86002667D01*
X89368381Y-86002667D01*
X89368381Y-85669333D01*
X89416000Y-85574095D01*
X89463619Y-85526476D01*
X89558857Y-85478857D01*
X89654095Y-85478857D01*
X89749333Y-85526476D01*
X89796952Y-85574095D01*
X89844571Y-85669333D01*
X89844571Y-86002667D01*
X90368381Y-84526476D02*
X90368381Y-85002667D01*
X89368381Y-85002667D01*
X90368381Y-83621714D02*
X89892190Y-83955048D01*
X90368381Y-84193143D02*
X89368381Y-84193143D01*
X89368381Y-83812190D01*
X89416000Y-83716952D01*
X89463619Y-83669333D01*
X89558857Y-83621714D01*
X89701714Y-83621714D01*
X89796952Y-83669333D01*
X89844571Y-83716952D01*
X89892190Y-83812190D01*
X89892190Y-84193143D01*
X157473714Y-120681714D02*
X157435619Y-120719810D01*
X157321333Y-120757905D01*
X157245143Y-120757905D01*
X157130857Y-120719810D01*
X157054666Y-120643619D01*
X157016571Y-120567429D01*
X156978476Y-120415048D01*
X156978476Y-120300762D01*
X157016571Y-120148381D01*
X157054666Y-120072190D01*
X157130857Y-119996000D01*
X157245143Y-119957905D01*
X157321333Y-119957905D01*
X157435619Y-119996000D01*
X157473714Y-120034095D01*
X157740381Y-119957905D02*
X158235619Y-119957905D01*
X157968952Y-120262667D01*
X158083238Y-120262667D01*
X158159428Y-120300762D01*
X158197524Y-120338857D01*
X158235619Y-120415048D01*
X158235619Y-120605524D01*
X158197524Y-120681714D01*
X158159428Y-120719810D01*
X158083238Y-120757905D01*
X157854666Y-120757905D01*
X157778476Y-120719810D01*
X157740381Y-120681714D01*
X158540381Y-120034095D02*
X158578476Y-119996000D01*
X158654667Y-119957905D01*
X158845143Y-119957905D01*
X158921333Y-119996000D01*
X158959429Y-120034095D01*
X158997524Y-120110286D01*
X158997524Y-120186476D01*
X158959429Y-120300762D01*
X158502286Y-120757905D01*
X158997524Y-120757905D01*
X159594571Y-124370952D02*
X160127905Y-124370952D01*
X159289810Y-124561428D02*
X159861238Y-124751904D01*
X159861238Y-124256666D01*
X160051714Y-123951904D02*
X160089810Y-123913809D01*
X160127905Y-123951904D01*
X160089810Y-123989999D01*
X160051714Y-123951904D01*
X160127905Y-123951904D01*
X159327905Y-123647142D02*
X159327905Y-123113809D01*
X160127905Y-123456666D01*
X159594571Y-122809047D02*
X160394571Y-122809047D01*
X160013619Y-122428094D02*
X160089810Y-122389999D01*
X160127905Y-122313809D01*
X160013619Y-122809047D02*
X160089810Y-122770952D01*
X160127905Y-122694761D01*
X160127905Y-122542380D01*
X160089810Y-122466190D01*
X160013619Y-122428094D01*
X159594571Y-122428094D01*
X159708857Y-121704285D02*
X159708857Y-121970952D01*
X160127905Y-121970952D02*
X159327905Y-121970952D01*
X159327905Y-121589999D01*
X165806381Y-85391239D02*
X164806381Y-85391239D01*
X165520667Y-85057905D01*
X164806381Y-84724572D01*
X165806381Y-84724572D01*
X165806381Y-84105525D02*
X165758762Y-84200763D01*
X165711143Y-84248382D01*
X165615905Y-84296001D01*
X165330190Y-84296001D01*
X165234952Y-84248382D01*
X165187333Y-84200763D01*
X165139714Y-84105525D01*
X165139714Y-83962667D01*
X165187333Y-83867429D01*
X165234952Y-83819810D01*
X165330190Y-83772191D01*
X165615905Y-83772191D01*
X165711143Y-83819810D01*
X165758762Y-83867429D01*
X165806381Y-83962667D01*
X165806381Y-84105525D01*
X165139714Y-83486477D02*
X165139714Y-83105525D01*
X164806381Y-83343620D02*
X165663524Y-83343620D01*
X165758762Y-83296001D01*
X165806381Y-83200763D01*
X165806381Y-83105525D01*
X165806381Y-82629334D02*
X165758762Y-82724572D01*
X165711143Y-82772191D01*
X165615905Y-82819810D01*
X165330190Y-82819810D01*
X165234952Y-82772191D01*
X165187333Y-82724572D01*
X165139714Y-82629334D01*
X165139714Y-82486476D01*
X165187333Y-82391238D01*
X165234952Y-82343619D01*
X165330190Y-82296000D01*
X165615905Y-82296000D01*
X165711143Y-82343619D01*
X165758762Y-82391238D01*
X165806381Y-82486476D01*
X165806381Y-82629334D01*
X165806381Y-81867429D02*
X165139714Y-81867429D01*
X165330190Y-81867429D02*
X165234952Y-81819810D01*
X165187333Y-81772191D01*
X165139714Y-81676953D01*
X165139714Y-81581714D01*
X164806381Y-81057905D02*
X164806381Y-80867428D01*
X164854000Y-80772190D01*
X164949238Y-80676952D01*
X165139714Y-80629333D01*
X165473048Y-80629333D01*
X165663524Y-80676952D01*
X165758762Y-80772190D01*
X165806381Y-80867428D01*
X165806381Y-81057905D01*
X165758762Y-81153143D01*
X165663524Y-81248381D01*
X165473048Y-81296000D01*
X165139714Y-81296000D01*
X164949238Y-81248381D01*
X164854000Y-81153143D01*
X164806381Y-81057905D01*
X165139714Y-80200762D02*
X166139714Y-80200762D01*
X165187333Y-80200762D02*
X165139714Y-80105524D01*
X165139714Y-79915047D01*
X165187333Y-79819809D01*
X165234952Y-79772190D01*
X165330190Y-79724571D01*
X165615905Y-79724571D01*
X165711143Y-79772190D01*
X165758762Y-79819809D01*
X165806381Y-79915047D01*
X165806381Y-80105524D01*
X165758762Y-80200762D01*
X165139714Y-79438857D02*
X165139714Y-79057905D01*
X164806381Y-79296000D02*
X165663524Y-79296000D01*
X165758762Y-79248381D01*
X165806381Y-79153143D01*
X165806381Y-79057905D01*
X139192095Y-116800381D02*
X139192095Y-117609905D01*
X139239714Y-117705143D01*
X139287333Y-117752762D01*
X139382571Y-117800381D01*
X139573048Y-117800381D01*
X139668286Y-117752762D01*
X139715905Y-117705143D01*
X139763524Y-117609905D01*
X139763524Y-116800381D01*
X140715905Y-116800381D02*
X140239714Y-116800381D01*
X140192095Y-117276571D01*
X140239714Y-117228952D01*
X140334952Y-117181333D01*
X140573048Y-117181333D01*
X140668286Y-117228952D01*
X140715905Y-117276571D01*
X140763524Y-117371810D01*
X140763524Y-117609905D01*
X140715905Y-117705143D01*
X140668286Y-117752762D01*
X140573048Y-117800381D01*
X140334952Y-117800381D01*
X140239714Y-117752762D01*
X140192095Y-117705143D01*
X139732286Y-119070381D02*
X139256095Y-119070381D01*
X139256095Y-118070381D01*
X140637048Y-118975143D02*
X140589429Y-119022762D01*
X140446572Y-119070381D01*
X140351334Y-119070381D01*
X140208476Y-119022762D01*
X140113238Y-118927524D01*
X140065619Y-118832286D01*
X140018000Y-118641810D01*
X140018000Y-118498952D01*
X140065619Y-118308476D01*
X140113238Y-118213238D01*
X140208476Y-118118000D01*
X140351334Y-118070381D01*
X140446572Y-118070381D01*
X140589429Y-118118000D01*
X140637048Y-118165619D01*
X140970381Y-118070381D02*
X141637048Y-118070381D01*
X141208476Y-119070381D01*
X142160857Y-118498952D02*
X142065619Y-118451333D01*
X142018000Y-118403714D01*
X141970381Y-118308476D01*
X141970381Y-118260857D01*
X142018000Y-118165619D01*
X142065619Y-118118000D01*
X142160857Y-118070381D01*
X142351334Y-118070381D01*
X142446572Y-118118000D01*
X142494191Y-118165619D01*
X142541810Y-118260857D01*
X142541810Y-118308476D01*
X142494191Y-118403714D01*
X142446572Y-118451333D01*
X142351334Y-118498952D01*
X142160857Y-118498952D01*
X142065619Y-118546571D01*
X142018000Y-118594190D01*
X141970381Y-118689429D01*
X141970381Y-118879905D01*
X142018000Y-118975143D01*
X142065619Y-119022762D01*
X142160857Y-119070381D01*
X142351334Y-119070381D01*
X142446572Y-119022762D01*
X142494191Y-118975143D01*
X142541810Y-118879905D01*
X142541810Y-118689429D01*
X142494191Y-118594190D01*
X142446572Y-118546571D01*
X142351334Y-118498952D01*
X142732286Y-119165619D02*
X143494191Y-119165619D01*
X143922762Y-118070381D02*
X144018001Y-118070381D01*
X144113239Y-118118000D01*
X144160858Y-118165619D01*
X144208477Y-118260857D01*
X144256096Y-118451333D01*
X144256096Y-118689429D01*
X144208477Y-118879905D01*
X144160858Y-118975143D01*
X144113239Y-119022762D01*
X144018001Y-119070381D01*
X143922762Y-119070381D01*
X143827524Y-119022762D01*
X143779905Y-118975143D01*
X143732286Y-118879905D01*
X143684667Y-118689429D01*
X143684667Y-118451333D01*
X143732286Y-118260857D01*
X143779905Y-118165619D01*
X143827524Y-118118000D01*
X143922762Y-118070381D01*
X144589429Y-118070381D02*
X145208477Y-118070381D01*
X144875143Y-118451333D01*
X145018001Y-118451333D01*
X145113239Y-118498952D01*
X145160858Y-118546571D01*
X145208477Y-118641810D01*
X145208477Y-118879905D01*
X145160858Y-118975143D01*
X145113239Y-119022762D01*
X145018001Y-119070381D01*
X144732286Y-119070381D01*
X144637048Y-119022762D01*
X144589429Y-118975143D01*
X145637048Y-118689429D02*
X146398953Y-118689429D01*
X147398953Y-119070381D02*
X146827524Y-119070381D01*
X147113238Y-119070381D02*
X147113238Y-118070381D01*
X147018000Y-118213238D01*
X146922762Y-118308476D01*
X146827524Y-118356095D01*
X147827524Y-118975143D02*
X147875143Y-119022762D01*
X147827524Y-119070381D01*
X147779905Y-119022762D01*
X147827524Y-118975143D01*
X147827524Y-119070381D01*
X148494190Y-118070381D02*
X148589429Y-118070381D01*
X148684667Y-118118000D01*
X148732286Y-118165619D01*
X148779905Y-118260857D01*
X148827524Y-118451333D01*
X148827524Y-118689429D01*
X148779905Y-118879905D01*
X148732286Y-118975143D01*
X148684667Y-119022762D01*
X148589429Y-119070381D01*
X148494190Y-119070381D01*
X148398952Y-119022762D01*
X148351333Y-118975143D01*
X148303714Y-118879905D01*
X148256095Y-118689429D01*
X148256095Y-118451333D01*
X148303714Y-118260857D01*
X148351333Y-118165619D01*
X148398952Y-118118000D01*
X148494190Y-118070381D01*
X164600000Y-114990476D02*
X164552381Y-115085714D01*
X164552381Y-115228571D01*
X164600000Y-115371429D01*
X164695238Y-115466667D01*
X164790476Y-115514286D01*
X164980952Y-115561905D01*
X165123810Y-115561905D01*
X165314286Y-115514286D01*
X165409524Y-115466667D01*
X165504762Y-115371429D01*
X165552381Y-115228571D01*
X165552381Y-115133333D01*
X165504762Y-114990476D01*
X165457143Y-114942857D01*
X165123810Y-114942857D01*
X165123810Y-115133333D01*
X165504762Y-114561905D02*
X165552381Y-114419048D01*
X165552381Y-114180952D01*
X165504762Y-114085714D01*
X165457143Y-114038095D01*
X165361905Y-113990476D01*
X165266667Y-113990476D01*
X165171429Y-114038095D01*
X165123810Y-114085714D01*
X165076190Y-114180952D01*
X165028571Y-114371429D01*
X164980952Y-114466667D01*
X164933333Y-114514286D01*
X164838095Y-114561905D01*
X164742857Y-114561905D01*
X164647619Y-114514286D01*
X164600000Y-114466667D01*
X164552381Y-114371429D01*
X164552381Y-114133333D01*
X164600000Y-113990476D01*
X164647619Y-113609524D02*
X164600000Y-113561905D01*
X164552381Y-113466667D01*
X164552381Y-113228571D01*
X164600000Y-113133333D01*
X164647619Y-113085714D01*
X164742857Y-113038095D01*
X164838095Y-113038095D01*
X164980952Y-113085714D01*
X165552381Y-113657143D01*
X165552381Y-113038095D01*
X109688334Y-122372381D02*
X109355000Y-121896190D01*
X109116905Y-122372381D02*
X109116905Y-121372381D01*
X109497858Y-121372381D01*
X109593096Y-121420000D01*
X109640715Y-121467619D01*
X109688334Y-121562857D01*
X109688334Y-121705714D01*
X109640715Y-121800952D01*
X109593096Y-121848571D01*
X109497858Y-121896190D01*
X109116905Y-121896190D01*
X110640715Y-122372381D02*
X110069286Y-122372381D01*
X110355000Y-122372381D02*
X110355000Y-121372381D01*
X110259762Y-121515238D01*
X110164524Y-121610476D01*
X110069286Y-121658095D01*
X112910953Y-124404381D02*
X112339524Y-124404381D01*
X112625238Y-124404381D02*
X112625238Y-123404381D01*
X112530000Y-123547238D01*
X112434762Y-123642476D01*
X112339524Y-123690095D01*
X113339524Y-124404381D02*
X113339524Y-123404381D01*
X113434762Y-124023429D02*
X113720477Y-124404381D01*
X113720477Y-123737714D02*
X113339524Y-124118667D01*
X105223559Y-118205238D02*
X105175940Y-118300476D01*
X105080702Y-118395714D01*
X104937845Y-118538571D01*
X104890226Y-118633810D01*
X104890226Y-118729048D01*
X105128321Y-118681429D02*
X105080702Y-118776667D01*
X104985464Y-118871905D01*
X104794988Y-118919524D01*
X104461654Y-118919524D01*
X104271178Y-118871905D01*
X104175940Y-118776667D01*
X104128321Y-118681429D01*
X104128321Y-118490952D01*
X104175940Y-118395714D01*
X104271178Y-118300476D01*
X104461654Y-118252857D01*
X104794988Y-118252857D01*
X104985464Y-118300476D01*
X105080702Y-118395714D01*
X105128321Y-118490952D01*
X105128321Y-118681429D01*
X105128321Y-117300476D02*
X105128321Y-117871905D01*
X105128321Y-117586191D02*
X104128321Y-117586191D01*
X104271178Y-117681429D01*
X104366416Y-117776667D01*
X104414035Y-117871905D01*
X96972381Y-121589429D02*
X95972381Y-121589429D01*
X96972381Y-120751334D02*
X96496190Y-121018001D01*
X96972381Y-121208477D02*
X95972381Y-121208477D01*
X95972381Y-120903715D01*
X96020000Y-120827524D01*
X96067619Y-120789429D01*
X96162857Y-120751334D01*
X96305714Y-120751334D01*
X96400952Y-120789429D01*
X96448571Y-120827524D01*
X96496190Y-120903715D01*
X96496190Y-121208477D01*
X96972381Y-120027524D02*
X96972381Y-120408477D01*
X95972381Y-120408477D01*
X96972381Y-119303715D02*
X96496190Y-119570382D01*
X96972381Y-119760858D02*
X95972381Y-119760858D01*
X95972381Y-119456096D01*
X96020000Y-119379905D01*
X96067619Y-119341810D01*
X96162857Y-119303715D01*
X96305714Y-119303715D01*
X96400952Y-119341810D01*
X96448571Y-119379905D01*
X96496190Y-119456096D01*
X96496190Y-119760858D01*
X96067619Y-118998953D02*
X96020000Y-118960858D01*
X95972381Y-118884667D01*
X95972381Y-118694191D01*
X96020000Y-118618001D01*
X96067619Y-118579905D01*
X96162857Y-118541810D01*
X96258095Y-118541810D01*
X96400952Y-118579905D01*
X96972381Y-119037048D01*
X96972381Y-118541810D01*
X96972381Y-118160858D02*
X96972381Y-118008477D01*
X96924762Y-117932286D01*
X96877143Y-117894191D01*
X96734286Y-117818000D01*
X96543810Y-117779905D01*
X96162857Y-117779905D01*
X96067619Y-117818000D01*
X96020000Y-117856096D01*
X95972381Y-117932286D01*
X95972381Y-118084667D01*
X96020000Y-118160858D01*
X96067619Y-118198953D01*
X96162857Y-118237048D01*
X96400952Y-118237048D01*
X96496190Y-118198953D01*
X96543810Y-118160858D01*
X96591429Y-118084667D01*
X96591429Y-117932286D01*
X96543810Y-117856096D01*
X96496190Y-117818000D01*
X96400952Y-117779905D01*
X95972381Y-117284667D02*
X95972381Y-117208476D01*
X96020000Y-117132286D01*
X96067619Y-117094191D01*
X96162857Y-117056095D01*
X96353333Y-117018000D01*
X96591429Y-117018000D01*
X96781905Y-117056095D01*
X96877143Y-117094191D01*
X96924762Y-117132286D01*
X96972381Y-117208476D01*
X96972381Y-117284667D01*
X96924762Y-117360857D01*
X96877143Y-117398953D01*
X96781905Y-117437048D01*
X96591429Y-117475143D01*
X96353333Y-117475143D01*
X96162857Y-117437048D01*
X96067619Y-117398953D01*
X96020000Y-117360857D01*
X95972381Y-117284667D01*
X95972381Y-116294190D02*
X95972381Y-116675143D01*
X96448571Y-116713238D01*
X96400952Y-116675143D01*
X96353333Y-116598952D01*
X96353333Y-116408476D01*
X96400952Y-116332286D01*
X96448571Y-116294190D01*
X96543810Y-116256095D01*
X96781905Y-116256095D01*
X96877143Y-116294190D01*
X96924762Y-116332286D01*
X96972381Y-116408476D01*
X96972381Y-116598952D01*
X96924762Y-116675143D01*
X96877143Y-116713238D01*
X96305714Y-115989428D02*
X96305714Y-115570381D01*
X96972381Y-115989428D01*
X96972381Y-115570381D01*
X109688334Y-119832381D02*
X109355000Y-119356190D01*
X109116905Y-119832381D02*
X109116905Y-118832381D01*
X109497858Y-118832381D01*
X109593096Y-118880000D01*
X109640715Y-118927619D01*
X109688334Y-119022857D01*
X109688334Y-119165714D01*
X109640715Y-119260952D01*
X109593096Y-119308571D01*
X109497858Y-119356190D01*
X109116905Y-119356190D01*
X110069286Y-118927619D02*
X110116905Y-118880000D01*
X110212143Y-118832381D01*
X110450239Y-118832381D01*
X110545477Y-118880000D01*
X110593096Y-118927619D01*
X110640715Y-119022857D01*
X110640715Y-119118095D01*
X110593096Y-119260952D01*
X110021667Y-119832381D01*
X110640715Y-119832381D01*
X116244762Y-119832381D02*
X115673333Y-119832381D01*
X115959047Y-119832381D02*
X115959047Y-118832381D01*
X115863809Y-118975238D01*
X115768571Y-119070476D01*
X115673333Y-119118095D01*
X116863809Y-118832381D02*
X116959048Y-118832381D01*
X117054286Y-118880000D01*
X117101905Y-118927619D01*
X117149524Y-119022857D01*
X117197143Y-119213333D01*
X117197143Y-119451429D01*
X117149524Y-119641905D01*
X117101905Y-119737143D01*
X117054286Y-119784762D01*
X116959048Y-119832381D01*
X116863809Y-119832381D01*
X116768571Y-119784762D01*
X116720952Y-119737143D01*
X116673333Y-119641905D01*
X116625714Y-119451429D01*
X116625714Y-119213333D01*
X116673333Y-119022857D01*
X116720952Y-118927619D01*
X116768571Y-118880000D01*
X116863809Y-118832381D01*
X117625714Y-119832381D02*
X117625714Y-118832381D01*
X117720952Y-119451429D02*
X118006667Y-119832381D01*
X118006667Y-119165714D02*
X117625714Y-119546667D01*
X109688334Y-117292381D02*
X109355000Y-116816190D01*
X109116905Y-117292381D02*
X109116905Y-116292381D01*
X109497858Y-116292381D01*
X109593096Y-116340000D01*
X109640715Y-116387619D01*
X109688334Y-116482857D01*
X109688334Y-116625714D01*
X109640715Y-116720952D01*
X109593096Y-116768571D01*
X109497858Y-116816190D01*
X109116905Y-116816190D01*
X110021667Y-116292381D02*
X110640715Y-116292381D01*
X110307381Y-116673333D01*
X110450239Y-116673333D01*
X110545477Y-116720952D01*
X110593096Y-116768571D01*
X110640715Y-116863810D01*
X110640715Y-117101905D01*
X110593096Y-117197143D01*
X110545477Y-117244762D01*
X110450239Y-117292381D01*
X110164524Y-117292381D01*
X110069286Y-117244762D01*
X110021667Y-117197143D01*
X117355953Y-117292381D02*
X116784524Y-117292381D01*
X117070238Y-117292381D02*
X117070238Y-116292381D01*
X116975000Y-116435238D01*
X116879762Y-116530476D01*
X116784524Y-116578095D01*
X117784524Y-117292381D02*
X117784524Y-116292381D01*
X117879762Y-116911429D02*
X118165477Y-117292381D01*
X118165477Y-116625714D02*
X117784524Y-117006667D01*
X105223559Y-109315238D02*
X105175940Y-109410476D01*
X105080702Y-109505714D01*
X104937845Y-109648571D01*
X104890226Y-109743810D01*
X104890226Y-109839048D01*
X105128321Y-109791429D02*
X105080702Y-109886667D01*
X104985464Y-109981905D01*
X104794988Y-110029524D01*
X104461654Y-110029524D01*
X104271178Y-109981905D01*
X104175940Y-109886667D01*
X104128321Y-109791429D01*
X104128321Y-109600952D01*
X104175940Y-109505714D01*
X104271178Y-109410476D01*
X104461654Y-109362857D01*
X104794988Y-109362857D01*
X104985464Y-109410476D01*
X105080702Y-109505714D01*
X105128321Y-109600952D01*
X105128321Y-109791429D01*
X104223559Y-108981905D02*
X104175940Y-108934286D01*
X104128321Y-108839048D01*
X104128321Y-108600952D01*
X104175940Y-108505714D01*
X104223559Y-108458095D01*
X104318797Y-108410476D01*
X104414035Y-108410476D01*
X104556892Y-108458095D01*
X105128321Y-109029524D01*
X105128321Y-108410476D01*
X96972381Y-112699429D02*
X95972381Y-112699429D01*
X96972381Y-111861334D02*
X96496190Y-112128001D01*
X96972381Y-112318477D02*
X95972381Y-112318477D01*
X95972381Y-112013715D01*
X96020000Y-111937524D01*
X96067619Y-111899429D01*
X96162857Y-111861334D01*
X96305714Y-111861334D01*
X96400952Y-111899429D01*
X96448571Y-111937524D01*
X96496190Y-112013715D01*
X96496190Y-112318477D01*
X96972381Y-111137524D02*
X96972381Y-111518477D01*
X95972381Y-111518477D01*
X96972381Y-110413715D02*
X96496190Y-110680382D01*
X96972381Y-110870858D02*
X95972381Y-110870858D01*
X95972381Y-110566096D01*
X96020000Y-110489905D01*
X96067619Y-110451810D01*
X96162857Y-110413715D01*
X96305714Y-110413715D01*
X96400952Y-110451810D01*
X96448571Y-110489905D01*
X96496190Y-110566096D01*
X96496190Y-110870858D01*
X96067619Y-110108953D02*
X96020000Y-110070858D01*
X95972381Y-109994667D01*
X95972381Y-109804191D01*
X96020000Y-109728001D01*
X96067619Y-109689905D01*
X96162857Y-109651810D01*
X96258095Y-109651810D01*
X96400952Y-109689905D01*
X96972381Y-110147048D01*
X96972381Y-109651810D01*
X96972381Y-109270858D02*
X96972381Y-109118477D01*
X96924762Y-109042286D01*
X96877143Y-109004191D01*
X96734286Y-108928000D01*
X96543810Y-108889905D01*
X96162857Y-108889905D01*
X96067619Y-108928000D01*
X96020000Y-108966096D01*
X95972381Y-109042286D01*
X95972381Y-109194667D01*
X96020000Y-109270858D01*
X96067619Y-109308953D01*
X96162857Y-109347048D01*
X96400952Y-109347048D01*
X96496190Y-109308953D01*
X96543810Y-109270858D01*
X96591429Y-109194667D01*
X96591429Y-109042286D01*
X96543810Y-108966096D01*
X96496190Y-108928000D01*
X96400952Y-108889905D01*
X95972381Y-108394667D02*
X95972381Y-108318476D01*
X96020000Y-108242286D01*
X96067619Y-108204191D01*
X96162857Y-108166095D01*
X96353333Y-108128000D01*
X96591429Y-108128000D01*
X96781905Y-108166095D01*
X96877143Y-108204191D01*
X96924762Y-108242286D01*
X96972381Y-108318476D01*
X96972381Y-108394667D01*
X96924762Y-108470857D01*
X96877143Y-108508953D01*
X96781905Y-108547048D01*
X96591429Y-108585143D01*
X96353333Y-108585143D01*
X96162857Y-108547048D01*
X96067619Y-108508953D01*
X96020000Y-108470857D01*
X95972381Y-108394667D01*
X95972381Y-107404190D02*
X95972381Y-107785143D01*
X96448571Y-107823238D01*
X96400952Y-107785143D01*
X96353333Y-107708952D01*
X96353333Y-107518476D01*
X96400952Y-107442286D01*
X96448571Y-107404190D01*
X96543810Y-107366095D01*
X96781905Y-107366095D01*
X96877143Y-107404190D01*
X96924762Y-107442286D01*
X96972381Y-107518476D01*
X96972381Y-107708952D01*
X96924762Y-107785143D01*
X96877143Y-107823238D01*
X96305714Y-107099428D02*
X96305714Y-106680381D01*
X96972381Y-107099428D01*
X96972381Y-106680381D01*
X105223559Y-100425238D02*
X105175940Y-100520476D01*
X105080702Y-100615714D01*
X104937845Y-100758571D01*
X104890226Y-100853810D01*
X104890226Y-100949048D01*
X105128321Y-100901429D02*
X105080702Y-100996667D01*
X104985464Y-101091905D01*
X104794988Y-101139524D01*
X104461654Y-101139524D01*
X104271178Y-101091905D01*
X104175940Y-100996667D01*
X104128321Y-100901429D01*
X104128321Y-100710952D01*
X104175940Y-100615714D01*
X104271178Y-100520476D01*
X104461654Y-100472857D01*
X104794988Y-100472857D01*
X104985464Y-100520476D01*
X105080702Y-100615714D01*
X105128321Y-100710952D01*
X105128321Y-100901429D01*
X104128321Y-100139524D02*
X104128321Y-99520476D01*
X104509273Y-99853810D01*
X104509273Y-99710952D01*
X104556892Y-99615714D01*
X104604511Y-99568095D01*
X104699750Y-99520476D01*
X104937845Y-99520476D01*
X105033083Y-99568095D01*
X105080702Y-99615714D01*
X105128321Y-99710952D01*
X105128321Y-99996667D01*
X105080702Y-100091905D01*
X105033083Y-100139524D01*
X96972381Y-103809429D02*
X95972381Y-103809429D01*
X96972381Y-102971334D02*
X96496190Y-103238001D01*
X96972381Y-103428477D02*
X95972381Y-103428477D01*
X95972381Y-103123715D01*
X96020000Y-103047524D01*
X96067619Y-103009429D01*
X96162857Y-102971334D01*
X96305714Y-102971334D01*
X96400952Y-103009429D01*
X96448571Y-103047524D01*
X96496190Y-103123715D01*
X96496190Y-103428477D01*
X96972381Y-102247524D02*
X96972381Y-102628477D01*
X95972381Y-102628477D01*
X96972381Y-101523715D02*
X96496190Y-101790382D01*
X96972381Y-101980858D02*
X95972381Y-101980858D01*
X95972381Y-101676096D01*
X96020000Y-101599905D01*
X96067619Y-101561810D01*
X96162857Y-101523715D01*
X96305714Y-101523715D01*
X96400952Y-101561810D01*
X96448571Y-101599905D01*
X96496190Y-101676096D01*
X96496190Y-101980858D01*
X96067619Y-101218953D02*
X96020000Y-101180858D01*
X95972381Y-101104667D01*
X95972381Y-100914191D01*
X96020000Y-100838001D01*
X96067619Y-100799905D01*
X96162857Y-100761810D01*
X96258095Y-100761810D01*
X96400952Y-100799905D01*
X96972381Y-101257048D01*
X96972381Y-100761810D01*
X96972381Y-100380858D02*
X96972381Y-100228477D01*
X96924762Y-100152286D01*
X96877143Y-100114191D01*
X96734286Y-100038000D01*
X96543810Y-99999905D01*
X96162857Y-99999905D01*
X96067619Y-100038000D01*
X96020000Y-100076096D01*
X95972381Y-100152286D01*
X95972381Y-100304667D01*
X96020000Y-100380858D01*
X96067619Y-100418953D01*
X96162857Y-100457048D01*
X96400952Y-100457048D01*
X96496190Y-100418953D01*
X96543810Y-100380858D01*
X96591429Y-100304667D01*
X96591429Y-100152286D01*
X96543810Y-100076096D01*
X96496190Y-100038000D01*
X96400952Y-99999905D01*
X95972381Y-99504667D02*
X95972381Y-99428476D01*
X96020000Y-99352286D01*
X96067619Y-99314191D01*
X96162857Y-99276095D01*
X96353333Y-99238000D01*
X96591429Y-99238000D01*
X96781905Y-99276095D01*
X96877143Y-99314191D01*
X96924762Y-99352286D01*
X96972381Y-99428476D01*
X96972381Y-99504667D01*
X96924762Y-99580857D01*
X96877143Y-99618953D01*
X96781905Y-99657048D01*
X96591429Y-99695143D01*
X96353333Y-99695143D01*
X96162857Y-99657048D01*
X96067619Y-99618953D01*
X96020000Y-99580857D01*
X95972381Y-99504667D01*
X95972381Y-98514190D02*
X95972381Y-98895143D01*
X96448571Y-98933238D01*
X96400952Y-98895143D01*
X96353333Y-98818952D01*
X96353333Y-98628476D01*
X96400952Y-98552286D01*
X96448571Y-98514190D01*
X96543810Y-98476095D01*
X96781905Y-98476095D01*
X96877143Y-98514190D01*
X96924762Y-98552286D01*
X96972381Y-98628476D01*
X96972381Y-98818952D01*
X96924762Y-98895143D01*
X96877143Y-98933238D01*
X96305714Y-98209428D02*
X96305714Y-97790381D01*
X96972381Y-98209428D01*
X96972381Y-97790381D01*
X105223559Y-91535238D02*
X105175940Y-91630476D01*
X105080702Y-91725714D01*
X104937845Y-91868571D01*
X104890226Y-91963810D01*
X104890226Y-92059048D01*
X105128321Y-92011429D02*
X105080702Y-92106667D01*
X104985464Y-92201905D01*
X104794988Y-92249524D01*
X104461654Y-92249524D01*
X104271178Y-92201905D01*
X104175940Y-92106667D01*
X104128321Y-92011429D01*
X104128321Y-91820952D01*
X104175940Y-91725714D01*
X104271178Y-91630476D01*
X104461654Y-91582857D01*
X104794988Y-91582857D01*
X104985464Y-91630476D01*
X105080702Y-91725714D01*
X105128321Y-91820952D01*
X105128321Y-92011429D01*
X104461654Y-90725714D02*
X105128321Y-90725714D01*
X104080702Y-90963810D02*
X104794988Y-91201905D01*
X104794988Y-90582857D01*
X96972381Y-95173429D02*
X95972381Y-95173429D01*
X96972381Y-94335334D02*
X96496190Y-94602001D01*
X96972381Y-94792477D02*
X95972381Y-94792477D01*
X95972381Y-94487715D01*
X96020000Y-94411524D01*
X96067619Y-94373429D01*
X96162857Y-94335334D01*
X96305714Y-94335334D01*
X96400952Y-94373429D01*
X96448571Y-94411524D01*
X96496190Y-94487715D01*
X96496190Y-94792477D01*
X96972381Y-93611524D02*
X96972381Y-93992477D01*
X95972381Y-93992477D01*
X96972381Y-92887715D02*
X96496190Y-93154382D01*
X96972381Y-93344858D02*
X95972381Y-93344858D01*
X95972381Y-93040096D01*
X96020000Y-92963905D01*
X96067619Y-92925810D01*
X96162857Y-92887715D01*
X96305714Y-92887715D01*
X96400952Y-92925810D01*
X96448571Y-92963905D01*
X96496190Y-93040096D01*
X96496190Y-93344858D01*
X96067619Y-92582953D02*
X96020000Y-92544858D01*
X95972381Y-92468667D01*
X95972381Y-92278191D01*
X96020000Y-92202001D01*
X96067619Y-92163905D01*
X96162857Y-92125810D01*
X96258095Y-92125810D01*
X96400952Y-92163905D01*
X96972381Y-92621048D01*
X96972381Y-92125810D01*
X96972381Y-91744858D02*
X96972381Y-91592477D01*
X96924762Y-91516286D01*
X96877143Y-91478191D01*
X96734286Y-91402000D01*
X96543810Y-91363905D01*
X96162857Y-91363905D01*
X96067619Y-91402000D01*
X96020000Y-91440096D01*
X95972381Y-91516286D01*
X95972381Y-91668667D01*
X96020000Y-91744858D01*
X96067619Y-91782953D01*
X96162857Y-91821048D01*
X96400952Y-91821048D01*
X96496190Y-91782953D01*
X96543810Y-91744858D01*
X96591429Y-91668667D01*
X96591429Y-91516286D01*
X96543810Y-91440096D01*
X96496190Y-91402000D01*
X96400952Y-91363905D01*
X95972381Y-90868667D02*
X95972381Y-90792476D01*
X96020000Y-90716286D01*
X96067619Y-90678191D01*
X96162857Y-90640095D01*
X96353333Y-90602000D01*
X96591429Y-90602000D01*
X96781905Y-90640095D01*
X96877143Y-90678191D01*
X96924762Y-90716286D01*
X96972381Y-90792476D01*
X96972381Y-90868667D01*
X96924762Y-90944857D01*
X96877143Y-90982953D01*
X96781905Y-91021048D01*
X96591429Y-91059143D01*
X96353333Y-91059143D01*
X96162857Y-91021048D01*
X96067619Y-90982953D01*
X96020000Y-90944857D01*
X95972381Y-90868667D01*
X95972381Y-89878190D02*
X95972381Y-90259143D01*
X96448571Y-90297238D01*
X96400952Y-90259143D01*
X96353333Y-90182952D01*
X96353333Y-89992476D01*
X96400952Y-89916286D01*
X96448571Y-89878190D01*
X96543810Y-89840095D01*
X96781905Y-89840095D01*
X96877143Y-89878190D01*
X96924762Y-89916286D01*
X96972381Y-89992476D01*
X96972381Y-90182952D01*
X96924762Y-90259143D01*
X96877143Y-90297238D01*
X96305714Y-89573428D02*
X96305714Y-89154381D01*
X96972381Y-89573428D01*
X96972381Y-89154381D01*
X105223559Y-82645238D02*
X105175940Y-82740476D01*
X105080702Y-82835714D01*
X104937845Y-82978571D01*
X104890226Y-83073810D01*
X104890226Y-83169048D01*
X105128321Y-83121429D02*
X105080702Y-83216667D01*
X104985464Y-83311905D01*
X104794988Y-83359524D01*
X104461654Y-83359524D01*
X104271178Y-83311905D01*
X104175940Y-83216667D01*
X104128321Y-83121429D01*
X104128321Y-82930952D01*
X104175940Y-82835714D01*
X104271178Y-82740476D01*
X104461654Y-82692857D01*
X104794988Y-82692857D01*
X104985464Y-82740476D01*
X105080702Y-82835714D01*
X105128321Y-82930952D01*
X105128321Y-83121429D01*
X104128321Y-81788095D02*
X104128321Y-82264286D01*
X104604511Y-82311905D01*
X104556892Y-82264286D01*
X104509273Y-82169048D01*
X104509273Y-81930952D01*
X104556892Y-81835714D01*
X104604511Y-81788095D01*
X104699750Y-81740476D01*
X104937845Y-81740476D01*
X105033083Y-81788095D01*
X105080702Y-81835714D01*
X105128321Y-81930952D01*
X105128321Y-82169048D01*
X105080702Y-82264286D01*
X105033083Y-82311905D01*
X96972381Y-86156429D02*
X95972381Y-86156429D01*
X96972381Y-85318334D02*
X96496190Y-85585001D01*
X96972381Y-85775477D02*
X95972381Y-85775477D01*
X95972381Y-85470715D01*
X96020000Y-85394524D01*
X96067619Y-85356429D01*
X96162857Y-85318334D01*
X96305714Y-85318334D01*
X96400952Y-85356429D01*
X96448571Y-85394524D01*
X96496190Y-85470715D01*
X96496190Y-85775477D01*
X96972381Y-84594524D02*
X96972381Y-84975477D01*
X95972381Y-84975477D01*
X96972381Y-83870715D02*
X96496190Y-84137382D01*
X96972381Y-84327858D02*
X95972381Y-84327858D01*
X95972381Y-84023096D01*
X96020000Y-83946905D01*
X96067619Y-83908810D01*
X96162857Y-83870715D01*
X96305714Y-83870715D01*
X96400952Y-83908810D01*
X96448571Y-83946905D01*
X96496190Y-84023096D01*
X96496190Y-84327858D01*
X96067619Y-83565953D02*
X96020000Y-83527858D01*
X95972381Y-83451667D01*
X95972381Y-83261191D01*
X96020000Y-83185001D01*
X96067619Y-83146905D01*
X96162857Y-83108810D01*
X96258095Y-83108810D01*
X96400952Y-83146905D01*
X96972381Y-83604048D01*
X96972381Y-83108810D01*
X96972381Y-82727858D02*
X96972381Y-82575477D01*
X96924762Y-82499286D01*
X96877143Y-82461191D01*
X96734286Y-82385000D01*
X96543810Y-82346905D01*
X96162857Y-82346905D01*
X96067619Y-82385000D01*
X96020000Y-82423096D01*
X95972381Y-82499286D01*
X95972381Y-82651667D01*
X96020000Y-82727858D01*
X96067619Y-82765953D01*
X96162857Y-82804048D01*
X96400952Y-82804048D01*
X96496190Y-82765953D01*
X96543810Y-82727858D01*
X96591429Y-82651667D01*
X96591429Y-82499286D01*
X96543810Y-82423096D01*
X96496190Y-82385000D01*
X96400952Y-82346905D01*
X95972381Y-81851667D02*
X95972381Y-81775476D01*
X96020000Y-81699286D01*
X96067619Y-81661191D01*
X96162857Y-81623095D01*
X96353333Y-81585000D01*
X96591429Y-81585000D01*
X96781905Y-81623095D01*
X96877143Y-81661191D01*
X96924762Y-81699286D01*
X96972381Y-81775476D01*
X96972381Y-81851667D01*
X96924762Y-81927857D01*
X96877143Y-81965953D01*
X96781905Y-82004048D01*
X96591429Y-82042143D01*
X96353333Y-82042143D01*
X96162857Y-82004048D01*
X96067619Y-81965953D01*
X96020000Y-81927857D01*
X95972381Y-81851667D01*
X95972381Y-80861190D02*
X95972381Y-81242143D01*
X96448571Y-81280238D01*
X96400952Y-81242143D01*
X96353333Y-81165952D01*
X96353333Y-80975476D01*
X96400952Y-80899286D01*
X96448571Y-80861190D01*
X96543810Y-80823095D01*
X96781905Y-80823095D01*
X96877143Y-80861190D01*
X96924762Y-80899286D01*
X96972381Y-80975476D01*
X96972381Y-81165952D01*
X96924762Y-81242143D01*
X96877143Y-81280238D01*
X96305714Y-80556428D02*
X96305714Y-80137381D01*
X96972381Y-80556428D01*
X96972381Y-80137381D01*
X109688334Y-114752381D02*
X109355000Y-114276190D01*
X109116905Y-114752381D02*
X109116905Y-113752381D01*
X109497858Y-113752381D01*
X109593096Y-113800000D01*
X109640715Y-113847619D01*
X109688334Y-113942857D01*
X109688334Y-114085714D01*
X109640715Y-114180952D01*
X109593096Y-114228571D01*
X109497858Y-114276190D01*
X109116905Y-114276190D01*
X110545477Y-114085714D02*
X110545477Y-114752381D01*
X110307381Y-113704762D02*
X110069286Y-114419048D01*
X110688334Y-114419048D01*
X116244762Y-114752381D02*
X115673333Y-114752381D01*
X115959047Y-114752381D02*
X115959047Y-113752381D01*
X115863809Y-113895238D01*
X115768571Y-113990476D01*
X115673333Y-114038095D01*
X116863809Y-113752381D02*
X116959048Y-113752381D01*
X117054286Y-113800000D01*
X117101905Y-113847619D01*
X117149524Y-113942857D01*
X117197143Y-114133333D01*
X117197143Y-114371429D01*
X117149524Y-114561905D01*
X117101905Y-114657143D01*
X117054286Y-114704762D01*
X116959048Y-114752381D01*
X116863809Y-114752381D01*
X116768571Y-114704762D01*
X116720952Y-114657143D01*
X116673333Y-114561905D01*
X116625714Y-114371429D01*
X116625714Y-114133333D01*
X116673333Y-113942857D01*
X116720952Y-113847619D01*
X116768571Y-113800000D01*
X116863809Y-113752381D01*
X117625714Y-114752381D02*
X117625714Y-113752381D01*
X117720952Y-114371429D02*
X118006667Y-114752381D01*
X118006667Y-114085714D02*
X117625714Y-114466667D01*
X109688334Y-112212381D02*
X109355000Y-111736190D01*
X109116905Y-112212381D02*
X109116905Y-111212381D01*
X109497858Y-111212381D01*
X109593096Y-111260000D01*
X109640715Y-111307619D01*
X109688334Y-111402857D01*
X109688334Y-111545714D01*
X109640715Y-111640952D01*
X109593096Y-111688571D01*
X109497858Y-111736190D01*
X109116905Y-111736190D01*
X110593096Y-111212381D02*
X110116905Y-111212381D01*
X110069286Y-111688571D01*
X110116905Y-111640952D01*
X110212143Y-111593333D01*
X110450239Y-111593333D01*
X110545477Y-111640952D01*
X110593096Y-111688571D01*
X110640715Y-111783810D01*
X110640715Y-112021905D01*
X110593096Y-112117143D01*
X110545477Y-112164762D01*
X110450239Y-112212381D01*
X110212143Y-112212381D01*
X110116905Y-112164762D01*
X110069286Y-112117143D01*
X117355953Y-112212381D02*
X116784524Y-112212381D01*
X117070238Y-112212381D02*
X117070238Y-111212381D01*
X116975000Y-111355238D01*
X116879762Y-111450476D01*
X116784524Y-111498095D01*
X117784524Y-112212381D02*
X117784524Y-111212381D01*
X117879762Y-111831429D02*
X118165477Y-112212381D01*
X118165477Y-111545714D02*
X117784524Y-111926667D01*
X109688334Y-109672381D02*
X109355000Y-109196190D01*
X109116905Y-109672381D02*
X109116905Y-108672381D01*
X109497858Y-108672381D01*
X109593096Y-108720000D01*
X109640715Y-108767619D01*
X109688334Y-108862857D01*
X109688334Y-109005714D01*
X109640715Y-109100952D01*
X109593096Y-109148571D01*
X109497858Y-109196190D01*
X109116905Y-109196190D01*
X110545477Y-108672381D02*
X110355000Y-108672381D01*
X110259762Y-108720000D01*
X110212143Y-108767619D01*
X110116905Y-108910476D01*
X110069286Y-109100952D01*
X110069286Y-109481905D01*
X110116905Y-109577143D01*
X110164524Y-109624762D01*
X110259762Y-109672381D01*
X110450239Y-109672381D01*
X110545477Y-109624762D01*
X110593096Y-109577143D01*
X110640715Y-109481905D01*
X110640715Y-109243810D01*
X110593096Y-109148571D01*
X110545477Y-109100952D01*
X110450239Y-109053333D01*
X110259762Y-109053333D01*
X110164524Y-109100952D01*
X110116905Y-109148571D01*
X110069286Y-109243810D01*
X116244762Y-109672381D02*
X115673333Y-109672381D01*
X115959047Y-109672381D02*
X115959047Y-108672381D01*
X115863809Y-108815238D01*
X115768571Y-108910476D01*
X115673333Y-108958095D01*
X116863809Y-108672381D02*
X116959048Y-108672381D01*
X117054286Y-108720000D01*
X117101905Y-108767619D01*
X117149524Y-108862857D01*
X117197143Y-109053333D01*
X117197143Y-109291429D01*
X117149524Y-109481905D01*
X117101905Y-109577143D01*
X117054286Y-109624762D01*
X116959048Y-109672381D01*
X116863809Y-109672381D01*
X116768571Y-109624762D01*
X116720952Y-109577143D01*
X116673333Y-109481905D01*
X116625714Y-109291429D01*
X116625714Y-109053333D01*
X116673333Y-108862857D01*
X116720952Y-108767619D01*
X116768571Y-108720000D01*
X116863809Y-108672381D01*
X117625714Y-109672381D02*
X117625714Y-108672381D01*
X117720952Y-109291429D02*
X118006667Y-109672381D01*
X118006667Y-109005714D02*
X117625714Y-109386667D01*
X109688334Y-107132381D02*
X109355000Y-106656190D01*
X109116905Y-107132381D02*
X109116905Y-106132381D01*
X109497858Y-106132381D01*
X109593096Y-106180000D01*
X109640715Y-106227619D01*
X109688334Y-106322857D01*
X109688334Y-106465714D01*
X109640715Y-106560952D01*
X109593096Y-106608571D01*
X109497858Y-106656190D01*
X109116905Y-106656190D01*
X110021667Y-106132381D02*
X110688334Y-106132381D01*
X110259762Y-107132381D01*
X117355953Y-107132381D02*
X116784524Y-107132381D01*
X117070238Y-107132381D02*
X117070238Y-106132381D01*
X116975000Y-106275238D01*
X116879762Y-106370476D01*
X116784524Y-106418095D01*
X117784524Y-107132381D02*
X117784524Y-106132381D01*
X117879762Y-106751429D02*
X118165477Y-107132381D01*
X118165477Y-106465714D02*
X117784524Y-106846667D01*
X109688334Y-104592381D02*
X109355000Y-104116190D01*
X109116905Y-104592381D02*
X109116905Y-103592381D01*
X109497858Y-103592381D01*
X109593096Y-103640000D01*
X109640715Y-103687619D01*
X109688334Y-103782857D01*
X109688334Y-103925714D01*
X109640715Y-104020952D01*
X109593096Y-104068571D01*
X109497858Y-104116190D01*
X109116905Y-104116190D01*
X110259762Y-104020952D02*
X110164524Y-103973333D01*
X110116905Y-103925714D01*
X110069286Y-103830476D01*
X110069286Y-103782857D01*
X110116905Y-103687619D01*
X110164524Y-103640000D01*
X110259762Y-103592381D01*
X110450239Y-103592381D01*
X110545477Y-103640000D01*
X110593096Y-103687619D01*
X110640715Y-103782857D01*
X110640715Y-103830476D01*
X110593096Y-103925714D01*
X110545477Y-103973333D01*
X110450239Y-104020952D01*
X110259762Y-104020952D01*
X110164524Y-104068571D01*
X110116905Y-104116190D01*
X110069286Y-104211429D01*
X110069286Y-104401905D01*
X110116905Y-104497143D01*
X110164524Y-104544762D01*
X110259762Y-104592381D01*
X110450239Y-104592381D01*
X110545477Y-104544762D01*
X110593096Y-104497143D01*
X110640715Y-104401905D01*
X110640715Y-104211429D01*
X110593096Y-104116190D01*
X110545477Y-104068571D01*
X110450239Y-104020952D01*
X116244762Y-104592381D02*
X115673333Y-104592381D01*
X115959047Y-104592381D02*
X115959047Y-103592381D01*
X115863809Y-103735238D01*
X115768571Y-103830476D01*
X115673333Y-103878095D01*
X116863809Y-103592381D02*
X116959048Y-103592381D01*
X117054286Y-103640000D01*
X117101905Y-103687619D01*
X117149524Y-103782857D01*
X117197143Y-103973333D01*
X117197143Y-104211429D01*
X117149524Y-104401905D01*
X117101905Y-104497143D01*
X117054286Y-104544762D01*
X116959048Y-104592381D01*
X116863809Y-104592381D01*
X116768571Y-104544762D01*
X116720952Y-104497143D01*
X116673333Y-104401905D01*
X116625714Y-104211429D01*
X116625714Y-103973333D01*
X116673333Y-103782857D01*
X116720952Y-103687619D01*
X116768571Y-103640000D01*
X116863809Y-103592381D01*
X117625714Y-104592381D02*
X117625714Y-103592381D01*
X117720952Y-104211429D02*
X118006667Y-104592381D01*
X118006667Y-103925714D02*
X117625714Y-104306667D01*
X109688334Y-102052381D02*
X109355000Y-101576190D01*
X109116905Y-102052381D02*
X109116905Y-101052381D01*
X109497858Y-101052381D01*
X109593096Y-101100000D01*
X109640715Y-101147619D01*
X109688334Y-101242857D01*
X109688334Y-101385714D01*
X109640715Y-101480952D01*
X109593096Y-101528571D01*
X109497858Y-101576190D01*
X109116905Y-101576190D01*
X110164524Y-102052381D02*
X110355000Y-102052381D01*
X110450239Y-102004762D01*
X110497858Y-101957143D01*
X110593096Y-101814286D01*
X110640715Y-101623810D01*
X110640715Y-101242857D01*
X110593096Y-101147619D01*
X110545477Y-101100000D01*
X110450239Y-101052381D01*
X110259762Y-101052381D01*
X110164524Y-101100000D01*
X110116905Y-101147619D01*
X110069286Y-101242857D01*
X110069286Y-101480952D01*
X110116905Y-101576190D01*
X110164524Y-101623810D01*
X110259762Y-101671429D01*
X110450239Y-101671429D01*
X110545477Y-101623810D01*
X110593096Y-101576190D01*
X110640715Y-101480952D01*
X117355953Y-102052381D02*
X116784524Y-102052381D01*
X117070238Y-102052381D02*
X117070238Y-101052381D01*
X116975000Y-101195238D01*
X116879762Y-101290476D01*
X116784524Y-101338095D01*
X117784524Y-102052381D02*
X117784524Y-101052381D01*
X117879762Y-101671429D02*
X118165477Y-102052381D01*
X118165477Y-101385714D02*
X117784524Y-101766667D01*
X108831143Y-100274381D02*
X108497809Y-99798190D01*
X108259714Y-100274381D02*
X108259714Y-99274381D01*
X108640667Y-99274381D01*
X108735905Y-99322000D01*
X108783524Y-99369619D01*
X108831143Y-99464857D01*
X108831143Y-99607714D01*
X108783524Y-99702952D01*
X108735905Y-99750571D01*
X108640667Y-99798190D01*
X108259714Y-99798190D01*
X109783524Y-100274381D02*
X109212095Y-100274381D01*
X109497809Y-100274381D02*
X109497809Y-99274381D01*
X109402571Y-99417238D01*
X109307333Y-99512476D01*
X109212095Y-99560095D01*
X110402571Y-99274381D02*
X110497810Y-99274381D01*
X110593048Y-99322000D01*
X110640667Y-99369619D01*
X110688286Y-99464857D01*
X110735905Y-99655333D01*
X110735905Y-99893429D01*
X110688286Y-100083905D01*
X110640667Y-100179143D01*
X110593048Y-100226762D01*
X110497810Y-100274381D01*
X110402571Y-100274381D01*
X110307333Y-100226762D01*
X110259714Y-100179143D01*
X110212095Y-100083905D01*
X110164476Y-99893429D01*
X110164476Y-99655333D01*
X110212095Y-99464857D01*
X110259714Y-99369619D01*
X110307333Y-99322000D01*
X110402571Y-99274381D01*
X116244762Y-99512381D02*
X115673333Y-99512381D01*
X115959047Y-99512381D02*
X115959047Y-98512381D01*
X115863809Y-98655238D01*
X115768571Y-98750476D01*
X115673333Y-98798095D01*
X116863809Y-98512381D02*
X116959048Y-98512381D01*
X117054286Y-98560000D01*
X117101905Y-98607619D01*
X117149524Y-98702857D01*
X117197143Y-98893333D01*
X117197143Y-99131429D01*
X117149524Y-99321905D01*
X117101905Y-99417143D01*
X117054286Y-99464762D01*
X116959048Y-99512381D01*
X116863809Y-99512381D01*
X116768571Y-99464762D01*
X116720952Y-99417143D01*
X116673333Y-99321905D01*
X116625714Y-99131429D01*
X116625714Y-98893333D01*
X116673333Y-98702857D01*
X116720952Y-98607619D01*
X116768571Y-98560000D01*
X116863809Y-98512381D01*
X117625714Y-99512381D02*
X117625714Y-98512381D01*
X117720952Y-99131429D02*
X118006667Y-99512381D01*
X118006667Y-98845714D02*
X117625714Y-99226667D01*
X119038810Y-112847381D02*
X119038810Y-111847381D01*
X120086429Y-112752143D02*
X120038810Y-112799762D01*
X119895953Y-112847381D01*
X119800715Y-112847381D01*
X119657857Y-112799762D01*
X119562619Y-112704524D01*
X119515000Y-112609286D01*
X119467381Y-112418810D01*
X119467381Y-112275952D01*
X119515000Y-112085476D01*
X119562619Y-111990238D01*
X119657857Y-111895000D01*
X119800715Y-111847381D01*
X119895953Y-111847381D01*
X120038810Y-111895000D01*
X120086429Y-111942619D01*
X121038810Y-112847381D02*
X120467381Y-112847381D01*
X120753095Y-112847381D02*
X120753095Y-111847381D01*
X120657857Y-111990238D01*
X120562619Y-112085476D01*
X120467381Y-112133095D01*
X121134524Y-118467143D02*
X121086905Y-118514762D01*
X120944048Y-118562381D01*
X120848810Y-118562381D01*
X120705952Y-118514762D01*
X120610714Y-118419524D01*
X120563095Y-118324286D01*
X120515476Y-118133810D01*
X120515476Y-117990952D01*
X120563095Y-117800476D01*
X120610714Y-117705238D01*
X120705952Y-117610000D01*
X120848810Y-117562381D01*
X120944048Y-117562381D01*
X121086905Y-117610000D01*
X121134524Y-117657619D01*
X121563095Y-118562381D02*
X121563095Y-117562381D01*
X122134524Y-118562381D01*
X122134524Y-117562381D01*
X122801190Y-118086190D02*
X122801190Y-118562381D01*
X122467857Y-117562381D02*
X122801190Y-118086190D01*
X123134524Y-117562381D01*
X123372619Y-117562381D02*
X124039286Y-117562381D01*
X123610714Y-118562381D01*
X124848810Y-117895714D02*
X124848810Y-118562381D01*
X124610714Y-117514762D02*
X124372619Y-118229048D01*
X124991667Y-118229048D01*
X125372619Y-118181429D02*
X126134524Y-118181429D01*
X126563095Y-117657619D02*
X126610714Y-117610000D01*
X126705952Y-117562381D01*
X126944048Y-117562381D01*
X127039286Y-117610000D01*
X127086905Y-117657619D01*
X127134524Y-117752857D01*
X127134524Y-117848095D01*
X127086905Y-117990952D01*
X126515476Y-118562381D01*
X127134524Y-118562381D01*
X172220000Y-123118476D02*
X172172381Y-123213714D01*
X172172381Y-123356571D01*
X172220000Y-123499429D01*
X172315238Y-123594667D01*
X172410476Y-123642286D01*
X172600952Y-123689905D01*
X172743810Y-123689905D01*
X172934286Y-123642286D01*
X173029524Y-123594667D01*
X173124762Y-123499429D01*
X173172381Y-123356571D01*
X173172381Y-123261333D01*
X173124762Y-123118476D01*
X173077143Y-123070857D01*
X172743810Y-123070857D01*
X172743810Y-123261333D01*
X173124762Y-122689905D02*
X173172381Y-122547048D01*
X173172381Y-122308952D01*
X173124762Y-122213714D01*
X173077143Y-122166095D01*
X172981905Y-122118476D01*
X172886667Y-122118476D01*
X172791429Y-122166095D01*
X172743810Y-122213714D01*
X172696190Y-122308952D01*
X172648571Y-122499429D01*
X172600952Y-122594667D01*
X172553333Y-122642286D01*
X172458095Y-122689905D01*
X172362857Y-122689905D01*
X172267619Y-122642286D01*
X172220000Y-122594667D01*
X172172381Y-122499429D01*
X172172381Y-122261333D01*
X172220000Y-122118476D01*
X172172381Y-121785143D02*
X172172381Y-121166095D01*
X172553333Y-121499429D01*
X172553333Y-121356571D01*
X172600952Y-121261333D01*
X172648571Y-121213714D01*
X172743810Y-121166095D01*
X172981905Y-121166095D01*
X173077143Y-121213714D01*
X173124762Y-121261333D01*
X173172381Y-121356571D01*
X173172381Y-121642286D01*
X173124762Y-121737524D01*
X173077143Y-121785143D01*
X123642381Y-111767857D02*
X123166190Y-112101191D01*
X123642381Y-112339286D02*
X122642381Y-112339286D01*
X122642381Y-111958333D01*
X122690000Y-111863095D01*
X122737619Y-111815476D01*
X122832857Y-111767857D01*
X122975714Y-111767857D01*
X123070952Y-111815476D01*
X123118571Y-111863095D01*
X123166190Y-111958333D01*
X123166190Y-112339286D01*
X123642381Y-110815476D02*
X123642381Y-111386905D01*
X123642381Y-111101191D02*
X122642381Y-111101191D01*
X122785238Y-111196429D01*
X122880476Y-111291667D01*
X122928095Y-111386905D01*
X123642381Y-109863095D02*
X123642381Y-110434524D01*
X123642381Y-110148810D02*
X122642381Y-110148810D01*
X122785238Y-110244048D01*
X122880476Y-110339286D01*
X122928095Y-110434524D01*
X125126905Y-108767619D02*
X125174524Y-108720000D01*
X125269762Y-108672381D01*
X125507858Y-108672381D01*
X125603096Y-108720000D01*
X125650715Y-108767619D01*
X125698334Y-108862857D01*
X125698334Y-108958095D01*
X125650715Y-109100952D01*
X125079286Y-109672381D01*
X125698334Y-109672381D01*
X126079286Y-108767619D02*
X126126905Y-108720000D01*
X126222143Y-108672381D01*
X126460239Y-108672381D01*
X126555477Y-108720000D01*
X126603096Y-108767619D01*
X126650715Y-108862857D01*
X126650715Y-108958095D01*
X126603096Y-109100952D01*
X126031667Y-109672381D01*
X126650715Y-109672381D01*
X127269762Y-108672381D02*
X127365001Y-108672381D01*
X127460239Y-108720000D01*
X127507858Y-108767619D01*
X127555477Y-108862857D01*
X127603096Y-109053333D01*
X127603096Y-109291429D01*
X127555477Y-109481905D01*
X127507858Y-109577143D01*
X127460239Y-109624762D01*
X127365001Y-109672381D01*
X127269762Y-109672381D01*
X127174524Y-109624762D01*
X127126905Y-109577143D01*
X127079286Y-109481905D01*
X127031667Y-109291429D01*
X127031667Y-109053333D01*
X127079286Y-108862857D01*
X127126905Y-108767619D01*
X127174524Y-108720000D01*
X127269762Y-108672381D01*
X118737143Y-124912381D02*
X118403809Y-124436190D01*
X118165714Y-124912381D02*
X118165714Y-123912381D01*
X118546667Y-123912381D01*
X118641905Y-123960000D01*
X118689524Y-124007619D01*
X118737143Y-124102857D01*
X118737143Y-124245714D01*
X118689524Y-124340952D01*
X118641905Y-124388571D01*
X118546667Y-124436190D01*
X118165714Y-124436190D01*
X119689524Y-124912381D02*
X119118095Y-124912381D01*
X119403809Y-124912381D02*
X119403809Y-123912381D01*
X119308571Y-124055238D01*
X119213333Y-124150476D01*
X119118095Y-124198095D01*
X120070476Y-124007619D02*
X120118095Y-123960000D01*
X120213333Y-123912381D01*
X120451429Y-123912381D01*
X120546667Y-123960000D01*
X120594286Y-124007619D01*
X120641905Y-124102857D01*
X120641905Y-124198095D01*
X120594286Y-124340952D01*
X120022857Y-124912381D01*
X120641905Y-124912381D01*
X121737619Y-123912381D02*
X122356667Y-123912381D01*
X122023333Y-124293333D01*
X122166191Y-124293333D01*
X122261429Y-124340952D01*
X122309048Y-124388571D01*
X122356667Y-124483810D01*
X122356667Y-124721905D01*
X122309048Y-124817143D01*
X122261429Y-124864762D01*
X122166191Y-124912381D01*
X121880476Y-124912381D01*
X121785238Y-124864762D01*
X121737619Y-124817143D01*
X122785238Y-124817143D02*
X122832857Y-124864762D01*
X122785238Y-124912381D01*
X122737619Y-124864762D01*
X122785238Y-124817143D01*
X122785238Y-124912381D01*
X123166190Y-123912381D02*
X123785238Y-123912381D01*
X123451904Y-124293333D01*
X123594762Y-124293333D01*
X123690000Y-124340952D01*
X123737619Y-124388571D01*
X123785238Y-124483810D01*
X123785238Y-124721905D01*
X123737619Y-124817143D01*
X123690000Y-124864762D01*
X123594762Y-124912381D01*
X123309047Y-124912381D01*
X123213809Y-124864762D01*
X123166190Y-124817143D01*
X124213809Y-124912381D02*
X124213809Y-123912381D01*
X124309047Y-124531429D02*
X124594762Y-124912381D01*
X124594762Y-124245714D02*
X124213809Y-124626667D01*
X135707381Y-123197857D02*
X135231190Y-123531191D01*
X135707381Y-123769286D02*
X134707381Y-123769286D01*
X134707381Y-123388333D01*
X134755000Y-123293095D01*
X134802619Y-123245476D01*
X134897857Y-123197857D01*
X135040714Y-123197857D01*
X135135952Y-123245476D01*
X135183571Y-123293095D01*
X135231190Y-123388333D01*
X135231190Y-123769286D01*
X135707381Y-122245476D02*
X135707381Y-122816905D01*
X135707381Y-122531191D02*
X134707381Y-122531191D01*
X134850238Y-122626429D01*
X134945476Y-122721667D01*
X134993095Y-122816905D01*
X134707381Y-121912143D02*
X134707381Y-121293095D01*
X135088333Y-121626429D01*
X135088333Y-121483571D01*
X135135952Y-121388333D01*
X135183571Y-121340714D01*
X135278810Y-121293095D01*
X135516905Y-121293095D01*
X135612143Y-121340714D01*
X135659762Y-121388333D01*
X135707381Y-121483571D01*
X135707381Y-121769286D01*
X135659762Y-121864524D01*
X135612143Y-121912143D01*
X132167381Y-115863571D02*
X132167381Y-116054048D01*
X132215000Y-116149286D01*
X132262619Y-116196905D01*
X132405476Y-116292143D01*
X132595952Y-116339762D01*
X132976905Y-116339762D01*
X133072143Y-116292143D01*
X133119762Y-116244524D01*
X133167381Y-116149286D01*
X133167381Y-115958809D01*
X133119762Y-115863571D01*
X133072143Y-115815952D01*
X132976905Y-115768333D01*
X132738810Y-115768333D01*
X132643571Y-115815952D01*
X132595952Y-115863571D01*
X132548333Y-115958809D01*
X132548333Y-116149286D01*
X132595952Y-116244524D01*
X132643571Y-116292143D01*
X132738810Y-116339762D01*
X133072143Y-115339762D02*
X133119762Y-115292143D01*
X133167381Y-115339762D01*
X133119762Y-115387381D01*
X133072143Y-115339762D01*
X133167381Y-115339762D01*
X132595952Y-114720715D02*
X132548333Y-114815953D01*
X132500714Y-114863572D01*
X132405476Y-114911191D01*
X132357857Y-114911191D01*
X132262619Y-114863572D01*
X132215000Y-114815953D01*
X132167381Y-114720715D01*
X132167381Y-114530238D01*
X132215000Y-114435000D01*
X132262619Y-114387381D01*
X132357857Y-114339762D01*
X132405476Y-114339762D01*
X132500714Y-114387381D01*
X132548333Y-114435000D01*
X132595952Y-114530238D01*
X132595952Y-114720715D01*
X132643571Y-114815953D01*
X132691190Y-114863572D01*
X132786429Y-114911191D01*
X132976905Y-114911191D01*
X133072143Y-114863572D01*
X133119762Y-114815953D01*
X133167381Y-114720715D01*
X133167381Y-114530238D01*
X133119762Y-114435000D01*
X133072143Y-114387381D01*
X132976905Y-114339762D01*
X132786429Y-114339762D01*
X132691190Y-114387381D01*
X132643571Y-114435000D01*
X132595952Y-114530238D01*
X133167381Y-113911191D02*
X132167381Y-113911191D01*
X132786429Y-113815953D02*
X133167381Y-113530238D01*
X132500714Y-113530238D02*
X132881667Y-113911191D01*
X133167381Y-123197857D02*
X132691190Y-123531191D01*
X133167381Y-123769286D02*
X132167381Y-123769286D01*
X132167381Y-123388333D01*
X132215000Y-123293095D01*
X132262619Y-123245476D01*
X132357857Y-123197857D01*
X132500714Y-123197857D01*
X132595952Y-123245476D01*
X132643571Y-123293095D01*
X132691190Y-123388333D01*
X132691190Y-123769286D01*
X133167381Y-122245476D02*
X133167381Y-122816905D01*
X133167381Y-122531191D02*
X132167381Y-122531191D01*
X132310238Y-122626429D01*
X132405476Y-122721667D01*
X132453095Y-122816905D01*
X132500714Y-121388333D02*
X133167381Y-121388333D01*
X132119762Y-121626429D02*
X132834048Y-121864524D01*
X132834048Y-121245476D01*
X134802619Y-116173095D02*
X134755000Y-116125476D01*
X134707381Y-116030238D01*
X134707381Y-115792142D01*
X134755000Y-115696904D01*
X134802619Y-115649285D01*
X134897857Y-115601666D01*
X134993095Y-115601666D01*
X135135952Y-115649285D01*
X135707381Y-116220714D01*
X135707381Y-115601666D01*
X134802619Y-115220714D02*
X134755000Y-115173095D01*
X134707381Y-115077857D01*
X134707381Y-114839761D01*
X134755000Y-114744523D01*
X134802619Y-114696904D01*
X134897857Y-114649285D01*
X134993095Y-114649285D01*
X135135952Y-114696904D01*
X135707381Y-115268333D01*
X135707381Y-114649285D01*
X134707381Y-114030238D02*
X134707381Y-113934999D01*
X134755000Y-113839761D01*
X134802619Y-113792142D01*
X134897857Y-113744523D01*
X135088333Y-113696904D01*
X135326429Y-113696904D01*
X135516905Y-113744523D01*
X135612143Y-113792142D01*
X135659762Y-113839761D01*
X135707381Y-113934999D01*
X135707381Y-114030238D01*
X135659762Y-114125476D01*
X135612143Y-114173095D01*
X135516905Y-114220714D01*
X135326429Y-114268333D01*
X135088333Y-114268333D01*
X134897857Y-114220714D01*
X134802619Y-114173095D01*
X134755000Y-114125476D01*
X134707381Y-114030238D01*
X166235143Y-117038381D02*
X165901809Y-116562190D01*
X165663714Y-117038381D02*
X165663714Y-116038381D01*
X166044667Y-116038381D01*
X166139905Y-116086000D01*
X166187524Y-116133619D01*
X166235143Y-116228857D01*
X166235143Y-116371714D01*
X166187524Y-116466952D01*
X166139905Y-116514571D01*
X166044667Y-116562190D01*
X165663714Y-116562190D01*
X167187524Y-117038381D02*
X166616095Y-117038381D01*
X166901809Y-117038381D02*
X166901809Y-116038381D01*
X166806571Y-116181238D01*
X166711333Y-116276476D01*
X166616095Y-116324095D01*
X168092286Y-116038381D02*
X167616095Y-116038381D01*
X167568476Y-116514571D01*
X167616095Y-116466952D01*
X167711333Y-116419333D01*
X167949429Y-116419333D01*
X168044667Y-116466952D01*
X168092286Y-116514571D01*
X168139905Y-116609810D01*
X168139905Y-116847905D01*
X168092286Y-116943143D01*
X168044667Y-116990762D01*
X167949429Y-117038381D01*
X167711333Y-117038381D01*
X167616095Y-116990762D01*
X167568476Y-116943143D01*
X167330381Y-113911047D02*
X167330381Y-114482476D01*
X167330381Y-114196762D02*
X166330381Y-114196762D01*
X166473238Y-114292000D01*
X166568476Y-114387238D01*
X166616095Y-114482476D01*
X167330381Y-113482476D02*
X166330381Y-113482476D01*
X166949429Y-113387238D02*
X167330381Y-113101523D01*
X166663714Y-113101523D02*
X167044667Y-113482476D01*
X155503571Y-92868334D02*
X155503571Y-92535000D01*
X156027381Y-92392143D02*
X156027381Y-92868334D01*
X155027381Y-92868334D01*
X155027381Y-92392143D01*
X156027381Y-92058810D02*
X155360714Y-91535000D01*
X155360714Y-92058810D02*
X156027381Y-91535000D01*
X155360714Y-91296905D02*
X155360714Y-90915953D01*
X155027381Y-91154048D02*
X155884524Y-91154048D01*
X155979762Y-91106429D01*
X156027381Y-91011191D01*
X156027381Y-90915953D01*
X155979762Y-90201666D02*
X156027381Y-90296904D01*
X156027381Y-90487381D01*
X155979762Y-90582619D01*
X155884524Y-90630238D01*
X155503571Y-90630238D01*
X155408333Y-90582619D01*
X155360714Y-90487381D01*
X155360714Y-90296904D01*
X155408333Y-90201666D01*
X155503571Y-90154047D01*
X155598810Y-90154047D01*
X155694048Y-90630238D01*
X155360714Y-89725476D02*
X156027381Y-89725476D01*
X155455952Y-89725476D02*
X155408333Y-89677857D01*
X155360714Y-89582619D01*
X155360714Y-89439761D01*
X155408333Y-89344523D01*
X155503571Y-89296904D01*
X156027381Y-89296904D01*
X155979762Y-88868333D02*
X156027381Y-88773095D01*
X156027381Y-88582619D01*
X155979762Y-88487380D01*
X155884524Y-88439761D01*
X155836905Y-88439761D01*
X155741667Y-88487380D01*
X155694048Y-88582619D01*
X155694048Y-88725476D01*
X155646429Y-88820714D01*
X155551190Y-88868333D01*
X155503571Y-88868333D01*
X155408333Y-88820714D01*
X155360714Y-88725476D01*
X155360714Y-88582619D01*
X155408333Y-88487380D01*
X156027381Y-88011190D02*
X155360714Y-88011190D01*
X155027381Y-88011190D02*
X155075000Y-88058809D01*
X155122619Y-88011190D01*
X155075000Y-87963571D01*
X155027381Y-88011190D01*
X155122619Y-88011190D01*
X156027381Y-87392143D02*
X155979762Y-87487381D01*
X155932143Y-87535000D01*
X155836905Y-87582619D01*
X155551190Y-87582619D01*
X155455952Y-87535000D01*
X155408333Y-87487381D01*
X155360714Y-87392143D01*
X155360714Y-87249285D01*
X155408333Y-87154047D01*
X155455952Y-87106428D01*
X155551190Y-87058809D01*
X155836905Y-87058809D01*
X155932143Y-87106428D01*
X155979762Y-87154047D01*
X156027381Y-87249285D01*
X156027381Y-87392143D01*
X155360714Y-86630238D02*
X156027381Y-86630238D01*
X155455952Y-86630238D02*
X155408333Y-86582619D01*
X155360714Y-86487381D01*
X155360714Y-86344523D01*
X155408333Y-86249285D01*
X155503571Y-86201666D01*
X156027381Y-86201666D01*
X160726381Y-109688190D02*
X159726381Y-109688190D01*
X160631143Y-108640571D02*
X160678762Y-108688190D01*
X160726381Y-108831047D01*
X160726381Y-108926285D01*
X160678762Y-109069143D01*
X160583524Y-109164381D01*
X160488286Y-109212000D01*
X160297810Y-109259619D01*
X160154952Y-109259619D01*
X159964476Y-109212000D01*
X159869238Y-109164381D01*
X159774000Y-109069143D01*
X159726381Y-108926285D01*
X159726381Y-108831047D01*
X159774000Y-108688190D01*
X159821619Y-108640571D01*
X159821619Y-108259619D02*
X159774000Y-108212000D01*
X159726381Y-108116762D01*
X159726381Y-107878666D01*
X159774000Y-107783428D01*
X159821619Y-107735809D01*
X159916857Y-107688190D01*
X160012095Y-107688190D01*
X160154952Y-107735809D01*
X160726381Y-108307238D01*
X160726381Y-107688190D01*
X156059143Y-117498476D02*
X156106762Y-117546095D01*
X156154381Y-117688952D01*
X156154381Y-117784190D01*
X156106762Y-117927048D01*
X156011524Y-118022286D01*
X155916286Y-118069905D01*
X155725810Y-118117524D01*
X155582952Y-118117524D01*
X155392476Y-118069905D01*
X155297238Y-118022286D01*
X155202000Y-117927048D01*
X155154381Y-117784190D01*
X155154381Y-117688952D01*
X155202000Y-117546095D01*
X155249619Y-117498476D01*
X156154381Y-117069905D02*
X155154381Y-117069905D01*
X156154381Y-116498476D01*
X155154381Y-116498476D01*
X155678190Y-115831810D02*
X156154381Y-115831810D01*
X155154381Y-116165143D02*
X155678190Y-115831810D01*
X155154381Y-115498476D01*
X155154381Y-115260381D02*
X155154381Y-114593714D01*
X156154381Y-115022286D01*
X155487714Y-113784190D02*
X156154381Y-113784190D01*
X155106762Y-114022286D02*
X155821048Y-114260381D01*
X155821048Y-113641333D01*
X155773429Y-113260381D02*
X155773429Y-112498476D01*
X155249619Y-112069905D02*
X155202000Y-112022286D01*
X155154381Y-111927048D01*
X155154381Y-111688952D01*
X155202000Y-111593714D01*
X155249619Y-111546095D01*
X155344857Y-111498476D01*
X155440095Y-111498476D01*
X155582952Y-111546095D01*
X156154381Y-112117524D01*
X156154381Y-111498476D01*
X153027143Y-106624381D02*
X152693809Y-106148190D01*
X152455714Y-106624381D02*
X152455714Y-105624381D01*
X152836667Y-105624381D01*
X152931905Y-105672000D01*
X152979524Y-105719619D01*
X153027143Y-105814857D01*
X153027143Y-105957714D01*
X152979524Y-106052952D01*
X152931905Y-106100571D01*
X152836667Y-106148190D01*
X152455714Y-106148190D01*
X153979524Y-106624381D02*
X153408095Y-106624381D01*
X153693809Y-106624381D02*
X153693809Y-105624381D01*
X153598571Y-105767238D01*
X153503333Y-105862476D01*
X153408095Y-105910095D01*
X154836667Y-105624381D02*
X154646190Y-105624381D01*
X154550952Y-105672000D01*
X154503333Y-105719619D01*
X154408095Y-105862476D01*
X154360476Y-106052952D01*
X154360476Y-106433905D01*
X154408095Y-106529143D01*
X154455714Y-106576762D01*
X154550952Y-106624381D01*
X154741429Y-106624381D01*
X154836667Y-106576762D01*
X154884286Y-106529143D01*
X154931905Y-106433905D01*
X154931905Y-106195810D01*
X154884286Y-106100571D01*
X154836667Y-106052952D01*
X154741429Y-106005333D01*
X154550952Y-106005333D01*
X154455714Y-106052952D01*
X154408095Y-106100571D01*
X154360476Y-106195810D01*
X156241905Y-108259619D02*
X156289524Y-108212000D01*
X156384762Y-108164381D01*
X156622858Y-108164381D01*
X156718096Y-108212000D01*
X156765715Y-108259619D01*
X156813334Y-108354857D01*
X156813334Y-108450095D01*
X156765715Y-108592952D01*
X156194286Y-109164381D01*
X156813334Y-109164381D01*
X157194286Y-108259619D02*
X157241905Y-108212000D01*
X157337143Y-108164381D01*
X157575239Y-108164381D01*
X157670477Y-108212000D01*
X157718096Y-108259619D01*
X157765715Y-108354857D01*
X157765715Y-108450095D01*
X157718096Y-108592952D01*
X157146667Y-109164381D01*
X157765715Y-109164381D01*
X158384762Y-108164381D02*
X158480001Y-108164381D01*
X158575239Y-108212000D01*
X158622858Y-108259619D01*
X158670477Y-108354857D01*
X158718096Y-108545333D01*
X158718096Y-108783429D01*
X158670477Y-108973905D01*
X158622858Y-109069143D01*
X158575239Y-109116762D01*
X158480001Y-109164381D01*
X158384762Y-109164381D01*
X158289524Y-109116762D01*
X158241905Y-109069143D01*
X158194286Y-108973905D01*
X158146667Y-108783429D01*
X158146667Y-108545333D01*
X158194286Y-108354857D01*
X158241905Y-108259619D01*
X158289524Y-108212000D01*
X158384762Y-108164381D01*
X162425143Y-115006381D02*
X162091809Y-114530190D01*
X161853714Y-115006381D02*
X161853714Y-114006381D01*
X162234667Y-114006381D01*
X162329905Y-114054000D01*
X162377524Y-114101619D01*
X162425143Y-114196857D01*
X162425143Y-114339714D01*
X162377524Y-114434952D01*
X162329905Y-114482571D01*
X162234667Y-114530190D01*
X161853714Y-114530190D01*
X163377524Y-115006381D02*
X162806095Y-115006381D01*
X163091809Y-115006381D02*
X163091809Y-114006381D01*
X162996571Y-114149238D01*
X162901333Y-114244476D01*
X162806095Y-114292095D01*
X163710857Y-114006381D02*
X164377524Y-114006381D01*
X163948952Y-115006381D01*
X163647381Y-117594047D02*
X163647381Y-118165476D01*
X163647381Y-117879762D02*
X162647381Y-117879762D01*
X162790238Y-117975000D01*
X162885476Y-118070238D01*
X162933095Y-118165476D01*
X163647381Y-117165476D02*
X162647381Y-117165476D01*
X163266429Y-117070238D02*
X163647381Y-116784523D01*
X162980714Y-116784523D02*
X163361667Y-117165476D01*
X168471857Y-115323666D02*
X168509952Y-115180809D01*
X168548048Y-115133190D01*
X168624238Y-115085571D01*
X168738524Y-115085571D01*
X168814714Y-115133190D01*
X168852810Y-115180809D01*
X168890905Y-115276047D01*
X168890905Y-115657000D01*
X168090905Y-115657000D01*
X168090905Y-115323666D01*
X168129000Y-115228428D01*
X168167095Y-115180809D01*
X168243286Y-115133190D01*
X168319476Y-115133190D01*
X168395667Y-115180809D01*
X168433762Y-115228428D01*
X168471857Y-115323666D01*
X168471857Y-115657000D01*
X168890905Y-114657000D02*
X168357571Y-114657000D01*
X168509952Y-114657000D02*
X168433762Y-114609381D01*
X168395667Y-114561762D01*
X168357571Y-114466524D01*
X168357571Y-114371285D01*
X168852810Y-113656999D02*
X168890905Y-113752237D01*
X168890905Y-113942714D01*
X168852810Y-114037952D01*
X168776619Y-114085571D01*
X168471857Y-114085571D01*
X168395667Y-114037952D01*
X168357571Y-113942714D01*
X168357571Y-113752237D01*
X168395667Y-113656999D01*
X168471857Y-113609380D01*
X168548048Y-113609380D01*
X168624238Y-114085571D01*
X168890905Y-113180809D02*
X168357571Y-113180809D01*
X168433762Y-113180809D02*
X168395667Y-113133190D01*
X168357571Y-113037952D01*
X168357571Y-112895094D01*
X168395667Y-112799856D01*
X168471857Y-112752237D01*
X168890905Y-112752237D01*
X168471857Y-112752237D02*
X168395667Y-112704618D01*
X168357571Y-112609380D01*
X168357571Y-112466523D01*
X168395667Y-112371285D01*
X168471857Y-112323666D01*
X168890905Y-112323666D01*
X168852810Y-111895095D02*
X168890905Y-111799857D01*
X168890905Y-111609381D01*
X168852810Y-111514142D01*
X168776619Y-111466523D01*
X168738524Y-111466523D01*
X168662333Y-111514142D01*
X168624238Y-111609381D01*
X168624238Y-111752238D01*
X168586143Y-111847476D01*
X168509952Y-111895095D01*
X168471857Y-111895095D01*
X168395667Y-111847476D01*
X168357571Y-111752238D01*
X168357571Y-111609381D01*
X168395667Y-111514142D01*
X168852810Y-110656999D02*
X168890905Y-110752237D01*
X168890905Y-110942714D01*
X168852810Y-111037952D01*
X168776619Y-111085571D01*
X168471857Y-111085571D01*
X168395667Y-111037952D01*
X168357571Y-110942714D01*
X168357571Y-110752237D01*
X168395667Y-110656999D01*
X168471857Y-110609380D01*
X168548048Y-110609380D01*
X168624238Y-111085571D01*
X148647381Y-116847857D02*
X148171190Y-117181191D01*
X148647381Y-117419286D02*
X147647381Y-117419286D01*
X147647381Y-117038333D01*
X147695000Y-116943095D01*
X147742619Y-116895476D01*
X147837857Y-116847857D01*
X147980714Y-116847857D01*
X148075952Y-116895476D01*
X148123571Y-116943095D01*
X148171190Y-117038333D01*
X148171190Y-117419286D01*
X148647381Y-115895476D02*
X148647381Y-116466905D01*
X148647381Y-116181191D02*
X147647381Y-116181191D01*
X147790238Y-116276429D01*
X147885476Y-116371667D01*
X147933095Y-116466905D01*
X148075952Y-115324048D02*
X148028333Y-115419286D01*
X147980714Y-115466905D01*
X147885476Y-115514524D01*
X147837857Y-115514524D01*
X147742619Y-115466905D01*
X147695000Y-115419286D01*
X147647381Y-115324048D01*
X147647381Y-115133571D01*
X147695000Y-115038333D01*
X147742619Y-114990714D01*
X147837857Y-114943095D01*
X147885476Y-114943095D01*
X147980714Y-114990714D01*
X148028333Y-115038333D01*
X148075952Y-115133571D01*
X148075952Y-115324048D01*
X148123571Y-115419286D01*
X148171190Y-115466905D01*
X148266429Y-115514524D01*
X148456905Y-115514524D01*
X148552143Y-115466905D01*
X148599762Y-115419286D01*
X148647381Y-115324048D01*
X148647381Y-115133571D01*
X148599762Y-115038333D01*
X148552143Y-114990714D01*
X148456905Y-114943095D01*
X148266429Y-114943095D01*
X148171190Y-114990714D01*
X148123571Y-115038333D01*
X148075952Y-115133571D01*
X150042619Y-113633095D02*
X149995000Y-113585476D01*
X149947381Y-113490238D01*
X149947381Y-113252142D01*
X149995000Y-113156904D01*
X150042619Y-113109285D01*
X150137857Y-113061666D01*
X150233095Y-113061666D01*
X150375952Y-113109285D01*
X150947381Y-113680714D01*
X150947381Y-113061666D01*
X150042619Y-112680714D02*
X149995000Y-112633095D01*
X149947381Y-112537857D01*
X149947381Y-112299761D01*
X149995000Y-112204523D01*
X150042619Y-112156904D01*
X150137857Y-112109285D01*
X150233095Y-112109285D01*
X150375952Y-112156904D01*
X150947381Y-112728333D01*
X150947381Y-112109285D01*
X149947381Y-111490238D02*
X149947381Y-111394999D01*
X149995000Y-111299761D01*
X150042619Y-111252142D01*
X150137857Y-111204523D01*
X150328333Y-111156904D01*
X150566429Y-111156904D01*
X150756905Y-111204523D01*
X150852143Y-111252142D01*
X150899762Y-111299761D01*
X150947381Y-111394999D01*
X150947381Y-111490238D01*
X150899762Y-111585476D01*
X150852143Y-111633095D01*
X150756905Y-111680714D01*
X150566429Y-111728333D01*
X150328333Y-111728333D01*
X150137857Y-111680714D01*
X150042619Y-111633095D01*
X149995000Y-111585476D01*
X149947381Y-111490238D01*
X162425143Y-120848381D02*
X162091809Y-120372190D01*
X161853714Y-120848381D02*
X161853714Y-119848381D01*
X162234667Y-119848381D01*
X162329905Y-119896000D01*
X162377524Y-119943619D01*
X162425143Y-120038857D01*
X162425143Y-120181714D01*
X162377524Y-120276952D01*
X162329905Y-120324571D01*
X162234667Y-120372190D01*
X161853714Y-120372190D01*
X163377524Y-120848381D02*
X162806095Y-120848381D01*
X163091809Y-120848381D02*
X163091809Y-119848381D01*
X162996571Y-119991238D01*
X162901333Y-120086476D01*
X162806095Y-120134095D01*
X163853714Y-120848381D02*
X164044190Y-120848381D01*
X164139429Y-120800762D01*
X164187048Y-120753143D01*
X164282286Y-120610286D01*
X164329905Y-120419810D01*
X164329905Y-120038857D01*
X164282286Y-119943619D01*
X164234667Y-119896000D01*
X164139429Y-119848381D01*
X163948952Y-119848381D01*
X163853714Y-119896000D01*
X163806095Y-119943619D01*
X163758476Y-120038857D01*
X163758476Y-120276952D01*
X163806095Y-120372190D01*
X163853714Y-120419810D01*
X163948952Y-120467429D01*
X164139429Y-120467429D01*
X164234667Y-120419810D01*
X164282286Y-120372190D01*
X164329905Y-120276952D01*
X163647381Y-123309047D02*
X163647381Y-123880476D01*
X163647381Y-123594762D02*
X162647381Y-123594762D01*
X162790238Y-123690000D01*
X162885476Y-123785238D01*
X162933095Y-123880476D01*
X163647381Y-122880476D02*
X162647381Y-122880476D01*
X163266429Y-122785238D02*
X163647381Y-122499523D01*
X162980714Y-122499523D02*
X163361667Y-122880476D01*
X168298762Y-87098000D02*
X168346381Y-86955143D01*
X168346381Y-86717047D01*
X168298762Y-86621809D01*
X168251143Y-86574190D01*
X168155905Y-86526571D01*
X168060667Y-86526571D01*
X167965429Y-86574190D01*
X167917810Y-86621809D01*
X167870190Y-86717047D01*
X167822571Y-86907524D01*
X167774952Y-87002762D01*
X167727333Y-87050381D01*
X167632095Y-87098000D01*
X167536857Y-87098000D01*
X167441619Y-87050381D01*
X167394000Y-87002762D01*
X167346381Y-86907524D01*
X167346381Y-86669428D01*
X167394000Y-86526571D01*
X168298762Y-85717047D02*
X168346381Y-85812285D01*
X168346381Y-86002762D01*
X168298762Y-86098000D01*
X168203524Y-86145619D01*
X167822571Y-86145619D01*
X167727333Y-86098000D01*
X167679714Y-86002762D01*
X167679714Y-85812285D01*
X167727333Y-85717047D01*
X167822571Y-85669428D01*
X167917810Y-85669428D01*
X168013048Y-86145619D01*
X168346381Y-85240857D02*
X167679714Y-85240857D01*
X167870190Y-85240857D02*
X167774952Y-85193238D01*
X167727333Y-85145619D01*
X167679714Y-85050381D01*
X167679714Y-84955142D01*
X167441619Y-84669428D02*
X167394000Y-84621809D01*
X167346381Y-84526571D01*
X167346381Y-84288475D01*
X167394000Y-84193237D01*
X167441619Y-84145618D01*
X167536857Y-84097999D01*
X167632095Y-84097999D01*
X167774952Y-84145618D01*
X168346381Y-84717047D01*
X168346381Y-84097999D01*
X130198762Y-94464000D02*
X130246381Y-94321143D01*
X130246381Y-94083047D01*
X130198762Y-93987809D01*
X130151143Y-93940190D01*
X130055905Y-93892571D01*
X129960667Y-93892571D01*
X129865429Y-93940190D01*
X129817810Y-93987809D01*
X129770190Y-94083047D01*
X129722571Y-94273524D01*
X129674952Y-94368762D01*
X129627333Y-94416381D01*
X129532095Y-94464000D01*
X129436857Y-94464000D01*
X129341619Y-94416381D01*
X129294000Y-94368762D01*
X129246381Y-94273524D01*
X129246381Y-94035428D01*
X129294000Y-93892571D01*
X130198762Y-93083047D02*
X130246381Y-93178285D01*
X130246381Y-93368762D01*
X130198762Y-93464000D01*
X130103524Y-93511619D01*
X129722571Y-93511619D01*
X129627333Y-93464000D01*
X129579714Y-93368762D01*
X129579714Y-93178285D01*
X129627333Y-93083047D01*
X129722571Y-93035428D01*
X129817810Y-93035428D01*
X129913048Y-93511619D01*
X130246381Y-92606857D02*
X129579714Y-92606857D01*
X129770190Y-92606857D02*
X129674952Y-92559238D01*
X129627333Y-92511619D01*
X129579714Y-92416381D01*
X129579714Y-92321142D01*
X129246381Y-92083047D02*
X129246381Y-91463999D01*
X129627333Y-91797333D01*
X129627333Y-91654475D01*
X129674952Y-91559237D01*
X129722571Y-91511618D01*
X129817810Y-91463999D01*
X130055905Y-91463999D01*
X130151143Y-91511618D01*
X130198762Y-91559237D01*
X130246381Y-91654475D01*
X130246381Y-91940190D01*
X130198762Y-92035428D01*
X130151143Y-92083047D01*
X164536381Y-90050572D02*
X163536381Y-90050572D01*
X164536381Y-89479143D01*
X163536381Y-89479143D01*
X163869714Y-88574381D02*
X164536381Y-88574381D01*
X163869714Y-89002953D02*
X164393524Y-89002953D01*
X164488762Y-88955334D01*
X164536381Y-88860096D01*
X164536381Y-88717238D01*
X164488762Y-88622000D01*
X164441143Y-88574381D01*
X163869714Y-88098191D02*
X164536381Y-88098191D01*
X163964952Y-88098191D02*
X163917333Y-88050572D01*
X163869714Y-87955334D01*
X163869714Y-87812476D01*
X163917333Y-87717238D01*
X164012571Y-87669619D01*
X164536381Y-87669619D01*
X164488762Y-86764857D02*
X164536381Y-86860095D01*
X164536381Y-87050572D01*
X164488762Y-87145810D01*
X164441143Y-87193429D01*
X164345905Y-87241048D01*
X164060190Y-87241048D01*
X163964952Y-87193429D01*
X163917333Y-87145810D01*
X163869714Y-87050572D01*
X163869714Y-86860095D01*
X163917333Y-86764857D01*
X164536381Y-86336286D02*
X163536381Y-86336286D01*
X164536381Y-85907714D02*
X164012571Y-85907714D01*
X163917333Y-85955333D01*
X163869714Y-86050571D01*
X163869714Y-86193429D01*
X163917333Y-86288667D01*
X163964952Y-86336286D01*
X163869714Y-85002952D02*
X164536381Y-85002952D01*
X163869714Y-85431524D02*
X164393524Y-85431524D01*
X164488762Y-85383905D01*
X164536381Y-85288667D01*
X164536381Y-85145809D01*
X164488762Y-85050571D01*
X164441143Y-85002952D01*
X164536381Y-84526762D02*
X163536381Y-84526762D01*
X164155429Y-84431524D02*
X164536381Y-84145809D01*
X163869714Y-84145809D02*
X164250667Y-84526762D01*
X126397143Y-87796667D02*
X126873334Y-87796667D01*
X126301905Y-88082381D02*
X126635238Y-87082381D01*
X126968572Y-88082381D01*
X127159048Y-87082381D02*
X127730477Y-87082381D01*
X127444762Y-88082381D02*
X127444762Y-87082381D01*
X128063810Y-87701429D02*
X128825715Y-87701429D01*
X129301905Y-88082381D02*
X129301905Y-87082381D01*
X129635239Y-87796667D01*
X129968572Y-87082381D01*
X129968572Y-88082381D01*
X130587619Y-88082381D02*
X130492381Y-88034762D01*
X130444762Y-87987143D01*
X130397143Y-87891905D01*
X130397143Y-87606190D01*
X130444762Y-87510952D01*
X130492381Y-87463333D01*
X130587619Y-87415714D01*
X130730477Y-87415714D01*
X130825715Y-87463333D01*
X130873334Y-87510952D01*
X130920953Y-87606190D01*
X130920953Y-87891905D01*
X130873334Y-87987143D01*
X130825715Y-88034762D01*
X130730477Y-88082381D01*
X130587619Y-88082381D01*
X131778096Y-88082381D02*
X131778096Y-87082381D01*
X131778096Y-88034762D02*
X131682858Y-88082381D01*
X131492381Y-88082381D01*
X131397143Y-88034762D01*
X131349524Y-87987143D01*
X131301905Y-87891905D01*
X131301905Y-87606190D01*
X131349524Y-87510952D01*
X131397143Y-87463333D01*
X131492381Y-87415714D01*
X131682858Y-87415714D01*
X131778096Y-87463333D01*
X132635239Y-88034762D02*
X132540001Y-88082381D01*
X132349524Y-88082381D01*
X132254286Y-88034762D01*
X132206667Y-87939524D01*
X132206667Y-87558571D01*
X132254286Y-87463333D01*
X132349524Y-87415714D01*
X132540001Y-87415714D01*
X132635239Y-87463333D01*
X132682858Y-87558571D01*
X132682858Y-87653810D01*
X132206667Y-87749048D01*
X107307143Y-77287381D02*
X106973809Y-76811190D01*
X106735714Y-77287381D02*
X106735714Y-76287381D01*
X107116667Y-76287381D01*
X107211905Y-76335000D01*
X107259524Y-76382619D01*
X107307143Y-76477857D01*
X107307143Y-76620714D01*
X107259524Y-76715952D01*
X107211905Y-76763571D01*
X107116667Y-76811190D01*
X106735714Y-76811190D01*
X107688095Y-76382619D02*
X107735714Y-76335000D01*
X107830952Y-76287381D01*
X108069048Y-76287381D01*
X108164286Y-76335000D01*
X108211905Y-76382619D01*
X108259524Y-76477857D01*
X108259524Y-76573095D01*
X108211905Y-76715952D01*
X107640476Y-77287381D01*
X108259524Y-77287381D01*
X108878571Y-76287381D02*
X108973810Y-76287381D01*
X109069048Y-76335000D01*
X109116667Y-76382619D01*
X109164286Y-76477857D01*
X109211905Y-76668333D01*
X109211905Y-76906429D01*
X109164286Y-77096905D01*
X109116667Y-77192143D01*
X109069048Y-77239762D01*
X108973810Y-77287381D01*
X108878571Y-77287381D01*
X108783333Y-77239762D01*
X108735714Y-77192143D01*
X108688095Y-77096905D01*
X108640476Y-76906429D01*
X108640476Y-76668333D01*
X108688095Y-76477857D01*
X108735714Y-76382619D01*
X108783333Y-76335000D01*
X108878571Y-76287381D01*
X107188096Y-77890714D02*
X107188096Y-78557381D01*
X106950000Y-77509762D02*
X106711905Y-78224048D01*
X107330953Y-78224048D01*
X107616667Y-77557381D02*
X108283334Y-77557381D01*
X107854762Y-78557381D01*
X108854762Y-77557381D02*
X108950001Y-77557381D01*
X109045239Y-77605000D01*
X109092858Y-77652619D01*
X109140477Y-77747857D01*
X109188096Y-77938333D01*
X109188096Y-78176429D01*
X109140477Y-78366905D01*
X109092858Y-78462143D01*
X109045239Y-78509762D01*
X108950001Y-78557381D01*
X108854762Y-78557381D01*
X108759524Y-78509762D01*
X108711905Y-78462143D01*
X108664286Y-78366905D01*
X108616667Y-78176429D01*
X108616667Y-77938333D01*
X108664286Y-77747857D01*
X108711905Y-77652619D01*
X108759524Y-77605000D01*
X108854762Y-77557381D01*
X94861143Y-77922381D02*
X94527809Y-77446190D01*
X94289714Y-77922381D02*
X94289714Y-76922381D01*
X94670667Y-76922381D01*
X94765905Y-76970000D01*
X94813524Y-77017619D01*
X94861143Y-77112857D01*
X94861143Y-77255714D01*
X94813524Y-77350952D01*
X94765905Y-77398571D01*
X94670667Y-77446190D01*
X94289714Y-77446190D01*
X95242095Y-77017619D02*
X95289714Y-76970000D01*
X95384952Y-76922381D01*
X95623048Y-76922381D01*
X95718286Y-76970000D01*
X95765905Y-77017619D01*
X95813524Y-77112857D01*
X95813524Y-77208095D01*
X95765905Y-77350952D01*
X95194476Y-77922381D01*
X95813524Y-77922381D01*
X96765905Y-77922381D02*
X96194476Y-77922381D01*
X96480190Y-77922381D02*
X96480190Y-76922381D01*
X96384952Y-77065238D01*
X96289714Y-77160476D01*
X96194476Y-77208095D01*
X102108096Y-78271714D02*
X102108096Y-78938381D01*
X101870000Y-77890762D02*
X101631905Y-78605048D01*
X102250953Y-78605048D01*
X102536667Y-77938381D02*
X103203334Y-77938381D01*
X102774762Y-78938381D01*
X103774762Y-77938381D02*
X103870001Y-77938381D01*
X103965239Y-77986000D01*
X104012858Y-78033619D01*
X104060477Y-78128857D01*
X104108096Y-78319333D01*
X104108096Y-78557429D01*
X104060477Y-78747905D01*
X104012858Y-78843143D01*
X103965239Y-78890762D01*
X103870001Y-78938381D01*
X103774762Y-78938381D01*
X103679524Y-78890762D01*
X103631905Y-78843143D01*
X103584286Y-78747905D01*
X103536667Y-78557429D01*
X103536667Y-78319333D01*
X103584286Y-78128857D01*
X103631905Y-78033619D01*
X103679524Y-77986000D01*
X103774762Y-77938381D01*
X94861143Y-75382381D02*
X94527809Y-74906190D01*
X94289714Y-75382381D02*
X94289714Y-74382381D01*
X94670667Y-74382381D01*
X94765905Y-74430000D01*
X94813524Y-74477619D01*
X94861143Y-74572857D01*
X94861143Y-74715714D01*
X94813524Y-74810952D01*
X94765905Y-74858571D01*
X94670667Y-74906190D01*
X94289714Y-74906190D01*
X95242095Y-74477619D02*
X95289714Y-74430000D01*
X95384952Y-74382381D01*
X95623048Y-74382381D01*
X95718286Y-74430000D01*
X95765905Y-74477619D01*
X95813524Y-74572857D01*
X95813524Y-74668095D01*
X95765905Y-74810952D01*
X95194476Y-75382381D01*
X95813524Y-75382381D01*
X96194476Y-74477619D02*
X96242095Y-74430000D01*
X96337333Y-74382381D01*
X96575429Y-74382381D01*
X96670667Y-74430000D01*
X96718286Y-74477619D01*
X96765905Y-74572857D01*
X96765905Y-74668095D01*
X96718286Y-74810952D01*
X96146857Y-75382381D01*
X96765905Y-75382381D01*
X102108096Y-75731714D02*
X102108096Y-76398381D01*
X101870000Y-75350762D02*
X101631905Y-76065048D01*
X102250953Y-76065048D01*
X102536667Y-75398381D02*
X103203334Y-75398381D01*
X102774762Y-76398381D01*
X103774762Y-75398381D02*
X103870001Y-75398381D01*
X103965239Y-75446000D01*
X104012858Y-75493619D01*
X104060477Y-75588857D01*
X104108096Y-75779333D01*
X104108096Y-76017429D01*
X104060477Y-76207905D01*
X104012858Y-76303143D01*
X103965239Y-76350762D01*
X103870001Y-76398381D01*
X103774762Y-76398381D01*
X103679524Y-76350762D01*
X103631905Y-76303143D01*
X103584286Y-76207905D01*
X103536667Y-76017429D01*
X103536667Y-75779333D01*
X103584286Y-75588857D01*
X103631905Y-75493619D01*
X103679524Y-75446000D01*
X103774762Y-75398381D01*
X168346381Y-91574857D02*
X167870190Y-91908191D01*
X168346381Y-92146286D02*
X167346381Y-92146286D01*
X167346381Y-91765333D01*
X167394000Y-91670095D01*
X167441619Y-91622476D01*
X167536857Y-91574857D01*
X167679714Y-91574857D01*
X167774952Y-91622476D01*
X167822571Y-91670095D01*
X167870190Y-91765333D01*
X167870190Y-92146286D01*
X167441619Y-91193905D02*
X167394000Y-91146286D01*
X167346381Y-91051048D01*
X167346381Y-90812952D01*
X167394000Y-90717714D01*
X167441619Y-90670095D01*
X167536857Y-90622476D01*
X167632095Y-90622476D01*
X167774952Y-90670095D01*
X168346381Y-91241524D01*
X168346381Y-90622476D01*
X167346381Y-90289143D02*
X167346381Y-89670095D01*
X167727333Y-90003429D01*
X167727333Y-89860571D01*
X167774952Y-89765333D01*
X167822571Y-89717714D01*
X167917810Y-89670095D01*
X168155905Y-89670095D01*
X168251143Y-89717714D01*
X168298762Y-89765333D01*
X168346381Y-89860571D01*
X168346381Y-90146286D01*
X168298762Y-90241524D01*
X168251143Y-90289143D01*
X173013714Y-88653809D02*
X173680381Y-88653809D01*
X172632762Y-88891905D02*
X173347048Y-89130000D01*
X173347048Y-88510952D01*
X173585143Y-88130000D02*
X173632762Y-88082381D01*
X173680381Y-88130000D01*
X173632762Y-88177619D01*
X173585143Y-88130000D01*
X173680381Y-88130000D01*
X172680381Y-87749048D02*
X172680381Y-87082381D01*
X173680381Y-87510953D01*
X173680381Y-86701429D02*
X172680381Y-86701429D01*
X173680381Y-86130000D02*
X173108952Y-86558572D01*
X172680381Y-86130000D02*
X173251810Y-86701429D01*
X90940095Y-84526381D02*
X90940095Y-83526381D01*
X91321048Y-83526381D01*
X91416286Y-83574000D01*
X91463905Y-83621619D01*
X91511524Y-83716857D01*
X91511524Y-83859714D01*
X91463905Y-83954952D01*
X91416286Y-84002571D01*
X91321048Y-84050190D01*
X90940095Y-84050190D01*
X92368667Y-84526381D02*
X92368667Y-84002571D01*
X92321048Y-83907333D01*
X92225810Y-83859714D01*
X92035333Y-83859714D01*
X91940095Y-83907333D01*
X92368667Y-84478762D02*
X92273429Y-84526381D01*
X92035333Y-84526381D01*
X91940095Y-84478762D01*
X91892476Y-84383524D01*
X91892476Y-84288286D01*
X91940095Y-84193048D01*
X92035333Y-84145429D01*
X92273429Y-84145429D01*
X92368667Y-84097810D01*
X92844857Y-84526381D02*
X92844857Y-83859714D01*
X92844857Y-83526381D02*
X92797238Y-83574000D01*
X92844857Y-83621619D01*
X92892476Y-83574000D01*
X92844857Y-83526381D01*
X92844857Y-83621619D01*
X93321047Y-84526381D02*
X93321047Y-83859714D01*
X93321047Y-84050190D02*
X93368666Y-83954952D01*
X93416285Y-83907333D01*
X93511523Y-83859714D01*
X93606762Y-83859714D01*
X168298762Y-103473000D02*
X168346381Y-103330143D01*
X168346381Y-103092047D01*
X168298762Y-102996809D01*
X168251143Y-102949190D01*
X168155905Y-102901571D01*
X168060667Y-102901571D01*
X167965429Y-102949190D01*
X167917810Y-102996809D01*
X167870190Y-103092047D01*
X167822571Y-103282524D01*
X167774952Y-103377762D01*
X167727333Y-103425381D01*
X167632095Y-103473000D01*
X167536857Y-103473000D01*
X167441619Y-103425381D01*
X167394000Y-103377762D01*
X167346381Y-103282524D01*
X167346381Y-103044428D01*
X167394000Y-102901571D01*
X167679714Y-102615857D02*
X167679714Y-102234905D01*
X167346381Y-102473000D02*
X168203524Y-102473000D01*
X168298762Y-102425381D01*
X168346381Y-102330143D01*
X168346381Y-102234905D01*
X168346381Y-101901571D02*
X167679714Y-101901571D01*
X167870190Y-101901571D02*
X167774952Y-101853952D01*
X167727333Y-101806333D01*
X167679714Y-101711095D01*
X167679714Y-101615856D01*
X168346381Y-101139666D02*
X168298762Y-101234904D01*
X168251143Y-101282523D01*
X168155905Y-101330142D01*
X167870190Y-101330142D01*
X167774952Y-101282523D01*
X167727333Y-101234904D01*
X167679714Y-101139666D01*
X167679714Y-100996808D01*
X167727333Y-100901570D01*
X167774952Y-100853951D01*
X167870190Y-100806332D01*
X168155905Y-100806332D01*
X168251143Y-100853951D01*
X168298762Y-100901570D01*
X168346381Y-100996808D01*
X168346381Y-101139666D01*
X168346381Y-100377761D02*
X167679714Y-100377761D01*
X167774952Y-100377761D02*
X167727333Y-100330142D01*
X167679714Y-100234904D01*
X167679714Y-100092046D01*
X167727333Y-99996808D01*
X167822571Y-99949189D01*
X168346381Y-99949189D01*
X167822571Y-99949189D02*
X167727333Y-99901570D01*
X167679714Y-99806332D01*
X167679714Y-99663475D01*
X167727333Y-99568237D01*
X167822571Y-99520618D01*
X168346381Y-99520618D01*
X167346381Y-97845333D02*
X167346381Y-97273904D01*
X168346381Y-97559619D02*
X167346381Y-97559619D01*
X168298762Y-96559618D02*
X168346381Y-96654856D01*
X168346381Y-96845333D01*
X168298762Y-96940571D01*
X168203524Y-96988190D01*
X167822571Y-96988190D01*
X167727333Y-96940571D01*
X167679714Y-96845333D01*
X167679714Y-96654856D01*
X167727333Y-96559618D01*
X167822571Y-96511999D01*
X167917810Y-96511999D01*
X168013048Y-96988190D01*
X168346381Y-96083428D02*
X167679714Y-96083428D01*
X167774952Y-96083428D02*
X167727333Y-96035809D01*
X167679714Y-95940571D01*
X167679714Y-95797713D01*
X167727333Y-95702475D01*
X167822571Y-95654856D01*
X168346381Y-95654856D01*
X167822571Y-95654856D02*
X167727333Y-95607237D01*
X167679714Y-95511999D01*
X167679714Y-95369142D01*
X167727333Y-95273904D01*
X167822571Y-95226285D01*
X168346381Y-95226285D01*
X167679714Y-94750095D02*
X168679714Y-94750095D01*
X167727333Y-94750095D02*
X167679714Y-94654857D01*
X167679714Y-94464380D01*
X167727333Y-94369142D01*
X167774952Y-94321523D01*
X167870190Y-94273904D01*
X168155905Y-94273904D01*
X168251143Y-94321523D01*
X168298762Y-94369142D01*
X168346381Y-94464380D01*
X168346381Y-94654857D01*
X168298762Y-94750095D01*
D21*
X90376572Y-77890667D02*
X90614667Y-77890667D01*
X90328953Y-78176381D02*
X90495620Y-77176381D01*
X90662286Y-78176381D01*
X90757524Y-77176381D02*
X91043238Y-77176381D01*
X90900381Y-78176381D02*
X90900381Y-77176381D01*
X91209905Y-77795429D02*
X91590857Y-77795429D01*
X91828953Y-78176381D02*
X91828953Y-77176381D01*
X91995619Y-77890667D01*
X92162286Y-77176381D01*
X92162286Y-78176381D01*
X92471810Y-78176381D02*
X92424191Y-78128762D01*
X92400382Y-78081143D01*
X92376572Y-77985905D01*
X92376572Y-77700190D01*
X92400382Y-77604952D01*
X92424191Y-77557333D01*
X92471810Y-77509714D01*
X92543239Y-77509714D01*
X92590858Y-77557333D01*
X92614667Y-77604952D01*
X92638477Y-77700190D01*
X92638477Y-77985905D01*
X92614667Y-78081143D01*
X92590858Y-78128762D01*
X92543239Y-78176381D01*
X92471810Y-78176381D01*
X93067048Y-78176381D02*
X93067048Y-77176381D01*
X93067048Y-78128762D02*
X93019429Y-78176381D01*
X92924191Y-78176381D01*
X92876572Y-78128762D01*
X92852763Y-78081143D01*
X92828953Y-77985905D01*
X92828953Y-77700190D01*
X92852763Y-77604952D01*
X92876572Y-77557333D01*
X92924191Y-77509714D01*
X93019429Y-77509714D01*
X93067048Y-77557333D01*
X93495620Y-78128762D02*
X93448001Y-78176381D01*
X93352763Y-78176381D01*
X93305144Y-78128762D01*
X93281334Y-78033524D01*
X93281334Y-77652571D01*
X93305144Y-77557333D01*
X93352763Y-77509714D01*
X93448001Y-77509714D01*
X93495620Y-77557333D01*
X93519429Y-77652571D01*
X93519429Y-77747810D01*
X93281334Y-77843048D01*
D12*
X90767143Y-80954571D02*
X90881429Y-81002190D01*
X90919524Y-81049810D01*
X90957619Y-81145048D01*
X90957619Y-81287905D01*
X90919524Y-81383143D01*
X90881429Y-81430762D01*
X90805238Y-81478381D01*
X90500476Y-81478381D01*
X90500476Y-80478381D01*
X90767143Y-80478381D01*
X90843333Y-80526000D01*
X90881429Y-80573619D01*
X90919524Y-80668857D01*
X90919524Y-80764095D01*
X90881429Y-80859333D01*
X90843333Y-80906952D01*
X90767143Y-80954571D01*
X90500476Y-80954571D01*
X91186190Y-80478381D02*
X91643333Y-80478381D01*
X91414762Y-81478381D02*
X91414762Y-80478381D01*
X91910000Y-81097429D02*
X92519524Y-81097429D01*
X92900476Y-81478381D02*
X92900476Y-80478381D01*
X93205238Y-80478381D01*
X93281429Y-80526000D01*
X93319524Y-80573619D01*
X93357619Y-80668857D01*
X93357619Y-80811714D01*
X93319524Y-80906952D01*
X93281429Y-80954571D01*
X93205238Y-81002190D01*
X92900476Y-81002190D01*
X94043333Y-81478381D02*
X94043333Y-80954571D01*
X94005238Y-80859333D01*
X93929048Y-80811714D01*
X93776667Y-80811714D01*
X93700476Y-80859333D01*
X94043333Y-81430762D02*
X93967143Y-81478381D01*
X93776667Y-81478381D01*
X93700476Y-81430762D01*
X93662381Y-81335524D01*
X93662381Y-81240286D01*
X93700476Y-81145048D01*
X93776667Y-81097429D01*
X93967143Y-81097429D01*
X94043333Y-81049810D01*
X94424286Y-81478381D02*
X94424286Y-80811714D01*
X94424286Y-80478381D02*
X94386191Y-80526000D01*
X94424286Y-80573619D01*
X94462381Y-80526000D01*
X94424286Y-80478381D01*
X94424286Y-80573619D01*
X94805238Y-81478381D02*
X94805238Y-80811714D01*
X94805238Y-81002190D02*
X94843333Y-80906952D01*
X94881429Y-80859333D01*
X94957619Y-80811714D01*
X95033810Y-80811714D01*
X105037000Y-123880476D02*
X104989381Y-123975714D01*
X104989381Y-124118571D01*
X105037000Y-124261429D01*
X105132238Y-124356667D01*
X105227476Y-124404286D01*
X105417952Y-124451905D01*
X105560810Y-124451905D01*
X105751286Y-124404286D01*
X105846524Y-124356667D01*
X105941762Y-124261429D01*
X105989381Y-124118571D01*
X105989381Y-124023333D01*
X105941762Y-123880476D01*
X105894143Y-123832857D01*
X105560810Y-123832857D01*
X105560810Y-124023333D01*
X105941762Y-123451905D02*
X105989381Y-123309048D01*
X105989381Y-123070952D01*
X105941762Y-122975714D01*
X105894143Y-122928095D01*
X105798905Y-122880476D01*
X105703667Y-122880476D01*
X105608429Y-122928095D01*
X105560810Y-122975714D01*
X105513190Y-123070952D01*
X105465571Y-123261429D01*
X105417952Y-123356667D01*
X105370333Y-123404286D01*
X105275095Y-123451905D01*
X105179857Y-123451905D01*
X105084619Y-123404286D01*
X105037000Y-123356667D01*
X104989381Y-123261429D01*
X104989381Y-123023333D01*
X105037000Y-122880476D01*
X105989381Y-121928095D02*
X105989381Y-122499524D01*
X105989381Y-122213810D02*
X104989381Y-122213810D01*
X105132238Y-122309048D01*
X105227476Y-122404286D01*
X105275095Y-122499524D01*
X149853714Y-120757905D02*
X149587047Y-120376952D01*
X149396571Y-120757905D02*
X149396571Y-119957905D01*
X149701333Y-119957905D01*
X149777524Y-119996000D01*
X149815619Y-120034095D01*
X149853714Y-120110286D01*
X149853714Y-120224571D01*
X149815619Y-120300762D01*
X149777524Y-120338857D01*
X149701333Y-120376952D01*
X149396571Y-120376952D01*
X150120381Y-119957905D02*
X150615619Y-119957905D01*
X150348952Y-120262667D01*
X150463238Y-120262667D01*
X150539428Y-120300762D01*
X150577524Y-120338857D01*
X150615619Y-120415048D01*
X150615619Y-120605524D01*
X150577524Y-120681714D01*
X150539428Y-120719810D01*
X150463238Y-120757905D01*
X150234666Y-120757905D01*
X150158476Y-120719810D01*
X150120381Y-120681714D01*
X151110857Y-119957905D02*
X151187048Y-119957905D01*
X151263238Y-119996000D01*
X151301333Y-120034095D01*
X151339429Y-120110286D01*
X151377524Y-120262667D01*
X151377524Y-120453143D01*
X151339429Y-120605524D01*
X151301333Y-120681714D01*
X151263238Y-120719810D01*
X151187048Y-120757905D01*
X151110857Y-120757905D01*
X151034667Y-120719810D01*
X150996571Y-120681714D01*
X150958476Y-120605524D01*
X150920381Y-120453143D01*
X150920381Y-120262667D01*
X150958476Y-120110286D01*
X150996571Y-120034095D01*
X151034667Y-119996000D01*
X151110857Y-119957905D01*
X152393714Y-120757905D02*
X152127047Y-120376952D01*
X151936571Y-120757905D02*
X151936571Y-119957905D01*
X152241333Y-119957905D01*
X152317524Y-119996000D01*
X152355619Y-120034095D01*
X152393714Y-120110286D01*
X152393714Y-120224571D01*
X152355619Y-120300762D01*
X152317524Y-120338857D01*
X152241333Y-120376952D01*
X151936571Y-120376952D01*
X152660381Y-119957905D02*
X153155619Y-119957905D01*
X152888952Y-120262667D01*
X153003238Y-120262667D01*
X153079428Y-120300762D01*
X153117524Y-120338857D01*
X153155619Y-120415048D01*
X153155619Y-120605524D01*
X153117524Y-120681714D01*
X153079428Y-120719810D01*
X153003238Y-120757905D01*
X152774666Y-120757905D01*
X152698476Y-120719810D01*
X152660381Y-120681714D01*
X153917524Y-120757905D02*
X153460381Y-120757905D01*
X153688952Y-120757905D02*
X153688952Y-119957905D01*
X153612762Y-120072190D01*
X153536571Y-120148381D01*
X153460381Y-120186476D01*
X154933714Y-120757905D02*
X154667047Y-120376952D01*
X154476571Y-120757905D02*
X154476571Y-119957905D01*
X154781333Y-119957905D01*
X154857524Y-119996000D01*
X154895619Y-120034095D01*
X154933714Y-120110286D01*
X154933714Y-120224571D01*
X154895619Y-120300762D01*
X154857524Y-120338857D01*
X154781333Y-120376952D01*
X154476571Y-120376952D01*
X155200381Y-119957905D02*
X155695619Y-119957905D01*
X155428952Y-120262667D01*
X155543238Y-120262667D01*
X155619428Y-120300762D01*
X155657524Y-120338857D01*
X155695619Y-120415048D01*
X155695619Y-120605524D01*
X155657524Y-120681714D01*
X155619428Y-120719810D01*
X155543238Y-120757905D01*
X155314666Y-120757905D01*
X155238476Y-120719810D01*
X155200381Y-120681714D01*
X156000381Y-120034095D02*
X156038476Y-119996000D01*
X156114667Y-119957905D01*
X156305143Y-119957905D01*
X156381333Y-119996000D01*
X156419429Y-120034095D01*
X156457524Y-120110286D01*
X156457524Y-120186476D01*
X156419429Y-120300762D01*
X155962286Y-120757905D01*
X156457524Y-120757905D01*
X159107143Y-80938666D02*
X159154762Y-80986285D01*
X159202381Y-81129142D01*
X159202381Y-81224380D01*
X159154762Y-81367238D01*
X159059524Y-81462476D01*
X158964286Y-81510095D01*
X158773810Y-81557714D01*
X158630952Y-81557714D01*
X158440476Y-81510095D01*
X158345238Y-81462476D01*
X158250000Y-81367238D01*
X158202381Y-81224380D01*
X158202381Y-81129142D01*
X158250000Y-80986285D01*
X158297619Y-80938666D01*
X159202381Y-79986285D02*
X159202381Y-80557714D01*
X159202381Y-80272000D02*
X158202381Y-80272000D01*
X158345238Y-80367238D01*
X158440476Y-80462476D01*
X158488095Y-80557714D01*
X161012381Y-83002381D02*
X160440952Y-83002381D01*
X160726666Y-83002381D02*
X160726666Y-82002381D01*
X160631428Y-82145238D01*
X160536190Y-82240476D01*
X160440952Y-82288095D01*
X161631428Y-82002381D02*
X161726667Y-82002381D01*
X161821905Y-82050000D01*
X161869524Y-82097619D01*
X161917143Y-82192857D01*
X161964762Y-82383333D01*
X161964762Y-82621429D01*
X161917143Y-82811905D01*
X161869524Y-82907143D01*
X161821905Y-82954762D01*
X161726667Y-83002381D01*
X161631428Y-83002381D01*
X161536190Y-82954762D01*
X161488571Y-82907143D01*
X161440952Y-82811905D01*
X161393333Y-82621429D01*
X161393333Y-82383333D01*
X161440952Y-82192857D01*
X161488571Y-82097619D01*
X161536190Y-82050000D01*
X161631428Y-82002381D01*
X162583809Y-82002381D02*
X162679048Y-82002381D01*
X162774286Y-82050000D01*
X162821905Y-82097619D01*
X162869524Y-82192857D01*
X162917143Y-82383333D01*
X162917143Y-82621429D01*
X162869524Y-82811905D01*
X162821905Y-82907143D01*
X162774286Y-82954762D01*
X162679048Y-83002381D01*
X162583809Y-83002381D01*
X162488571Y-82954762D01*
X162440952Y-82907143D01*
X162393333Y-82811905D01*
X162345714Y-82621429D01*
X162345714Y-82383333D01*
X162393333Y-82192857D01*
X162440952Y-82097619D01*
X162488571Y-82050000D01*
X162583809Y-82002381D01*
X163345714Y-82335714D02*
X163345714Y-83002381D01*
X163345714Y-82430952D02*
X163393333Y-82383333D01*
X163488571Y-82335714D01*
X163631429Y-82335714D01*
X163726667Y-82383333D01*
X163774286Y-82478571D01*
X163774286Y-83002381D01*
X164583810Y-82478571D02*
X164250476Y-82478571D01*
X164250476Y-83002381D02*
X164250476Y-82002381D01*
X164726667Y-82002381D01*
X167108143Y-110275666D02*
X167155762Y-110323285D01*
X167203381Y-110466142D01*
X167203381Y-110561380D01*
X167155762Y-110704238D01*
X167060524Y-110799476D01*
X166965286Y-110847095D01*
X166774810Y-110894714D01*
X166631952Y-110894714D01*
X166441476Y-110847095D01*
X166346238Y-110799476D01*
X166251000Y-110704238D01*
X166203381Y-110561380D01*
X166203381Y-110466142D01*
X166251000Y-110323285D01*
X166298619Y-110275666D01*
X166298619Y-109894714D02*
X166251000Y-109847095D01*
X166203381Y-109751857D01*
X166203381Y-109513761D01*
X166251000Y-109418523D01*
X166298619Y-109370904D01*
X166393857Y-109323285D01*
X166489095Y-109323285D01*
X166631952Y-109370904D01*
X167203381Y-109942333D01*
X167203381Y-109323285D01*
X173045381Y-108100619D02*
X173045381Y-108672048D01*
X173045381Y-108386334D02*
X172045381Y-108386334D01*
X172188238Y-108481572D01*
X172283476Y-108576810D01*
X172331095Y-108672048D01*
X172045381Y-107481572D02*
X172045381Y-107386333D01*
X172093000Y-107291095D01*
X172140619Y-107243476D01*
X172235857Y-107195857D01*
X172426333Y-107148238D01*
X172664429Y-107148238D01*
X172854905Y-107195857D01*
X172950143Y-107243476D01*
X172997762Y-107291095D01*
X173045381Y-107386333D01*
X173045381Y-107481572D01*
X172997762Y-107576810D01*
X172950143Y-107624429D01*
X172854905Y-107672048D01*
X172664429Y-107719667D01*
X172426333Y-107719667D01*
X172235857Y-107672048D01*
X172140619Y-107624429D01*
X172093000Y-107576810D01*
X172045381Y-107481572D01*
X172045381Y-106529191D02*
X172045381Y-106433952D01*
X172093000Y-106338714D01*
X172140619Y-106291095D01*
X172235857Y-106243476D01*
X172426333Y-106195857D01*
X172664429Y-106195857D01*
X172854905Y-106243476D01*
X172950143Y-106291095D01*
X172997762Y-106338714D01*
X173045381Y-106433952D01*
X173045381Y-106529191D01*
X172997762Y-106624429D01*
X172950143Y-106672048D01*
X172854905Y-106719667D01*
X172664429Y-106767286D01*
X172426333Y-106767286D01*
X172235857Y-106719667D01*
X172140619Y-106672048D01*
X172093000Y-106624429D01*
X172045381Y-106529191D01*
X172378714Y-105767286D02*
X173045381Y-105767286D01*
X172473952Y-105767286D02*
X172426333Y-105719667D01*
X172378714Y-105624429D01*
X172378714Y-105481571D01*
X172426333Y-105386333D01*
X172521571Y-105338714D01*
X173045381Y-105338714D01*
X172521571Y-104529190D02*
X172521571Y-104862524D01*
X173045381Y-104862524D02*
X172045381Y-104862524D01*
X172045381Y-104386333D01*
X124928334Y-103227143D02*
X124880715Y-103274762D01*
X124737858Y-103322381D01*
X124642620Y-103322381D01*
X124499762Y-103274762D01*
X124404524Y-103179524D01*
X124356905Y-103084286D01*
X124309286Y-102893810D01*
X124309286Y-102750952D01*
X124356905Y-102560476D01*
X124404524Y-102465238D01*
X124499762Y-102370000D01*
X124642620Y-102322381D01*
X124737858Y-102322381D01*
X124880715Y-102370000D01*
X124928334Y-102417619D01*
X125261667Y-102322381D02*
X125880715Y-102322381D01*
X125547381Y-102703333D01*
X125690239Y-102703333D01*
X125785477Y-102750952D01*
X125833096Y-102798571D01*
X125880715Y-102893810D01*
X125880715Y-103131905D01*
X125833096Y-103227143D01*
X125785477Y-103274762D01*
X125690239Y-103322381D01*
X125404524Y-103322381D01*
X125309286Y-103274762D01*
X125261667Y-103227143D01*
X123247381Y-101242619D02*
X123247381Y-101814048D01*
X123247381Y-101528334D02*
X122247381Y-101528334D01*
X122390238Y-101623572D01*
X122485476Y-101718810D01*
X122533095Y-101814048D01*
X122247381Y-100623572D02*
X122247381Y-100528333D01*
X122295000Y-100433095D01*
X122342619Y-100385476D01*
X122437857Y-100337857D01*
X122628333Y-100290238D01*
X122866429Y-100290238D01*
X123056905Y-100337857D01*
X123152143Y-100385476D01*
X123199762Y-100433095D01*
X123247381Y-100528333D01*
X123247381Y-100623572D01*
X123199762Y-100718810D01*
X123152143Y-100766429D01*
X123056905Y-100814048D01*
X122866429Y-100861667D01*
X122628333Y-100861667D01*
X122437857Y-100814048D01*
X122342619Y-100766429D01*
X122295000Y-100718810D01*
X122247381Y-100623572D01*
X122247381Y-99671191D02*
X122247381Y-99575952D01*
X122295000Y-99480714D01*
X122342619Y-99433095D01*
X122437857Y-99385476D01*
X122628333Y-99337857D01*
X122866429Y-99337857D01*
X123056905Y-99385476D01*
X123152143Y-99433095D01*
X123199762Y-99480714D01*
X123247381Y-99575952D01*
X123247381Y-99671191D01*
X123199762Y-99766429D01*
X123152143Y-99814048D01*
X123056905Y-99861667D01*
X122866429Y-99909286D01*
X122628333Y-99909286D01*
X122437857Y-99861667D01*
X122342619Y-99814048D01*
X122295000Y-99766429D01*
X122247381Y-99671191D01*
X122580714Y-98909286D02*
X123247381Y-98909286D01*
X122675952Y-98909286D02*
X122628333Y-98861667D01*
X122580714Y-98766429D01*
X122580714Y-98623571D01*
X122628333Y-98528333D01*
X122723571Y-98480714D01*
X123247381Y-98480714D01*
X122723571Y-97671190D02*
X122723571Y-98004524D01*
X123247381Y-98004524D02*
X122247381Y-98004524D01*
X122247381Y-97528333D01*
X161377334Y-95861143D02*
X161329715Y-95908762D01*
X161186858Y-95956381D01*
X161091620Y-95956381D01*
X160948762Y-95908762D01*
X160853524Y-95813524D01*
X160805905Y-95718286D01*
X160758286Y-95527810D01*
X160758286Y-95384952D01*
X160805905Y-95194476D01*
X160853524Y-95099238D01*
X160948762Y-95004000D01*
X161091620Y-94956381D01*
X161186858Y-94956381D01*
X161329715Y-95004000D01*
X161377334Y-95051619D01*
X162234477Y-95289714D02*
X162234477Y-95956381D01*
X161996381Y-94908762D02*
X161758286Y-95623048D01*
X162377334Y-95623048D01*
X160218381Y-99845619D02*
X160218381Y-100417048D01*
X160218381Y-100131334D02*
X159218381Y-100131334D01*
X159361238Y-100226572D01*
X159456476Y-100321810D01*
X159504095Y-100417048D01*
X159218381Y-99226572D02*
X159218381Y-99131333D01*
X159266000Y-99036095D01*
X159313619Y-98988476D01*
X159408857Y-98940857D01*
X159599333Y-98893238D01*
X159837429Y-98893238D01*
X160027905Y-98940857D01*
X160123143Y-98988476D01*
X160170762Y-99036095D01*
X160218381Y-99131333D01*
X160218381Y-99226572D01*
X160170762Y-99321810D01*
X160123143Y-99369429D01*
X160027905Y-99417048D01*
X159837429Y-99464667D01*
X159599333Y-99464667D01*
X159408857Y-99417048D01*
X159313619Y-99369429D01*
X159266000Y-99321810D01*
X159218381Y-99226572D01*
X159218381Y-98274191D02*
X159218381Y-98178952D01*
X159266000Y-98083714D01*
X159313619Y-98036095D01*
X159408857Y-97988476D01*
X159599333Y-97940857D01*
X159837429Y-97940857D01*
X160027905Y-97988476D01*
X160123143Y-98036095D01*
X160170762Y-98083714D01*
X160218381Y-98178952D01*
X160218381Y-98274191D01*
X160170762Y-98369429D01*
X160123143Y-98417048D01*
X160027905Y-98464667D01*
X159837429Y-98512286D01*
X159599333Y-98512286D01*
X159408857Y-98464667D01*
X159313619Y-98417048D01*
X159266000Y-98369429D01*
X159218381Y-98274191D01*
X159551714Y-97512286D02*
X160218381Y-97512286D01*
X159646952Y-97512286D02*
X159599333Y-97464667D01*
X159551714Y-97369429D01*
X159551714Y-97226571D01*
X159599333Y-97131333D01*
X159694571Y-97083714D01*
X160218381Y-97083714D01*
X159694571Y-96274190D02*
X159694571Y-96607524D01*
X160218381Y-96607524D02*
X159218381Y-96607524D01*
X159218381Y-96131333D01*
X145629334Y-112625143D02*
X145581715Y-112672762D01*
X145438858Y-112720381D01*
X145343620Y-112720381D01*
X145200762Y-112672762D01*
X145105524Y-112577524D01*
X145057905Y-112482286D01*
X145010286Y-112291810D01*
X145010286Y-112148952D01*
X145057905Y-111958476D01*
X145105524Y-111863238D01*
X145200762Y-111768000D01*
X145343620Y-111720381D01*
X145438858Y-111720381D01*
X145581715Y-111768000D01*
X145629334Y-111815619D01*
X146534096Y-111720381D02*
X146057905Y-111720381D01*
X146010286Y-112196571D01*
X146057905Y-112148952D01*
X146153143Y-112101333D01*
X146391239Y-112101333D01*
X146486477Y-112148952D01*
X146534096Y-112196571D01*
X146581715Y-112291810D01*
X146581715Y-112529905D01*
X146534096Y-112625143D01*
X146486477Y-112672762D01*
X146391239Y-112720381D01*
X146153143Y-112720381D01*
X146057905Y-112672762D01*
X146010286Y-112625143D01*
X145669143Y-111450381D02*
X145097714Y-111450381D01*
X145383428Y-111450381D02*
X145383428Y-110450381D01*
X145288190Y-110593238D01*
X145192952Y-110688476D01*
X145097714Y-110736095D01*
X146288190Y-110450381D02*
X146383429Y-110450381D01*
X146478667Y-110498000D01*
X146526286Y-110545619D01*
X146573905Y-110640857D01*
X146621524Y-110831333D01*
X146621524Y-111069429D01*
X146573905Y-111259905D01*
X146526286Y-111355143D01*
X146478667Y-111402762D01*
X146383429Y-111450381D01*
X146288190Y-111450381D01*
X146192952Y-111402762D01*
X146145333Y-111355143D01*
X146097714Y-111259905D01*
X146050095Y-111069429D01*
X146050095Y-110831333D01*
X146097714Y-110640857D01*
X146145333Y-110545619D01*
X146192952Y-110498000D01*
X146288190Y-110450381D01*
X147050095Y-110783714D02*
X147050095Y-111783714D01*
X147526286Y-111307524D02*
X147573905Y-111402762D01*
X147669143Y-111450381D01*
X147050095Y-111307524D02*
X147097714Y-111402762D01*
X147192952Y-111450381D01*
X147383429Y-111450381D01*
X147478667Y-111402762D01*
X147526286Y-111307524D01*
X147526286Y-110783714D01*
X148431048Y-110926571D02*
X148097714Y-110926571D01*
X148097714Y-111450381D02*
X148097714Y-110450381D01*
X148573905Y-110450381D01*
X140803334Y-114657143D02*
X140755715Y-114704762D01*
X140612858Y-114752381D01*
X140517620Y-114752381D01*
X140374762Y-114704762D01*
X140279524Y-114609524D01*
X140231905Y-114514286D01*
X140184286Y-114323810D01*
X140184286Y-114180952D01*
X140231905Y-113990476D01*
X140279524Y-113895238D01*
X140374762Y-113800000D01*
X140517620Y-113752381D01*
X140612858Y-113752381D01*
X140755715Y-113800000D01*
X140803334Y-113847619D01*
X141660477Y-113752381D02*
X141470000Y-113752381D01*
X141374762Y-113800000D01*
X141327143Y-113847619D01*
X141231905Y-113990476D01*
X141184286Y-114180952D01*
X141184286Y-114561905D01*
X141231905Y-114657143D01*
X141279524Y-114704762D01*
X141374762Y-114752381D01*
X141565239Y-114752381D01*
X141660477Y-114704762D01*
X141708096Y-114657143D01*
X141755715Y-114561905D01*
X141755715Y-114323810D01*
X141708096Y-114228571D01*
X141660477Y-114180952D01*
X141565239Y-114133333D01*
X141374762Y-114133333D01*
X141279524Y-114180952D01*
X141231905Y-114228571D01*
X141184286Y-114323810D01*
X139255714Y-110037619D02*
X139303333Y-109990000D01*
X139398571Y-109942381D01*
X139636667Y-109942381D01*
X139731905Y-109990000D01*
X139779524Y-110037619D01*
X139827143Y-110132857D01*
X139827143Y-110228095D01*
X139779524Y-110370952D01*
X139208095Y-110942381D01*
X139827143Y-110942381D01*
X140208095Y-110037619D02*
X140255714Y-109990000D01*
X140350952Y-109942381D01*
X140589048Y-109942381D01*
X140684286Y-109990000D01*
X140731905Y-110037619D01*
X140779524Y-110132857D01*
X140779524Y-110228095D01*
X140731905Y-110370952D01*
X140160476Y-110942381D01*
X140779524Y-110942381D01*
X141208095Y-110275714D02*
X141208095Y-111275714D01*
X141684286Y-110799524D02*
X141731905Y-110894762D01*
X141827143Y-110942381D01*
X141208095Y-110799524D02*
X141255714Y-110894762D01*
X141350952Y-110942381D01*
X141541429Y-110942381D01*
X141636667Y-110894762D01*
X141684286Y-110799524D01*
X141684286Y-110275714D01*
X142589048Y-110418571D02*
X142255714Y-110418571D01*
X142255714Y-110942381D02*
X142255714Y-109942381D01*
X142731905Y-109942381D01*
X166060381Y-124007334D02*
X165060381Y-124007334D01*
X165774667Y-123674000D01*
X165060381Y-123340667D01*
X166060381Y-123340667D01*
X166060381Y-122721620D02*
X166012762Y-122816858D01*
X165965143Y-122864477D01*
X165869905Y-122912096D01*
X165584190Y-122912096D01*
X165488952Y-122864477D01*
X165441333Y-122816858D01*
X165393714Y-122721620D01*
X165393714Y-122578762D01*
X165441333Y-122483524D01*
X165488952Y-122435905D01*
X165584190Y-122388286D01*
X165869905Y-122388286D01*
X165965143Y-122435905D01*
X166012762Y-122483524D01*
X166060381Y-122578762D01*
X166060381Y-122721620D01*
X165393714Y-122102572D02*
X165393714Y-121721620D01*
X165060381Y-121959715D02*
X165917524Y-121959715D01*
X166012762Y-121912096D01*
X166060381Y-121816858D01*
X166060381Y-121721620D01*
X166060381Y-121245429D02*
X166012762Y-121340667D01*
X165965143Y-121388286D01*
X165869905Y-121435905D01*
X165584190Y-121435905D01*
X165488952Y-121388286D01*
X165441333Y-121340667D01*
X165393714Y-121245429D01*
X165393714Y-121102571D01*
X165441333Y-121007333D01*
X165488952Y-120959714D01*
X165584190Y-120912095D01*
X165869905Y-120912095D01*
X165965143Y-120959714D01*
X166012762Y-121007333D01*
X166060381Y-121102571D01*
X166060381Y-121245429D01*
X166060381Y-120483524D02*
X165393714Y-120483524D01*
X165584190Y-120483524D02*
X165488952Y-120435905D01*
X165441333Y-120388286D01*
X165393714Y-120293048D01*
X165393714Y-120197809D01*
X164822143Y-110275666D02*
X164869762Y-110323285D01*
X164917381Y-110466142D01*
X164917381Y-110561380D01*
X164869762Y-110704238D01*
X164774524Y-110799476D01*
X164679286Y-110847095D01*
X164488810Y-110894714D01*
X164345952Y-110894714D01*
X164155476Y-110847095D01*
X164060238Y-110799476D01*
X163965000Y-110704238D01*
X163917381Y-110561380D01*
X163917381Y-110466142D01*
X163965000Y-110323285D01*
X164012619Y-110275666D01*
X163917381Y-109942333D02*
X163917381Y-109275666D01*
X164917381Y-109704238D01*
X162091714Y-108156190D02*
X162758381Y-108156190D01*
X161710762Y-108394286D02*
X162425048Y-108632381D01*
X162425048Y-108013333D01*
X162663143Y-107632381D02*
X162710762Y-107584762D01*
X162758381Y-107632381D01*
X162710762Y-107680000D01*
X162663143Y-107632381D01*
X162758381Y-107632381D01*
X161758381Y-107251429D02*
X161758381Y-106584762D01*
X162758381Y-107013334D01*
X162091714Y-106203810D02*
X163091714Y-106203810D01*
X162615524Y-105727619D02*
X162710762Y-105680000D01*
X162758381Y-105584762D01*
X162615524Y-106203810D02*
X162710762Y-106156191D01*
X162758381Y-106060953D01*
X162758381Y-105870476D01*
X162710762Y-105775238D01*
X162615524Y-105727619D01*
X162091714Y-105727619D01*
X162234571Y-104822857D02*
X162234571Y-105156191D01*
X162758381Y-105156191D02*
X161758381Y-105156191D01*
X161758381Y-104680000D01*
X160139143Y-102560381D02*
X159805809Y-102084190D01*
X159567714Y-102560381D02*
X159567714Y-101560381D01*
X159948667Y-101560381D01*
X160043905Y-101608000D01*
X160091524Y-101655619D01*
X160139143Y-101750857D01*
X160139143Y-101893714D01*
X160091524Y-101988952D01*
X160043905Y-102036571D01*
X159948667Y-102084190D01*
X159567714Y-102084190D01*
X160520095Y-101655619D02*
X160567714Y-101608000D01*
X160662952Y-101560381D01*
X160901048Y-101560381D01*
X160996286Y-101608000D01*
X161043905Y-101655619D01*
X161091524Y-101750857D01*
X161091524Y-101846095D01*
X161043905Y-101988952D01*
X160472476Y-102560381D01*
X161091524Y-102560381D01*
X161948667Y-101893714D02*
X161948667Y-102560381D01*
X161710571Y-101512762D02*
X161472476Y-102227048D01*
X162091524Y-102227048D01*
X160456667Y-103084381D02*
X161075715Y-103084381D01*
X160742381Y-103465333D01*
X160885239Y-103465333D01*
X160980477Y-103512952D01*
X161028096Y-103560571D01*
X161075715Y-103655810D01*
X161075715Y-103893905D01*
X161028096Y-103989143D01*
X160980477Y-104036762D01*
X160885239Y-104084381D01*
X160599524Y-104084381D01*
X160504286Y-104036762D01*
X160456667Y-103989143D01*
X161504286Y-104084381D02*
X161504286Y-103084381D01*
X162075715Y-104084381D02*
X161647143Y-103512952D01*
X162075715Y-103084381D02*
X161504286Y-103655810D01*
D21*
X159142953Y-78204190D02*
X159142953Y-77704190D01*
X159262000Y-77704190D01*
X159333429Y-77728000D01*
X159381048Y-77775619D01*
X159404857Y-77823238D01*
X159428667Y-77918476D01*
X159428667Y-77989905D01*
X159404857Y-78085143D01*
X159381048Y-78132762D01*
X159333429Y-78180381D01*
X159262000Y-78204190D01*
X159142953Y-78204190D01*
X159904857Y-78204190D02*
X159619143Y-78204190D01*
X159762000Y-78204190D02*
X159762000Y-77704190D01*
X159714381Y-77775619D01*
X159666762Y-77823238D01*
X159619143Y-77847048D01*
D10*
X160858382Y-79428952D02*
X160858382Y-79028952D01*
X160991715Y-79314667D01*
X161125049Y-79028952D01*
X161125049Y-79428952D01*
X161448858Y-79219429D02*
X161506001Y-79238476D01*
X161525049Y-79257524D01*
X161544097Y-79295619D01*
X161544097Y-79352762D01*
X161525049Y-79390857D01*
X161506001Y-79409905D01*
X161467906Y-79428952D01*
X161315525Y-79428952D01*
X161315525Y-79028952D01*
X161448858Y-79028952D01*
X161486954Y-79048000D01*
X161506001Y-79067048D01*
X161525049Y-79105143D01*
X161525049Y-79143238D01*
X161506001Y-79181333D01*
X161486954Y-79200381D01*
X161448858Y-79219429D01*
X161315525Y-79219429D01*
X161944097Y-79428952D02*
X161810763Y-79238476D01*
X161715525Y-79428952D02*
X161715525Y-79028952D01*
X161867906Y-79028952D01*
X161906001Y-79048000D01*
X161925049Y-79067048D01*
X161944097Y-79105143D01*
X161944097Y-79162286D01*
X161925049Y-79200381D01*
X161906001Y-79219429D01*
X161867906Y-79238476D01*
X161715525Y-79238476D01*
X162496478Y-79028952D02*
X162534573Y-79028952D01*
X162572668Y-79048000D01*
X162591716Y-79067048D01*
X162610763Y-79105143D01*
X162629811Y-79181333D01*
X162629811Y-79276571D01*
X162610763Y-79352762D01*
X162591716Y-79390857D01*
X162572668Y-79409905D01*
X162534573Y-79428952D01*
X162496478Y-79428952D01*
X162458382Y-79409905D01*
X162439335Y-79390857D01*
X162420287Y-79352762D01*
X162401239Y-79276571D01*
X162401239Y-79181333D01*
X162420287Y-79105143D01*
X162439335Y-79067048D01*
X162458382Y-79048000D01*
X162496478Y-79028952D01*
X162991715Y-79028952D02*
X162801239Y-79028952D01*
X162782191Y-79219429D01*
X162801239Y-79200381D01*
X162839334Y-79181333D01*
X162934572Y-79181333D01*
X162972668Y-79200381D01*
X162991715Y-79219429D01*
X163010763Y-79257524D01*
X163010763Y-79352762D01*
X162991715Y-79390857D01*
X162972668Y-79409905D01*
X162934572Y-79428952D01*
X162839334Y-79428952D01*
X162801239Y-79409905D01*
X162782191Y-79390857D01*
X163353620Y-79162286D02*
X163353620Y-79428952D01*
X163258382Y-79009905D02*
X163163143Y-79295619D01*
X163410763Y-79295619D01*
X163639334Y-79028952D02*
X163677429Y-79028952D01*
X163715524Y-79048000D01*
X163734572Y-79067048D01*
X163753619Y-79105143D01*
X163772667Y-79181333D01*
X163772667Y-79276571D01*
X163753619Y-79352762D01*
X163734572Y-79390857D01*
X163715524Y-79409905D01*
X163677429Y-79428952D01*
X163639334Y-79428952D01*
X163601238Y-79409905D01*
X163582191Y-79390857D01*
X163563143Y-79352762D01*
X163544095Y-79276571D01*
X163544095Y-79181333D01*
X163563143Y-79105143D01*
X163582191Y-79067048D01*
X163601238Y-79048000D01*
X163639334Y-79028952D01*
D21*
X159142953Y-76426190D02*
X159142953Y-75926190D01*
X159262000Y-75926190D01*
X159333429Y-75950000D01*
X159381048Y-75997619D01*
X159404857Y-76045238D01*
X159428667Y-76140476D01*
X159428667Y-76211905D01*
X159404857Y-76307143D01*
X159381048Y-76354762D01*
X159333429Y-76402381D01*
X159262000Y-76426190D01*
X159142953Y-76426190D01*
X159619143Y-75973810D02*
X159642953Y-75950000D01*
X159690572Y-75926190D01*
X159809619Y-75926190D01*
X159857238Y-75950000D01*
X159881048Y-75973810D01*
X159904857Y-76021429D01*
X159904857Y-76069048D01*
X159881048Y-76140476D01*
X159595334Y-76426190D01*
X159904857Y-76426190D01*
D10*
X160858382Y-75237952D02*
X160858382Y-74837952D01*
X160991715Y-75123667D01*
X161125049Y-74837952D01*
X161125049Y-75237952D01*
X161448858Y-75028429D02*
X161506001Y-75047476D01*
X161525049Y-75066524D01*
X161544097Y-75104619D01*
X161544097Y-75161762D01*
X161525049Y-75199857D01*
X161506001Y-75218905D01*
X161467906Y-75237952D01*
X161315525Y-75237952D01*
X161315525Y-74837952D01*
X161448858Y-74837952D01*
X161486954Y-74857000D01*
X161506001Y-74876048D01*
X161525049Y-74914143D01*
X161525049Y-74952238D01*
X161506001Y-74990333D01*
X161486954Y-75009381D01*
X161448858Y-75028429D01*
X161315525Y-75028429D01*
X161944097Y-75237952D02*
X161810763Y-75047476D01*
X161715525Y-75237952D02*
X161715525Y-74837952D01*
X161867906Y-74837952D01*
X161906001Y-74857000D01*
X161925049Y-74876048D01*
X161944097Y-74914143D01*
X161944097Y-74971286D01*
X161925049Y-75009381D01*
X161906001Y-75028429D01*
X161867906Y-75047476D01*
X161715525Y-75047476D01*
X162496478Y-74837952D02*
X162534573Y-74837952D01*
X162572668Y-74857000D01*
X162591716Y-74876048D01*
X162610763Y-74914143D01*
X162629811Y-74990333D01*
X162629811Y-75085571D01*
X162610763Y-75161762D01*
X162591716Y-75199857D01*
X162572668Y-75218905D01*
X162534573Y-75237952D01*
X162496478Y-75237952D01*
X162458382Y-75218905D01*
X162439335Y-75199857D01*
X162420287Y-75161762D01*
X162401239Y-75085571D01*
X162401239Y-74990333D01*
X162420287Y-74914143D01*
X162439335Y-74876048D01*
X162458382Y-74857000D01*
X162496478Y-74837952D01*
X162991715Y-74837952D02*
X162801239Y-74837952D01*
X162782191Y-75028429D01*
X162801239Y-75009381D01*
X162839334Y-74990333D01*
X162934572Y-74990333D01*
X162972668Y-75009381D01*
X162991715Y-75028429D01*
X163010763Y-75066524D01*
X163010763Y-75161762D01*
X162991715Y-75199857D01*
X162972668Y-75218905D01*
X162934572Y-75237952D01*
X162839334Y-75237952D01*
X162801239Y-75218905D01*
X162782191Y-75199857D01*
X163353620Y-74971286D02*
X163353620Y-75237952D01*
X163258382Y-74818905D02*
X163163143Y-75104619D01*
X163410763Y-75104619D01*
X163639334Y-74837952D02*
X163677429Y-74837952D01*
X163715524Y-74857000D01*
X163734572Y-74876048D01*
X163753619Y-74914143D01*
X163772667Y-74990333D01*
X163772667Y-75085571D01*
X163753619Y-75161762D01*
X163734572Y-75199857D01*
X163715524Y-75218905D01*
X163677429Y-75237952D01*
X163639334Y-75237952D01*
X163601238Y-75218905D01*
X163582191Y-75199857D01*
X163563143Y-75161762D01*
X163544095Y-75085571D01*
X163544095Y-74990333D01*
X163563143Y-74914143D01*
X163582191Y-74876048D01*
X163601238Y-74857000D01*
X163639334Y-74837952D01*
D12*
X89844571Y-103473142D02*
X89892190Y-103330285D01*
X89939810Y-103282666D01*
X90035048Y-103235047D01*
X90177905Y-103235047D01*
X90273143Y-103282666D01*
X90320762Y-103330285D01*
X90368381Y-103425523D01*
X90368381Y-103806476D01*
X89368381Y-103806476D01*
X89368381Y-103473142D01*
X89416000Y-103377904D01*
X89463619Y-103330285D01*
X89558857Y-103282666D01*
X89654095Y-103282666D01*
X89749333Y-103330285D01*
X89796952Y-103377904D01*
X89844571Y-103473142D01*
X89844571Y-103806476D01*
X90368381Y-102330285D02*
X90368381Y-102806476D01*
X89368381Y-102806476D01*
X90368381Y-101996952D02*
X89368381Y-101996952D01*
X89844571Y-101996952D02*
X89844571Y-101425523D01*
X90368381Y-101425523D02*
X89368381Y-101425523D01*
X90590667Y-118117524D02*
X90590667Y-117641333D01*
X90876381Y-118212762D02*
X89876381Y-117879429D01*
X90876381Y-117546095D01*
X90209714Y-117212762D02*
X90876381Y-117212762D01*
X90304952Y-117212762D02*
X90257333Y-117165143D01*
X90209714Y-117069905D01*
X90209714Y-116927047D01*
X90257333Y-116831809D01*
X90352571Y-116784190D01*
X90876381Y-116784190D01*
X90209714Y-116450857D02*
X90209714Y-116069905D01*
X89876381Y-116308000D02*
X90733524Y-116308000D01*
X90828762Y-116260381D01*
X90876381Y-116165143D01*
X90876381Y-116069905D01*
X90876381Y-115736571D02*
X90209714Y-115736571D01*
X89876381Y-115736571D02*
X89924000Y-115784190D01*
X89971619Y-115736571D01*
X89924000Y-115688952D01*
X89876381Y-115736571D01*
X89971619Y-115736571D01*
X90828762Y-115308000D02*
X90876381Y-115165143D01*
X90876381Y-114927047D01*
X90828762Y-114831809D01*
X90781143Y-114784190D01*
X90685905Y-114736571D01*
X90590667Y-114736571D01*
X90495429Y-114784190D01*
X90447810Y-114831809D01*
X90400190Y-114927047D01*
X90352571Y-115117524D01*
X90304952Y-115212762D01*
X90257333Y-115260381D01*
X90162095Y-115308000D01*
X90066857Y-115308000D01*
X89971619Y-115260381D01*
X89924000Y-115212762D01*
X89876381Y-115117524D01*
X89876381Y-114879428D01*
X89924000Y-114736571D01*
X90209714Y-114308000D02*
X91209714Y-114308000D01*
X90257333Y-114308000D02*
X90209714Y-114212762D01*
X90209714Y-114022285D01*
X90257333Y-113927047D01*
X90304952Y-113879428D01*
X90400190Y-113831809D01*
X90685905Y-113831809D01*
X90781143Y-113879428D01*
X90828762Y-113927047D01*
X90876381Y-114022285D01*
X90876381Y-114212762D01*
X90828762Y-114308000D01*
X90876381Y-112974666D02*
X90352571Y-112974666D01*
X90257333Y-113022285D01*
X90209714Y-113117523D01*
X90209714Y-113308000D01*
X90257333Y-113403238D01*
X90828762Y-112974666D02*
X90876381Y-113069904D01*
X90876381Y-113308000D01*
X90828762Y-113403238D01*
X90733524Y-113450857D01*
X90638286Y-113450857D01*
X90543048Y-113403238D01*
X90495429Y-113308000D01*
X90495429Y-113069904D01*
X90447810Y-112974666D01*
X90876381Y-112498476D02*
X90209714Y-112498476D01*
X90400190Y-112498476D02*
X90304952Y-112450857D01*
X90257333Y-112403238D01*
X90209714Y-112308000D01*
X90209714Y-112212761D01*
X90876381Y-111879428D02*
X89876381Y-111879428D01*
X90495429Y-111784190D02*
X90876381Y-111498475D01*
X90209714Y-111498475D02*
X90590667Y-111879428D01*
X90828762Y-124459715D02*
X90876381Y-124316858D01*
X90876381Y-124078762D01*
X90828762Y-123983524D01*
X90781143Y-123935905D01*
X90685905Y-123888286D01*
X90590667Y-123888286D01*
X90495429Y-123935905D01*
X90447810Y-123983524D01*
X90400190Y-124078762D01*
X90352571Y-124269239D01*
X90304952Y-124364477D01*
X90257333Y-124412096D01*
X90162095Y-124459715D01*
X90066857Y-124459715D01*
X89971619Y-124412096D01*
X89924000Y-124364477D01*
X89876381Y-124269239D01*
X89876381Y-124031143D01*
X89924000Y-123888286D01*
X90209714Y-123031143D02*
X90876381Y-123031143D01*
X90209714Y-123459715D02*
X90733524Y-123459715D01*
X90828762Y-123412096D01*
X90876381Y-123316858D01*
X90876381Y-123174000D01*
X90828762Y-123078762D01*
X90781143Y-123031143D01*
X90209714Y-122554953D02*
X91209714Y-122554953D01*
X90257333Y-122554953D02*
X90209714Y-122459715D01*
X90209714Y-122269238D01*
X90257333Y-122174000D01*
X90304952Y-122126381D01*
X90400190Y-122078762D01*
X90685905Y-122078762D01*
X90781143Y-122126381D01*
X90828762Y-122174000D01*
X90876381Y-122269238D01*
X90876381Y-122459715D01*
X90828762Y-122554953D01*
X90209714Y-121650191D02*
X91209714Y-121650191D01*
X90257333Y-121650191D02*
X90209714Y-121554953D01*
X90209714Y-121364476D01*
X90257333Y-121269238D01*
X90304952Y-121221619D01*
X90400190Y-121174000D01*
X90685905Y-121174000D01*
X90781143Y-121221619D01*
X90828762Y-121269238D01*
X90876381Y-121364476D01*
X90876381Y-121554953D01*
X90828762Y-121650191D01*
X90876381Y-120602572D02*
X90828762Y-120697810D01*
X90733524Y-120745429D01*
X89876381Y-120745429D01*
X90209714Y-120316857D02*
X90876381Y-120078762D01*
X90209714Y-119840666D02*
X90876381Y-120078762D01*
X91114476Y-120174000D01*
X91162095Y-120221619D01*
X91209714Y-120316857D01*
X130754381Y-119356095D02*
X129754381Y-119356095D01*
X129754381Y-119118000D01*
X129802000Y-118975142D01*
X129897238Y-118879904D01*
X129992476Y-118832285D01*
X130182952Y-118784666D01*
X130325810Y-118784666D01*
X130516286Y-118832285D01*
X130611524Y-118879904D01*
X130706762Y-118975142D01*
X130754381Y-119118000D01*
X130754381Y-119356095D01*
X129754381Y-118451333D02*
X129754381Y-117832285D01*
X130135333Y-118165619D01*
X130135333Y-118022761D01*
X130182952Y-117927523D01*
X130230571Y-117879904D01*
X130325810Y-117832285D01*
X130563905Y-117832285D01*
X130659143Y-117879904D01*
X130706762Y-117927523D01*
X130754381Y-118022761D01*
X130754381Y-118308476D01*
X130706762Y-118403714D01*
X130659143Y-118451333D01*
X128778095Y-76207881D02*
X128778095Y-75207881D01*
X128778095Y-75684071D02*
X129349524Y-75684071D01*
X129349524Y-76207881D02*
X129349524Y-75207881D01*
X130301905Y-75207881D02*
X129825714Y-75207881D01*
X129778095Y-75684071D01*
X129825714Y-75636452D01*
X129920952Y-75588833D01*
X130159048Y-75588833D01*
X130254286Y-75636452D01*
X130301905Y-75684071D01*
X130349524Y-75779310D01*
X130349524Y-76017405D01*
X130301905Y-76112643D01*
X130254286Y-76160262D01*
X130159048Y-76207881D01*
X129920952Y-76207881D01*
X129825714Y-76160262D01*
X129778095Y-76112643D01*
X151638095Y-81732381D02*
X151638095Y-80732381D01*
X151638095Y-81208571D02*
X152209524Y-81208571D01*
X152209524Y-81732381D02*
X152209524Y-80732381D01*
X152638095Y-80827619D02*
X152685714Y-80780000D01*
X152780952Y-80732381D01*
X153019048Y-80732381D01*
X153114286Y-80780000D01*
X153161905Y-80827619D01*
X153209524Y-80922857D01*
X153209524Y-81018095D01*
X153161905Y-81160952D01*
X152590476Y-81732381D01*
X153209524Y-81732381D01*
X91313095Y-92336881D02*
X91313095Y-91336881D01*
X91313095Y-91813071D02*
X91884524Y-91813071D01*
X91884524Y-92336881D02*
X91884524Y-91336881D01*
X92884524Y-92336881D02*
X92313095Y-92336881D01*
X92598809Y-92336881D02*
X92598809Y-91336881D01*
X92503571Y-91479738D01*
X92408333Y-91574976D01*
X92313095Y-91622595D01*
X124714095Y-106878381D02*
X124714095Y-105878381D01*
X124714095Y-106354571D02*
X125285524Y-106354571D01*
X125285524Y-106878381D02*
X125285524Y-105878381D01*
X126190286Y-106211714D02*
X126190286Y-106878381D01*
X125952190Y-105830762D02*
X125714095Y-106545048D01*
X126333143Y-106545048D01*
X154178095Y-98686881D02*
X154178095Y-97686881D01*
X154178095Y-98163071D02*
X154749524Y-98163071D01*
X154749524Y-98686881D02*
X154749524Y-97686881D01*
X155130476Y-97686881D02*
X155749524Y-97686881D01*
X155416190Y-98067833D01*
X155559048Y-98067833D01*
X155654286Y-98115452D01*
X155701905Y-98163071D01*
X155749524Y-98258310D01*
X155749524Y-98496405D01*
X155701905Y-98591643D01*
X155654286Y-98639262D01*
X155559048Y-98686881D01*
X155273333Y-98686881D01*
X155178095Y-98639262D01*
X155130476Y-98591643D01*
M02*
