G04 #@! TF.FileFunction,Copper,L2,Bot,Signal*
%FSLAX46Y46*%
G04 Gerber Fmt 4.6, Leading zero omitted, Abs format (unit mm)*
G04 Created by KiCad (PCBNEW (2015-01-16 BZR 5376)-product) date 28.03.2015 21:15:02*
%MOMM*%
G01*
G04 APERTURE LIST*
%ADD10C,0.100000*%
%ADD11C,0.150000*%
%ADD12C,1.473200*%
%ADD13R,1.473200X1.473200*%
%ADD14O,2.613660X1.305560*%
%ADD15R,1.422400X1.422400*%
%ADD16C,1.422400*%
%ADD17O,2.032000X2.540000*%
%ADD18R,1.270000X0.965200*%
%ADD19R,1.397000X1.397000*%
%ADD20C,1.397000*%
%ADD21R,1.727200X1.727200*%
%ADD22O,1.727200X1.727200*%
%ADD23R,2.032000X1.727200*%
%ADD24O,2.032000X1.727200*%
%ADD25R,2.032000X2.032000*%
%ADD26O,2.032000X2.032000*%
%ADD27C,0.600000*%
%ADD28C,1.000000*%
%ADD29C,0.500000*%
%ADD30C,0.300000*%
%ADD31C,0.700000*%
G04 APERTURE END LIST*
D10*
D11*
X91130333Y-74350571D02*
X90987476Y-74398190D01*
X90939857Y-74445810D01*
X90892238Y-74541048D01*
X90892238Y-74683905D01*
X90939857Y-74779143D01*
X90987476Y-74826762D01*
X91082714Y-74874381D01*
X91463667Y-74874381D01*
X91463667Y-73874381D01*
X91130333Y-73874381D01*
X91035095Y-73922000D01*
X90987476Y-73969619D01*
X90939857Y-74064857D01*
X90939857Y-74160095D01*
X90987476Y-74255333D01*
X91035095Y-74302952D01*
X91130333Y-74350571D01*
X91463667Y-74350571D01*
X90273191Y-73874381D02*
X90082714Y-73874381D01*
X89987476Y-73922000D01*
X89892238Y-74017238D01*
X89844619Y-74207714D01*
X89844619Y-74541048D01*
X89892238Y-74731524D01*
X89987476Y-74826762D01*
X90082714Y-74874381D01*
X90273191Y-74874381D01*
X90368429Y-74826762D01*
X90463667Y-74731524D01*
X90511286Y-74541048D01*
X90511286Y-74207714D01*
X90463667Y-74017238D01*
X90368429Y-73922000D01*
X90273191Y-73874381D01*
X89558905Y-73874381D02*
X88987476Y-73874381D01*
X89273191Y-74874381D02*
X89273191Y-73874381D01*
D12*
X134620000Y-77470000D03*
X134620000Y-80010000D03*
X134620000Y-82550000D03*
X134620000Y-85090000D03*
X149860000Y-80010000D03*
X139700000Y-107950000D03*
X134620000Y-87630000D03*
X134620000Y-90170000D03*
X134620000Y-92710000D03*
X134620000Y-95250000D03*
X134620000Y-97790000D03*
X134620000Y-100330000D03*
X134620000Y-102870000D03*
X134620000Y-105410000D03*
X134620000Y-107950000D03*
X149860000Y-107950000D03*
X149860000Y-105410000D03*
X149860000Y-102870000D03*
X149860000Y-100330000D03*
X149860000Y-97790000D03*
X149860000Y-95250000D03*
X149860000Y-92710000D03*
X149860000Y-90170000D03*
X149860000Y-87630000D03*
X149860000Y-85090000D03*
X149860000Y-82550000D03*
X147320000Y-85090000D03*
X147320000Y-87630000D03*
X147320000Y-107950000D03*
X149860000Y-77470000D03*
X147320000Y-82550000D03*
D13*
X134620000Y-74930000D03*
D12*
X142240000Y-107950000D03*
X144780000Y-107950000D03*
X137160000Y-107950000D03*
X149860000Y-74930000D03*
X147320000Y-77470000D03*
D14*
X94107000Y-90170000D03*
X94107000Y-87630000D03*
D15*
X167640000Y-74930000D03*
D16*
X170180000Y-74930000D03*
X167640000Y-77470000D03*
X170180000Y-77470000D03*
X167640000Y-80010000D03*
X170180000Y-80010000D03*
D17*
X142875000Y-121285000D03*
X140335000Y-121285000D03*
X145415000Y-121285000D03*
D18*
X167005000Y-113665000D03*
X167005000Y-114935000D03*
D19*
X120015000Y-121920000D03*
D20*
X122555000Y-121920000D03*
X125095000Y-121920000D03*
X127635000Y-121920000D03*
X127635000Y-114300000D03*
X125095000Y-114300000D03*
X122555000Y-114300000D03*
X120015000Y-114300000D03*
D18*
X172720000Y-118745000D03*
X172720000Y-120015000D03*
D21*
X160655000Y-92710000D03*
D22*
X158115000Y-92710000D03*
X160655000Y-90170000D03*
X158115000Y-90170000D03*
X160655000Y-87630000D03*
X158115000Y-87630000D03*
X160655000Y-85090000D03*
X158115000Y-85090000D03*
D19*
X153035000Y-111125000D03*
D20*
X153035000Y-113665000D03*
X153035000Y-116205000D03*
X153035000Y-118745000D03*
X160655000Y-118745000D03*
X160655000Y-116205000D03*
X160655000Y-113665000D03*
X160655000Y-111125000D03*
D23*
X170180000Y-111125000D03*
D24*
X170180000Y-113665000D03*
X170180000Y-116205000D03*
D23*
X170180000Y-83185000D03*
D24*
X170180000Y-85725000D03*
X170180000Y-88265000D03*
D21*
X130810000Y-96520000D03*
D22*
X130810000Y-99060000D03*
X128270000Y-96520000D03*
X128270000Y-99060000D03*
D23*
X165100000Y-92075000D03*
D24*
X165100000Y-94615000D03*
X165100000Y-97155000D03*
X165100000Y-99695000D03*
D25*
X130810000Y-85090000D03*
D26*
X128270000Y-85090000D03*
D23*
X170180000Y-102235000D03*
D24*
X170180000Y-104775000D03*
X170180000Y-107315000D03*
D23*
X170180000Y-93345000D03*
D24*
X170180000Y-95885000D03*
X170180000Y-98425000D03*
D15*
X167640000Y-119380000D03*
D16*
X170180000Y-119380000D03*
X167640000Y-121920000D03*
X170180000Y-121920000D03*
X167640000Y-124460000D03*
X170180000Y-124460000D03*
D14*
X94107000Y-110490000D03*
X94107000Y-107950000D03*
X94107000Y-105410000D03*
X94107000Y-116205000D03*
X94107000Y-113665000D03*
X94107000Y-124460000D03*
X94107000Y-121920000D03*
X94107000Y-119380000D03*
D15*
X130302000Y-114808000D03*
D16*
X130302000Y-122428000D03*
D27*
X106680000Y-86995000D03*
X104140000Y-86995000D03*
X101600000Y-86995000D03*
X99060000Y-86995000D03*
X96520000Y-86995000D03*
X107315000Y-91440000D03*
X106680000Y-95885000D03*
X104140000Y-95885000D03*
X101600000Y-95885000D03*
X99060000Y-95885000D03*
X96520000Y-95885000D03*
X107315000Y-100330000D03*
X107315000Y-109220000D03*
X106680000Y-104775000D03*
X104140000Y-104775000D03*
X101600000Y-104775000D03*
X99060000Y-104775000D03*
X96520000Y-104775000D03*
X107315000Y-118110000D03*
X117475000Y-92075000D03*
X117475000Y-88900000D03*
X117475000Y-85725000D03*
X117475000Y-81915000D03*
X117475000Y-78740000D03*
X107315000Y-82550000D03*
X106680000Y-113665000D03*
X104140000Y-113665000D03*
X101600000Y-113665000D03*
X99060000Y-113665000D03*
X142240000Y-105410000D03*
X142240000Y-102235000D03*
X142240000Y-94615000D03*
D28*
X165735000Y-88265000D03*
D27*
X121920000Y-103505000D03*
X121920000Y-106680000D03*
X119380000Y-109220000D03*
X156845000Y-118110000D03*
X156845000Y-115570000D03*
X156845000Y-113030000D03*
X143256000Y-118364000D03*
X143764000Y-116586000D03*
X143764000Y-114808000D03*
X160020000Y-80645000D03*
X113665000Y-93345000D03*
X152654000Y-122936000D03*
X139065000Y-123190000D03*
X147320000Y-91440000D03*
X143510000Y-91440000D03*
X147320000Y-97790000D03*
X144145000Y-102235000D03*
X144145000Y-90170000D03*
X136525000Y-105410000D03*
X147320000Y-104775000D03*
X152146000Y-105918000D03*
X148590000Y-109855000D03*
X150495000Y-111760000D03*
X116205000Y-111125000D03*
X116205000Y-105410000D03*
X116205000Y-101600000D03*
X138430000Y-105410000D03*
X120015000Y-79375000D03*
X102235000Y-77470000D03*
X122555000Y-80645000D03*
X102870000Y-74930000D03*
X150495000Y-122555000D03*
X144145000Y-123825000D03*
X141605000Y-123825000D03*
X151130000Y-123190000D03*
D29*
X106680000Y-86995000D02*
X104140000Y-86995000D01*
X101600000Y-86995000D02*
X99060000Y-86995000D01*
X106680000Y-95885000D02*
X104140000Y-95885000D01*
X101600000Y-95885000D02*
X99060000Y-95885000D01*
X106680000Y-104775000D02*
X104140000Y-104775000D01*
X99060000Y-104775000D02*
X96520000Y-104775000D01*
X117475000Y-92075000D02*
X117475000Y-88900000D01*
X117475000Y-85725000D02*
X117475000Y-81915000D01*
X106680000Y-113665000D02*
X104140000Y-113665000D01*
X101600000Y-113665000D02*
X99060000Y-113665000D01*
X142240000Y-105410000D02*
X142240000Y-102235000D01*
X170180000Y-88265000D02*
X165735000Y-88265000D01*
X121920000Y-103505000D02*
X121920000Y-106680000D01*
X156845000Y-118110000D02*
X156845000Y-115570000D01*
X143256000Y-117094000D02*
X143764000Y-116586000D01*
X143256000Y-118364000D02*
X143256000Y-117094000D01*
X167005000Y-101752400D02*
X167005000Y-98907600D01*
X167005000Y-98907600D02*
X165252400Y-97155000D01*
X165252400Y-97155000D02*
X165100000Y-97155000D01*
X170180000Y-104775000D02*
X170027600Y-104775000D01*
X170027600Y-104775000D02*
X167005000Y-101752400D01*
X160655000Y-92710000D02*
X160655000Y-94241554D01*
X160655000Y-94241554D02*
X160655000Y-95250000D01*
X139700000Y-102235000D02*
X147821601Y-94113399D01*
X147821601Y-94113399D02*
X160526845Y-94113399D01*
X160526845Y-94113399D02*
X160655000Y-94241554D01*
X139700000Y-107950000D02*
X139700000Y-102235000D01*
X160655000Y-95250000D02*
X162560000Y-97155000D01*
X162560000Y-97155000D02*
X165100000Y-97155000D01*
X142875000Y-83820000D02*
X146685000Y-80010000D01*
X146685000Y-80010000D02*
X149860000Y-80010000D01*
X133596000Y-83820000D02*
X142875000Y-83820000D01*
X130810000Y-85090000D02*
X132326000Y-85090000D01*
X132326000Y-85090000D02*
X133596000Y-83820000D01*
X123190000Y-93345000D02*
X130810000Y-85725000D01*
X130810000Y-85725000D02*
X130810000Y-85090000D01*
X113665000Y-93345000D02*
X123190000Y-93345000D01*
X150495000Y-80645000D02*
X149860000Y-80010000D01*
X160020000Y-80645000D02*
X150495000Y-80645000D01*
D30*
X148675998Y-123190000D02*
X150110999Y-121754999D01*
X151472999Y-121754999D02*
X152654000Y-122936000D01*
X150110999Y-121754999D02*
X151472999Y-121754999D01*
X148675998Y-123190000D02*
X139065000Y-123190000D01*
X147320000Y-91440000D02*
X143510000Y-91440000D01*
X147320000Y-97790000D02*
X149860000Y-97790000D01*
X151236399Y-86253601D02*
X149860000Y-87630000D01*
X159491399Y-86253601D02*
X151236399Y-86253601D01*
X160655000Y-85090000D02*
X159491399Y-86253601D01*
X144145000Y-102235000D02*
X149225000Y-102235000D01*
X149225000Y-102235000D02*
X149860000Y-102870000D01*
X144145000Y-89270830D02*
X144145000Y-90170000D01*
X158115000Y-85090000D02*
X151394170Y-85090000D01*
X151394170Y-85090000D02*
X149890771Y-86593399D01*
X149890771Y-86593399D02*
X146822431Y-86593399D01*
X146822431Y-86593399D02*
X144145000Y-89270830D01*
X130810000Y-99060000D02*
X132080000Y-97790000D01*
X132080000Y-97790000D02*
X134620000Y-97790000D01*
X132948399Y-106913399D02*
X132948399Y-102001601D01*
X132948399Y-102001601D02*
X134620000Y-100330000D01*
X136928011Y-106913399D02*
X132948399Y-106913399D01*
X137610010Y-106231400D02*
X136928011Y-106913399D01*
X137610010Y-90991400D02*
X137610010Y-106231400D01*
X144548011Y-84053399D02*
X137610010Y-90991400D01*
X157429471Y-84053399D02*
X144548011Y-84053399D01*
X157556471Y-83926399D02*
X157429471Y-84053399D01*
X168228999Y-83926399D02*
X157556471Y-83926399D01*
X170027600Y-85725000D02*
X168228999Y-83926399D01*
X170180000Y-85725000D02*
X170027600Y-85725000D01*
X133583399Y-106278399D02*
X133583399Y-103906601D01*
X133768389Y-106463389D02*
X133583399Y-106278399D01*
X133583399Y-103906601D02*
X134620000Y-102870000D01*
X136741611Y-106463389D02*
X133768389Y-106463389D01*
X137160000Y-90805000D02*
X137160000Y-106045000D01*
X144378399Y-83586601D02*
X137160000Y-90805000D01*
X157259859Y-83586601D02*
X144378399Y-83586601D01*
X157661460Y-83185000D02*
X157259859Y-83586601D01*
X170180000Y-83185000D02*
X157661460Y-83185000D01*
X137160000Y-106045000D02*
X136741611Y-106463389D01*
X122837172Y-115570000D02*
X128528800Y-115570000D01*
X128528800Y-115570000D02*
X129290800Y-114808000D01*
X129290800Y-114808000D02*
X130302000Y-114808000D01*
X122555000Y-114300000D02*
X122555000Y-115287828D01*
X122555000Y-115287828D02*
X122837172Y-115570000D01*
X94107000Y-116205000D02*
X120650000Y-116205000D01*
X120650000Y-116205000D02*
X122555000Y-114300000D01*
X136525000Y-105410000D02*
X136525000Y-86995000D01*
X136525000Y-86995000D02*
X134620000Y-85090000D01*
X147320000Y-104775000D02*
X148991601Y-106446601D01*
X151251923Y-106446601D02*
X151617399Y-106446601D01*
X148991601Y-106446601D02*
X151251923Y-106446601D01*
X151251923Y-106446601D02*
X151531601Y-106446601D01*
X151617399Y-106446601D02*
X152146000Y-105918000D01*
X150495000Y-111760000D02*
X148590000Y-109855000D01*
X116205000Y-106298002D02*
X116205000Y-111125000D01*
X116805001Y-103539999D02*
X116805001Y-105698001D01*
X116805001Y-105698001D02*
X116205000Y-106298002D01*
X127635000Y-92710000D02*
X116805001Y-103539999D01*
X134620000Y-92710000D02*
X127635000Y-92710000D01*
X116205000Y-102870000D02*
X116205000Y-105410000D01*
X127635000Y-91440000D02*
X116205000Y-102870000D01*
X134884170Y-91440000D02*
X127635000Y-91440000D01*
X134620000Y-87630000D02*
X135656601Y-88666601D01*
X135656601Y-88666601D02*
X135656601Y-90667569D01*
X135656601Y-90667569D02*
X134884170Y-91440000D01*
X127635000Y-90170000D02*
X116205000Y-101600000D01*
X134620000Y-90170000D02*
X127635000Y-90170000D01*
X138430000Y-105410000D02*
X138430000Y-101600000D01*
X138430000Y-101600000D02*
X149860000Y-90170000D01*
D31*
X171896000Y-116205000D02*
X170180000Y-116205000D01*
X172720000Y-117029000D02*
X171896000Y-116205000D01*
X172720000Y-118745000D02*
X172720000Y-117029000D01*
D30*
X118110000Y-77470000D02*
X120015000Y-79375000D01*
X102235000Y-77470000D02*
X118110000Y-77470000D01*
X116840000Y-74930000D02*
X122555000Y-80645000D01*
X102870000Y-74930000D02*
X116840000Y-74930000D01*
X144145000Y-123825000D02*
X149225000Y-123825000D01*
X149225000Y-123825000D02*
X150495000Y-122555000D01*
X94761050Y-113665000D02*
X96666050Y-115570000D01*
X94107000Y-113665000D02*
X94761050Y-113665000D01*
X118745000Y-115570000D02*
X120015000Y-114300000D01*
X96666050Y-115570000D02*
X118745000Y-115570000D01*
X170180000Y-113665000D02*
X170332400Y-113665000D01*
D31*
X167005000Y-113665000D02*
X170180000Y-113665000D01*
D30*
X142205001Y-124425001D02*
X149894999Y-124425001D01*
X149894999Y-124425001D02*
X151130000Y-123190000D01*
X141605000Y-123825000D02*
X142205001Y-124425001D01*
D31*
X167005000Y-116422598D02*
X167005000Y-114935000D01*
X168910000Y-118327598D02*
X167005000Y-116422598D01*
X168910000Y-120650000D02*
X168910000Y-118327598D01*
X167640000Y-121920000D02*
X168910000Y-120650000D01*
D30*
X164465000Y-114935000D02*
X167005000Y-114935000D01*
X160655000Y-111125000D02*
X164465000Y-114935000D01*
D31*
X172720000Y-121197600D02*
X170727600Y-123190000D01*
X172720000Y-120015000D02*
X172720000Y-121197600D01*
X168910000Y-123190000D02*
X167640000Y-124460000D01*
X170727600Y-123190000D02*
X168910000Y-123190000D01*
D30*
X166628800Y-119380000D02*
X167640000Y-119380000D01*
X161290000Y-114041200D02*
X166628800Y-119380000D01*
X161031200Y-114041200D02*
X160655000Y-113665000D01*
X161290000Y-114041200D02*
X161031200Y-114041200D01*
D11*
G36*
X173715000Y-125455000D02*
X173584408Y-125455000D01*
X173584408Y-120497600D01*
X173584408Y-119532400D01*
X173567762Y-119446608D01*
X173523760Y-119379622D01*
X173566669Y-119316055D01*
X173584408Y-119227600D01*
X173584408Y-118262400D01*
X173567762Y-118176608D01*
X173518231Y-118101205D01*
X173443455Y-118050731D01*
X173355000Y-118032992D01*
X173295000Y-118032992D01*
X173295000Y-117029000D01*
X173251231Y-116808957D01*
X173126586Y-116622414D01*
X172302586Y-115798414D01*
X172116043Y-115673769D01*
X171896000Y-115630000D01*
X171452800Y-115630000D01*
X171452800Y-107517766D01*
X171452800Y-107112234D01*
X171452800Y-98627766D01*
X171452800Y-98222234D01*
X171452800Y-88467766D01*
X171452800Y-88062234D01*
X171445313Y-88035559D01*
X171445313Y-85725000D01*
X171362448Y-85308411D01*
X171126469Y-84955244D01*
X170773302Y-84719265D01*
X170356713Y-84636400D01*
X170003287Y-84636400D01*
X169586698Y-84719265D01*
X169566014Y-84733084D01*
X169097627Y-84264697D01*
X169164000Y-84278008D01*
X171196000Y-84278008D01*
X171281792Y-84261362D01*
X171357195Y-84211831D01*
X171407669Y-84137055D01*
X171425408Y-84048600D01*
X171425408Y-82321400D01*
X171408762Y-82235608D01*
X171359231Y-82160205D01*
X171284455Y-82109731D01*
X171196000Y-82091992D01*
X171168923Y-82091992D01*
X171168923Y-79828058D01*
X171116362Y-79695807D01*
X171116362Y-77284595D01*
X171116362Y-74744595D01*
X170974134Y-74400378D01*
X170711007Y-74136791D01*
X170367039Y-73993963D01*
X169994595Y-73993638D01*
X169650378Y-74135866D01*
X169386791Y-74398993D01*
X169243963Y-74742961D01*
X169243638Y-75115405D01*
X169385866Y-75459622D01*
X169648993Y-75723209D01*
X169992961Y-75866037D01*
X170365405Y-75866362D01*
X170709622Y-75724134D01*
X170973209Y-75461007D01*
X171116037Y-75117039D01*
X171116362Y-74744595D01*
X171116362Y-77284595D01*
X170974134Y-76940378D01*
X170711007Y-76676791D01*
X170367039Y-76533963D01*
X169994595Y-76533638D01*
X169650378Y-76675866D01*
X169386791Y-76938993D01*
X169243963Y-77282961D01*
X169243638Y-77655405D01*
X169385866Y-77999622D01*
X169648993Y-78263209D01*
X169992961Y-78406037D01*
X170365405Y-78406362D01*
X170709622Y-78264134D01*
X170973209Y-78001007D01*
X171116037Y-77657039D01*
X171116362Y-77284595D01*
X171116362Y-79695807D01*
X171024020Y-79463463D01*
X171007927Y-79439378D01*
X170859839Y-79365517D01*
X170824483Y-79400872D01*
X170824483Y-79330161D01*
X170750622Y-79182073D01*
X170390352Y-79026728D01*
X169998058Y-79021077D01*
X169633463Y-79165980D01*
X169609378Y-79182073D01*
X169535517Y-79330161D01*
X170180000Y-79974645D01*
X170824483Y-79330161D01*
X170824483Y-79400872D01*
X170215355Y-80010000D01*
X170859839Y-80654483D01*
X171007927Y-80580622D01*
X171163272Y-80220352D01*
X171168923Y-79828058D01*
X171168923Y-82091992D01*
X170824483Y-82091992D01*
X170824483Y-80689839D01*
X170180000Y-80045355D01*
X170144645Y-80080710D01*
X170144645Y-80010000D01*
X169500161Y-79365517D01*
X169352073Y-79439378D01*
X169196728Y-79799648D01*
X169191077Y-80191942D01*
X169335980Y-80556537D01*
X169352073Y-80580622D01*
X169500161Y-80654483D01*
X170144645Y-80010000D01*
X170144645Y-80080710D01*
X169535517Y-80689839D01*
X169609378Y-80837927D01*
X169969648Y-80993272D01*
X170361942Y-80998923D01*
X170726537Y-80854020D01*
X170750622Y-80837927D01*
X170824483Y-80689839D01*
X170824483Y-82091992D01*
X169164000Y-82091992D01*
X169078208Y-82108638D01*
X169002805Y-82158169D01*
X168952331Y-82232945D01*
X168934592Y-82321400D01*
X168934592Y-82810000D01*
X168628923Y-82810000D01*
X168628923Y-79828058D01*
X168580608Y-79706491D01*
X168580608Y-75641200D01*
X168580608Y-74218800D01*
X168563962Y-74133008D01*
X168514431Y-74057605D01*
X168439655Y-74007131D01*
X168351200Y-73989392D01*
X166928800Y-73989392D01*
X166843008Y-74006038D01*
X166767605Y-74055569D01*
X166717131Y-74130345D01*
X166699392Y-74218800D01*
X166699392Y-75641200D01*
X166716038Y-75726992D01*
X166765569Y-75802395D01*
X166840345Y-75852869D01*
X166928800Y-75870608D01*
X168351200Y-75870608D01*
X168436992Y-75853962D01*
X168512395Y-75804431D01*
X168562869Y-75729655D01*
X168580608Y-75641200D01*
X168580608Y-79706491D01*
X168576362Y-79695807D01*
X168576362Y-77284595D01*
X168434134Y-76940378D01*
X168171007Y-76676791D01*
X167827039Y-76533963D01*
X167454595Y-76533638D01*
X167110378Y-76675866D01*
X166846791Y-76938993D01*
X166703963Y-77282961D01*
X166703638Y-77655405D01*
X166845866Y-77999622D01*
X167108993Y-78263209D01*
X167452961Y-78406037D01*
X167825405Y-78406362D01*
X168169622Y-78264134D01*
X168433209Y-78001007D01*
X168576037Y-77657039D01*
X168576362Y-77284595D01*
X168576362Y-79695807D01*
X168484020Y-79463463D01*
X168467927Y-79439378D01*
X168319839Y-79365517D01*
X168284483Y-79400872D01*
X168284483Y-79330161D01*
X168210622Y-79182073D01*
X167850352Y-79026728D01*
X167458058Y-79021077D01*
X167093463Y-79165980D01*
X167069378Y-79182073D01*
X166995517Y-79330161D01*
X167640000Y-79974645D01*
X168284483Y-79330161D01*
X168284483Y-79400872D01*
X167675355Y-80010000D01*
X168319839Y-80654483D01*
X168467927Y-80580622D01*
X168623272Y-80220352D01*
X168628923Y-79828058D01*
X168628923Y-82810000D01*
X168284483Y-82810000D01*
X168284483Y-80689839D01*
X167640000Y-80045355D01*
X167604645Y-80080710D01*
X167604645Y-80010000D01*
X166960161Y-79365517D01*
X166812073Y-79439378D01*
X166656728Y-79799648D01*
X166651077Y-80191942D01*
X166795980Y-80556537D01*
X166812073Y-80580622D01*
X166960161Y-80654483D01*
X167604645Y-80010000D01*
X167604645Y-80080710D01*
X166995517Y-80689839D01*
X167069378Y-80837927D01*
X167429648Y-80993272D01*
X167821942Y-80998923D01*
X168186537Y-80854020D01*
X168210622Y-80837927D01*
X168284483Y-80689839D01*
X168284483Y-82810000D01*
X157661460Y-82810000D01*
X157517954Y-82838545D01*
X157396295Y-82919835D01*
X157104529Y-83211601D01*
X150558339Y-83211601D01*
X150674730Y-83095414D01*
X150821433Y-82742113D01*
X150821767Y-82359565D01*
X150675680Y-82006009D01*
X150405414Y-81735270D01*
X150052113Y-81588567D01*
X149669565Y-81588233D01*
X149316009Y-81734320D01*
X149045270Y-82004586D01*
X148898567Y-82357887D01*
X148898233Y-82740435D01*
X149044320Y-83093991D01*
X149161724Y-83211601D01*
X148018339Y-83211601D01*
X148134730Y-83095414D01*
X148281433Y-82742113D01*
X148281767Y-82359565D01*
X148135680Y-82006009D01*
X147865414Y-81735270D01*
X147512113Y-81588567D01*
X147129565Y-81588233D01*
X146776009Y-81734320D01*
X146505270Y-82004586D01*
X146358567Y-82357887D01*
X146358233Y-82740435D01*
X146504320Y-83093991D01*
X146621724Y-83211601D01*
X144378399Y-83211601D01*
X144234893Y-83240146D01*
X144113234Y-83321436D01*
X136900000Y-90534670D01*
X136900000Y-86995000D01*
X136871455Y-86851494D01*
X136790165Y-86729835D01*
X135511312Y-85450982D01*
X135581433Y-85282113D01*
X135581767Y-84899565D01*
X135435680Y-84546009D01*
X135185109Y-84295000D01*
X142875000Y-84295000D01*
X143056775Y-84258843D01*
X143210876Y-84155876D01*
X146881751Y-80485000D01*
X149015813Y-80485000D01*
X149044320Y-80553991D01*
X149314586Y-80824730D01*
X149667887Y-80971433D01*
X150050435Y-80971767D01*
X150120900Y-80942651D01*
X150159121Y-80980872D01*
X150159124Y-80980876D01*
X150159125Y-80980876D01*
X150313225Y-81083843D01*
X150313226Y-81083843D01*
X150343384Y-81089841D01*
X150495000Y-81120001D01*
X150495000Y-81120000D01*
X150495005Y-81120000D01*
X159794919Y-81120000D01*
X159915113Y-81169908D01*
X160123971Y-81170091D01*
X160317000Y-81090333D01*
X160464814Y-80942777D01*
X160544908Y-80749887D01*
X160545091Y-80541029D01*
X160465333Y-80348000D01*
X160317777Y-80200186D01*
X160124887Y-80120092D01*
X159916029Y-80119909D01*
X159794799Y-80170000D01*
X156765316Y-80170000D01*
X156765316Y-77108578D01*
X156488062Y-76437571D01*
X155975129Y-75923742D01*
X155304608Y-75645317D01*
X154578578Y-75644684D01*
X153907571Y-75921938D01*
X153393742Y-76434871D01*
X153115317Y-77105392D01*
X153114684Y-77831422D01*
X153391938Y-78502429D01*
X153904871Y-79016258D01*
X154575392Y-79294683D01*
X155301422Y-79295316D01*
X155972429Y-79018062D01*
X156486258Y-78505129D01*
X156764683Y-77834608D01*
X156765316Y-77108578D01*
X156765316Y-80170000D01*
X150821461Y-80170000D01*
X150821767Y-79819565D01*
X150821767Y-77279565D01*
X150821767Y-74739565D01*
X150675680Y-74386009D01*
X150405414Y-74115270D01*
X150052113Y-73968567D01*
X149669565Y-73968233D01*
X149316009Y-74114320D01*
X149045270Y-74384586D01*
X148898567Y-74737887D01*
X148898233Y-75120435D01*
X149044320Y-75473991D01*
X149314586Y-75744730D01*
X149667887Y-75891433D01*
X150050435Y-75891767D01*
X150403991Y-75745680D01*
X150674730Y-75475414D01*
X150821433Y-75122113D01*
X150821767Y-74739565D01*
X150821767Y-77279565D01*
X150675680Y-76926009D01*
X150405414Y-76655270D01*
X150052113Y-76508567D01*
X149669565Y-76508233D01*
X149316009Y-76654320D01*
X149045270Y-76924586D01*
X148898567Y-77277887D01*
X148898233Y-77660435D01*
X149044320Y-78013991D01*
X149314586Y-78284730D01*
X149667887Y-78431433D01*
X150050435Y-78431767D01*
X150403991Y-78285680D01*
X150674730Y-78015414D01*
X150821433Y-77662113D01*
X150821767Y-77279565D01*
X150821767Y-79819565D01*
X150675680Y-79466009D01*
X150405414Y-79195270D01*
X150052113Y-79048567D01*
X149669565Y-79048233D01*
X149316009Y-79194320D01*
X149045270Y-79464586D01*
X149016031Y-79535000D01*
X148281767Y-79535000D01*
X148281767Y-77279565D01*
X148135680Y-76926009D01*
X147865414Y-76655270D01*
X147512113Y-76508567D01*
X147129565Y-76508233D01*
X146776009Y-76654320D01*
X146505270Y-76924586D01*
X146358567Y-77277887D01*
X146358233Y-77660435D01*
X146504320Y-78013991D01*
X146774586Y-78284730D01*
X147127887Y-78431433D01*
X147510435Y-78431767D01*
X147863991Y-78285680D01*
X148134730Y-78015414D01*
X148281433Y-77662113D01*
X148281767Y-77279565D01*
X148281767Y-79535000D01*
X146685005Y-79535000D01*
X146685000Y-79534999D01*
X146533384Y-79565158D01*
X146503225Y-79571157D01*
X146349124Y-79674124D01*
X146349121Y-79674127D01*
X142678248Y-83345000D01*
X135631600Y-83345000D01*
X135631600Y-75721301D01*
X135631600Y-75611899D01*
X135631600Y-75023750D01*
X135562850Y-74955000D01*
X134645000Y-74955000D01*
X134645000Y-75872850D01*
X134713750Y-75941600D01*
X135411301Y-75941600D01*
X135512375Y-75899734D01*
X135589734Y-75822375D01*
X135631600Y-75721301D01*
X135631600Y-83345000D01*
X135184707Y-83345000D01*
X135434730Y-83095414D01*
X135581433Y-82742113D01*
X135581767Y-82359565D01*
X135581767Y-79819565D01*
X135581767Y-77279565D01*
X135435680Y-76926009D01*
X135165414Y-76655270D01*
X134812113Y-76508567D01*
X134595000Y-76508377D01*
X134595000Y-75872850D01*
X134595000Y-74955000D01*
X133677150Y-74955000D01*
X133608400Y-75023750D01*
X133608400Y-75611899D01*
X133608400Y-75721301D01*
X133650266Y-75822375D01*
X133727625Y-75899734D01*
X133828699Y-75941600D01*
X134526250Y-75941600D01*
X134595000Y-75872850D01*
X134595000Y-76508377D01*
X134429565Y-76508233D01*
X134076009Y-76654320D01*
X133805270Y-76924586D01*
X133658567Y-77277887D01*
X133658233Y-77660435D01*
X133804320Y-78013991D01*
X134074586Y-78284730D01*
X134427887Y-78431433D01*
X134810435Y-78431767D01*
X135163991Y-78285680D01*
X135434730Y-78015414D01*
X135581433Y-77662113D01*
X135581767Y-77279565D01*
X135581767Y-79819565D01*
X135435680Y-79466009D01*
X135165414Y-79195270D01*
X134812113Y-79048567D01*
X134429565Y-79048233D01*
X134076009Y-79194320D01*
X133805270Y-79464586D01*
X133658567Y-79817887D01*
X133658233Y-80200435D01*
X133804320Y-80553991D01*
X134074586Y-80824730D01*
X134427887Y-80971433D01*
X134810435Y-80971767D01*
X135163991Y-80825680D01*
X135434730Y-80555414D01*
X135581433Y-80202113D01*
X135581767Y-79819565D01*
X135581767Y-82359565D01*
X135435680Y-82006009D01*
X135165414Y-81735270D01*
X134812113Y-81588567D01*
X134429565Y-81588233D01*
X134076009Y-81734320D01*
X133805270Y-82004586D01*
X133658567Y-82357887D01*
X133658233Y-82740435D01*
X133804320Y-83093991D01*
X134054890Y-83345000D01*
X133596000Y-83345000D01*
X133414225Y-83381157D01*
X133260124Y-83484124D01*
X132129248Y-84615000D01*
X132055408Y-84615000D01*
X132055408Y-84074000D01*
X132038762Y-83988208D01*
X131989231Y-83912805D01*
X131914455Y-83862331D01*
X131826000Y-83844592D01*
X131365316Y-83844592D01*
X131365316Y-79394578D01*
X131088062Y-78723571D01*
X130575129Y-78209742D01*
X129904608Y-77931317D01*
X129178578Y-77930684D01*
X128507571Y-78207938D01*
X127993742Y-78720871D01*
X127715317Y-79391392D01*
X127714684Y-80117422D01*
X127991938Y-80788429D01*
X128504871Y-81302258D01*
X129175392Y-81580683D01*
X129901422Y-81581316D01*
X130572429Y-81304062D01*
X131086258Y-80791129D01*
X131364683Y-80120608D01*
X131365316Y-79394578D01*
X131365316Y-83844592D01*
X129794000Y-83844592D01*
X129708208Y-83861238D01*
X129632805Y-83910769D01*
X129582331Y-83985545D01*
X129564592Y-84074000D01*
X129564592Y-86106000D01*
X129581238Y-86191792D01*
X129617005Y-86246242D01*
X129511000Y-86352247D01*
X129511000Y-85114313D01*
X129511000Y-85065687D01*
X129416534Y-84590777D01*
X129147520Y-84188167D01*
X128744910Y-83919153D01*
X128270000Y-83824687D01*
X127795090Y-83919153D01*
X127392480Y-84188167D01*
X127123466Y-84590777D01*
X127029000Y-85065687D01*
X127029000Y-85114313D01*
X127123466Y-85589223D01*
X127392480Y-85991833D01*
X127795090Y-86260847D01*
X128270000Y-86355313D01*
X128744910Y-86260847D01*
X129147520Y-85991833D01*
X129416534Y-85589223D01*
X129511000Y-85114313D01*
X129511000Y-86352247D01*
X123080091Y-92783156D01*
X123080091Y-80541029D01*
X123000333Y-80348000D01*
X122852777Y-80200186D01*
X122659887Y-80120092D01*
X122560334Y-80120004D01*
X117105165Y-74664835D01*
X116983507Y-74583545D01*
X116840000Y-74555000D01*
X103237469Y-74555000D01*
X103167777Y-74485186D01*
X102974887Y-74405092D01*
X102766029Y-74404909D01*
X102573000Y-74484667D01*
X102425186Y-74632223D01*
X102345092Y-74825113D01*
X102344909Y-75033971D01*
X102424667Y-75227000D01*
X102572223Y-75374814D01*
X102765113Y-75454908D01*
X102973971Y-75455091D01*
X103167000Y-75375333D01*
X103237455Y-75305000D01*
X116684670Y-75305000D01*
X120307781Y-78928111D01*
X120119887Y-78850092D01*
X120020334Y-78850004D01*
X118375165Y-77204835D01*
X118253507Y-77123545D01*
X118110000Y-77095000D01*
X102602469Y-77095000D01*
X102532777Y-77025186D01*
X102339887Y-76945092D01*
X102131029Y-76944909D01*
X101938000Y-77024667D01*
X101790186Y-77172223D01*
X101710092Y-77365113D01*
X101709909Y-77573971D01*
X101789667Y-77767000D01*
X101937223Y-77914814D01*
X102130113Y-77994908D01*
X102338971Y-77995091D01*
X102532000Y-77915333D01*
X102602455Y-77845000D01*
X117954669Y-77845000D01*
X119489995Y-79380325D01*
X119489909Y-79478971D01*
X119569667Y-79672000D01*
X119717223Y-79819814D01*
X119910113Y-79899908D01*
X120118971Y-79900091D01*
X120312000Y-79820333D01*
X120459814Y-79672777D01*
X120539908Y-79479887D01*
X120540091Y-79271029D01*
X120462208Y-79082538D01*
X122029995Y-80650325D01*
X122029909Y-80748971D01*
X122109667Y-80942000D01*
X122257223Y-81089814D01*
X122450113Y-81169908D01*
X122658971Y-81170091D01*
X122852000Y-81090333D01*
X122999814Y-80942777D01*
X123079908Y-80749887D01*
X123080091Y-80541029D01*
X123080091Y-92783156D01*
X122993248Y-92870000D01*
X113890080Y-92870000D01*
X113769887Y-92820092D01*
X113561029Y-92819909D01*
X113368000Y-92899667D01*
X113220186Y-93047223D01*
X113140092Y-93240113D01*
X113139909Y-93448971D01*
X113219667Y-93642000D01*
X113367223Y-93789814D01*
X113560113Y-93869908D01*
X113768971Y-93870091D01*
X113890200Y-93820000D01*
X123190000Y-93820000D01*
X123371775Y-93783843D01*
X123525876Y-93680876D01*
X130871343Y-86335408D01*
X131826000Y-86335408D01*
X131911792Y-86318762D01*
X131987195Y-86269231D01*
X132037669Y-86194455D01*
X132055408Y-86106000D01*
X132055408Y-85565000D01*
X132326000Y-85565000D01*
X132507775Y-85528843D01*
X132661876Y-85425876D01*
X133792752Y-84295000D01*
X134055292Y-84295000D01*
X133805270Y-84544586D01*
X133658567Y-84897887D01*
X133658233Y-85280435D01*
X133804320Y-85633991D01*
X134074586Y-85904730D01*
X134427887Y-86051433D01*
X134810435Y-86051767D01*
X134980972Y-85981302D01*
X136150000Y-87150330D01*
X136150000Y-105042530D01*
X136080186Y-105112223D01*
X136031601Y-105229230D01*
X136031601Y-90667569D01*
X136031601Y-88666601D01*
X136003056Y-88523095D01*
X136003056Y-88523094D01*
X135921766Y-88401436D01*
X135511312Y-87990982D01*
X135581433Y-87822113D01*
X135581767Y-87439565D01*
X135435680Y-87086009D01*
X135165414Y-86815270D01*
X134812113Y-86668567D01*
X134429565Y-86668233D01*
X134076009Y-86814320D01*
X133805270Y-87084586D01*
X133658567Y-87437887D01*
X133658233Y-87820435D01*
X133804320Y-88173991D01*
X134074586Y-88444730D01*
X134427887Y-88591433D01*
X134810435Y-88591767D01*
X134980972Y-88521302D01*
X135281601Y-88821931D01*
X135281601Y-89471660D01*
X135165414Y-89355270D01*
X134812113Y-89208567D01*
X134429565Y-89208233D01*
X134076009Y-89354320D01*
X133805270Y-89624586D01*
X133734508Y-89795000D01*
X127635000Y-89795000D01*
X127491493Y-89823545D01*
X127369835Y-89904835D01*
X116199674Y-101074995D01*
X116101029Y-101074909D01*
X115908000Y-101154667D01*
X115760186Y-101302223D01*
X115680092Y-101495113D01*
X115679909Y-101703971D01*
X115759667Y-101897000D01*
X115907223Y-102044814D01*
X116100113Y-102124908D01*
X116308971Y-102125091D01*
X116497461Y-102047208D01*
X115939835Y-102604835D01*
X115858545Y-102726493D01*
X115830000Y-102870000D01*
X115830000Y-105042530D01*
X115760186Y-105112223D01*
X115680092Y-105305113D01*
X115679909Y-105513971D01*
X115759667Y-105707000D01*
X115907223Y-105854814D01*
X116056057Y-105916614D01*
X115939835Y-106032837D01*
X115858545Y-106154495D01*
X115830000Y-106298002D01*
X115830000Y-110757530D01*
X115760186Y-110827223D01*
X115680092Y-111020113D01*
X115679909Y-111228971D01*
X115759667Y-111422000D01*
X115907223Y-111569814D01*
X116100113Y-111649908D01*
X116308971Y-111650091D01*
X116502000Y-111570333D01*
X116649814Y-111422777D01*
X116729908Y-111229887D01*
X116730091Y-111021029D01*
X116650333Y-110828000D01*
X116580000Y-110757544D01*
X116580000Y-106453332D01*
X117070166Y-105963166D01*
X117151456Y-105841507D01*
X117180001Y-105698001D01*
X117180001Y-103695329D01*
X127790330Y-93085000D01*
X133734494Y-93085000D01*
X133804320Y-93253991D01*
X134074586Y-93524730D01*
X134427887Y-93671433D01*
X134810435Y-93671767D01*
X135163991Y-93525680D01*
X135434730Y-93255414D01*
X135581433Y-92902113D01*
X135581767Y-92519565D01*
X135435680Y-92166009D01*
X135165414Y-91895270D01*
X134943622Y-91803174D01*
X135027676Y-91786455D01*
X135027677Y-91786455D01*
X135149335Y-91705165D01*
X135921766Y-90932734D01*
X136003055Y-90811076D01*
X136003056Y-90811075D01*
X136031601Y-90667569D01*
X136031601Y-105229230D01*
X136000092Y-105305113D01*
X135999909Y-105513971D01*
X136079667Y-105707000D01*
X136227223Y-105854814D01*
X136420113Y-105934908D01*
X136628971Y-105935091D01*
X136785000Y-105870621D01*
X136785000Y-105889670D01*
X136586280Y-106088389D01*
X135301522Y-106088389D01*
X135434730Y-105955414D01*
X135581433Y-105602113D01*
X135581767Y-105219565D01*
X135435680Y-104866009D01*
X135165414Y-104595270D01*
X134812113Y-104448567D01*
X134429565Y-104448233D01*
X134076009Y-104594320D01*
X133958399Y-104711724D01*
X133958399Y-104061931D01*
X134259017Y-103761312D01*
X134427887Y-103831433D01*
X134810435Y-103831767D01*
X135163991Y-103685680D01*
X135434730Y-103415414D01*
X135581433Y-103062113D01*
X135581767Y-102679565D01*
X135435680Y-102326009D01*
X135165414Y-102055270D01*
X134812113Y-101908567D01*
X134429565Y-101908233D01*
X134076009Y-102054320D01*
X133805270Y-102324586D01*
X133658567Y-102677887D01*
X133658233Y-103060435D01*
X133728697Y-103230972D01*
X133323399Y-103636271D01*
X133323399Y-102156931D01*
X134259017Y-101221312D01*
X134427887Y-101291433D01*
X134810435Y-101291767D01*
X135163991Y-101145680D01*
X135434730Y-100875414D01*
X135581433Y-100522113D01*
X135581767Y-100139565D01*
X135581767Y-97599565D01*
X135581767Y-95059565D01*
X135435680Y-94706009D01*
X135165414Y-94435270D01*
X134812113Y-94288567D01*
X134429565Y-94288233D01*
X134076009Y-94434320D01*
X133805270Y-94704586D01*
X133658567Y-95057887D01*
X133658233Y-95440435D01*
X133804320Y-95793991D01*
X134074586Y-96064730D01*
X134427887Y-96211433D01*
X134810435Y-96211767D01*
X135163991Y-96065680D01*
X135434730Y-95795414D01*
X135581433Y-95442113D01*
X135581767Y-95059565D01*
X135581767Y-97599565D01*
X135435680Y-97246009D01*
X135165414Y-96975270D01*
X134812113Y-96828567D01*
X134429565Y-96828233D01*
X134076009Y-96974320D01*
X133805270Y-97244586D01*
X133734508Y-97415000D01*
X132080000Y-97415000D01*
X131936493Y-97443545D01*
X131878239Y-97482469D01*
X131885269Y-97472055D01*
X131903008Y-97383600D01*
X131903008Y-95656400D01*
X131886362Y-95570608D01*
X131836831Y-95495205D01*
X131762055Y-95444731D01*
X131673600Y-95426992D01*
X129946400Y-95426992D01*
X129860608Y-95443638D01*
X129785205Y-95493169D01*
X129734731Y-95567945D01*
X129716992Y-95656400D01*
X129716992Y-97383600D01*
X129733638Y-97469392D01*
X129783169Y-97544795D01*
X129857945Y-97595269D01*
X129946400Y-97613008D01*
X131673600Y-97613008D01*
X131739435Y-97600234D01*
X131274631Y-98065038D01*
X131226589Y-98032938D01*
X130810000Y-97950073D01*
X130393411Y-98032938D01*
X130040244Y-98268917D01*
X129804265Y-98622084D01*
X129721400Y-99038673D01*
X129721400Y-99081327D01*
X129804265Y-99497916D01*
X130040244Y-99851083D01*
X130393411Y-100087062D01*
X130810000Y-100169927D01*
X131226589Y-100087062D01*
X131579756Y-99851083D01*
X131815735Y-99497916D01*
X131898600Y-99081327D01*
X131898600Y-99038673D01*
X131815735Y-98622084D01*
X131800718Y-98599611D01*
X132235330Y-98165000D01*
X133734494Y-98165000D01*
X133804320Y-98333991D01*
X134074586Y-98604730D01*
X134427887Y-98751433D01*
X134810435Y-98751767D01*
X135163991Y-98605680D01*
X135434730Y-98335414D01*
X135581433Y-97982113D01*
X135581767Y-97599565D01*
X135581767Y-100139565D01*
X135435680Y-99786009D01*
X135165414Y-99515270D01*
X134812113Y-99368567D01*
X134429565Y-99368233D01*
X134076009Y-99514320D01*
X133805270Y-99784586D01*
X133658567Y-100137887D01*
X133658233Y-100520435D01*
X133728697Y-100690972D01*
X132683234Y-101736436D01*
X132601944Y-101858094D01*
X132573399Y-102001601D01*
X132573399Y-106913399D01*
X132601944Y-107056905D01*
X132683234Y-107178564D01*
X132804893Y-107259854D01*
X132948399Y-107288399D01*
X133921660Y-107288399D01*
X133805270Y-107404586D01*
X133658567Y-107757887D01*
X133658233Y-108140435D01*
X133804320Y-108493991D01*
X134074586Y-108764730D01*
X134427887Y-108911433D01*
X134810435Y-108911767D01*
X135163991Y-108765680D01*
X135434730Y-108495414D01*
X135581433Y-108142113D01*
X135581767Y-107759565D01*
X135435680Y-107406009D01*
X135318275Y-107288399D01*
X136461660Y-107288399D01*
X136345270Y-107404586D01*
X136198567Y-107757887D01*
X136198233Y-108140435D01*
X136344320Y-108493991D01*
X136614586Y-108764730D01*
X136967887Y-108911433D01*
X137350435Y-108911767D01*
X137703991Y-108765680D01*
X137974730Y-108495414D01*
X138121433Y-108142113D01*
X138121767Y-107759565D01*
X137975680Y-107406009D01*
X137705414Y-107135270D01*
X137374059Y-106997680D01*
X137875175Y-106496565D01*
X137956465Y-106374907D01*
X137956465Y-106374906D01*
X137985010Y-106231400D01*
X137985010Y-105707343D01*
X138132223Y-105854814D01*
X138325113Y-105934908D01*
X138533971Y-105935091D01*
X138727000Y-105855333D01*
X138874814Y-105707777D01*
X138954908Y-105514887D01*
X138955091Y-105306029D01*
X138875333Y-105113000D01*
X138805000Y-105042544D01*
X138805000Y-101755330D01*
X149499017Y-91061312D01*
X149667887Y-91131433D01*
X150050435Y-91131767D01*
X150403991Y-90985680D01*
X150674730Y-90715414D01*
X150821433Y-90362113D01*
X150821767Y-89979565D01*
X150675680Y-89626009D01*
X150405414Y-89355270D01*
X150052113Y-89208567D01*
X149669565Y-89208233D01*
X149316009Y-89354320D01*
X149045270Y-89624586D01*
X148898567Y-89977887D01*
X148898233Y-90360435D01*
X148968697Y-90530972D01*
X147766888Y-91732781D01*
X147844908Y-91544887D01*
X147845091Y-91336029D01*
X147765333Y-91143000D01*
X147617777Y-90995186D01*
X147424887Y-90915092D01*
X147216029Y-90914909D01*
X147023000Y-90994667D01*
X146952544Y-91065000D01*
X143877469Y-91065000D01*
X143807777Y-90995186D01*
X143614887Y-90915092D01*
X143406029Y-90914909D01*
X143213000Y-90994667D01*
X143065186Y-91142223D01*
X142985092Y-91335113D01*
X142984909Y-91543971D01*
X143064667Y-91737000D01*
X143212223Y-91884814D01*
X143405113Y-91964908D01*
X143613971Y-91965091D01*
X143807000Y-91885333D01*
X143877455Y-91815000D01*
X146952530Y-91815000D01*
X147022223Y-91884814D01*
X147215113Y-91964908D01*
X147423971Y-91965091D01*
X147612461Y-91887208D01*
X138164835Y-101334835D01*
X138083545Y-101456493D01*
X138055000Y-101600000D01*
X138055000Y-105042530D01*
X137985186Y-105112223D01*
X137985010Y-105112646D01*
X137985010Y-91146730D01*
X144703341Y-84428399D01*
X146621660Y-84428399D01*
X146505270Y-84544586D01*
X146358567Y-84897887D01*
X146358233Y-85280435D01*
X146504320Y-85633991D01*
X146774586Y-85904730D01*
X147127887Y-86051433D01*
X147510435Y-86051767D01*
X147863991Y-85905680D01*
X148134730Y-85635414D01*
X148281433Y-85282113D01*
X148281767Y-84899565D01*
X148135680Y-84546009D01*
X148018275Y-84428399D01*
X149161660Y-84428399D01*
X149045270Y-84544586D01*
X148898567Y-84897887D01*
X148898233Y-85280435D01*
X149044320Y-85633991D01*
X149314586Y-85904730D01*
X149667887Y-86051433D01*
X149902202Y-86051637D01*
X149735440Y-86218399D01*
X146822431Y-86218399D01*
X146678924Y-86246944D01*
X146557266Y-86328234D01*
X143879835Y-89005665D01*
X143798545Y-89127323D01*
X143770000Y-89270830D01*
X143770000Y-89802530D01*
X143700186Y-89872223D01*
X143620092Y-90065113D01*
X143619909Y-90273971D01*
X143699667Y-90467000D01*
X143847223Y-90614814D01*
X144040113Y-90694908D01*
X144248971Y-90695091D01*
X144442000Y-90615333D01*
X144589814Y-90467777D01*
X144669908Y-90274887D01*
X144670091Y-90066029D01*
X144590333Y-89873000D01*
X144520000Y-89802544D01*
X144520000Y-89426160D01*
X146358436Y-87587723D01*
X146358233Y-87820435D01*
X146504320Y-88173991D01*
X146774586Y-88444730D01*
X147127887Y-88591433D01*
X147510435Y-88591767D01*
X147863991Y-88445680D01*
X148134730Y-88175414D01*
X148281433Y-87822113D01*
X148281767Y-87439565D01*
X148135680Y-87086009D01*
X148018275Y-86968399D01*
X149161660Y-86968399D01*
X149045270Y-87084586D01*
X148898567Y-87437887D01*
X148898233Y-87820435D01*
X149044320Y-88173991D01*
X149314586Y-88444730D01*
X149667887Y-88591433D01*
X150050435Y-88591767D01*
X150403991Y-88445680D01*
X150674730Y-88175414D01*
X150821433Y-87822113D01*
X150821767Y-87439565D01*
X150751302Y-87269027D01*
X151391729Y-86628601D01*
X157660003Y-86628601D01*
X157345244Y-86838917D01*
X157109265Y-87192084D01*
X157026400Y-87608673D01*
X157026400Y-87651327D01*
X157109265Y-88067916D01*
X157345244Y-88421083D01*
X157698411Y-88657062D01*
X158115000Y-88739927D01*
X158531589Y-88657062D01*
X158884756Y-88421083D01*
X159120735Y-88067916D01*
X159203600Y-87651327D01*
X159203600Y-87608673D01*
X159120735Y-87192084D01*
X158884756Y-86838917D01*
X158569996Y-86628601D01*
X159491399Y-86628601D01*
X159634905Y-86600056D01*
X159634906Y-86600056D01*
X159756564Y-86518766D01*
X160190368Y-86084961D01*
X160238411Y-86117062D01*
X160655000Y-86199927D01*
X161071589Y-86117062D01*
X161424756Y-85881083D01*
X161660735Y-85527916D01*
X161743600Y-85111327D01*
X161743600Y-85068673D01*
X161660735Y-84652084D01*
X161426414Y-84301399D01*
X168073669Y-84301399D01*
X169030848Y-85258578D01*
X168997552Y-85308411D01*
X168914687Y-85725000D01*
X168997552Y-86141589D01*
X169233531Y-86494756D01*
X169586698Y-86730735D01*
X170003287Y-86813600D01*
X170356713Y-86813600D01*
X170773302Y-86730735D01*
X171126469Y-86494756D01*
X171362448Y-86141589D01*
X171445313Y-85725000D01*
X171445313Y-88035559D01*
X171393896Y-87852374D01*
X171155189Y-87477566D01*
X170791220Y-87222638D01*
X170357400Y-87126400D01*
X170205000Y-87126400D01*
X170205000Y-88240000D01*
X171401958Y-88240000D01*
X171452800Y-88062234D01*
X171452800Y-88467766D01*
X171401958Y-88290000D01*
X170205000Y-88290000D01*
X170205000Y-89403600D01*
X170357400Y-89403600D01*
X170791220Y-89307362D01*
X171155189Y-89052434D01*
X171393896Y-88677626D01*
X171452800Y-88467766D01*
X171452800Y-98222234D01*
X171445313Y-98195559D01*
X171445313Y-95885000D01*
X171425408Y-95784931D01*
X171425408Y-94208600D01*
X171425408Y-92481400D01*
X171408762Y-92395608D01*
X171359231Y-92320205D01*
X171284455Y-92269731D01*
X171196000Y-92251992D01*
X170155000Y-92251992D01*
X170155000Y-89403600D01*
X170155000Y-88290000D01*
X170155000Y-88240000D01*
X170155000Y-87126400D01*
X170002600Y-87126400D01*
X169568780Y-87222638D01*
X169204811Y-87477566D01*
X168966104Y-87852374D01*
X168907200Y-88062234D01*
X168958042Y-88240000D01*
X170155000Y-88240000D01*
X170155000Y-88290000D01*
X168958042Y-88290000D01*
X168907200Y-88467766D01*
X168966104Y-88677626D01*
X169204811Y-89052434D01*
X169568780Y-89307362D01*
X170002600Y-89403600D01*
X170155000Y-89403600D01*
X170155000Y-92251992D01*
X169164000Y-92251992D01*
X169078208Y-92268638D01*
X169002805Y-92318169D01*
X168952331Y-92392945D01*
X168934592Y-92481400D01*
X168934592Y-94208600D01*
X168951238Y-94294392D01*
X169000769Y-94369795D01*
X169075545Y-94420269D01*
X169164000Y-94438008D01*
X171196000Y-94438008D01*
X171281792Y-94421362D01*
X171357195Y-94371831D01*
X171407669Y-94297055D01*
X171425408Y-94208600D01*
X171425408Y-95784931D01*
X171362448Y-95468411D01*
X171126469Y-95115244D01*
X170773302Y-94879265D01*
X170356713Y-94796400D01*
X170003287Y-94796400D01*
X169586698Y-94879265D01*
X169233531Y-95115244D01*
X168997552Y-95468411D01*
X168914687Y-95885000D01*
X168997552Y-96301589D01*
X169233531Y-96654756D01*
X169586698Y-96890735D01*
X170003287Y-96973600D01*
X170356713Y-96973600D01*
X170773302Y-96890735D01*
X171126469Y-96654756D01*
X171362448Y-96301589D01*
X171445313Y-95885000D01*
X171445313Y-98195559D01*
X171393896Y-98012374D01*
X171155189Y-97637566D01*
X170791220Y-97382638D01*
X170357400Y-97286400D01*
X170205000Y-97286400D01*
X170205000Y-98400000D01*
X171401958Y-98400000D01*
X171452800Y-98222234D01*
X171452800Y-98627766D01*
X171401958Y-98450000D01*
X170205000Y-98450000D01*
X170205000Y-99563600D01*
X170357400Y-99563600D01*
X170791220Y-99467362D01*
X171155189Y-99212434D01*
X171393896Y-98837626D01*
X171452800Y-98627766D01*
X171452800Y-107112234D01*
X171445313Y-107085559D01*
X171445313Y-104775000D01*
X171362448Y-104358411D01*
X171126469Y-104005244D01*
X170773302Y-103769265D01*
X170356713Y-103686400D01*
X170003287Y-103686400D01*
X169675877Y-103751525D01*
X169252360Y-103328008D01*
X171196000Y-103328008D01*
X171281792Y-103311362D01*
X171357195Y-103261831D01*
X171407669Y-103187055D01*
X171425408Y-103098600D01*
X171425408Y-101371400D01*
X171408762Y-101285608D01*
X171359231Y-101210205D01*
X171284455Y-101159731D01*
X171196000Y-101141992D01*
X170155000Y-101141992D01*
X170155000Y-99563600D01*
X170155000Y-98450000D01*
X170155000Y-98400000D01*
X170155000Y-97286400D01*
X170002600Y-97286400D01*
X169568780Y-97382638D01*
X169204811Y-97637566D01*
X168966104Y-98012374D01*
X168907200Y-98222234D01*
X168958042Y-98400000D01*
X170155000Y-98400000D01*
X170155000Y-98450000D01*
X168958042Y-98450000D01*
X168907200Y-98627766D01*
X168966104Y-98837626D01*
X169204811Y-99212434D01*
X169568780Y-99467362D01*
X170002600Y-99563600D01*
X170155000Y-99563600D01*
X170155000Y-101141992D01*
X169164000Y-101141992D01*
X169078208Y-101158638D01*
X169002805Y-101208169D01*
X168952331Y-101282945D01*
X168934592Y-101371400D01*
X168934592Y-103010240D01*
X167480000Y-101555648D01*
X167480000Y-98907605D01*
X167480000Y-98907600D01*
X167480001Y-98907600D01*
X167449841Y-98755984D01*
X167443843Y-98725826D01*
X167443843Y-98725825D01*
X167340876Y-98571724D01*
X166292119Y-97522967D01*
X166365313Y-97155000D01*
X166365313Y-94615000D01*
X166345408Y-94514931D01*
X166345408Y-92938600D01*
X166345408Y-91211400D01*
X166328762Y-91125608D01*
X166279231Y-91050205D01*
X166204455Y-90999731D01*
X166116000Y-90981992D01*
X164084000Y-90981992D01*
X163998208Y-90998638D01*
X163922805Y-91048169D01*
X163872331Y-91122945D01*
X163854592Y-91211400D01*
X163854592Y-92938600D01*
X163871238Y-93024392D01*
X163920769Y-93099795D01*
X163995545Y-93150269D01*
X164084000Y-93168008D01*
X166116000Y-93168008D01*
X166201792Y-93151362D01*
X166277195Y-93101831D01*
X166327669Y-93027055D01*
X166345408Y-92938600D01*
X166345408Y-94514931D01*
X166282448Y-94198411D01*
X166046469Y-93845244D01*
X165693302Y-93609265D01*
X165276713Y-93526400D01*
X164923287Y-93526400D01*
X164506698Y-93609265D01*
X164153531Y-93845244D01*
X163917552Y-94198411D01*
X163834687Y-94615000D01*
X163917552Y-95031589D01*
X164153531Y-95384756D01*
X164506698Y-95620735D01*
X164923287Y-95703600D01*
X165276713Y-95703600D01*
X165693302Y-95620735D01*
X166046469Y-95384756D01*
X166282448Y-95031589D01*
X166365313Y-94615000D01*
X166365313Y-97155000D01*
X166282448Y-96738411D01*
X166046469Y-96385244D01*
X165693302Y-96149265D01*
X165276713Y-96066400D01*
X164923287Y-96066400D01*
X164506698Y-96149265D01*
X164153531Y-96385244D01*
X163956581Y-96680000D01*
X162756752Y-96680000D01*
X161130000Y-95053248D01*
X161130000Y-94241559D01*
X161130000Y-94241554D01*
X161130001Y-94241554D01*
X161130000Y-94241548D01*
X161130000Y-93803008D01*
X161518600Y-93803008D01*
X161604392Y-93786362D01*
X161679795Y-93736831D01*
X161730269Y-93662055D01*
X161748008Y-93573600D01*
X161748008Y-91846400D01*
X161743600Y-91823681D01*
X161743600Y-90191327D01*
X161743600Y-90148673D01*
X161743600Y-87651327D01*
X161743600Y-87608673D01*
X161660735Y-87192084D01*
X161424756Y-86838917D01*
X161071589Y-86602938D01*
X160655000Y-86520073D01*
X160238411Y-86602938D01*
X159885244Y-86838917D01*
X159649265Y-87192084D01*
X159566400Y-87608673D01*
X159566400Y-87651327D01*
X159649265Y-88067916D01*
X159885244Y-88421083D01*
X160238411Y-88657062D01*
X160655000Y-88739927D01*
X161071589Y-88657062D01*
X161424756Y-88421083D01*
X161660735Y-88067916D01*
X161743600Y-87651327D01*
X161743600Y-90148673D01*
X161660735Y-89732084D01*
X161424756Y-89378917D01*
X161071589Y-89142938D01*
X160655000Y-89060073D01*
X160238411Y-89142938D01*
X159885244Y-89378917D01*
X159649265Y-89732084D01*
X159566400Y-90148673D01*
X159566400Y-90191327D01*
X159649265Y-90607916D01*
X159885244Y-90961083D01*
X160238411Y-91197062D01*
X160655000Y-91279927D01*
X161071589Y-91197062D01*
X161424756Y-90961083D01*
X161660735Y-90607916D01*
X161743600Y-90191327D01*
X161743600Y-91823681D01*
X161731362Y-91760608D01*
X161681831Y-91685205D01*
X161607055Y-91634731D01*
X161518600Y-91616992D01*
X159791400Y-91616992D01*
X159705608Y-91633638D01*
X159630205Y-91683169D01*
X159579731Y-91757945D01*
X159561992Y-91846400D01*
X159561992Y-93573600D01*
X159574564Y-93638399D01*
X158770842Y-93638399D01*
X159072521Y-93326091D01*
X159235402Y-92912766D01*
X159235402Y-92507234D01*
X159203600Y-92426533D01*
X159203600Y-90191327D01*
X159203600Y-90148673D01*
X159120735Y-89732084D01*
X158884756Y-89378917D01*
X158531589Y-89142938D01*
X158115000Y-89060073D01*
X157698411Y-89142938D01*
X157345244Y-89378917D01*
X157109265Y-89732084D01*
X157026400Y-90148673D01*
X157026400Y-90191327D01*
X157109265Y-90607916D01*
X157345244Y-90961083D01*
X157698411Y-91197062D01*
X158115000Y-91279927D01*
X158531589Y-91197062D01*
X158884756Y-90961083D01*
X159120735Y-90607916D01*
X159203600Y-90191327D01*
X159203600Y-92426533D01*
X159072521Y-92093909D01*
X158763866Y-91774379D01*
X158356427Y-91597289D01*
X158317766Y-91589600D01*
X158140000Y-91640442D01*
X158140000Y-92685000D01*
X159184578Y-92685000D01*
X159235402Y-92507234D01*
X159235402Y-92912766D01*
X159184578Y-92735000D01*
X158140000Y-92735000D01*
X158140000Y-92755000D01*
X158090000Y-92755000D01*
X158090000Y-92735000D01*
X158090000Y-92685000D01*
X158090000Y-91640442D01*
X157912234Y-91589600D01*
X157873573Y-91597289D01*
X157466134Y-91774379D01*
X157157479Y-92093909D01*
X156994598Y-92507234D01*
X157045422Y-92685000D01*
X158090000Y-92685000D01*
X158090000Y-92735000D01*
X157045422Y-92735000D01*
X156994598Y-92912766D01*
X157157479Y-93326091D01*
X157459157Y-93638399D01*
X150131191Y-93638399D01*
X150403991Y-93525680D01*
X150674730Y-93255414D01*
X150821433Y-92902113D01*
X150821767Y-92519565D01*
X150675680Y-92166009D01*
X150405414Y-91895270D01*
X150052113Y-91748567D01*
X149669565Y-91748233D01*
X149316009Y-91894320D01*
X149045270Y-92164586D01*
X148898567Y-92517887D01*
X148898233Y-92900435D01*
X149044320Y-93253991D01*
X149314586Y-93524730D01*
X149588332Y-93638399D01*
X147821601Y-93638399D01*
X147639826Y-93674556D01*
X147485725Y-93777523D01*
X139364124Y-101899124D01*
X139261157Y-102053225D01*
X139225000Y-102235000D01*
X139225000Y-107105813D01*
X139156009Y-107134320D01*
X138885270Y-107404586D01*
X138738567Y-107757887D01*
X138738233Y-108140435D01*
X138884320Y-108493991D01*
X139154586Y-108764730D01*
X139507887Y-108911433D01*
X139890435Y-108911767D01*
X140243991Y-108765680D01*
X140514730Y-108495414D01*
X140661433Y-108142113D01*
X140661767Y-107759565D01*
X140515680Y-107406009D01*
X140245414Y-107135270D01*
X140175000Y-107106031D01*
X140175000Y-102431752D01*
X148018353Y-94588399D01*
X149161660Y-94588399D01*
X149045270Y-94704586D01*
X148898567Y-95057887D01*
X148898233Y-95440435D01*
X149044320Y-95793991D01*
X149314586Y-96064730D01*
X149667887Y-96211433D01*
X150050435Y-96211767D01*
X150403991Y-96065680D01*
X150674730Y-95795414D01*
X150821433Y-95442113D01*
X150821767Y-95059565D01*
X150675680Y-94706009D01*
X150558275Y-94588399D01*
X160180000Y-94588399D01*
X160180000Y-95250000D01*
X160216157Y-95431775D01*
X160319124Y-95585876D01*
X162224124Y-97490876D01*
X162378225Y-97593843D01*
X162378226Y-97593843D01*
X162408384Y-97599841D01*
X162560000Y-97630001D01*
X162560000Y-97630000D01*
X162560005Y-97630000D01*
X163956581Y-97630000D01*
X164153531Y-97924756D01*
X164506698Y-98160735D01*
X164923287Y-98243600D01*
X165276713Y-98243600D01*
X165604122Y-98178474D01*
X166530000Y-99104352D01*
X166530000Y-101752400D01*
X166566157Y-101934175D01*
X166669124Y-102088276D01*
X168987880Y-104407032D01*
X168914687Y-104775000D01*
X168997552Y-105191589D01*
X169233531Y-105544756D01*
X169586698Y-105780735D01*
X170003287Y-105863600D01*
X170356713Y-105863600D01*
X170773302Y-105780735D01*
X171126469Y-105544756D01*
X171362448Y-105191589D01*
X171445313Y-104775000D01*
X171445313Y-107085559D01*
X171393896Y-106902374D01*
X171155189Y-106527566D01*
X170791220Y-106272638D01*
X170357400Y-106176400D01*
X170205000Y-106176400D01*
X170205000Y-107290000D01*
X171401958Y-107290000D01*
X171452800Y-107112234D01*
X171452800Y-107517766D01*
X171401958Y-107340000D01*
X170205000Y-107340000D01*
X170205000Y-108453600D01*
X170357400Y-108453600D01*
X170791220Y-108357362D01*
X171155189Y-108102434D01*
X171393896Y-107727626D01*
X171452800Y-107517766D01*
X171452800Y-115630000D01*
X171445313Y-115630000D01*
X171445313Y-113665000D01*
X171425408Y-113564931D01*
X171425408Y-111988600D01*
X171425408Y-110261400D01*
X171408762Y-110175608D01*
X171359231Y-110100205D01*
X171284455Y-110049731D01*
X171196000Y-110031992D01*
X170155000Y-110031992D01*
X170155000Y-108453600D01*
X170155000Y-107340000D01*
X170155000Y-107290000D01*
X170155000Y-106176400D01*
X170002600Y-106176400D01*
X169568780Y-106272638D01*
X169204811Y-106527566D01*
X168966104Y-106902374D01*
X168907200Y-107112234D01*
X168958042Y-107290000D01*
X170155000Y-107290000D01*
X170155000Y-107340000D01*
X168958042Y-107340000D01*
X168907200Y-107517766D01*
X168966104Y-107727626D01*
X169204811Y-108102434D01*
X169568780Y-108357362D01*
X170002600Y-108453600D01*
X170155000Y-108453600D01*
X170155000Y-110031992D01*
X169164000Y-110031992D01*
X169078208Y-110048638D01*
X169002805Y-110098169D01*
X168952331Y-110172945D01*
X168934592Y-110261400D01*
X168934592Y-111988600D01*
X168951238Y-112074392D01*
X169000769Y-112149795D01*
X169075545Y-112200269D01*
X169164000Y-112218008D01*
X171196000Y-112218008D01*
X171281792Y-112201362D01*
X171357195Y-112151831D01*
X171407669Y-112077055D01*
X171425408Y-111988600D01*
X171425408Y-113564931D01*
X171362448Y-113248411D01*
X171126469Y-112895244D01*
X170773302Y-112659265D01*
X170356713Y-112576400D01*
X170003287Y-112576400D01*
X169586698Y-112659265D01*
X169233531Y-112895244D01*
X169103399Y-113090000D01*
X167848421Y-113090000D01*
X167803231Y-113021205D01*
X167728455Y-112970731D01*
X167640000Y-112952992D01*
X166372800Y-112952992D01*
X166372800Y-99897766D01*
X166372800Y-99492234D01*
X166313896Y-99282374D01*
X166075189Y-98907566D01*
X165711220Y-98652638D01*
X165277400Y-98556400D01*
X165125000Y-98556400D01*
X165125000Y-99670000D01*
X166321958Y-99670000D01*
X166372800Y-99492234D01*
X166372800Y-99897766D01*
X166321958Y-99720000D01*
X165125000Y-99720000D01*
X165125000Y-100833600D01*
X165277400Y-100833600D01*
X165711220Y-100737362D01*
X166075189Y-100482434D01*
X166313896Y-100107626D01*
X166372800Y-99897766D01*
X166372800Y-112952992D01*
X166370000Y-112952992D01*
X166284208Y-112969638D01*
X166208805Y-113019169D01*
X166158331Y-113093945D01*
X166140592Y-113182400D01*
X166140592Y-114147600D01*
X166157238Y-114233392D01*
X166201239Y-114300377D01*
X166158331Y-114363945D01*
X166140592Y-114452400D01*
X166140592Y-114560000D01*
X165075000Y-114560000D01*
X165075000Y-100833600D01*
X165075000Y-99720000D01*
X165075000Y-99670000D01*
X165075000Y-98556400D01*
X164922600Y-98556400D01*
X164488780Y-98652638D01*
X164124811Y-98907566D01*
X163886104Y-99282374D01*
X163827200Y-99492234D01*
X163878042Y-99670000D01*
X165075000Y-99670000D01*
X165075000Y-99720000D01*
X163878042Y-99720000D01*
X163827200Y-99897766D01*
X163886104Y-100107626D01*
X164124811Y-100482434D01*
X164488780Y-100737362D01*
X164922600Y-100833600D01*
X165075000Y-100833600D01*
X165075000Y-114560000D01*
X164620330Y-114560000D01*
X161517161Y-111456831D01*
X161578339Y-111309501D01*
X161578660Y-110942110D01*
X161438361Y-110602563D01*
X161178804Y-110342552D01*
X160839501Y-110201661D01*
X160472110Y-110201340D01*
X160132563Y-110341639D01*
X159872552Y-110601196D01*
X159731661Y-110940499D01*
X159731340Y-111307890D01*
X159871639Y-111647437D01*
X160131196Y-111907448D01*
X160470499Y-112048339D01*
X160837890Y-112048660D01*
X160986800Y-111987130D01*
X164199835Y-115200165D01*
X164321494Y-115281455D01*
X164465000Y-115310000D01*
X166140592Y-115310000D01*
X166140592Y-115417600D01*
X166157238Y-115503392D01*
X166206769Y-115578795D01*
X166281545Y-115629269D01*
X166370000Y-115647008D01*
X166430000Y-115647008D01*
X166430000Y-116422598D01*
X166473769Y-116642641D01*
X166598414Y-116829184D01*
X168208621Y-118439392D01*
X166928800Y-118439392D01*
X166843008Y-118456038D01*
X166767605Y-118505569D01*
X166717131Y-118580345D01*
X166699392Y-118668800D01*
X166699392Y-118920262D01*
X161578382Y-113799252D01*
X161578660Y-113482110D01*
X161438361Y-113142563D01*
X161178804Y-112882552D01*
X160839501Y-112741661D01*
X160472110Y-112741340D01*
X160132563Y-112881639D01*
X159872552Y-113141196D01*
X159731661Y-113480499D01*
X159731340Y-113847890D01*
X159871639Y-114187437D01*
X160131196Y-114447448D01*
X160470499Y-114588339D01*
X160837890Y-114588660D01*
X161169932Y-114451462D01*
X166363635Y-119645165D01*
X166485293Y-119726454D01*
X166485294Y-119726455D01*
X166628800Y-119755000D01*
X166699392Y-119755000D01*
X166699392Y-120091200D01*
X166716038Y-120176992D01*
X166765569Y-120252395D01*
X166840345Y-120302869D01*
X166928800Y-120320608D01*
X168335000Y-120320608D01*
X168335000Y-120411827D01*
X167762920Y-120983907D01*
X167454595Y-120983638D01*
X167110378Y-121125866D01*
X166846791Y-121388993D01*
X166703963Y-121732961D01*
X166703638Y-122105405D01*
X166845866Y-122449622D01*
X167108993Y-122713209D01*
X167452961Y-122856037D01*
X167825405Y-122856362D01*
X168169622Y-122714134D01*
X168433209Y-122451007D01*
X168576037Y-122107039D01*
X168576307Y-121796864D01*
X169316586Y-121056587D01*
X169316586Y-121056586D01*
X169441231Y-120870043D01*
X169484999Y-120650000D01*
X169485000Y-120650000D01*
X169485000Y-120008929D01*
X169648993Y-120173209D01*
X169992961Y-120316037D01*
X170365405Y-120316362D01*
X170709622Y-120174134D01*
X170973209Y-119911007D01*
X171116037Y-119567039D01*
X171116362Y-119194595D01*
X170974134Y-118850378D01*
X170711007Y-118586791D01*
X170367039Y-118443963D01*
X169994595Y-118443638D01*
X169650378Y-118585866D01*
X169485000Y-118750955D01*
X169485000Y-118327598D01*
X169441231Y-118107555D01*
X169316587Y-117921012D01*
X167580000Y-116184425D01*
X167580000Y-115647008D01*
X167640000Y-115647008D01*
X167725792Y-115630362D01*
X167801195Y-115580831D01*
X167851669Y-115506055D01*
X167869408Y-115417600D01*
X167869408Y-114452400D01*
X167852762Y-114366608D01*
X167808760Y-114299622D01*
X167849006Y-114240000D01*
X169103399Y-114240000D01*
X169233531Y-114434756D01*
X169586698Y-114670735D01*
X170003287Y-114753600D01*
X170356713Y-114753600D01*
X170773302Y-114670735D01*
X171126469Y-114434756D01*
X171362448Y-114081589D01*
X171445313Y-113665000D01*
X171445313Y-115630000D01*
X171256600Y-115630000D01*
X171126469Y-115435244D01*
X170773302Y-115199265D01*
X170356713Y-115116400D01*
X170003287Y-115116400D01*
X169586698Y-115199265D01*
X169233531Y-115435244D01*
X168997552Y-115788411D01*
X168914687Y-116205000D01*
X168997552Y-116621589D01*
X169233531Y-116974756D01*
X169586698Y-117210735D01*
X170003287Y-117293600D01*
X170356713Y-117293600D01*
X170773302Y-117210735D01*
X171126469Y-116974756D01*
X171256600Y-116780000D01*
X171657828Y-116780000D01*
X172145000Y-117267172D01*
X172145000Y-118032992D01*
X172085000Y-118032992D01*
X171999208Y-118049638D01*
X171923805Y-118099169D01*
X171873331Y-118173945D01*
X171855592Y-118262400D01*
X171855592Y-119227600D01*
X171872238Y-119313392D01*
X171916239Y-119380377D01*
X171873331Y-119443945D01*
X171855592Y-119532400D01*
X171855592Y-120497600D01*
X171872238Y-120583392D01*
X171921769Y-120658795D01*
X171996545Y-120709269D01*
X172085000Y-120727008D01*
X172145000Y-120727008D01*
X172145000Y-120959428D01*
X171116140Y-121988287D01*
X171116362Y-121734595D01*
X170974134Y-121390378D01*
X170711007Y-121126791D01*
X170367039Y-120983963D01*
X169994595Y-120983638D01*
X169650378Y-121125866D01*
X169386791Y-121388993D01*
X169243963Y-121732961D01*
X169243638Y-122105405D01*
X169385866Y-122449622D01*
X169550955Y-122615000D01*
X168910000Y-122615000D01*
X168689957Y-122658769D01*
X168503413Y-122783414D01*
X167762920Y-123523907D01*
X167454595Y-123523638D01*
X167110378Y-123665866D01*
X166846791Y-123928993D01*
X166703963Y-124272961D01*
X166703638Y-124645405D01*
X166845866Y-124989622D01*
X167108993Y-125253209D01*
X167452961Y-125396037D01*
X167825405Y-125396362D01*
X168169622Y-125254134D01*
X168433209Y-124991007D01*
X168576037Y-124647039D01*
X168576307Y-124336864D01*
X169148172Y-123765000D01*
X169551070Y-123765000D01*
X169386791Y-123928993D01*
X169243963Y-124272961D01*
X169243638Y-124645405D01*
X169385866Y-124989622D01*
X169648993Y-125253209D01*
X169992961Y-125396037D01*
X170365405Y-125396362D01*
X170709622Y-125254134D01*
X170973209Y-124991007D01*
X171116037Y-124647039D01*
X171116362Y-124274595D01*
X170974134Y-123930378D01*
X170795551Y-123751483D01*
X170947643Y-123721231D01*
X171134186Y-123596586D01*
X173126586Y-121604186D01*
X173251231Y-121417643D01*
X173294999Y-121197600D01*
X173295000Y-121197600D01*
X173295000Y-120727008D01*
X173355000Y-120727008D01*
X173440792Y-120710362D01*
X173516195Y-120660831D01*
X173566669Y-120586055D01*
X173584408Y-120497600D01*
X173584408Y-125455000D01*
X161578660Y-125455000D01*
X161578660Y-118562110D01*
X161578660Y-116022110D01*
X161438361Y-115682563D01*
X161178804Y-115422552D01*
X160839501Y-115281661D01*
X160472110Y-115281340D01*
X160132563Y-115421639D01*
X159872552Y-115681196D01*
X159731661Y-116020499D01*
X159731340Y-116387890D01*
X159871639Y-116727437D01*
X160131196Y-116987448D01*
X160470499Y-117128339D01*
X160837890Y-117128660D01*
X161177437Y-116988361D01*
X161437448Y-116728804D01*
X161578339Y-116389501D01*
X161578660Y-116022110D01*
X161578660Y-118562110D01*
X161438361Y-118222563D01*
X161178804Y-117962552D01*
X160839501Y-117821661D01*
X160472110Y-117821340D01*
X160132563Y-117961639D01*
X159872552Y-118221196D01*
X159731661Y-118560499D01*
X159731340Y-118927890D01*
X159871639Y-119267437D01*
X160131196Y-119527448D01*
X160470499Y-119668339D01*
X160837890Y-119668660D01*
X161177437Y-119528361D01*
X161437448Y-119268804D01*
X161578339Y-118929501D01*
X161578660Y-118562110D01*
X161578660Y-125455000D01*
X156765316Y-125455000D01*
X156765316Y-101873578D01*
X156488062Y-101202571D01*
X155975129Y-100688742D01*
X155304608Y-100410317D01*
X154578578Y-100409684D01*
X153907571Y-100686938D01*
X153393742Y-101199871D01*
X153115317Y-101870392D01*
X153114684Y-102596422D01*
X153391938Y-103267429D01*
X153904871Y-103781258D01*
X154575392Y-104059683D01*
X155301422Y-104060316D01*
X155972429Y-103783062D01*
X156486258Y-103270129D01*
X156764683Y-102599608D01*
X156765316Y-101873578D01*
X156765316Y-125455000D01*
X154011131Y-125455000D01*
X154011131Y-116025084D01*
X154008500Y-116018470D01*
X154008500Y-111878201D01*
X154008500Y-111218750D01*
X154008500Y-111031250D01*
X154008500Y-110371799D01*
X153966634Y-110270725D01*
X153889275Y-110193366D01*
X153788201Y-110151500D01*
X153678799Y-110151500D01*
X153128750Y-110151500D01*
X153060000Y-110220250D01*
X153060000Y-111100000D01*
X153939750Y-111100000D01*
X154008500Y-111031250D01*
X154008500Y-111218750D01*
X153939750Y-111150000D01*
X153060000Y-111150000D01*
X153060000Y-112029750D01*
X153128750Y-112098500D01*
X153678799Y-112098500D01*
X153788201Y-112098500D01*
X153889275Y-112056634D01*
X153966634Y-111979275D01*
X154008500Y-111878201D01*
X154008500Y-116018470D01*
X153958660Y-115893185D01*
X153958660Y-113482110D01*
X153818361Y-113142563D01*
X153558804Y-112882552D01*
X153219501Y-112741661D01*
X153010000Y-112741477D01*
X153010000Y-112029750D01*
X153010000Y-111150000D01*
X153010000Y-111100000D01*
X153010000Y-110220250D01*
X152941250Y-110151500D01*
X152671091Y-110151500D01*
X152671091Y-105814029D01*
X152591333Y-105621000D01*
X152443777Y-105473186D01*
X152250887Y-105393092D01*
X152042029Y-105392909D01*
X151849000Y-105472667D01*
X151701186Y-105620223D01*
X151621092Y-105813113D01*
X151621004Y-105912665D01*
X151462069Y-106071601D01*
X151251923Y-106071601D01*
X150558339Y-106071601D01*
X150674730Y-105955414D01*
X150821433Y-105602113D01*
X150821767Y-105219565D01*
X150821767Y-102679565D01*
X150821767Y-100139565D01*
X150821767Y-97599565D01*
X150675680Y-97246009D01*
X150405414Y-96975270D01*
X150052113Y-96828567D01*
X149669565Y-96828233D01*
X149316009Y-96974320D01*
X149045270Y-97244586D01*
X148974508Y-97415000D01*
X147687469Y-97415000D01*
X147617777Y-97345186D01*
X147424887Y-97265092D01*
X147216029Y-97264909D01*
X147023000Y-97344667D01*
X146875186Y-97492223D01*
X146795092Y-97685113D01*
X146794909Y-97893971D01*
X146874667Y-98087000D01*
X147022223Y-98234814D01*
X147215113Y-98314908D01*
X147423971Y-98315091D01*
X147617000Y-98235333D01*
X147687455Y-98165000D01*
X148974494Y-98165000D01*
X149044320Y-98333991D01*
X149314586Y-98604730D01*
X149667887Y-98751433D01*
X150050435Y-98751767D01*
X150403991Y-98605680D01*
X150674730Y-98335414D01*
X150821433Y-97982113D01*
X150821767Y-97599565D01*
X150821767Y-100139565D01*
X150675680Y-99786009D01*
X150405414Y-99515270D01*
X150052113Y-99368567D01*
X149669565Y-99368233D01*
X149316009Y-99514320D01*
X149045270Y-99784586D01*
X148898567Y-100137887D01*
X148898233Y-100520435D01*
X149044320Y-100873991D01*
X149314586Y-101144730D01*
X149667887Y-101291433D01*
X150050435Y-101291767D01*
X150403991Y-101145680D01*
X150674730Y-100875414D01*
X150821433Y-100522113D01*
X150821767Y-100139565D01*
X150821767Y-102679565D01*
X150675680Y-102326009D01*
X150405414Y-102055270D01*
X150052113Y-101908567D01*
X149669565Y-101908233D01*
X149499027Y-101978697D01*
X149490165Y-101969835D01*
X149368507Y-101888545D01*
X149225000Y-101860000D01*
X144512469Y-101860000D01*
X144442777Y-101790186D01*
X144249887Y-101710092D01*
X144041029Y-101709909D01*
X143848000Y-101789667D01*
X143700186Y-101937223D01*
X143620092Y-102130113D01*
X143619909Y-102338971D01*
X143699667Y-102532000D01*
X143847223Y-102679814D01*
X144040113Y-102759908D01*
X144248971Y-102760091D01*
X144442000Y-102680333D01*
X144512455Y-102610000D01*
X148926756Y-102610000D01*
X148898567Y-102677887D01*
X148898233Y-103060435D01*
X149044320Y-103413991D01*
X149314586Y-103684730D01*
X149667887Y-103831433D01*
X150050435Y-103831767D01*
X150403991Y-103685680D01*
X150674730Y-103415414D01*
X150821433Y-103062113D01*
X150821767Y-102679565D01*
X150821767Y-105219565D01*
X150675680Y-104866009D01*
X150405414Y-104595270D01*
X150052113Y-104448567D01*
X149669565Y-104448233D01*
X149316009Y-104594320D01*
X149045270Y-104864586D01*
X148898567Y-105217887D01*
X148898233Y-105600435D01*
X149044320Y-105953991D01*
X149161724Y-106071601D01*
X149146931Y-106071601D01*
X147845004Y-104769674D01*
X147845091Y-104671029D01*
X147765333Y-104478000D01*
X147617777Y-104330186D01*
X147424887Y-104250092D01*
X147216029Y-104249909D01*
X147023000Y-104329667D01*
X146875186Y-104477223D01*
X146795092Y-104670113D01*
X146794909Y-104878971D01*
X146874667Y-105072000D01*
X147022223Y-105219814D01*
X147215113Y-105299908D01*
X147314665Y-105299995D01*
X148726436Y-106711766D01*
X148848095Y-106793056D01*
X148991601Y-106821601D01*
X151251923Y-106821601D01*
X151531601Y-106821601D01*
X151617399Y-106821601D01*
X151760905Y-106793056D01*
X151760906Y-106793056D01*
X151882564Y-106711766D01*
X152151325Y-106443004D01*
X152249971Y-106443091D01*
X152443000Y-106363333D01*
X152590814Y-106215777D01*
X152670908Y-106022887D01*
X152671091Y-105814029D01*
X152671091Y-110151500D01*
X152391201Y-110151500D01*
X152281799Y-110151500D01*
X152180725Y-110193366D01*
X152103366Y-110270725D01*
X152061500Y-110371799D01*
X152061500Y-111031250D01*
X152130250Y-111100000D01*
X153010000Y-111100000D01*
X153010000Y-111150000D01*
X152130250Y-111150000D01*
X152061500Y-111218750D01*
X152061500Y-111878201D01*
X152103366Y-111979275D01*
X152180725Y-112056634D01*
X152281799Y-112098500D01*
X152391201Y-112098500D01*
X152941250Y-112098500D01*
X153010000Y-112029750D01*
X153010000Y-112741477D01*
X152852110Y-112741340D01*
X152512563Y-112881639D01*
X152252552Y-113141196D01*
X152111661Y-113480499D01*
X152111340Y-113847890D01*
X152251639Y-114187437D01*
X152511196Y-114447448D01*
X152850499Y-114588339D01*
X153217890Y-114588660D01*
X153557437Y-114448361D01*
X153817448Y-114188804D01*
X153958339Y-113849501D01*
X153958660Y-113482110D01*
X153958660Y-115893185D01*
X153867977Y-115665231D01*
X153852447Y-115641991D01*
X153705679Y-115569676D01*
X153670324Y-115605031D01*
X153670324Y-115534321D01*
X153598009Y-115387553D01*
X153242329Y-115234323D01*
X152855084Y-115228869D01*
X152495231Y-115372023D01*
X152471991Y-115387553D01*
X152399676Y-115534321D01*
X153035000Y-116169645D01*
X153670324Y-115534321D01*
X153670324Y-115605031D01*
X153070355Y-116205000D01*
X153705679Y-116840324D01*
X153852447Y-116768009D01*
X154005677Y-116412329D01*
X154011131Y-116025084D01*
X154011131Y-125455000D01*
X153958660Y-125455000D01*
X153958660Y-118562110D01*
X153818361Y-118222563D01*
X153670324Y-118074267D01*
X153670324Y-116875679D01*
X153035000Y-116240355D01*
X152999645Y-116275710D01*
X152999645Y-116205000D01*
X152364321Y-115569676D01*
X152217553Y-115641991D01*
X152064323Y-115997671D01*
X152058869Y-116384916D01*
X152202023Y-116744769D01*
X152217553Y-116768009D01*
X152364321Y-116840324D01*
X152999645Y-116205000D01*
X152999645Y-116275710D01*
X152399676Y-116875679D01*
X152471991Y-117022447D01*
X152827671Y-117175677D01*
X153214916Y-117181131D01*
X153574769Y-117037977D01*
X153598009Y-117022447D01*
X153670324Y-116875679D01*
X153670324Y-118074267D01*
X153558804Y-117962552D01*
X153219501Y-117821661D01*
X152852110Y-117821340D01*
X152512563Y-117961639D01*
X152252552Y-118221196D01*
X152111661Y-118560499D01*
X152111340Y-118927890D01*
X152251639Y-119267437D01*
X152511196Y-119527448D01*
X152850499Y-119668339D01*
X153217890Y-119668660D01*
X153557437Y-119528361D01*
X153817448Y-119268804D01*
X153958339Y-118929501D01*
X153958660Y-118562110D01*
X153958660Y-125455000D01*
X153179091Y-125455000D01*
X153179091Y-122832029D01*
X153099333Y-122639000D01*
X152951777Y-122491186D01*
X152758887Y-122411092D01*
X152659334Y-122411004D01*
X151738164Y-121489834D01*
X151616506Y-121408544D01*
X151472999Y-121379999D01*
X151020091Y-121379999D01*
X151020091Y-111656029D01*
X150940333Y-111463000D01*
X150821767Y-111344226D01*
X150821767Y-107759565D01*
X150675680Y-107406009D01*
X150405414Y-107135270D01*
X150052113Y-106988567D01*
X149669565Y-106988233D01*
X149316009Y-107134320D01*
X149045270Y-107404586D01*
X148898567Y-107757887D01*
X148898233Y-108140435D01*
X149044320Y-108493991D01*
X149314586Y-108764730D01*
X149667887Y-108911433D01*
X150050435Y-108911767D01*
X150403991Y-108765680D01*
X150674730Y-108495414D01*
X150821433Y-108142113D01*
X150821767Y-107759565D01*
X150821767Y-111344226D01*
X150792777Y-111315186D01*
X150599887Y-111235092D01*
X150500334Y-111235004D01*
X149115004Y-109849674D01*
X149115091Y-109751029D01*
X149035333Y-109558000D01*
X148887777Y-109410186D01*
X148694887Y-109330092D01*
X148486029Y-109329909D01*
X148293000Y-109409667D01*
X148281767Y-109420880D01*
X148281767Y-107759565D01*
X148135680Y-107406009D01*
X147865414Y-107135270D01*
X147512113Y-106988567D01*
X147129565Y-106988233D01*
X146776009Y-107134320D01*
X146505270Y-107404586D01*
X146358567Y-107757887D01*
X146358233Y-108140435D01*
X146504320Y-108493991D01*
X146774586Y-108764730D01*
X147127887Y-108911433D01*
X147510435Y-108911767D01*
X147863991Y-108765680D01*
X148134730Y-108495414D01*
X148281433Y-108142113D01*
X148281767Y-107759565D01*
X148281767Y-109420880D01*
X148145186Y-109557223D01*
X148065092Y-109750113D01*
X148064909Y-109958971D01*
X148144667Y-110152000D01*
X148292223Y-110299814D01*
X148485113Y-110379908D01*
X148584665Y-110379995D01*
X149969995Y-111765325D01*
X149969909Y-111863971D01*
X150049667Y-112057000D01*
X150197223Y-112204814D01*
X150390113Y-112284908D01*
X150598971Y-112285091D01*
X150792000Y-112205333D01*
X150939814Y-112057777D01*
X151019908Y-111864887D01*
X151020091Y-111656029D01*
X151020091Y-121379999D01*
X150110999Y-121379999D01*
X149967492Y-121408544D01*
X149845834Y-121489834D01*
X148520667Y-122815000D01*
X146656000Y-122815000D01*
X146656000Y-121568289D01*
X146656000Y-121001711D01*
X146561534Y-120526801D01*
X146292520Y-120124191D01*
X145889910Y-119855177D01*
X145741767Y-119825709D01*
X145741767Y-107759565D01*
X145595680Y-107406009D01*
X145325414Y-107135270D01*
X144972113Y-106988567D01*
X144589565Y-106988233D01*
X144236009Y-107134320D01*
X143965270Y-107404586D01*
X143818567Y-107757887D01*
X143818233Y-108140435D01*
X143964320Y-108493991D01*
X144234586Y-108764730D01*
X144587887Y-108911433D01*
X144970435Y-108911767D01*
X145323991Y-108765680D01*
X145594730Y-108495414D01*
X145741433Y-108142113D01*
X145741767Y-107759565D01*
X145741767Y-119825709D01*
X145415000Y-119760711D01*
X144940090Y-119855177D01*
X144537480Y-120124191D01*
X144268466Y-120526801D01*
X144174000Y-121001711D01*
X144174000Y-121568289D01*
X144268466Y-122043199D01*
X144537480Y-122445809D01*
X144940090Y-122714823D01*
X145415000Y-122809289D01*
X145889910Y-122714823D01*
X146292520Y-122445809D01*
X146561534Y-122043199D01*
X146656000Y-121568289D01*
X146656000Y-122815000D01*
X144166000Y-122815000D01*
X142900002Y-122815000D01*
X142900002Y-122760994D01*
X143101611Y-122809956D01*
X143345947Y-122741295D01*
X143770197Y-122469552D01*
X144058161Y-122056141D01*
X144166000Y-121564000D01*
X144166000Y-121310000D01*
X144166000Y-121260000D01*
X144166000Y-121006000D01*
X144058161Y-120513859D01*
X143770197Y-120100448D01*
X143345947Y-119828705D01*
X143254509Y-119803009D01*
X143254509Y-107764005D01*
X143106107Y-107389928D01*
X143088884Y-107364151D01*
X142938157Y-107287198D01*
X142902802Y-107322553D01*
X142902802Y-107251843D01*
X142825849Y-107101116D01*
X142456399Y-106941539D01*
X142054005Y-106935491D01*
X141679928Y-107083893D01*
X141654151Y-107101116D01*
X141577198Y-107251843D01*
X142240000Y-107914645D01*
X142902802Y-107251843D01*
X142902802Y-107322553D01*
X142275355Y-107950000D01*
X142938157Y-108612802D01*
X143088884Y-108535849D01*
X143248461Y-108166399D01*
X143254509Y-107764005D01*
X143254509Y-119803009D01*
X143101611Y-119760044D01*
X142902802Y-119808325D01*
X142902802Y-108648157D01*
X142240000Y-107985355D01*
X142204645Y-108020710D01*
X142204645Y-107950000D01*
X141541843Y-107287198D01*
X141391116Y-107364151D01*
X141231539Y-107733601D01*
X141225491Y-108135995D01*
X141373893Y-108510072D01*
X141391116Y-108535849D01*
X141541843Y-108612802D01*
X142204645Y-107950000D01*
X142204645Y-108020710D01*
X141577198Y-108648157D01*
X141654151Y-108798884D01*
X142023601Y-108958461D01*
X142425995Y-108964509D01*
X142800072Y-108816107D01*
X142825849Y-108798884D01*
X142902802Y-108648157D01*
X142902802Y-119808325D01*
X142900000Y-119809006D01*
X142900000Y-121260000D01*
X144166000Y-121260000D01*
X144166000Y-121310000D01*
X142900000Y-121310000D01*
X142900000Y-121330000D01*
X142850000Y-121330000D01*
X142850000Y-121310000D01*
X142850000Y-121260000D01*
X142850000Y-119809006D01*
X142648389Y-119760044D01*
X142404053Y-119828705D01*
X141979803Y-120100448D01*
X141691839Y-120513859D01*
X141584000Y-121006000D01*
X141584000Y-121260000D01*
X142850000Y-121260000D01*
X142850000Y-121310000D01*
X141584000Y-121310000D01*
X141584000Y-121564000D01*
X141691839Y-122056141D01*
X141979803Y-122469552D01*
X142404053Y-122741295D01*
X142648389Y-122809956D01*
X142849998Y-122760994D01*
X142849998Y-122815000D01*
X141576000Y-122815000D01*
X141576000Y-121568289D01*
X141576000Y-121001711D01*
X141481534Y-120526801D01*
X141212520Y-120124191D01*
X140809910Y-119855177D01*
X140335000Y-119760711D01*
X139860090Y-119855177D01*
X139457480Y-120124191D01*
X139188466Y-120526801D01*
X139094000Y-121001711D01*
X139094000Y-121568289D01*
X139188466Y-122043199D01*
X139457480Y-122445809D01*
X139860090Y-122714823D01*
X140335000Y-122809289D01*
X140809910Y-122714823D01*
X141212520Y-122445809D01*
X141481534Y-122043199D01*
X141576000Y-121568289D01*
X141576000Y-122815000D01*
X139432469Y-122815000D01*
X139362777Y-122745186D01*
X139169887Y-122665092D01*
X138961029Y-122664909D01*
X138768000Y-122744667D01*
X138620186Y-122892223D01*
X138540092Y-123085113D01*
X138539909Y-123293971D01*
X138619667Y-123487000D01*
X138767223Y-123634814D01*
X138960113Y-123714908D01*
X139168971Y-123715091D01*
X139362000Y-123635333D01*
X139432455Y-123565000D01*
X141144499Y-123565000D01*
X141080092Y-123720113D01*
X141079909Y-123928971D01*
X141159667Y-124122000D01*
X141307223Y-124269814D01*
X141500113Y-124349908D01*
X141599665Y-124349995D01*
X141939836Y-124690166D01*
X142061495Y-124771456D01*
X142205001Y-124800001D01*
X149894999Y-124800001D01*
X150038505Y-124771456D01*
X150038506Y-124771456D01*
X150160164Y-124690166D01*
X151135325Y-123715004D01*
X151233971Y-123715091D01*
X151427000Y-123635333D01*
X151574814Y-123487777D01*
X151654908Y-123294887D01*
X151655091Y-123086029D01*
X151575333Y-122893000D01*
X151427777Y-122745186D01*
X151234887Y-122665092D01*
X151026029Y-122664909D01*
X151016123Y-122669002D01*
X151019908Y-122659887D01*
X151020091Y-122451029D01*
X150940333Y-122258000D01*
X150812555Y-122129999D01*
X151317669Y-122129999D01*
X152128995Y-122941325D01*
X152128909Y-123039971D01*
X152208667Y-123233000D01*
X152356223Y-123380814D01*
X152549113Y-123460908D01*
X152757971Y-123461091D01*
X152951000Y-123381333D01*
X153098814Y-123233777D01*
X153178908Y-123040887D01*
X153179091Y-122832029D01*
X153179091Y-125455000D01*
X131365316Y-125455000D01*
X131365316Y-103778578D01*
X131088062Y-103107571D01*
X130575129Y-102593742D01*
X129904608Y-102315317D01*
X129390402Y-102314868D01*
X129390402Y-99262766D01*
X129390402Y-98857234D01*
X129358600Y-98776533D01*
X129358600Y-96541327D01*
X129358600Y-96498673D01*
X129275735Y-96082084D01*
X129039756Y-95728917D01*
X128686589Y-95492938D01*
X128270000Y-95410073D01*
X127853411Y-95492938D01*
X127500244Y-95728917D01*
X127264265Y-96082084D01*
X127181400Y-96498673D01*
X127181400Y-96541327D01*
X127264265Y-96957916D01*
X127500244Y-97311083D01*
X127853411Y-97547062D01*
X128270000Y-97629927D01*
X128686589Y-97547062D01*
X129039756Y-97311083D01*
X129275735Y-96957916D01*
X129358600Y-96541327D01*
X129358600Y-98776533D01*
X129227521Y-98443909D01*
X128918866Y-98124379D01*
X128511427Y-97947289D01*
X128472766Y-97939600D01*
X128295000Y-97990442D01*
X128295000Y-99035000D01*
X129339578Y-99035000D01*
X129390402Y-98857234D01*
X129390402Y-99262766D01*
X129339578Y-99085000D01*
X128295000Y-99085000D01*
X128295000Y-100129558D01*
X128472766Y-100180400D01*
X128511427Y-100172711D01*
X128918866Y-99995621D01*
X129227521Y-99676091D01*
X129390402Y-99262766D01*
X129390402Y-102314868D01*
X129178578Y-102314684D01*
X128507571Y-102591938D01*
X128245000Y-102854051D01*
X128245000Y-100129558D01*
X128245000Y-99085000D01*
X128245000Y-99035000D01*
X128245000Y-97990442D01*
X128067234Y-97939600D01*
X128028573Y-97947289D01*
X127621134Y-98124379D01*
X127312479Y-98443909D01*
X127149598Y-98857234D01*
X127200422Y-99035000D01*
X128245000Y-99035000D01*
X128245000Y-99085000D01*
X127200422Y-99085000D01*
X127149598Y-99262766D01*
X127312479Y-99676091D01*
X127621134Y-99995621D01*
X128028573Y-100172711D01*
X128067234Y-100180400D01*
X128245000Y-100129558D01*
X128245000Y-102854051D01*
X127993742Y-103104871D01*
X127715317Y-103775392D01*
X127714684Y-104501422D01*
X127991938Y-105172429D01*
X128504871Y-105686258D01*
X129175392Y-105964683D01*
X129901422Y-105965316D01*
X130572429Y-105688062D01*
X131086258Y-105175129D01*
X131364683Y-104504608D01*
X131365316Y-103778578D01*
X131365316Y-125455000D01*
X131290923Y-125455000D01*
X131290923Y-122246058D01*
X131242608Y-122124491D01*
X131242608Y-115519200D01*
X131242608Y-114096800D01*
X131225962Y-114011008D01*
X131176431Y-113935605D01*
X131101655Y-113885131D01*
X131013200Y-113867392D01*
X129590800Y-113867392D01*
X129505008Y-113884038D01*
X129429605Y-113933569D01*
X129379131Y-114008345D01*
X129361392Y-114096800D01*
X129361392Y-114433000D01*
X129290800Y-114433000D01*
X129147294Y-114461545D01*
X129025635Y-114542835D01*
X128373470Y-115195000D01*
X127887251Y-115195000D01*
X128157437Y-115083361D01*
X128417448Y-114823804D01*
X128558339Y-114484501D01*
X128558660Y-114117110D01*
X128418361Y-113777563D01*
X128158804Y-113517552D01*
X127819501Y-113376661D01*
X127452110Y-113376340D01*
X127112563Y-113516639D01*
X126852552Y-113776196D01*
X126711661Y-114115499D01*
X126711340Y-114482890D01*
X126851639Y-114822437D01*
X127111196Y-115082448D01*
X127382251Y-115195000D01*
X125347251Y-115195000D01*
X125617437Y-115083361D01*
X125877448Y-114823804D01*
X126018339Y-114484501D01*
X126018660Y-114117110D01*
X125878361Y-113777563D01*
X125618804Y-113517552D01*
X125279501Y-113376661D01*
X124912110Y-113376340D01*
X124572563Y-113516639D01*
X124312552Y-113776196D01*
X124171661Y-114115499D01*
X124171340Y-114482890D01*
X124311639Y-114822437D01*
X124571196Y-115082448D01*
X124842251Y-115195000D01*
X122992501Y-115195000D01*
X122938337Y-115140835D01*
X123077437Y-115083361D01*
X123337448Y-114823804D01*
X123478339Y-114484501D01*
X123478660Y-114117110D01*
X123338361Y-113777563D01*
X123078804Y-113517552D01*
X122739501Y-113376661D01*
X122372110Y-113376340D01*
X122032563Y-113516639D01*
X121772552Y-113776196D01*
X121631661Y-114115499D01*
X121631340Y-114482890D01*
X121692869Y-114631800D01*
X120494670Y-115830000D01*
X119015329Y-115830000D01*
X119683168Y-115162161D01*
X119830499Y-115223339D01*
X120197890Y-115223660D01*
X120537437Y-115083361D01*
X120797448Y-114823804D01*
X120938339Y-114484501D01*
X120938660Y-114117110D01*
X120798361Y-113777563D01*
X120538804Y-113517552D01*
X120199501Y-113376661D01*
X119832110Y-113376340D01*
X119492563Y-113516639D01*
X119232552Y-113776196D01*
X119091661Y-114115499D01*
X119091340Y-114482890D01*
X119152869Y-114631800D01*
X118589669Y-115195000D01*
X96821380Y-115195000D01*
X95606215Y-113979835D01*
X95668840Y-113665000D01*
X95668840Y-110490000D01*
X95668840Y-107950000D01*
X95668840Y-105410000D01*
X95668840Y-90170000D01*
X95668840Y-87630000D01*
X95602023Y-87294088D01*
X95411744Y-87009316D01*
X95126972Y-86819037D01*
X94791060Y-86752220D01*
X93422940Y-86752220D01*
X93087028Y-86819037D01*
X92802256Y-87009316D01*
X92611977Y-87294088D01*
X92545160Y-87630000D01*
X92611977Y-87965912D01*
X92802256Y-88250684D01*
X93087028Y-88440963D01*
X93422940Y-88507780D01*
X94791060Y-88507780D01*
X95126972Y-88440963D01*
X95411744Y-88250684D01*
X95602023Y-87965912D01*
X95668840Y-87630000D01*
X95668840Y-90170000D01*
X95602023Y-89834088D01*
X95411744Y-89549316D01*
X95126972Y-89359037D01*
X94791060Y-89292220D01*
X93422940Y-89292220D01*
X93087028Y-89359037D01*
X92802256Y-89549316D01*
X92611977Y-89834088D01*
X92545160Y-90170000D01*
X92611977Y-90505912D01*
X92802256Y-90790684D01*
X93087028Y-90980963D01*
X93422940Y-91047780D01*
X94791060Y-91047780D01*
X95126972Y-90980963D01*
X95411744Y-90790684D01*
X95602023Y-90505912D01*
X95668840Y-90170000D01*
X95668840Y-105410000D01*
X95602023Y-105074088D01*
X95411744Y-104789316D01*
X95126972Y-104599037D01*
X94791060Y-104532220D01*
X93900316Y-104532220D01*
X93900316Y-95523578D01*
X93623062Y-94852571D01*
X93110129Y-94338742D01*
X92439608Y-94060317D01*
X91713578Y-94059684D01*
X91042571Y-94336938D01*
X90528742Y-94849871D01*
X90250317Y-95520392D01*
X90249684Y-96246422D01*
X90526938Y-96917429D01*
X91039871Y-97431258D01*
X91710392Y-97709683D01*
X92436422Y-97710316D01*
X93107429Y-97433062D01*
X93621258Y-96920129D01*
X93899683Y-96249608D01*
X93900316Y-95523578D01*
X93900316Y-104532220D01*
X93422940Y-104532220D01*
X93087028Y-104599037D01*
X92802256Y-104789316D01*
X92611977Y-105074088D01*
X92545160Y-105410000D01*
X92611977Y-105745912D01*
X92802256Y-106030684D01*
X93087028Y-106220963D01*
X93422940Y-106287780D01*
X94791060Y-106287780D01*
X95126972Y-106220963D01*
X95411744Y-106030684D01*
X95602023Y-105745912D01*
X95668840Y-105410000D01*
X95668840Y-107950000D01*
X95602023Y-107614088D01*
X95411744Y-107329316D01*
X95126972Y-107139037D01*
X94791060Y-107072220D01*
X93422940Y-107072220D01*
X93087028Y-107139037D01*
X92802256Y-107329316D01*
X92611977Y-107614088D01*
X92545160Y-107950000D01*
X92611977Y-108285912D01*
X92802256Y-108570684D01*
X93087028Y-108760963D01*
X93422940Y-108827780D01*
X94791060Y-108827780D01*
X95126972Y-108760963D01*
X95411744Y-108570684D01*
X95602023Y-108285912D01*
X95668840Y-107950000D01*
X95668840Y-110490000D01*
X95602023Y-110154088D01*
X95411744Y-109869316D01*
X95126972Y-109679037D01*
X94791060Y-109612220D01*
X93422940Y-109612220D01*
X93087028Y-109679037D01*
X92802256Y-109869316D01*
X92611977Y-110154088D01*
X92545160Y-110490000D01*
X92611977Y-110825912D01*
X92802256Y-111110684D01*
X93087028Y-111300963D01*
X93422940Y-111367780D01*
X94791060Y-111367780D01*
X95126972Y-111300963D01*
X95411744Y-111110684D01*
X95602023Y-110825912D01*
X95668840Y-110490000D01*
X95668840Y-113665000D01*
X95602023Y-113329088D01*
X95411744Y-113044316D01*
X95126972Y-112854037D01*
X94791060Y-112787220D01*
X93422940Y-112787220D01*
X93087028Y-112854037D01*
X92802256Y-113044316D01*
X92611977Y-113329088D01*
X92545160Y-113665000D01*
X92611977Y-114000912D01*
X92802256Y-114285684D01*
X93087028Y-114475963D01*
X93422940Y-114542780D01*
X94791060Y-114542780D01*
X95055833Y-114490113D01*
X96395720Y-115830000D01*
X95575905Y-115830000D01*
X95411744Y-115584316D01*
X95126972Y-115394037D01*
X94791060Y-115327220D01*
X93422940Y-115327220D01*
X93087028Y-115394037D01*
X92802256Y-115584316D01*
X92611977Y-115869088D01*
X92545160Y-116205000D01*
X92611977Y-116540912D01*
X92802256Y-116825684D01*
X93087028Y-117015963D01*
X93422940Y-117082780D01*
X94791060Y-117082780D01*
X95126972Y-117015963D01*
X95411744Y-116825684D01*
X95575905Y-116580000D01*
X120650000Y-116580000D01*
X120793506Y-116551455D01*
X120793507Y-116551455D01*
X120915165Y-116470165D01*
X122180000Y-115205330D01*
X122180000Y-115287828D01*
X122208545Y-115431335D01*
X122289835Y-115552993D01*
X122572007Y-115835165D01*
X122693665Y-115916454D01*
X122693666Y-115916455D01*
X122837172Y-115945000D01*
X128528800Y-115945000D01*
X128672306Y-115916455D01*
X128672307Y-115916455D01*
X128793965Y-115835165D01*
X129361392Y-115267738D01*
X129361392Y-115519200D01*
X129378038Y-115604992D01*
X129427569Y-115680395D01*
X129502345Y-115730869D01*
X129590800Y-115748608D01*
X131013200Y-115748608D01*
X131098992Y-115731962D01*
X131174395Y-115682431D01*
X131224869Y-115607655D01*
X131242608Y-115519200D01*
X131242608Y-122124491D01*
X131146020Y-121881463D01*
X131129927Y-121857378D01*
X130981839Y-121783517D01*
X130946483Y-121818872D01*
X130946483Y-121748161D01*
X130872622Y-121600073D01*
X130512352Y-121444728D01*
X130120058Y-121439077D01*
X129755463Y-121583980D01*
X129731378Y-121600073D01*
X129657517Y-121748161D01*
X130302000Y-122392645D01*
X130946483Y-121748161D01*
X130946483Y-121818872D01*
X130337355Y-122428000D01*
X130981839Y-123072483D01*
X131129927Y-122998622D01*
X131285272Y-122638352D01*
X131290923Y-122246058D01*
X131290923Y-125455000D01*
X130946483Y-125455000D01*
X130946483Y-123107839D01*
X130302000Y-122463355D01*
X130266645Y-122498710D01*
X130266645Y-122428000D01*
X129622161Y-121783517D01*
X129474073Y-121857378D01*
X129318728Y-122217648D01*
X129313077Y-122609942D01*
X129457980Y-122974537D01*
X129474073Y-122998622D01*
X129622161Y-123072483D01*
X130266645Y-122428000D01*
X130266645Y-122498710D01*
X129657517Y-123107839D01*
X129731378Y-123255927D01*
X130091648Y-123411272D01*
X130483942Y-123416923D01*
X130848537Y-123272020D01*
X130872622Y-123255927D01*
X130946483Y-123107839D01*
X130946483Y-125455000D01*
X128558660Y-125455000D01*
X128558660Y-121737110D01*
X128418361Y-121397563D01*
X128158804Y-121137552D01*
X127819501Y-120996661D01*
X127452110Y-120996340D01*
X127112563Y-121136639D01*
X126852552Y-121396196D01*
X126711661Y-121735499D01*
X126711340Y-122102890D01*
X126851639Y-122442437D01*
X127111196Y-122702448D01*
X127450499Y-122843339D01*
X127817890Y-122843660D01*
X128157437Y-122703361D01*
X128417448Y-122443804D01*
X128558339Y-122104501D01*
X128558660Y-121737110D01*
X128558660Y-125455000D01*
X126071131Y-125455000D01*
X126071131Y-121740084D01*
X125927977Y-121380231D01*
X125912447Y-121356991D01*
X125765679Y-121284676D01*
X125730324Y-121320031D01*
X125730324Y-121249321D01*
X125658009Y-121102553D01*
X125302329Y-120949323D01*
X124915084Y-120943869D01*
X124555231Y-121087023D01*
X124531991Y-121102553D01*
X124459676Y-121249321D01*
X125095000Y-121884645D01*
X125730324Y-121249321D01*
X125730324Y-121320031D01*
X125130355Y-121920000D01*
X125765679Y-122555324D01*
X125912447Y-122483009D01*
X126065677Y-122127329D01*
X126071131Y-121740084D01*
X126071131Y-125455000D01*
X125730324Y-125455000D01*
X125730324Y-122590679D01*
X125095000Y-121955355D01*
X125059645Y-121990710D01*
X125059645Y-121920000D01*
X124424321Y-121284676D01*
X124277553Y-121356991D01*
X124124323Y-121712671D01*
X124118869Y-122099916D01*
X124262023Y-122459769D01*
X124277553Y-122483009D01*
X124424321Y-122555324D01*
X125059645Y-121920000D01*
X125059645Y-121990710D01*
X124459676Y-122590679D01*
X124531991Y-122737447D01*
X124887671Y-122890677D01*
X125274916Y-122896131D01*
X125634769Y-122752977D01*
X125658009Y-122737447D01*
X125730324Y-122590679D01*
X125730324Y-125455000D01*
X123478660Y-125455000D01*
X123478660Y-121737110D01*
X123338361Y-121397563D01*
X123078804Y-121137552D01*
X122739501Y-120996661D01*
X122372110Y-120996340D01*
X122032563Y-121136639D01*
X121772552Y-121396196D01*
X121631661Y-121735499D01*
X121631340Y-122102890D01*
X121771639Y-122442437D01*
X122031196Y-122702448D01*
X122370499Y-122843339D01*
X122737890Y-122843660D01*
X123077437Y-122703361D01*
X123337448Y-122443804D01*
X123478339Y-122104501D01*
X123478660Y-121737110D01*
X123478660Y-125455000D01*
X120988500Y-125455000D01*
X120988500Y-122673201D01*
X120988500Y-122563799D01*
X120988500Y-122013750D01*
X120988500Y-121826250D01*
X120988500Y-121276201D01*
X120988500Y-121166799D01*
X120946634Y-121065725D01*
X120869275Y-120988366D01*
X120768201Y-120946500D01*
X120108750Y-120946500D01*
X120040000Y-121015250D01*
X120040000Y-121895000D01*
X120919750Y-121895000D01*
X120988500Y-121826250D01*
X120988500Y-122013750D01*
X120919750Y-121945000D01*
X120040000Y-121945000D01*
X120040000Y-122824750D01*
X120108750Y-122893500D01*
X120768201Y-122893500D01*
X120869275Y-122851634D01*
X120946634Y-122774275D01*
X120988500Y-122673201D01*
X120988500Y-125455000D01*
X119990000Y-125455000D01*
X119990000Y-122824750D01*
X119990000Y-121945000D01*
X119990000Y-121895000D01*
X119990000Y-121015250D01*
X119921250Y-120946500D01*
X119261799Y-120946500D01*
X119160725Y-120988366D01*
X119083366Y-121065725D01*
X119041500Y-121166799D01*
X119041500Y-121276201D01*
X119041500Y-121826250D01*
X119110250Y-121895000D01*
X119990000Y-121895000D01*
X119990000Y-121945000D01*
X119110250Y-121945000D01*
X119041500Y-122013750D01*
X119041500Y-122563799D01*
X119041500Y-122673201D01*
X119083366Y-122774275D01*
X119160725Y-122851634D01*
X119261799Y-122893500D01*
X119921250Y-122893500D01*
X119990000Y-122824750D01*
X119990000Y-125455000D01*
X95673164Y-125455000D01*
X95673164Y-119549776D01*
X95673164Y-119210224D01*
X95627774Y-119048051D01*
X95434767Y-118741638D01*
X95139193Y-118532410D01*
X94786050Y-118452220D01*
X94132000Y-118452220D01*
X94132000Y-119355000D01*
X95619716Y-119355000D01*
X95673164Y-119210224D01*
X95673164Y-119549776D01*
X95619716Y-119405000D01*
X94132000Y-119405000D01*
X94132000Y-120307780D01*
X94786050Y-120307780D01*
X95139193Y-120227590D01*
X95434767Y-120018362D01*
X95627774Y-119711949D01*
X95673164Y-119549776D01*
X95673164Y-125455000D01*
X95668840Y-125455000D01*
X95668840Y-124460000D01*
X95668840Y-121920000D01*
X95602023Y-121584088D01*
X95411744Y-121299316D01*
X95126972Y-121109037D01*
X94791060Y-121042220D01*
X94082000Y-121042220D01*
X94082000Y-120307780D01*
X94082000Y-119405000D01*
X94082000Y-119355000D01*
X94082000Y-118452220D01*
X93427950Y-118452220D01*
X93074807Y-118532410D01*
X92779233Y-118741638D01*
X92586226Y-119048051D01*
X92540836Y-119210224D01*
X92594284Y-119355000D01*
X94082000Y-119355000D01*
X94082000Y-119405000D01*
X92594284Y-119405000D01*
X92540836Y-119549776D01*
X92586226Y-119711949D01*
X92779233Y-120018362D01*
X93074807Y-120227590D01*
X93427950Y-120307780D01*
X94082000Y-120307780D01*
X94082000Y-121042220D01*
X93422940Y-121042220D01*
X93087028Y-121109037D01*
X92802256Y-121299316D01*
X92611977Y-121584088D01*
X92545160Y-121920000D01*
X92611977Y-122255912D01*
X92802256Y-122540684D01*
X93087028Y-122730963D01*
X93422940Y-122797780D01*
X94791060Y-122797780D01*
X95126972Y-122730963D01*
X95411744Y-122540684D01*
X95602023Y-122255912D01*
X95668840Y-121920000D01*
X95668840Y-124460000D01*
X95602023Y-124124088D01*
X95411744Y-123839316D01*
X95126972Y-123649037D01*
X94791060Y-123582220D01*
X93422940Y-123582220D01*
X93087028Y-123649037D01*
X92802256Y-123839316D01*
X92611977Y-124124088D01*
X92545160Y-124460000D01*
X92611977Y-124795912D01*
X92802256Y-125080684D01*
X93087028Y-125270963D01*
X93422940Y-125337780D01*
X94791060Y-125337780D01*
X95126972Y-125270963D01*
X95411744Y-125080684D01*
X95602023Y-124795912D01*
X95668840Y-124460000D01*
X95668840Y-125455000D01*
X89175000Y-125455000D01*
X89175000Y-75422000D01*
X92001762Y-75422000D01*
X92001762Y-73935000D01*
X133788622Y-73935000D01*
X133727625Y-73960266D01*
X133650266Y-74037625D01*
X133608400Y-74138699D01*
X133608400Y-74248101D01*
X133608400Y-74836250D01*
X133677150Y-74905000D01*
X134595000Y-74905000D01*
X134595000Y-74885000D01*
X134645000Y-74885000D01*
X134645000Y-74905000D01*
X135562850Y-74905000D01*
X135631600Y-74836250D01*
X135631600Y-74248101D01*
X135631600Y-74138699D01*
X135589734Y-74037625D01*
X135512375Y-73960266D01*
X135451377Y-73935000D01*
X173715000Y-73935000D01*
X173715000Y-125455000D01*
X173715000Y-125455000D01*
G37*
X173715000Y-125455000D02*
X173584408Y-125455000D01*
X173584408Y-120497600D01*
X173584408Y-119532400D01*
X173567762Y-119446608D01*
X173523760Y-119379622D01*
X173566669Y-119316055D01*
X173584408Y-119227600D01*
X173584408Y-118262400D01*
X173567762Y-118176608D01*
X173518231Y-118101205D01*
X173443455Y-118050731D01*
X173355000Y-118032992D01*
X173295000Y-118032992D01*
X173295000Y-117029000D01*
X173251231Y-116808957D01*
X173126586Y-116622414D01*
X172302586Y-115798414D01*
X172116043Y-115673769D01*
X171896000Y-115630000D01*
X171452800Y-115630000D01*
X171452800Y-107517766D01*
X171452800Y-107112234D01*
X171452800Y-98627766D01*
X171452800Y-98222234D01*
X171452800Y-88467766D01*
X171452800Y-88062234D01*
X171445313Y-88035559D01*
X171445313Y-85725000D01*
X171362448Y-85308411D01*
X171126469Y-84955244D01*
X170773302Y-84719265D01*
X170356713Y-84636400D01*
X170003287Y-84636400D01*
X169586698Y-84719265D01*
X169566014Y-84733084D01*
X169097627Y-84264697D01*
X169164000Y-84278008D01*
X171196000Y-84278008D01*
X171281792Y-84261362D01*
X171357195Y-84211831D01*
X171407669Y-84137055D01*
X171425408Y-84048600D01*
X171425408Y-82321400D01*
X171408762Y-82235608D01*
X171359231Y-82160205D01*
X171284455Y-82109731D01*
X171196000Y-82091992D01*
X171168923Y-82091992D01*
X171168923Y-79828058D01*
X171116362Y-79695807D01*
X171116362Y-77284595D01*
X171116362Y-74744595D01*
X170974134Y-74400378D01*
X170711007Y-74136791D01*
X170367039Y-73993963D01*
X169994595Y-73993638D01*
X169650378Y-74135866D01*
X169386791Y-74398993D01*
X169243963Y-74742961D01*
X169243638Y-75115405D01*
X169385866Y-75459622D01*
X169648993Y-75723209D01*
X169992961Y-75866037D01*
X170365405Y-75866362D01*
X170709622Y-75724134D01*
X170973209Y-75461007D01*
X171116037Y-75117039D01*
X171116362Y-74744595D01*
X171116362Y-77284595D01*
X170974134Y-76940378D01*
X170711007Y-76676791D01*
X170367039Y-76533963D01*
X169994595Y-76533638D01*
X169650378Y-76675866D01*
X169386791Y-76938993D01*
X169243963Y-77282961D01*
X169243638Y-77655405D01*
X169385866Y-77999622D01*
X169648993Y-78263209D01*
X169992961Y-78406037D01*
X170365405Y-78406362D01*
X170709622Y-78264134D01*
X170973209Y-78001007D01*
X171116037Y-77657039D01*
X171116362Y-77284595D01*
X171116362Y-79695807D01*
X171024020Y-79463463D01*
X171007927Y-79439378D01*
X170859839Y-79365517D01*
X170824483Y-79400872D01*
X170824483Y-79330161D01*
X170750622Y-79182073D01*
X170390352Y-79026728D01*
X169998058Y-79021077D01*
X169633463Y-79165980D01*
X169609378Y-79182073D01*
X169535517Y-79330161D01*
X170180000Y-79974645D01*
X170824483Y-79330161D01*
X170824483Y-79400872D01*
X170215355Y-80010000D01*
X170859839Y-80654483D01*
X171007927Y-80580622D01*
X171163272Y-80220352D01*
X171168923Y-79828058D01*
X171168923Y-82091992D01*
X170824483Y-82091992D01*
X170824483Y-80689839D01*
X170180000Y-80045355D01*
X170144645Y-80080710D01*
X170144645Y-80010000D01*
X169500161Y-79365517D01*
X169352073Y-79439378D01*
X169196728Y-79799648D01*
X169191077Y-80191942D01*
X169335980Y-80556537D01*
X169352073Y-80580622D01*
X169500161Y-80654483D01*
X170144645Y-80010000D01*
X170144645Y-80080710D01*
X169535517Y-80689839D01*
X169609378Y-80837927D01*
X169969648Y-80993272D01*
X170361942Y-80998923D01*
X170726537Y-80854020D01*
X170750622Y-80837927D01*
X170824483Y-80689839D01*
X170824483Y-82091992D01*
X169164000Y-82091992D01*
X169078208Y-82108638D01*
X169002805Y-82158169D01*
X168952331Y-82232945D01*
X168934592Y-82321400D01*
X168934592Y-82810000D01*
X168628923Y-82810000D01*
X168628923Y-79828058D01*
X168580608Y-79706491D01*
X168580608Y-75641200D01*
X168580608Y-74218800D01*
X168563962Y-74133008D01*
X168514431Y-74057605D01*
X168439655Y-74007131D01*
X168351200Y-73989392D01*
X166928800Y-73989392D01*
X166843008Y-74006038D01*
X166767605Y-74055569D01*
X166717131Y-74130345D01*
X166699392Y-74218800D01*
X166699392Y-75641200D01*
X166716038Y-75726992D01*
X166765569Y-75802395D01*
X166840345Y-75852869D01*
X166928800Y-75870608D01*
X168351200Y-75870608D01*
X168436992Y-75853962D01*
X168512395Y-75804431D01*
X168562869Y-75729655D01*
X168580608Y-75641200D01*
X168580608Y-79706491D01*
X168576362Y-79695807D01*
X168576362Y-77284595D01*
X168434134Y-76940378D01*
X168171007Y-76676791D01*
X167827039Y-76533963D01*
X167454595Y-76533638D01*
X167110378Y-76675866D01*
X166846791Y-76938993D01*
X166703963Y-77282961D01*
X166703638Y-77655405D01*
X166845866Y-77999622D01*
X167108993Y-78263209D01*
X167452961Y-78406037D01*
X167825405Y-78406362D01*
X168169622Y-78264134D01*
X168433209Y-78001007D01*
X168576037Y-77657039D01*
X168576362Y-77284595D01*
X168576362Y-79695807D01*
X168484020Y-79463463D01*
X168467927Y-79439378D01*
X168319839Y-79365517D01*
X168284483Y-79400872D01*
X168284483Y-79330161D01*
X168210622Y-79182073D01*
X167850352Y-79026728D01*
X167458058Y-79021077D01*
X167093463Y-79165980D01*
X167069378Y-79182073D01*
X166995517Y-79330161D01*
X167640000Y-79974645D01*
X168284483Y-79330161D01*
X168284483Y-79400872D01*
X167675355Y-80010000D01*
X168319839Y-80654483D01*
X168467927Y-80580622D01*
X168623272Y-80220352D01*
X168628923Y-79828058D01*
X168628923Y-82810000D01*
X168284483Y-82810000D01*
X168284483Y-80689839D01*
X167640000Y-80045355D01*
X167604645Y-80080710D01*
X167604645Y-80010000D01*
X166960161Y-79365517D01*
X166812073Y-79439378D01*
X166656728Y-79799648D01*
X166651077Y-80191942D01*
X166795980Y-80556537D01*
X166812073Y-80580622D01*
X166960161Y-80654483D01*
X167604645Y-80010000D01*
X167604645Y-80080710D01*
X166995517Y-80689839D01*
X167069378Y-80837927D01*
X167429648Y-80993272D01*
X167821942Y-80998923D01*
X168186537Y-80854020D01*
X168210622Y-80837927D01*
X168284483Y-80689839D01*
X168284483Y-82810000D01*
X157661460Y-82810000D01*
X157517954Y-82838545D01*
X157396295Y-82919835D01*
X157104529Y-83211601D01*
X150558339Y-83211601D01*
X150674730Y-83095414D01*
X150821433Y-82742113D01*
X150821767Y-82359565D01*
X150675680Y-82006009D01*
X150405414Y-81735270D01*
X150052113Y-81588567D01*
X149669565Y-81588233D01*
X149316009Y-81734320D01*
X149045270Y-82004586D01*
X148898567Y-82357887D01*
X148898233Y-82740435D01*
X149044320Y-83093991D01*
X149161724Y-83211601D01*
X148018339Y-83211601D01*
X148134730Y-83095414D01*
X148281433Y-82742113D01*
X148281767Y-82359565D01*
X148135680Y-82006009D01*
X147865414Y-81735270D01*
X147512113Y-81588567D01*
X147129565Y-81588233D01*
X146776009Y-81734320D01*
X146505270Y-82004586D01*
X146358567Y-82357887D01*
X146358233Y-82740435D01*
X146504320Y-83093991D01*
X146621724Y-83211601D01*
X144378399Y-83211601D01*
X144234893Y-83240146D01*
X144113234Y-83321436D01*
X136900000Y-90534670D01*
X136900000Y-86995000D01*
X136871455Y-86851494D01*
X136790165Y-86729835D01*
X135511312Y-85450982D01*
X135581433Y-85282113D01*
X135581767Y-84899565D01*
X135435680Y-84546009D01*
X135185109Y-84295000D01*
X142875000Y-84295000D01*
X143056775Y-84258843D01*
X143210876Y-84155876D01*
X146881751Y-80485000D01*
X149015813Y-80485000D01*
X149044320Y-80553991D01*
X149314586Y-80824730D01*
X149667887Y-80971433D01*
X150050435Y-80971767D01*
X150120900Y-80942651D01*
X150159121Y-80980872D01*
X150159124Y-80980876D01*
X150159125Y-80980876D01*
X150313225Y-81083843D01*
X150313226Y-81083843D01*
X150343384Y-81089841D01*
X150495000Y-81120001D01*
X150495000Y-81120000D01*
X150495005Y-81120000D01*
X159794919Y-81120000D01*
X159915113Y-81169908D01*
X160123971Y-81170091D01*
X160317000Y-81090333D01*
X160464814Y-80942777D01*
X160544908Y-80749887D01*
X160545091Y-80541029D01*
X160465333Y-80348000D01*
X160317777Y-80200186D01*
X160124887Y-80120092D01*
X159916029Y-80119909D01*
X159794799Y-80170000D01*
X156765316Y-80170000D01*
X156765316Y-77108578D01*
X156488062Y-76437571D01*
X155975129Y-75923742D01*
X155304608Y-75645317D01*
X154578578Y-75644684D01*
X153907571Y-75921938D01*
X153393742Y-76434871D01*
X153115317Y-77105392D01*
X153114684Y-77831422D01*
X153391938Y-78502429D01*
X153904871Y-79016258D01*
X154575392Y-79294683D01*
X155301422Y-79295316D01*
X155972429Y-79018062D01*
X156486258Y-78505129D01*
X156764683Y-77834608D01*
X156765316Y-77108578D01*
X156765316Y-80170000D01*
X150821461Y-80170000D01*
X150821767Y-79819565D01*
X150821767Y-77279565D01*
X150821767Y-74739565D01*
X150675680Y-74386009D01*
X150405414Y-74115270D01*
X150052113Y-73968567D01*
X149669565Y-73968233D01*
X149316009Y-74114320D01*
X149045270Y-74384586D01*
X148898567Y-74737887D01*
X148898233Y-75120435D01*
X149044320Y-75473991D01*
X149314586Y-75744730D01*
X149667887Y-75891433D01*
X150050435Y-75891767D01*
X150403991Y-75745680D01*
X150674730Y-75475414D01*
X150821433Y-75122113D01*
X150821767Y-74739565D01*
X150821767Y-77279565D01*
X150675680Y-76926009D01*
X150405414Y-76655270D01*
X150052113Y-76508567D01*
X149669565Y-76508233D01*
X149316009Y-76654320D01*
X149045270Y-76924586D01*
X148898567Y-77277887D01*
X148898233Y-77660435D01*
X149044320Y-78013991D01*
X149314586Y-78284730D01*
X149667887Y-78431433D01*
X150050435Y-78431767D01*
X150403991Y-78285680D01*
X150674730Y-78015414D01*
X150821433Y-77662113D01*
X150821767Y-77279565D01*
X150821767Y-79819565D01*
X150675680Y-79466009D01*
X150405414Y-79195270D01*
X150052113Y-79048567D01*
X149669565Y-79048233D01*
X149316009Y-79194320D01*
X149045270Y-79464586D01*
X149016031Y-79535000D01*
X148281767Y-79535000D01*
X148281767Y-77279565D01*
X148135680Y-76926009D01*
X147865414Y-76655270D01*
X147512113Y-76508567D01*
X147129565Y-76508233D01*
X146776009Y-76654320D01*
X146505270Y-76924586D01*
X146358567Y-77277887D01*
X146358233Y-77660435D01*
X146504320Y-78013991D01*
X146774586Y-78284730D01*
X147127887Y-78431433D01*
X147510435Y-78431767D01*
X147863991Y-78285680D01*
X148134730Y-78015414D01*
X148281433Y-77662113D01*
X148281767Y-77279565D01*
X148281767Y-79535000D01*
X146685005Y-79535000D01*
X146685000Y-79534999D01*
X146533384Y-79565158D01*
X146503225Y-79571157D01*
X146349124Y-79674124D01*
X146349121Y-79674127D01*
X142678248Y-83345000D01*
X135631600Y-83345000D01*
X135631600Y-75721301D01*
X135631600Y-75611899D01*
X135631600Y-75023750D01*
X135562850Y-74955000D01*
X134645000Y-74955000D01*
X134645000Y-75872850D01*
X134713750Y-75941600D01*
X135411301Y-75941600D01*
X135512375Y-75899734D01*
X135589734Y-75822375D01*
X135631600Y-75721301D01*
X135631600Y-83345000D01*
X135184707Y-83345000D01*
X135434730Y-83095414D01*
X135581433Y-82742113D01*
X135581767Y-82359565D01*
X135581767Y-79819565D01*
X135581767Y-77279565D01*
X135435680Y-76926009D01*
X135165414Y-76655270D01*
X134812113Y-76508567D01*
X134595000Y-76508377D01*
X134595000Y-75872850D01*
X134595000Y-74955000D01*
X133677150Y-74955000D01*
X133608400Y-75023750D01*
X133608400Y-75611899D01*
X133608400Y-75721301D01*
X133650266Y-75822375D01*
X133727625Y-75899734D01*
X133828699Y-75941600D01*
X134526250Y-75941600D01*
X134595000Y-75872850D01*
X134595000Y-76508377D01*
X134429565Y-76508233D01*
X134076009Y-76654320D01*
X133805270Y-76924586D01*
X133658567Y-77277887D01*
X133658233Y-77660435D01*
X133804320Y-78013991D01*
X134074586Y-78284730D01*
X134427887Y-78431433D01*
X134810435Y-78431767D01*
X135163991Y-78285680D01*
X135434730Y-78015414D01*
X135581433Y-77662113D01*
X135581767Y-77279565D01*
X135581767Y-79819565D01*
X135435680Y-79466009D01*
X135165414Y-79195270D01*
X134812113Y-79048567D01*
X134429565Y-79048233D01*
X134076009Y-79194320D01*
X133805270Y-79464586D01*
X133658567Y-79817887D01*
X133658233Y-80200435D01*
X133804320Y-80553991D01*
X134074586Y-80824730D01*
X134427887Y-80971433D01*
X134810435Y-80971767D01*
X135163991Y-80825680D01*
X135434730Y-80555414D01*
X135581433Y-80202113D01*
X135581767Y-79819565D01*
X135581767Y-82359565D01*
X135435680Y-82006009D01*
X135165414Y-81735270D01*
X134812113Y-81588567D01*
X134429565Y-81588233D01*
X134076009Y-81734320D01*
X133805270Y-82004586D01*
X133658567Y-82357887D01*
X133658233Y-82740435D01*
X133804320Y-83093991D01*
X134054890Y-83345000D01*
X133596000Y-83345000D01*
X133414225Y-83381157D01*
X133260124Y-83484124D01*
X132129248Y-84615000D01*
X132055408Y-84615000D01*
X132055408Y-84074000D01*
X132038762Y-83988208D01*
X131989231Y-83912805D01*
X131914455Y-83862331D01*
X131826000Y-83844592D01*
X131365316Y-83844592D01*
X131365316Y-79394578D01*
X131088062Y-78723571D01*
X130575129Y-78209742D01*
X129904608Y-77931317D01*
X129178578Y-77930684D01*
X128507571Y-78207938D01*
X127993742Y-78720871D01*
X127715317Y-79391392D01*
X127714684Y-80117422D01*
X127991938Y-80788429D01*
X128504871Y-81302258D01*
X129175392Y-81580683D01*
X129901422Y-81581316D01*
X130572429Y-81304062D01*
X131086258Y-80791129D01*
X131364683Y-80120608D01*
X131365316Y-79394578D01*
X131365316Y-83844592D01*
X129794000Y-83844592D01*
X129708208Y-83861238D01*
X129632805Y-83910769D01*
X129582331Y-83985545D01*
X129564592Y-84074000D01*
X129564592Y-86106000D01*
X129581238Y-86191792D01*
X129617005Y-86246242D01*
X129511000Y-86352247D01*
X129511000Y-85114313D01*
X129511000Y-85065687D01*
X129416534Y-84590777D01*
X129147520Y-84188167D01*
X128744910Y-83919153D01*
X128270000Y-83824687D01*
X127795090Y-83919153D01*
X127392480Y-84188167D01*
X127123466Y-84590777D01*
X127029000Y-85065687D01*
X127029000Y-85114313D01*
X127123466Y-85589223D01*
X127392480Y-85991833D01*
X127795090Y-86260847D01*
X128270000Y-86355313D01*
X128744910Y-86260847D01*
X129147520Y-85991833D01*
X129416534Y-85589223D01*
X129511000Y-85114313D01*
X129511000Y-86352247D01*
X123080091Y-92783156D01*
X123080091Y-80541029D01*
X123000333Y-80348000D01*
X122852777Y-80200186D01*
X122659887Y-80120092D01*
X122560334Y-80120004D01*
X117105165Y-74664835D01*
X116983507Y-74583545D01*
X116840000Y-74555000D01*
X103237469Y-74555000D01*
X103167777Y-74485186D01*
X102974887Y-74405092D01*
X102766029Y-74404909D01*
X102573000Y-74484667D01*
X102425186Y-74632223D01*
X102345092Y-74825113D01*
X102344909Y-75033971D01*
X102424667Y-75227000D01*
X102572223Y-75374814D01*
X102765113Y-75454908D01*
X102973971Y-75455091D01*
X103167000Y-75375333D01*
X103237455Y-75305000D01*
X116684670Y-75305000D01*
X120307781Y-78928111D01*
X120119887Y-78850092D01*
X120020334Y-78850004D01*
X118375165Y-77204835D01*
X118253507Y-77123545D01*
X118110000Y-77095000D01*
X102602469Y-77095000D01*
X102532777Y-77025186D01*
X102339887Y-76945092D01*
X102131029Y-76944909D01*
X101938000Y-77024667D01*
X101790186Y-77172223D01*
X101710092Y-77365113D01*
X101709909Y-77573971D01*
X101789667Y-77767000D01*
X101937223Y-77914814D01*
X102130113Y-77994908D01*
X102338971Y-77995091D01*
X102532000Y-77915333D01*
X102602455Y-77845000D01*
X117954669Y-77845000D01*
X119489995Y-79380325D01*
X119489909Y-79478971D01*
X119569667Y-79672000D01*
X119717223Y-79819814D01*
X119910113Y-79899908D01*
X120118971Y-79900091D01*
X120312000Y-79820333D01*
X120459814Y-79672777D01*
X120539908Y-79479887D01*
X120540091Y-79271029D01*
X120462208Y-79082538D01*
X122029995Y-80650325D01*
X122029909Y-80748971D01*
X122109667Y-80942000D01*
X122257223Y-81089814D01*
X122450113Y-81169908D01*
X122658971Y-81170091D01*
X122852000Y-81090333D01*
X122999814Y-80942777D01*
X123079908Y-80749887D01*
X123080091Y-80541029D01*
X123080091Y-92783156D01*
X122993248Y-92870000D01*
X113890080Y-92870000D01*
X113769887Y-92820092D01*
X113561029Y-92819909D01*
X113368000Y-92899667D01*
X113220186Y-93047223D01*
X113140092Y-93240113D01*
X113139909Y-93448971D01*
X113219667Y-93642000D01*
X113367223Y-93789814D01*
X113560113Y-93869908D01*
X113768971Y-93870091D01*
X113890200Y-93820000D01*
X123190000Y-93820000D01*
X123371775Y-93783843D01*
X123525876Y-93680876D01*
X130871343Y-86335408D01*
X131826000Y-86335408D01*
X131911792Y-86318762D01*
X131987195Y-86269231D01*
X132037669Y-86194455D01*
X132055408Y-86106000D01*
X132055408Y-85565000D01*
X132326000Y-85565000D01*
X132507775Y-85528843D01*
X132661876Y-85425876D01*
X133792752Y-84295000D01*
X134055292Y-84295000D01*
X133805270Y-84544586D01*
X133658567Y-84897887D01*
X133658233Y-85280435D01*
X133804320Y-85633991D01*
X134074586Y-85904730D01*
X134427887Y-86051433D01*
X134810435Y-86051767D01*
X134980972Y-85981302D01*
X136150000Y-87150330D01*
X136150000Y-105042530D01*
X136080186Y-105112223D01*
X136031601Y-105229230D01*
X136031601Y-90667569D01*
X136031601Y-88666601D01*
X136003056Y-88523095D01*
X136003056Y-88523094D01*
X135921766Y-88401436D01*
X135511312Y-87990982D01*
X135581433Y-87822113D01*
X135581767Y-87439565D01*
X135435680Y-87086009D01*
X135165414Y-86815270D01*
X134812113Y-86668567D01*
X134429565Y-86668233D01*
X134076009Y-86814320D01*
X133805270Y-87084586D01*
X133658567Y-87437887D01*
X133658233Y-87820435D01*
X133804320Y-88173991D01*
X134074586Y-88444730D01*
X134427887Y-88591433D01*
X134810435Y-88591767D01*
X134980972Y-88521302D01*
X135281601Y-88821931D01*
X135281601Y-89471660D01*
X135165414Y-89355270D01*
X134812113Y-89208567D01*
X134429565Y-89208233D01*
X134076009Y-89354320D01*
X133805270Y-89624586D01*
X133734508Y-89795000D01*
X127635000Y-89795000D01*
X127491493Y-89823545D01*
X127369835Y-89904835D01*
X116199674Y-101074995D01*
X116101029Y-101074909D01*
X115908000Y-101154667D01*
X115760186Y-101302223D01*
X115680092Y-101495113D01*
X115679909Y-101703971D01*
X115759667Y-101897000D01*
X115907223Y-102044814D01*
X116100113Y-102124908D01*
X116308971Y-102125091D01*
X116497461Y-102047208D01*
X115939835Y-102604835D01*
X115858545Y-102726493D01*
X115830000Y-102870000D01*
X115830000Y-105042530D01*
X115760186Y-105112223D01*
X115680092Y-105305113D01*
X115679909Y-105513971D01*
X115759667Y-105707000D01*
X115907223Y-105854814D01*
X116056057Y-105916614D01*
X115939835Y-106032837D01*
X115858545Y-106154495D01*
X115830000Y-106298002D01*
X115830000Y-110757530D01*
X115760186Y-110827223D01*
X115680092Y-111020113D01*
X115679909Y-111228971D01*
X115759667Y-111422000D01*
X115907223Y-111569814D01*
X116100113Y-111649908D01*
X116308971Y-111650091D01*
X116502000Y-111570333D01*
X116649814Y-111422777D01*
X116729908Y-111229887D01*
X116730091Y-111021029D01*
X116650333Y-110828000D01*
X116580000Y-110757544D01*
X116580000Y-106453332D01*
X117070166Y-105963166D01*
X117151456Y-105841507D01*
X117180001Y-105698001D01*
X117180001Y-103695329D01*
X127790330Y-93085000D01*
X133734494Y-93085000D01*
X133804320Y-93253991D01*
X134074586Y-93524730D01*
X134427887Y-93671433D01*
X134810435Y-93671767D01*
X135163991Y-93525680D01*
X135434730Y-93255414D01*
X135581433Y-92902113D01*
X135581767Y-92519565D01*
X135435680Y-92166009D01*
X135165414Y-91895270D01*
X134943622Y-91803174D01*
X135027676Y-91786455D01*
X135027677Y-91786455D01*
X135149335Y-91705165D01*
X135921766Y-90932734D01*
X136003055Y-90811076D01*
X136003056Y-90811075D01*
X136031601Y-90667569D01*
X136031601Y-105229230D01*
X136000092Y-105305113D01*
X135999909Y-105513971D01*
X136079667Y-105707000D01*
X136227223Y-105854814D01*
X136420113Y-105934908D01*
X136628971Y-105935091D01*
X136785000Y-105870621D01*
X136785000Y-105889670D01*
X136586280Y-106088389D01*
X135301522Y-106088389D01*
X135434730Y-105955414D01*
X135581433Y-105602113D01*
X135581767Y-105219565D01*
X135435680Y-104866009D01*
X135165414Y-104595270D01*
X134812113Y-104448567D01*
X134429565Y-104448233D01*
X134076009Y-104594320D01*
X133958399Y-104711724D01*
X133958399Y-104061931D01*
X134259017Y-103761312D01*
X134427887Y-103831433D01*
X134810435Y-103831767D01*
X135163991Y-103685680D01*
X135434730Y-103415414D01*
X135581433Y-103062113D01*
X135581767Y-102679565D01*
X135435680Y-102326009D01*
X135165414Y-102055270D01*
X134812113Y-101908567D01*
X134429565Y-101908233D01*
X134076009Y-102054320D01*
X133805270Y-102324586D01*
X133658567Y-102677887D01*
X133658233Y-103060435D01*
X133728697Y-103230972D01*
X133323399Y-103636271D01*
X133323399Y-102156931D01*
X134259017Y-101221312D01*
X134427887Y-101291433D01*
X134810435Y-101291767D01*
X135163991Y-101145680D01*
X135434730Y-100875414D01*
X135581433Y-100522113D01*
X135581767Y-100139565D01*
X135581767Y-97599565D01*
X135581767Y-95059565D01*
X135435680Y-94706009D01*
X135165414Y-94435270D01*
X134812113Y-94288567D01*
X134429565Y-94288233D01*
X134076009Y-94434320D01*
X133805270Y-94704586D01*
X133658567Y-95057887D01*
X133658233Y-95440435D01*
X133804320Y-95793991D01*
X134074586Y-96064730D01*
X134427887Y-96211433D01*
X134810435Y-96211767D01*
X135163991Y-96065680D01*
X135434730Y-95795414D01*
X135581433Y-95442113D01*
X135581767Y-95059565D01*
X135581767Y-97599565D01*
X135435680Y-97246009D01*
X135165414Y-96975270D01*
X134812113Y-96828567D01*
X134429565Y-96828233D01*
X134076009Y-96974320D01*
X133805270Y-97244586D01*
X133734508Y-97415000D01*
X132080000Y-97415000D01*
X131936493Y-97443545D01*
X131878239Y-97482469D01*
X131885269Y-97472055D01*
X131903008Y-97383600D01*
X131903008Y-95656400D01*
X131886362Y-95570608D01*
X131836831Y-95495205D01*
X131762055Y-95444731D01*
X131673600Y-95426992D01*
X129946400Y-95426992D01*
X129860608Y-95443638D01*
X129785205Y-95493169D01*
X129734731Y-95567945D01*
X129716992Y-95656400D01*
X129716992Y-97383600D01*
X129733638Y-97469392D01*
X129783169Y-97544795D01*
X129857945Y-97595269D01*
X129946400Y-97613008D01*
X131673600Y-97613008D01*
X131739435Y-97600234D01*
X131274631Y-98065038D01*
X131226589Y-98032938D01*
X130810000Y-97950073D01*
X130393411Y-98032938D01*
X130040244Y-98268917D01*
X129804265Y-98622084D01*
X129721400Y-99038673D01*
X129721400Y-99081327D01*
X129804265Y-99497916D01*
X130040244Y-99851083D01*
X130393411Y-100087062D01*
X130810000Y-100169927D01*
X131226589Y-100087062D01*
X131579756Y-99851083D01*
X131815735Y-99497916D01*
X131898600Y-99081327D01*
X131898600Y-99038673D01*
X131815735Y-98622084D01*
X131800718Y-98599611D01*
X132235330Y-98165000D01*
X133734494Y-98165000D01*
X133804320Y-98333991D01*
X134074586Y-98604730D01*
X134427887Y-98751433D01*
X134810435Y-98751767D01*
X135163991Y-98605680D01*
X135434730Y-98335414D01*
X135581433Y-97982113D01*
X135581767Y-97599565D01*
X135581767Y-100139565D01*
X135435680Y-99786009D01*
X135165414Y-99515270D01*
X134812113Y-99368567D01*
X134429565Y-99368233D01*
X134076009Y-99514320D01*
X133805270Y-99784586D01*
X133658567Y-100137887D01*
X133658233Y-100520435D01*
X133728697Y-100690972D01*
X132683234Y-101736436D01*
X132601944Y-101858094D01*
X132573399Y-102001601D01*
X132573399Y-106913399D01*
X132601944Y-107056905D01*
X132683234Y-107178564D01*
X132804893Y-107259854D01*
X132948399Y-107288399D01*
X133921660Y-107288399D01*
X133805270Y-107404586D01*
X133658567Y-107757887D01*
X133658233Y-108140435D01*
X133804320Y-108493991D01*
X134074586Y-108764730D01*
X134427887Y-108911433D01*
X134810435Y-108911767D01*
X135163991Y-108765680D01*
X135434730Y-108495414D01*
X135581433Y-108142113D01*
X135581767Y-107759565D01*
X135435680Y-107406009D01*
X135318275Y-107288399D01*
X136461660Y-107288399D01*
X136345270Y-107404586D01*
X136198567Y-107757887D01*
X136198233Y-108140435D01*
X136344320Y-108493991D01*
X136614586Y-108764730D01*
X136967887Y-108911433D01*
X137350435Y-108911767D01*
X137703991Y-108765680D01*
X137974730Y-108495414D01*
X138121433Y-108142113D01*
X138121767Y-107759565D01*
X137975680Y-107406009D01*
X137705414Y-107135270D01*
X137374059Y-106997680D01*
X137875175Y-106496565D01*
X137956465Y-106374907D01*
X137956465Y-106374906D01*
X137985010Y-106231400D01*
X137985010Y-105707343D01*
X138132223Y-105854814D01*
X138325113Y-105934908D01*
X138533971Y-105935091D01*
X138727000Y-105855333D01*
X138874814Y-105707777D01*
X138954908Y-105514887D01*
X138955091Y-105306029D01*
X138875333Y-105113000D01*
X138805000Y-105042544D01*
X138805000Y-101755330D01*
X149499017Y-91061312D01*
X149667887Y-91131433D01*
X150050435Y-91131767D01*
X150403991Y-90985680D01*
X150674730Y-90715414D01*
X150821433Y-90362113D01*
X150821767Y-89979565D01*
X150675680Y-89626009D01*
X150405414Y-89355270D01*
X150052113Y-89208567D01*
X149669565Y-89208233D01*
X149316009Y-89354320D01*
X149045270Y-89624586D01*
X148898567Y-89977887D01*
X148898233Y-90360435D01*
X148968697Y-90530972D01*
X147766888Y-91732781D01*
X147844908Y-91544887D01*
X147845091Y-91336029D01*
X147765333Y-91143000D01*
X147617777Y-90995186D01*
X147424887Y-90915092D01*
X147216029Y-90914909D01*
X147023000Y-90994667D01*
X146952544Y-91065000D01*
X143877469Y-91065000D01*
X143807777Y-90995186D01*
X143614887Y-90915092D01*
X143406029Y-90914909D01*
X143213000Y-90994667D01*
X143065186Y-91142223D01*
X142985092Y-91335113D01*
X142984909Y-91543971D01*
X143064667Y-91737000D01*
X143212223Y-91884814D01*
X143405113Y-91964908D01*
X143613971Y-91965091D01*
X143807000Y-91885333D01*
X143877455Y-91815000D01*
X146952530Y-91815000D01*
X147022223Y-91884814D01*
X147215113Y-91964908D01*
X147423971Y-91965091D01*
X147612461Y-91887208D01*
X138164835Y-101334835D01*
X138083545Y-101456493D01*
X138055000Y-101600000D01*
X138055000Y-105042530D01*
X137985186Y-105112223D01*
X137985010Y-105112646D01*
X137985010Y-91146730D01*
X144703341Y-84428399D01*
X146621660Y-84428399D01*
X146505270Y-84544586D01*
X146358567Y-84897887D01*
X146358233Y-85280435D01*
X146504320Y-85633991D01*
X146774586Y-85904730D01*
X147127887Y-86051433D01*
X147510435Y-86051767D01*
X147863991Y-85905680D01*
X148134730Y-85635414D01*
X148281433Y-85282113D01*
X148281767Y-84899565D01*
X148135680Y-84546009D01*
X148018275Y-84428399D01*
X149161660Y-84428399D01*
X149045270Y-84544586D01*
X148898567Y-84897887D01*
X148898233Y-85280435D01*
X149044320Y-85633991D01*
X149314586Y-85904730D01*
X149667887Y-86051433D01*
X149902202Y-86051637D01*
X149735440Y-86218399D01*
X146822431Y-86218399D01*
X146678924Y-86246944D01*
X146557266Y-86328234D01*
X143879835Y-89005665D01*
X143798545Y-89127323D01*
X143770000Y-89270830D01*
X143770000Y-89802530D01*
X143700186Y-89872223D01*
X143620092Y-90065113D01*
X143619909Y-90273971D01*
X143699667Y-90467000D01*
X143847223Y-90614814D01*
X144040113Y-90694908D01*
X144248971Y-90695091D01*
X144442000Y-90615333D01*
X144589814Y-90467777D01*
X144669908Y-90274887D01*
X144670091Y-90066029D01*
X144590333Y-89873000D01*
X144520000Y-89802544D01*
X144520000Y-89426160D01*
X146358436Y-87587723D01*
X146358233Y-87820435D01*
X146504320Y-88173991D01*
X146774586Y-88444730D01*
X147127887Y-88591433D01*
X147510435Y-88591767D01*
X147863991Y-88445680D01*
X148134730Y-88175414D01*
X148281433Y-87822113D01*
X148281767Y-87439565D01*
X148135680Y-87086009D01*
X148018275Y-86968399D01*
X149161660Y-86968399D01*
X149045270Y-87084586D01*
X148898567Y-87437887D01*
X148898233Y-87820435D01*
X149044320Y-88173991D01*
X149314586Y-88444730D01*
X149667887Y-88591433D01*
X150050435Y-88591767D01*
X150403991Y-88445680D01*
X150674730Y-88175414D01*
X150821433Y-87822113D01*
X150821767Y-87439565D01*
X150751302Y-87269027D01*
X151391729Y-86628601D01*
X157660003Y-86628601D01*
X157345244Y-86838917D01*
X157109265Y-87192084D01*
X157026400Y-87608673D01*
X157026400Y-87651327D01*
X157109265Y-88067916D01*
X157345244Y-88421083D01*
X157698411Y-88657062D01*
X158115000Y-88739927D01*
X158531589Y-88657062D01*
X158884756Y-88421083D01*
X159120735Y-88067916D01*
X159203600Y-87651327D01*
X159203600Y-87608673D01*
X159120735Y-87192084D01*
X158884756Y-86838917D01*
X158569996Y-86628601D01*
X159491399Y-86628601D01*
X159634905Y-86600056D01*
X159634906Y-86600056D01*
X159756564Y-86518766D01*
X160190368Y-86084961D01*
X160238411Y-86117062D01*
X160655000Y-86199927D01*
X161071589Y-86117062D01*
X161424756Y-85881083D01*
X161660735Y-85527916D01*
X161743600Y-85111327D01*
X161743600Y-85068673D01*
X161660735Y-84652084D01*
X161426414Y-84301399D01*
X168073669Y-84301399D01*
X169030848Y-85258578D01*
X168997552Y-85308411D01*
X168914687Y-85725000D01*
X168997552Y-86141589D01*
X169233531Y-86494756D01*
X169586698Y-86730735D01*
X170003287Y-86813600D01*
X170356713Y-86813600D01*
X170773302Y-86730735D01*
X171126469Y-86494756D01*
X171362448Y-86141589D01*
X171445313Y-85725000D01*
X171445313Y-88035559D01*
X171393896Y-87852374D01*
X171155189Y-87477566D01*
X170791220Y-87222638D01*
X170357400Y-87126400D01*
X170205000Y-87126400D01*
X170205000Y-88240000D01*
X171401958Y-88240000D01*
X171452800Y-88062234D01*
X171452800Y-88467766D01*
X171401958Y-88290000D01*
X170205000Y-88290000D01*
X170205000Y-89403600D01*
X170357400Y-89403600D01*
X170791220Y-89307362D01*
X171155189Y-89052434D01*
X171393896Y-88677626D01*
X171452800Y-88467766D01*
X171452800Y-98222234D01*
X171445313Y-98195559D01*
X171445313Y-95885000D01*
X171425408Y-95784931D01*
X171425408Y-94208600D01*
X171425408Y-92481400D01*
X171408762Y-92395608D01*
X171359231Y-92320205D01*
X171284455Y-92269731D01*
X171196000Y-92251992D01*
X170155000Y-92251992D01*
X170155000Y-89403600D01*
X170155000Y-88290000D01*
X170155000Y-88240000D01*
X170155000Y-87126400D01*
X170002600Y-87126400D01*
X169568780Y-87222638D01*
X169204811Y-87477566D01*
X168966104Y-87852374D01*
X168907200Y-88062234D01*
X168958042Y-88240000D01*
X170155000Y-88240000D01*
X170155000Y-88290000D01*
X168958042Y-88290000D01*
X168907200Y-88467766D01*
X168966104Y-88677626D01*
X169204811Y-89052434D01*
X169568780Y-89307362D01*
X170002600Y-89403600D01*
X170155000Y-89403600D01*
X170155000Y-92251992D01*
X169164000Y-92251992D01*
X169078208Y-92268638D01*
X169002805Y-92318169D01*
X168952331Y-92392945D01*
X168934592Y-92481400D01*
X168934592Y-94208600D01*
X168951238Y-94294392D01*
X169000769Y-94369795D01*
X169075545Y-94420269D01*
X169164000Y-94438008D01*
X171196000Y-94438008D01*
X171281792Y-94421362D01*
X171357195Y-94371831D01*
X171407669Y-94297055D01*
X171425408Y-94208600D01*
X171425408Y-95784931D01*
X171362448Y-95468411D01*
X171126469Y-95115244D01*
X170773302Y-94879265D01*
X170356713Y-94796400D01*
X170003287Y-94796400D01*
X169586698Y-94879265D01*
X169233531Y-95115244D01*
X168997552Y-95468411D01*
X168914687Y-95885000D01*
X168997552Y-96301589D01*
X169233531Y-96654756D01*
X169586698Y-96890735D01*
X170003287Y-96973600D01*
X170356713Y-96973600D01*
X170773302Y-96890735D01*
X171126469Y-96654756D01*
X171362448Y-96301589D01*
X171445313Y-95885000D01*
X171445313Y-98195559D01*
X171393896Y-98012374D01*
X171155189Y-97637566D01*
X170791220Y-97382638D01*
X170357400Y-97286400D01*
X170205000Y-97286400D01*
X170205000Y-98400000D01*
X171401958Y-98400000D01*
X171452800Y-98222234D01*
X171452800Y-98627766D01*
X171401958Y-98450000D01*
X170205000Y-98450000D01*
X170205000Y-99563600D01*
X170357400Y-99563600D01*
X170791220Y-99467362D01*
X171155189Y-99212434D01*
X171393896Y-98837626D01*
X171452800Y-98627766D01*
X171452800Y-107112234D01*
X171445313Y-107085559D01*
X171445313Y-104775000D01*
X171362448Y-104358411D01*
X171126469Y-104005244D01*
X170773302Y-103769265D01*
X170356713Y-103686400D01*
X170003287Y-103686400D01*
X169675877Y-103751525D01*
X169252360Y-103328008D01*
X171196000Y-103328008D01*
X171281792Y-103311362D01*
X171357195Y-103261831D01*
X171407669Y-103187055D01*
X171425408Y-103098600D01*
X171425408Y-101371400D01*
X171408762Y-101285608D01*
X171359231Y-101210205D01*
X171284455Y-101159731D01*
X171196000Y-101141992D01*
X170155000Y-101141992D01*
X170155000Y-99563600D01*
X170155000Y-98450000D01*
X170155000Y-98400000D01*
X170155000Y-97286400D01*
X170002600Y-97286400D01*
X169568780Y-97382638D01*
X169204811Y-97637566D01*
X168966104Y-98012374D01*
X168907200Y-98222234D01*
X168958042Y-98400000D01*
X170155000Y-98400000D01*
X170155000Y-98450000D01*
X168958042Y-98450000D01*
X168907200Y-98627766D01*
X168966104Y-98837626D01*
X169204811Y-99212434D01*
X169568780Y-99467362D01*
X170002600Y-99563600D01*
X170155000Y-99563600D01*
X170155000Y-101141992D01*
X169164000Y-101141992D01*
X169078208Y-101158638D01*
X169002805Y-101208169D01*
X168952331Y-101282945D01*
X168934592Y-101371400D01*
X168934592Y-103010240D01*
X167480000Y-101555648D01*
X167480000Y-98907605D01*
X167480000Y-98907600D01*
X167480001Y-98907600D01*
X167449841Y-98755984D01*
X167443843Y-98725826D01*
X167443843Y-98725825D01*
X167340876Y-98571724D01*
X166292119Y-97522967D01*
X166365313Y-97155000D01*
X166365313Y-94615000D01*
X166345408Y-94514931D01*
X166345408Y-92938600D01*
X166345408Y-91211400D01*
X166328762Y-91125608D01*
X166279231Y-91050205D01*
X166204455Y-90999731D01*
X166116000Y-90981992D01*
X164084000Y-90981992D01*
X163998208Y-90998638D01*
X163922805Y-91048169D01*
X163872331Y-91122945D01*
X163854592Y-91211400D01*
X163854592Y-92938600D01*
X163871238Y-93024392D01*
X163920769Y-93099795D01*
X163995545Y-93150269D01*
X164084000Y-93168008D01*
X166116000Y-93168008D01*
X166201792Y-93151362D01*
X166277195Y-93101831D01*
X166327669Y-93027055D01*
X166345408Y-92938600D01*
X166345408Y-94514931D01*
X166282448Y-94198411D01*
X166046469Y-93845244D01*
X165693302Y-93609265D01*
X165276713Y-93526400D01*
X164923287Y-93526400D01*
X164506698Y-93609265D01*
X164153531Y-93845244D01*
X163917552Y-94198411D01*
X163834687Y-94615000D01*
X163917552Y-95031589D01*
X164153531Y-95384756D01*
X164506698Y-95620735D01*
X164923287Y-95703600D01*
X165276713Y-95703600D01*
X165693302Y-95620735D01*
X166046469Y-95384756D01*
X166282448Y-95031589D01*
X166365313Y-94615000D01*
X166365313Y-97155000D01*
X166282448Y-96738411D01*
X166046469Y-96385244D01*
X165693302Y-96149265D01*
X165276713Y-96066400D01*
X164923287Y-96066400D01*
X164506698Y-96149265D01*
X164153531Y-96385244D01*
X163956581Y-96680000D01*
X162756752Y-96680000D01*
X161130000Y-95053248D01*
X161130000Y-94241559D01*
X161130000Y-94241554D01*
X161130001Y-94241554D01*
X161130000Y-94241548D01*
X161130000Y-93803008D01*
X161518600Y-93803008D01*
X161604392Y-93786362D01*
X161679795Y-93736831D01*
X161730269Y-93662055D01*
X161748008Y-93573600D01*
X161748008Y-91846400D01*
X161743600Y-91823681D01*
X161743600Y-90191327D01*
X161743600Y-90148673D01*
X161743600Y-87651327D01*
X161743600Y-87608673D01*
X161660735Y-87192084D01*
X161424756Y-86838917D01*
X161071589Y-86602938D01*
X160655000Y-86520073D01*
X160238411Y-86602938D01*
X159885244Y-86838917D01*
X159649265Y-87192084D01*
X159566400Y-87608673D01*
X159566400Y-87651327D01*
X159649265Y-88067916D01*
X159885244Y-88421083D01*
X160238411Y-88657062D01*
X160655000Y-88739927D01*
X161071589Y-88657062D01*
X161424756Y-88421083D01*
X161660735Y-88067916D01*
X161743600Y-87651327D01*
X161743600Y-90148673D01*
X161660735Y-89732084D01*
X161424756Y-89378917D01*
X161071589Y-89142938D01*
X160655000Y-89060073D01*
X160238411Y-89142938D01*
X159885244Y-89378917D01*
X159649265Y-89732084D01*
X159566400Y-90148673D01*
X159566400Y-90191327D01*
X159649265Y-90607916D01*
X159885244Y-90961083D01*
X160238411Y-91197062D01*
X160655000Y-91279927D01*
X161071589Y-91197062D01*
X161424756Y-90961083D01*
X161660735Y-90607916D01*
X161743600Y-90191327D01*
X161743600Y-91823681D01*
X161731362Y-91760608D01*
X161681831Y-91685205D01*
X161607055Y-91634731D01*
X161518600Y-91616992D01*
X159791400Y-91616992D01*
X159705608Y-91633638D01*
X159630205Y-91683169D01*
X159579731Y-91757945D01*
X159561992Y-91846400D01*
X159561992Y-93573600D01*
X159574564Y-93638399D01*
X158770842Y-93638399D01*
X159072521Y-93326091D01*
X159235402Y-92912766D01*
X159235402Y-92507234D01*
X159203600Y-92426533D01*
X159203600Y-90191327D01*
X159203600Y-90148673D01*
X159120735Y-89732084D01*
X158884756Y-89378917D01*
X158531589Y-89142938D01*
X158115000Y-89060073D01*
X157698411Y-89142938D01*
X157345244Y-89378917D01*
X157109265Y-89732084D01*
X157026400Y-90148673D01*
X157026400Y-90191327D01*
X157109265Y-90607916D01*
X157345244Y-90961083D01*
X157698411Y-91197062D01*
X158115000Y-91279927D01*
X158531589Y-91197062D01*
X158884756Y-90961083D01*
X159120735Y-90607916D01*
X159203600Y-90191327D01*
X159203600Y-92426533D01*
X159072521Y-92093909D01*
X158763866Y-91774379D01*
X158356427Y-91597289D01*
X158317766Y-91589600D01*
X158140000Y-91640442D01*
X158140000Y-92685000D01*
X159184578Y-92685000D01*
X159235402Y-92507234D01*
X159235402Y-92912766D01*
X159184578Y-92735000D01*
X158140000Y-92735000D01*
X158140000Y-92755000D01*
X158090000Y-92755000D01*
X158090000Y-92735000D01*
X158090000Y-92685000D01*
X158090000Y-91640442D01*
X157912234Y-91589600D01*
X157873573Y-91597289D01*
X157466134Y-91774379D01*
X157157479Y-92093909D01*
X156994598Y-92507234D01*
X157045422Y-92685000D01*
X158090000Y-92685000D01*
X158090000Y-92735000D01*
X157045422Y-92735000D01*
X156994598Y-92912766D01*
X157157479Y-93326091D01*
X157459157Y-93638399D01*
X150131191Y-93638399D01*
X150403991Y-93525680D01*
X150674730Y-93255414D01*
X150821433Y-92902113D01*
X150821767Y-92519565D01*
X150675680Y-92166009D01*
X150405414Y-91895270D01*
X150052113Y-91748567D01*
X149669565Y-91748233D01*
X149316009Y-91894320D01*
X149045270Y-92164586D01*
X148898567Y-92517887D01*
X148898233Y-92900435D01*
X149044320Y-93253991D01*
X149314586Y-93524730D01*
X149588332Y-93638399D01*
X147821601Y-93638399D01*
X147639826Y-93674556D01*
X147485725Y-93777523D01*
X139364124Y-101899124D01*
X139261157Y-102053225D01*
X139225000Y-102235000D01*
X139225000Y-107105813D01*
X139156009Y-107134320D01*
X138885270Y-107404586D01*
X138738567Y-107757887D01*
X138738233Y-108140435D01*
X138884320Y-108493991D01*
X139154586Y-108764730D01*
X139507887Y-108911433D01*
X139890435Y-108911767D01*
X140243991Y-108765680D01*
X140514730Y-108495414D01*
X140661433Y-108142113D01*
X140661767Y-107759565D01*
X140515680Y-107406009D01*
X140245414Y-107135270D01*
X140175000Y-107106031D01*
X140175000Y-102431752D01*
X148018353Y-94588399D01*
X149161660Y-94588399D01*
X149045270Y-94704586D01*
X148898567Y-95057887D01*
X148898233Y-95440435D01*
X149044320Y-95793991D01*
X149314586Y-96064730D01*
X149667887Y-96211433D01*
X150050435Y-96211767D01*
X150403991Y-96065680D01*
X150674730Y-95795414D01*
X150821433Y-95442113D01*
X150821767Y-95059565D01*
X150675680Y-94706009D01*
X150558275Y-94588399D01*
X160180000Y-94588399D01*
X160180000Y-95250000D01*
X160216157Y-95431775D01*
X160319124Y-95585876D01*
X162224124Y-97490876D01*
X162378225Y-97593843D01*
X162378226Y-97593843D01*
X162408384Y-97599841D01*
X162560000Y-97630001D01*
X162560000Y-97630000D01*
X162560005Y-97630000D01*
X163956581Y-97630000D01*
X164153531Y-97924756D01*
X164506698Y-98160735D01*
X164923287Y-98243600D01*
X165276713Y-98243600D01*
X165604122Y-98178474D01*
X166530000Y-99104352D01*
X166530000Y-101752400D01*
X166566157Y-101934175D01*
X166669124Y-102088276D01*
X168987880Y-104407032D01*
X168914687Y-104775000D01*
X168997552Y-105191589D01*
X169233531Y-105544756D01*
X169586698Y-105780735D01*
X170003287Y-105863600D01*
X170356713Y-105863600D01*
X170773302Y-105780735D01*
X171126469Y-105544756D01*
X171362448Y-105191589D01*
X171445313Y-104775000D01*
X171445313Y-107085559D01*
X171393896Y-106902374D01*
X171155189Y-106527566D01*
X170791220Y-106272638D01*
X170357400Y-106176400D01*
X170205000Y-106176400D01*
X170205000Y-107290000D01*
X171401958Y-107290000D01*
X171452800Y-107112234D01*
X171452800Y-107517766D01*
X171401958Y-107340000D01*
X170205000Y-107340000D01*
X170205000Y-108453600D01*
X170357400Y-108453600D01*
X170791220Y-108357362D01*
X171155189Y-108102434D01*
X171393896Y-107727626D01*
X171452800Y-107517766D01*
X171452800Y-115630000D01*
X171445313Y-115630000D01*
X171445313Y-113665000D01*
X171425408Y-113564931D01*
X171425408Y-111988600D01*
X171425408Y-110261400D01*
X171408762Y-110175608D01*
X171359231Y-110100205D01*
X171284455Y-110049731D01*
X171196000Y-110031992D01*
X170155000Y-110031992D01*
X170155000Y-108453600D01*
X170155000Y-107340000D01*
X170155000Y-107290000D01*
X170155000Y-106176400D01*
X170002600Y-106176400D01*
X169568780Y-106272638D01*
X169204811Y-106527566D01*
X168966104Y-106902374D01*
X168907200Y-107112234D01*
X168958042Y-107290000D01*
X170155000Y-107290000D01*
X170155000Y-107340000D01*
X168958042Y-107340000D01*
X168907200Y-107517766D01*
X168966104Y-107727626D01*
X169204811Y-108102434D01*
X169568780Y-108357362D01*
X170002600Y-108453600D01*
X170155000Y-108453600D01*
X170155000Y-110031992D01*
X169164000Y-110031992D01*
X169078208Y-110048638D01*
X169002805Y-110098169D01*
X168952331Y-110172945D01*
X168934592Y-110261400D01*
X168934592Y-111988600D01*
X168951238Y-112074392D01*
X169000769Y-112149795D01*
X169075545Y-112200269D01*
X169164000Y-112218008D01*
X171196000Y-112218008D01*
X171281792Y-112201362D01*
X171357195Y-112151831D01*
X171407669Y-112077055D01*
X171425408Y-111988600D01*
X171425408Y-113564931D01*
X171362448Y-113248411D01*
X171126469Y-112895244D01*
X170773302Y-112659265D01*
X170356713Y-112576400D01*
X170003287Y-112576400D01*
X169586698Y-112659265D01*
X169233531Y-112895244D01*
X169103399Y-113090000D01*
X167848421Y-113090000D01*
X167803231Y-113021205D01*
X167728455Y-112970731D01*
X167640000Y-112952992D01*
X166372800Y-112952992D01*
X166372800Y-99897766D01*
X166372800Y-99492234D01*
X166313896Y-99282374D01*
X166075189Y-98907566D01*
X165711220Y-98652638D01*
X165277400Y-98556400D01*
X165125000Y-98556400D01*
X165125000Y-99670000D01*
X166321958Y-99670000D01*
X166372800Y-99492234D01*
X166372800Y-99897766D01*
X166321958Y-99720000D01*
X165125000Y-99720000D01*
X165125000Y-100833600D01*
X165277400Y-100833600D01*
X165711220Y-100737362D01*
X166075189Y-100482434D01*
X166313896Y-100107626D01*
X166372800Y-99897766D01*
X166372800Y-112952992D01*
X166370000Y-112952992D01*
X166284208Y-112969638D01*
X166208805Y-113019169D01*
X166158331Y-113093945D01*
X166140592Y-113182400D01*
X166140592Y-114147600D01*
X166157238Y-114233392D01*
X166201239Y-114300377D01*
X166158331Y-114363945D01*
X166140592Y-114452400D01*
X166140592Y-114560000D01*
X165075000Y-114560000D01*
X165075000Y-100833600D01*
X165075000Y-99720000D01*
X165075000Y-99670000D01*
X165075000Y-98556400D01*
X164922600Y-98556400D01*
X164488780Y-98652638D01*
X164124811Y-98907566D01*
X163886104Y-99282374D01*
X163827200Y-99492234D01*
X163878042Y-99670000D01*
X165075000Y-99670000D01*
X165075000Y-99720000D01*
X163878042Y-99720000D01*
X163827200Y-99897766D01*
X163886104Y-100107626D01*
X164124811Y-100482434D01*
X164488780Y-100737362D01*
X164922600Y-100833600D01*
X165075000Y-100833600D01*
X165075000Y-114560000D01*
X164620330Y-114560000D01*
X161517161Y-111456831D01*
X161578339Y-111309501D01*
X161578660Y-110942110D01*
X161438361Y-110602563D01*
X161178804Y-110342552D01*
X160839501Y-110201661D01*
X160472110Y-110201340D01*
X160132563Y-110341639D01*
X159872552Y-110601196D01*
X159731661Y-110940499D01*
X159731340Y-111307890D01*
X159871639Y-111647437D01*
X160131196Y-111907448D01*
X160470499Y-112048339D01*
X160837890Y-112048660D01*
X160986800Y-111987130D01*
X164199835Y-115200165D01*
X164321494Y-115281455D01*
X164465000Y-115310000D01*
X166140592Y-115310000D01*
X166140592Y-115417600D01*
X166157238Y-115503392D01*
X166206769Y-115578795D01*
X166281545Y-115629269D01*
X166370000Y-115647008D01*
X166430000Y-115647008D01*
X166430000Y-116422598D01*
X166473769Y-116642641D01*
X166598414Y-116829184D01*
X168208621Y-118439392D01*
X166928800Y-118439392D01*
X166843008Y-118456038D01*
X166767605Y-118505569D01*
X166717131Y-118580345D01*
X166699392Y-118668800D01*
X166699392Y-118920262D01*
X161578382Y-113799252D01*
X161578660Y-113482110D01*
X161438361Y-113142563D01*
X161178804Y-112882552D01*
X160839501Y-112741661D01*
X160472110Y-112741340D01*
X160132563Y-112881639D01*
X159872552Y-113141196D01*
X159731661Y-113480499D01*
X159731340Y-113847890D01*
X159871639Y-114187437D01*
X160131196Y-114447448D01*
X160470499Y-114588339D01*
X160837890Y-114588660D01*
X161169932Y-114451462D01*
X166363635Y-119645165D01*
X166485293Y-119726454D01*
X166485294Y-119726455D01*
X166628800Y-119755000D01*
X166699392Y-119755000D01*
X166699392Y-120091200D01*
X166716038Y-120176992D01*
X166765569Y-120252395D01*
X166840345Y-120302869D01*
X166928800Y-120320608D01*
X168335000Y-120320608D01*
X168335000Y-120411827D01*
X167762920Y-120983907D01*
X167454595Y-120983638D01*
X167110378Y-121125866D01*
X166846791Y-121388993D01*
X166703963Y-121732961D01*
X166703638Y-122105405D01*
X166845866Y-122449622D01*
X167108993Y-122713209D01*
X167452961Y-122856037D01*
X167825405Y-122856362D01*
X168169622Y-122714134D01*
X168433209Y-122451007D01*
X168576037Y-122107039D01*
X168576307Y-121796864D01*
X169316586Y-121056587D01*
X169316586Y-121056586D01*
X169441231Y-120870043D01*
X169484999Y-120650000D01*
X169485000Y-120650000D01*
X169485000Y-120008929D01*
X169648993Y-120173209D01*
X169992961Y-120316037D01*
X170365405Y-120316362D01*
X170709622Y-120174134D01*
X170973209Y-119911007D01*
X171116037Y-119567039D01*
X171116362Y-119194595D01*
X170974134Y-118850378D01*
X170711007Y-118586791D01*
X170367039Y-118443963D01*
X169994595Y-118443638D01*
X169650378Y-118585866D01*
X169485000Y-118750955D01*
X169485000Y-118327598D01*
X169441231Y-118107555D01*
X169316587Y-117921012D01*
X167580000Y-116184425D01*
X167580000Y-115647008D01*
X167640000Y-115647008D01*
X167725792Y-115630362D01*
X167801195Y-115580831D01*
X167851669Y-115506055D01*
X167869408Y-115417600D01*
X167869408Y-114452400D01*
X167852762Y-114366608D01*
X167808760Y-114299622D01*
X167849006Y-114240000D01*
X169103399Y-114240000D01*
X169233531Y-114434756D01*
X169586698Y-114670735D01*
X170003287Y-114753600D01*
X170356713Y-114753600D01*
X170773302Y-114670735D01*
X171126469Y-114434756D01*
X171362448Y-114081589D01*
X171445313Y-113665000D01*
X171445313Y-115630000D01*
X171256600Y-115630000D01*
X171126469Y-115435244D01*
X170773302Y-115199265D01*
X170356713Y-115116400D01*
X170003287Y-115116400D01*
X169586698Y-115199265D01*
X169233531Y-115435244D01*
X168997552Y-115788411D01*
X168914687Y-116205000D01*
X168997552Y-116621589D01*
X169233531Y-116974756D01*
X169586698Y-117210735D01*
X170003287Y-117293600D01*
X170356713Y-117293600D01*
X170773302Y-117210735D01*
X171126469Y-116974756D01*
X171256600Y-116780000D01*
X171657828Y-116780000D01*
X172145000Y-117267172D01*
X172145000Y-118032992D01*
X172085000Y-118032992D01*
X171999208Y-118049638D01*
X171923805Y-118099169D01*
X171873331Y-118173945D01*
X171855592Y-118262400D01*
X171855592Y-119227600D01*
X171872238Y-119313392D01*
X171916239Y-119380377D01*
X171873331Y-119443945D01*
X171855592Y-119532400D01*
X171855592Y-120497600D01*
X171872238Y-120583392D01*
X171921769Y-120658795D01*
X171996545Y-120709269D01*
X172085000Y-120727008D01*
X172145000Y-120727008D01*
X172145000Y-120959428D01*
X171116140Y-121988287D01*
X171116362Y-121734595D01*
X170974134Y-121390378D01*
X170711007Y-121126791D01*
X170367039Y-120983963D01*
X169994595Y-120983638D01*
X169650378Y-121125866D01*
X169386791Y-121388993D01*
X169243963Y-121732961D01*
X169243638Y-122105405D01*
X169385866Y-122449622D01*
X169550955Y-122615000D01*
X168910000Y-122615000D01*
X168689957Y-122658769D01*
X168503413Y-122783414D01*
X167762920Y-123523907D01*
X167454595Y-123523638D01*
X167110378Y-123665866D01*
X166846791Y-123928993D01*
X166703963Y-124272961D01*
X166703638Y-124645405D01*
X166845866Y-124989622D01*
X167108993Y-125253209D01*
X167452961Y-125396037D01*
X167825405Y-125396362D01*
X168169622Y-125254134D01*
X168433209Y-124991007D01*
X168576037Y-124647039D01*
X168576307Y-124336864D01*
X169148172Y-123765000D01*
X169551070Y-123765000D01*
X169386791Y-123928993D01*
X169243963Y-124272961D01*
X169243638Y-124645405D01*
X169385866Y-124989622D01*
X169648993Y-125253209D01*
X169992961Y-125396037D01*
X170365405Y-125396362D01*
X170709622Y-125254134D01*
X170973209Y-124991007D01*
X171116037Y-124647039D01*
X171116362Y-124274595D01*
X170974134Y-123930378D01*
X170795551Y-123751483D01*
X170947643Y-123721231D01*
X171134186Y-123596586D01*
X173126586Y-121604186D01*
X173251231Y-121417643D01*
X173294999Y-121197600D01*
X173295000Y-121197600D01*
X173295000Y-120727008D01*
X173355000Y-120727008D01*
X173440792Y-120710362D01*
X173516195Y-120660831D01*
X173566669Y-120586055D01*
X173584408Y-120497600D01*
X173584408Y-125455000D01*
X161578660Y-125455000D01*
X161578660Y-118562110D01*
X161578660Y-116022110D01*
X161438361Y-115682563D01*
X161178804Y-115422552D01*
X160839501Y-115281661D01*
X160472110Y-115281340D01*
X160132563Y-115421639D01*
X159872552Y-115681196D01*
X159731661Y-116020499D01*
X159731340Y-116387890D01*
X159871639Y-116727437D01*
X160131196Y-116987448D01*
X160470499Y-117128339D01*
X160837890Y-117128660D01*
X161177437Y-116988361D01*
X161437448Y-116728804D01*
X161578339Y-116389501D01*
X161578660Y-116022110D01*
X161578660Y-118562110D01*
X161438361Y-118222563D01*
X161178804Y-117962552D01*
X160839501Y-117821661D01*
X160472110Y-117821340D01*
X160132563Y-117961639D01*
X159872552Y-118221196D01*
X159731661Y-118560499D01*
X159731340Y-118927890D01*
X159871639Y-119267437D01*
X160131196Y-119527448D01*
X160470499Y-119668339D01*
X160837890Y-119668660D01*
X161177437Y-119528361D01*
X161437448Y-119268804D01*
X161578339Y-118929501D01*
X161578660Y-118562110D01*
X161578660Y-125455000D01*
X156765316Y-125455000D01*
X156765316Y-101873578D01*
X156488062Y-101202571D01*
X155975129Y-100688742D01*
X155304608Y-100410317D01*
X154578578Y-100409684D01*
X153907571Y-100686938D01*
X153393742Y-101199871D01*
X153115317Y-101870392D01*
X153114684Y-102596422D01*
X153391938Y-103267429D01*
X153904871Y-103781258D01*
X154575392Y-104059683D01*
X155301422Y-104060316D01*
X155972429Y-103783062D01*
X156486258Y-103270129D01*
X156764683Y-102599608D01*
X156765316Y-101873578D01*
X156765316Y-125455000D01*
X154011131Y-125455000D01*
X154011131Y-116025084D01*
X154008500Y-116018470D01*
X154008500Y-111878201D01*
X154008500Y-111218750D01*
X154008500Y-111031250D01*
X154008500Y-110371799D01*
X153966634Y-110270725D01*
X153889275Y-110193366D01*
X153788201Y-110151500D01*
X153678799Y-110151500D01*
X153128750Y-110151500D01*
X153060000Y-110220250D01*
X153060000Y-111100000D01*
X153939750Y-111100000D01*
X154008500Y-111031250D01*
X154008500Y-111218750D01*
X153939750Y-111150000D01*
X153060000Y-111150000D01*
X153060000Y-112029750D01*
X153128750Y-112098500D01*
X153678799Y-112098500D01*
X153788201Y-112098500D01*
X153889275Y-112056634D01*
X153966634Y-111979275D01*
X154008500Y-111878201D01*
X154008500Y-116018470D01*
X153958660Y-115893185D01*
X153958660Y-113482110D01*
X153818361Y-113142563D01*
X153558804Y-112882552D01*
X153219501Y-112741661D01*
X153010000Y-112741477D01*
X153010000Y-112029750D01*
X153010000Y-111150000D01*
X153010000Y-111100000D01*
X153010000Y-110220250D01*
X152941250Y-110151500D01*
X152671091Y-110151500D01*
X152671091Y-105814029D01*
X152591333Y-105621000D01*
X152443777Y-105473186D01*
X152250887Y-105393092D01*
X152042029Y-105392909D01*
X151849000Y-105472667D01*
X151701186Y-105620223D01*
X151621092Y-105813113D01*
X151621004Y-105912665D01*
X151462069Y-106071601D01*
X151251923Y-106071601D01*
X150558339Y-106071601D01*
X150674730Y-105955414D01*
X150821433Y-105602113D01*
X150821767Y-105219565D01*
X150821767Y-102679565D01*
X150821767Y-100139565D01*
X150821767Y-97599565D01*
X150675680Y-97246009D01*
X150405414Y-96975270D01*
X150052113Y-96828567D01*
X149669565Y-96828233D01*
X149316009Y-96974320D01*
X149045270Y-97244586D01*
X148974508Y-97415000D01*
X147687469Y-97415000D01*
X147617777Y-97345186D01*
X147424887Y-97265092D01*
X147216029Y-97264909D01*
X147023000Y-97344667D01*
X146875186Y-97492223D01*
X146795092Y-97685113D01*
X146794909Y-97893971D01*
X146874667Y-98087000D01*
X147022223Y-98234814D01*
X147215113Y-98314908D01*
X147423971Y-98315091D01*
X147617000Y-98235333D01*
X147687455Y-98165000D01*
X148974494Y-98165000D01*
X149044320Y-98333991D01*
X149314586Y-98604730D01*
X149667887Y-98751433D01*
X150050435Y-98751767D01*
X150403991Y-98605680D01*
X150674730Y-98335414D01*
X150821433Y-97982113D01*
X150821767Y-97599565D01*
X150821767Y-100139565D01*
X150675680Y-99786009D01*
X150405414Y-99515270D01*
X150052113Y-99368567D01*
X149669565Y-99368233D01*
X149316009Y-99514320D01*
X149045270Y-99784586D01*
X148898567Y-100137887D01*
X148898233Y-100520435D01*
X149044320Y-100873991D01*
X149314586Y-101144730D01*
X149667887Y-101291433D01*
X150050435Y-101291767D01*
X150403991Y-101145680D01*
X150674730Y-100875414D01*
X150821433Y-100522113D01*
X150821767Y-100139565D01*
X150821767Y-102679565D01*
X150675680Y-102326009D01*
X150405414Y-102055270D01*
X150052113Y-101908567D01*
X149669565Y-101908233D01*
X149499027Y-101978697D01*
X149490165Y-101969835D01*
X149368507Y-101888545D01*
X149225000Y-101860000D01*
X144512469Y-101860000D01*
X144442777Y-101790186D01*
X144249887Y-101710092D01*
X144041029Y-101709909D01*
X143848000Y-101789667D01*
X143700186Y-101937223D01*
X143620092Y-102130113D01*
X143619909Y-102338971D01*
X143699667Y-102532000D01*
X143847223Y-102679814D01*
X144040113Y-102759908D01*
X144248971Y-102760091D01*
X144442000Y-102680333D01*
X144512455Y-102610000D01*
X148926756Y-102610000D01*
X148898567Y-102677887D01*
X148898233Y-103060435D01*
X149044320Y-103413991D01*
X149314586Y-103684730D01*
X149667887Y-103831433D01*
X150050435Y-103831767D01*
X150403991Y-103685680D01*
X150674730Y-103415414D01*
X150821433Y-103062113D01*
X150821767Y-102679565D01*
X150821767Y-105219565D01*
X150675680Y-104866009D01*
X150405414Y-104595270D01*
X150052113Y-104448567D01*
X149669565Y-104448233D01*
X149316009Y-104594320D01*
X149045270Y-104864586D01*
X148898567Y-105217887D01*
X148898233Y-105600435D01*
X149044320Y-105953991D01*
X149161724Y-106071601D01*
X149146931Y-106071601D01*
X147845004Y-104769674D01*
X147845091Y-104671029D01*
X147765333Y-104478000D01*
X147617777Y-104330186D01*
X147424887Y-104250092D01*
X147216029Y-104249909D01*
X147023000Y-104329667D01*
X146875186Y-104477223D01*
X146795092Y-104670113D01*
X146794909Y-104878971D01*
X146874667Y-105072000D01*
X147022223Y-105219814D01*
X147215113Y-105299908D01*
X147314665Y-105299995D01*
X148726436Y-106711766D01*
X148848095Y-106793056D01*
X148991601Y-106821601D01*
X151251923Y-106821601D01*
X151531601Y-106821601D01*
X151617399Y-106821601D01*
X151760905Y-106793056D01*
X151760906Y-106793056D01*
X151882564Y-106711766D01*
X152151325Y-106443004D01*
X152249971Y-106443091D01*
X152443000Y-106363333D01*
X152590814Y-106215777D01*
X152670908Y-106022887D01*
X152671091Y-105814029D01*
X152671091Y-110151500D01*
X152391201Y-110151500D01*
X152281799Y-110151500D01*
X152180725Y-110193366D01*
X152103366Y-110270725D01*
X152061500Y-110371799D01*
X152061500Y-111031250D01*
X152130250Y-111100000D01*
X153010000Y-111100000D01*
X153010000Y-111150000D01*
X152130250Y-111150000D01*
X152061500Y-111218750D01*
X152061500Y-111878201D01*
X152103366Y-111979275D01*
X152180725Y-112056634D01*
X152281799Y-112098500D01*
X152391201Y-112098500D01*
X152941250Y-112098500D01*
X153010000Y-112029750D01*
X153010000Y-112741477D01*
X152852110Y-112741340D01*
X152512563Y-112881639D01*
X152252552Y-113141196D01*
X152111661Y-113480499D01*
X152111340Y-113847890D01*
X152251639Y-114187437D01*
X152511196Y-114447448D01*
X152850499Y-114588339D01*
X153217890Y-114588660D01*
X153557437Y-114448361D01*
X153817448Y-114188804D01*
X153958339Y-113849501D01*
X153958660Y-113482110D01*
X153958660Y-115893185D01*
X153867977Y-115665231D01*
X153852447Y-115641991D01*
X153705679Y-115569676D01*
X153670324Y-115605031D01*
X153670324Y-115534321D01*
X153598009Y-115387553D01*
X153242329Y-115234323D01*
X152855084Y-115228869D01*
X152495231Y-115372023D01*
X152471991Y-115387553D01*
X152399676Y-115534321D01*
X153035000Y-116169645D01*
X153670324Y-115534321D01*
X153670324Y-115605031D01*
X153070355Y-116205000D01*
X153705679Y-116840324D01*
X153852447Y-116768009D01*
X154005677Y-116412329D01*
X154011131Y-116025084D01*
X154011131Y-125455000D01*
X153958660Y-125455000D01*
X153958660Y-118562110D01*
X153818361Y-118222563D01*
X153670324Y-118074267D01*
X153670324Y-116875679D01*
X153035000Y-116240355D01*
X152999645Y-116275710D01*
X152999645Y-116205000D01*
X152364321Y-115569676D01*
X152217553Y-115641991D01*
X152064323Y-115997671D01*
X152058869Y-116384916D01*
X152202023Y-116744769D01*
X152217553Y-116768009D01*
X152364321Y-116840324D01*
X152999645Y-116205000D01*
X152999645Y-116275710D01*
X152399676Y-116875679D01*
X152471991Y-117022447D01*
X152827671Y-117175677D01*
X153214916Y-117181131D01*
X153574769Y-117037977D01*
X153598009Y-117022447D01*
X153670324Y-116875679D01*
X153670324Y-118074267D01*
X153558804Y-117962552D01*
X153219501Y-117821661D01*
X152852110Y-117821340D01*
X152512563Y-117961639D01*
X152252552Y-118221196D01*
X152111661Y-118560499D01*
X152111340Y-118927890D01*
X152251639Y-119267437D01*
X152511196Y-119527448D01*
X152850499Y-119668339D01*
X153217890Y-119668660D01*
X153557437Y-119528361D01*
X153817448Y-119268804D01*
X153958339Y-118929501D01*
X153958660Y-118562110D01*
X153958660Y-125455000D01*
X153179091Y-125455000D01*
X153179091Y-122832029D01*
X153099333Y-122639000D01*
X152951777Y-122491186D01*
X152758887Y-122411092D01*
X152659334Y-122411004D01*
X151738164Y-121489834D01*
X151616506Y-121408544D01*
X151472999Y-121379999D01*
X151020091Y-121379999D01*
X151020091Y-111656029D01*
X150940333Y-111463000D01*
X150821767Y-111344226D01*
X150821767Y-107759565D01*
X150675680Y-107406009D01*
X150405414Y-107135270D01*
X150052113Y-106988567D01*
X149669565Y-106988233D01*
X149316009Y-107134320D01*
X149045270Y-107404586D01*
X148898567Y-107757887D01*
X148898233Y-108140435D01*
X149044320Y-108493991D01*
X149314586Y-108764730D01*
X149667887Y-108911433D01*
X150050435Y-108911767D01*
X150403991Y-108765680D01*
X150674730Y-108495414D01*
X150821433Y-108142113D01*
X150821767Y-107759565D01*
X150821767Y-111344226D01*
X150792777Y-111315186D01*
X150599887Y-111235092D01*
X150500334Y-111235004D01*
X149115004Y-109849674D01*
X149115091Y-109751029D01*
X149035333Y-109558000D01*
X148887777Y-109410186D01*
X148694887Y-109330092D01*
X148486029Y-109329909D01*
X148293000Y-109409667D01*
X148281767Y-109420880D01*
X148281767Y-107759565D01*
X148135680Y-107406009D01*
X147865414Y-107135270D01*
X147512113Y-106988567D01*
X147129565Y-106988233D01*
X146776009Y-107134320D01*
X146505270Y-107404586D01*
X146358567Y-107757887D01*
X146358233Y-108140435D01*
X146504320Y-108493991D01*
X146774586Y-108764730D01*
X147127887Y-108911433D01*
X147510435Y-108911767D01*
X147863991Y-108765680D01*
X148134730Y-108495414D01*
X148281433Y-108142113D01*
X148281767Y-107759565D01*
X148281767Y-109420880D01*
X148145186Y-109557223D01*
X148065092Y-109750113D01*
X148064909Y-109958971D01*
X148144667Y-110152000D01*
X148292223Y-110299814D01*
X148485113Y-110379908D01*
X148584665Y-110379995D01*
X149969995Y-111765325D01*
X149969909Y-111863971D01*
X150049667Y-112057000D01*
X150197223Y-112204814D01*
X150390113Y-112284908D01*
X150598971Y-112285091D01*
X150792000Y-112205333D01*
X150939814Y-112057777D01*
X151019908Y-111864887D01*
X151020091Y-111656029D01*
X151020091Y-121379999D01*
X150110999Y-121379999D01*
X149967492Y-121408544D01*
X149845834Y-121489834D01*
X148520667Y-122815000D01*
X146656000Y-122815000D01*
X146656000Y-121568289D01*
X146656000Y-121001711D01*
X146561534Y-120526801D01*
X146292520Y-120124191D01*
X145889910Y-119855177D01*
X145741767Y-119825709D01*
X145741767Y-107759565D01*
X145595680Y-107406009D01*
X145325414Y-107135270D01*
X144972113Y-106988567D01*
X144589565Y-106988233D01*
X144236009Y-107134320D01*
X143965270Y-107404586D01*
X143818567Y-107757887D01*
X143818233Y-108140435D01*
X143964320Y-108493991D01*
X144234586Y-108764730D01*
X144587887Y-108911433D01*
X144970435Y-108911767D01*
X145323991Y-108765680D01*
X145594730Y-108495414D01*
X145741433Y-108142113D01*
X145741767Y-107759565D01*
X145741767Y-119825709D01*
X145415000Y-119760711D01*
X144940090Y-119855177D01*
X144537480Y-120124191D01*
X144268466Y-120526801D01*
X144174000Y-121001711D01*
X144174000Y-121568289D01*
X144268466Y-122043199D01*
X144537480Y-122445809D01*
X144940090Y-122714823D01*
X145415000Y-122809289D01*
X145889910Y-122714823D01*
X146292520Y-122445809D01*
X146561534Y-122043199D01*
X146656000Y-121568289D01*
X146656000Y-122815000D01*
X144166000Y-122815000D01*
X142900002Y-122815000D01*
X142900002Y-122760994D01*
X143101611Y-122809956D01*
X143345947Y-122741295D01*
X143770197Y-122469552D01*
X144058161Y-122056141D01*
X144166000Y-121564000D01*
X144166000Y-121310000D01*
X144166000Y-121260000D01*
X144166000Y-121006000D01*
X144058161Y-120513859D01*
X143770197Y-120100448D01*
X143345947Y-119828705D01*
X143254509Y-119803009D01*
X143254509Y-107764005D01*
X143106107Y-107389928D01*
X143088884Y-107364151D01*
X142938157Y-107287198D01*
X142902802Y-107322553D01*
X142902802Y-107251843D01*
X142825849Y-107101116D01*
X142456399Y-106941539D01*
X142054005Y-106935491D01*
X141679928Y-107083893D01*
X141654151Y-107101116D01*
X141577198Y-107251843D01*
X142240000Y-107914645D01*
X142902802Y-107251843D01*
X142902802Y-107322553D01*
X142275355Y-107950000D01*
X142938157Y-108612802D01*
X143088884Y-108535849D01*
X143248461Y-108166399D01*
X143254509Y-107764005D01*
X143254509Y-119803009D01*
X143101611Y-119760044D01*
X142902802Y-119808325D01*
X142902802Y-108648157D01*
X142240000Y-107985355D01*
X142204645Y-108020710D01*
X142204645Y-107950000D01*
X141541843Y-107287198D01*
X141391116Y-107364151D01*
X141231539Y-107733601D01*
X141225491Y-108135995D01*
X141373893Y-108510072D01*
X141391116Y-108535849D01*
X141541843Y-108612802D01*
X142204645Y-107950000D01*
X142204645Y-108020710D01*
X141577198Y-108648157D01*
X141654151Y-108798884D01*
X142023601Y-108958461D01*
X142425995Y-108964509D01*
X142800072Y-108816107D01*
X142825849Y-108798884D01*
X142902802Y-108648157D01*
X142902802Y-119808325D01*
X142900000Y-119809006D01*
X142900000Y-121260000D01*
X144166000Y-121260000D01*
X144166000Y-121310000D01*
X142900000Y-121310000D01*
X142900000Y-121330000D01*
X142850000Y-121330000D01*
X142850000Y-121310000D01*
X142850000Y-121260000D01*
X142850000Y-119809006D01*
X142648389Y-119760044D01*
X142404053Y-119828705D01*
X141979803Y-120100448D01*
X141691839Y-120513859D01*
X141584000Y-121006000D01*
X141584000Y-121260000D01*
X142850000Y-121260000D01*
X142850000Y-121310000D01*
X141584000Y-121310000D01*
X141584000Y-121564000D01*
X141691839Y-122056141D01*
X141979803Y-122469552D01*
X142404053Y-122741295D01*
X142648389Y-122809956D01*
X142849998Y-122760994D01*
X142849998Y-122815000D01*
X141576000Y-122815000D01*
X141576000Y-121568289D01*
X141576000Y-121001711D01*
X141481534Y-120526801D01*
X141212520Y-120124191D01*
X140809910Y-119855177D01*
X140335000Y-119760711D01*
X139860090Y-119855177D01*
X139457480Y-120124191D01*
X139188466Y-120526801D01*
X139094000Y-121001711D01*
X139094000Y-121568289D01*
X139188466Y-122043199D01*
X139457480Y-122445809D01*
X139860090Y-122714823D01*
X140335000Y-122809289D01*
X140809910Y-122714823D01*
X141212520Y-122445809D01*
X141481534Y-122043199D01*
X141576000Y-121568289D01*
X141576000Y-122815000D01*
X139432469Y-122815000D01*
X139362777Y-122745186D01*
X139169887Y-122665092D01*
X138961029Y-122664909D01*
X138768000Y-122744667D01*
X138620186Y-122892223D01*
X138540092Y-123085113D01*
X138539909Y-123293971D01*
X138619667Y-123487000D01*
X138767223Y-123634814D01*
X138960113Y-123714908D01*
X139168971Y-123715091D01*
X139362000Y-123635333D01*
X139432455Y-123565000D01*
X141144499Y-123565000D01*
X141080092Y-123720113D01*
X141079909Y-123928971D01*
X141159667Y-124122000D01*
X141307223Y-124269814D01*
X141500113Y-124349908D01*
X141599665Y-124349995D01*
X141939836Y-124690166D01*
X142061495Y-124771456D01*
X142205001Y-124800001D01*
X149894999Y-124800001D01*
X150038505Y-124771456D01*
X150038506Y-124771456D01*
X150160164Y-124690166D01*
X151135325Y-123715004D01*
X151233971Y-123715091D01*
X151427000Y-123635333D01*
X151574814Y-123487777D01*
X151654908Y-123294887D01*
X151655091Y-123086029D01*
X151575333Y-122893000D01*
X151427777Y-122745186D01*
X151234887Y-122665092D01*
X151026029Y-122664909D01*
X151016123Y-122669002D01*
X151019908Y-122659887D01*
X151020091Y-122451029D01*
X150940333Y-122258000D01*
X150812555Y-122129999D01*
X151317669Y-122129999D01*
X152128995Y-122941325D01*
X152128909Y-123039971D01*
X152208667Y-123233000D01*
X152356223Y-123380814D01*
X152549113Y-123460908D01*
X152757971Y-123461091D01*
X152951000Y-123381333D01*
X153098814Y-123233777D01*
X153178908Y-123040887D01*
X153179091Y-122832029D01*
X153179091Y-125455000D01*
X131365316Y-125455000D01*
X131365316Y-103778578D01*
X131088062Y-103107571D01*
X130575129Y-102593742D01*
X129904608Y-102315317D01*
X129390402Y-102314868D01*
X129390402Y-99262766D01*
X129390402Y-98857234D01*
X129358600Y-98776533D01*
X129358600Y-96541327D01*
X129358600Y-96498673D01*
X129275735Y-96082084D01*
X129039756Y-95728917D01*
X128686589Y-95492938D01*
X128270000Y-95410073D01*
X127853411Y-95492938D01*
X127500244Y-95728917D01*
X127264265Y-96082084D01*
X127181400Y-96498673D01*
X127181400Y-96541327D01*
X127264265Y-96957916D01*
X127500244Y-97311083D01*
X127853411Y-97547062D01*
X128270000Y-97629927D01*
X128686589Y-97547062D01*
X129039756Y-97311083D01*
X129275735Y-96957916D01*
X129358600Y-96541327D01*
X129358600Y-98776533D01*
X129227521Y-98443909D01*
X128918866Y-98124379D01*
X128511427Y-97947289D01*
X128472766Y-97939600D01*
X128295000Y-97990442D01*
X128295000Y-99035000D01*
X129339578Y-99035000D01*
X129390402Y-98857234D01*
X129390402Y-99262766D01*
X129339578Y-99085000D01*
X128295000Y-99085000D01*
X128295000Y-100129558D01*
X128472766Y-100180400D01*
X128511427Y-100172711D01*
X128918866Y-99995621D01*
X129227521Y-99676091D01*
X129390402Y-99262766D01*
X129390402Y-102314868D01*
X129178578Y-102314684D01*
X128507571Y-102591938D01*
X128245000Y-102854051D01*
X128245000Y-100129558D01*
X128245000Y-99085000D01*
X128245000Y-99035000D01*
X128245000Y-97990442D01*
X128067234Y-97939600D01*
X128028573Y-97947289D01*
X127621134Y-98124379D01*
X127312479Y-98443909D01*
X127149598Y-98857234D01*
X127200422Y-99035000D01*
X128245000Y-99035000D01*
X128245000Y-99085000D01*
X127200422Y-99085000D01*
X127149598Y-99262766D01*
X127312479Y-99676091D01*
X127621134Y-99995621D01*
X128028573Y-100172711D01*
X128067234Y-100180400D01*
X128245000Y-100129558D01*
X128245000Y-102854051D01*
X127993742Y-103104871D01*
X127715317Y-103775392D01*
X127714684Y-104501422D01*
X127991938Y-105172429D01*
X128504871Y-105686258D01*
X129175392Y-105964683D01*
X129901422Y-105965316D01*
X130572429Y-105688062D01*
X131086258Y-105175129D01*
X131364683Y-104504608D01*
X131365316Y-103778578D01*
X131365316Y-125455000D01*
X131290923Y-125455000D01*
X131290923Y-122246058D01*
X131242608Y-122124491D01*
X131242608Y-115519200D01*
X131242608Y-114096800D01*
X131225962Y-114011008D01*
X131176431Y-113935605D01*
X131101655Y-113885131D01*
X131013200Y-113867392D01*
X129590800Y-113867392D01*
X129505008Y-113884038D01*
X129429605Y-113933569D01*
X129379131Y-114008345D01*
X129361392Y-114096800D01*
X129361392Y-114433000D01*
X129290800Y-114433000D01*
X129147294Y-114461545D01*
X129025635Y-114542835D01*
X128373470Y-115195000D01*
X127887251Y-115195000D01*
X128157437Y-115083361D01*
X128417448Y-114823804D01*
X128558339Y-114484501D01*
X128558660Y-114117110D01*
X128418361Y-113777563D01*
X128158804Y-113517552D01*
X127819501Y-113376661D01*
X127452110Y-113376340D01*
X127112563Y-113516639D01*
X126852552Y-113776196D01*
X126711661Y-114115499D01*
X126711340Y-114482890D01*
X126851639Y-114822437D01*
X127111196Y-115082448D01*
X127382251Y-115195000D01*
X125347251Y-115195000D01*
X125617437Y-115083361D01*
X125877448Y-114823804D01*
X126018339Y-114484501D01*
X126018660Y-114117110D01*
X125878361Y-113777563D01*
X125618804Y-113517552D01*
X125279501Y-113376661D01*
X124912110Y-113376340D01*
X124572563Y-113516639D01*
X124312552Y-113776196D01*
X124171661Y-114115499D01*
X124171340Y-114482890D01*
X124311639Y-114822437D01*
X124571196Y-115082448D01*
X124842251Y-115195000D01*
X122992501Y-115195000D01*
X122938337Y-115140835D01*
X123077437Y-115083361D01*
X123337448Y-114823804D01*
X123478339Y-114484501D01*
X123478660Y-114117110D01*
X123338361Y-113777563D01*
X123078804Y-113517552D01*
X122739501Y-113376661D01*
X122372110Y-113376340D01*
X122032563Y-113516639D01*
X121772552Y-113776196D01*
X121631661Y-114115499D01*
X121631340Y-114482890D01*
X121692869Y-114631800D01*
X120494670Y-115830000D01*
X119015329Y-115830000D01*
X119683168Y-115162161D01*
X119830499Y-115223339D01*
X120197890Y-115223660D01*
X120537437Y-115083361D01*
X120797448Y-114823804D01*
X120938339Y-114484501D01*
X120938660Y-114117110D01*
X120798361Y-113777563D01*
X120538804Y-113517552D01*
X120199501Y-113376661D01*
X119832110Y-113376340D01*
X119492563Y-113516639D01*
X119232552Y-113776196D01*
X119091661Y-114115499D01*
X119091340Y-114482890D01*
X119152869Y-114631800D01*
X118589669Y-115195000D01*
X96821380Y-115195000D01*
X95606215Y-113979835D01*
X95668840Y-113665000D01*
X95668840Y-110490000D01*
X95668840Y-107950000D01*
X95668840Y-105410000D01*
X95668840Y-90170000D01*
X95668840Y-87630000D01*
X95602023Y-87294088D01*
X95411744Y-87009316D01*
X95126972Y-86819037D01*
X94791060Y-86752220D01*
X93422940Y-86752220D01*
X93087028Y-86819037D01*
X92802256Y-87009316D01*
X92611977Y-87294088D01*
X92545160Y-87630000D01*
X92611977Y-87965912D01*
X92802256Y-88250684D01*
X93087028Y-88440963D01*
X93422940Y-88507780D01*
X94791060Y-88507780D01*
X95126972Y-88440963D01*
X95411744Y-88250684D01*
X95602023Y-87965912D01*
X95668840Y-87630000D01*
X95668840Y-90170000D01*
X95602023Y-89834088D01*
X95411744Y-89549316D01*
X95126972Y-89359037D01*
X94791060Y-89292220D01*
X93422940Y-89292220D01*
X93087028Y-89359037D01*
X92802256Y-89549316D01*
X92611977Y-89834088D01*
X92545160Y-90170000D01*
X92611977Y-90505912D01*
X92802256Y-90790684D01*
X93087028Y-90980963D01*
X93422940Y-91047780D01*
X94791060Y-91047780D01*
X95126972Y-90980963D01*
X95411744Y-90790684D01*
X95602023Y-90505912D01*
X95668840Y-90170000D01*
X95668840Y-105410000D01*
X95602023Y-105074088D01*
X95411744Y-104789316D01*
X95126972Y-104599037D01*
X94791060Y-104532220D01*
X93900316Y-104532220D01*
X93900316Y-95523578D01*
X93623062Y-94852571D01*
X93110129Y-94338742D01*
X92439608Y-94060317D01*
X91713578Y-94059684D01*
X91042571Y-94336938D01*
X90528742Y-94849871D01*
X90250317Y-95520392D01*
X90249684Y-96246422D01*
X90526938Y-96917429D01*
X91039871Y-97431258D01*
X91710392Y-97709683D01*
X92436422Y-97710316D01*
X93107429Y-97433062D01*
X93621258Y-96920129D01*
X93899683Y-96249608D01*
X93900316Y-95523578D01*
X93900316Y-104532220D01*
X93422940Y-104532220D01*
X93087028Y-104599037D01*
X92802256Y-104789316D01*
X92611977Y-105074088D01*
X92545160Y-105410000D01*
X92611977Y-105745912D01*
X92802256Y-106030684D01*
X93087028Y-106220963D01*
X93422940Y-106287780D01*
X94791060Y-106287780D01*
X95126972Y-106220963D01*
X95411744Y-106030684D01*
X95602023Y-105745912D01*
X95668840Y-105410000D01*
X95668840Y-107950000D01*
X95602023Y-107614088D01*
X95411744Y-107329316D01*
X95126972Y-107139037D01*
X94791060Y-107072220D01*
X93422940Y-107072220D01*
X93087028Y-107139037D01*
X92802256Y-107329316D01*
X92611977Y-107614088D01*
X92545160Y-107950000D01*
X92611977Y-108285912D01*
X92802256Y-108570684D01*
X93087028Y-108760963D01*
X93422940Y-108827780D01*
X94791060Y-108827780D01*
X95126972Y-108760963D01*
X95411744Y-108570684D01*
X95602023Y-108285912D01*
X95668840Y-107950000D01*
X95668840Y-110490000D01*
X95602023Y-110154088D01*
X95411744Y-109869316D01*
X95126972Y-109679037D01*
X94791060Y-109612220D01*
X93422940Y-109612220D01*
X93087028Y-109679037D01*
X92802256Y-109869316D01*
X92611977Y-110154088D01*
X92545160Y-110490000D01*
X92611977Y-110825912D01*
X92802256Y-111110684D01*
X93087028Y-111300963D01*
X93422940Y-111367780D01*
X94791060Y-111367780D01*
X95126972Y-111300963D01*
X95411744Y-111110684D01*
X95602023Y-110825912D01*
X95668840Y-110490000D01*
X95668840Y-113665000D01*
X95602023Y-113329088D01*
X95411744Y-113044316D01*
X95126972Y-112854037D01*
X94791060Y-112787220D01*
X93422940Y-112787220D01*
X93087028Y-112854037D01*
X92802256Y-113044316D01*
X92611977Y-113329088D01*
X92545160Y-113665000D01*
X92611977Y-114000912D01*
X92802256Y-114285684D01*
X93087028Y-114475963D01*
X93422940Y-114542780D01*
X94791060Y-114542780D01*
X95055833Y-114490113D01*
X96395720Y-115830000D01*
X95575905Y-115830000D01*
X95411744Y-115584316D01*
X95126972Y-115394037D01*
X94791060Y-115327220D01*
X93422940Y-115327220D01*
X93087028Y-115394037D01*
X92802256Y-115584316D01*
X92611977Y-115869088D01*
X92545160Y-116205000D01*
X92611977Y-116540912D01*
X92802256Y-116825684D01*
X93087028Y-117015963D01*
X93422940Y-117082780D01*
X94791060Y-117082780D01*
X95126972Y-117015963D01*
X95411744Y-116825684D01*
X95575905Y-116580000D01*
X120650000Y-116580000D01*
X120793506Y-116551455D01*
X120793507Y-116551455D01*
X120915165Y-116470165D01*
X122180000Y-115205330D01*
X122180000Y-115287828D01*
X122208545Y-115431335D01*
X122289835Y-115552993D01*
X122572007Y-115835165D01*
X122693665Y-115916454D01*
X122693666Y-115916455D01*
X122837172Y-115945000D01*
X128528800Y-115945000D01*
X128672306Y-115916455D01*
X128672307Y-115916455D01*
X128793965Y-115835165D01*
X129361392Y-115267738D01*
X129361392Y-115519200D01*
X129378038Y-115604992D01*
X129427569Y-115680395D01*
X129502345Y-115730869D01*
X129590800Y-115748608D01*
X131013200Y-115748608D01*
X131098992Y-115731962D01*
X131174395Y-115682431D01*
X131224869Y-115607655D01*
X131242608Y-115519200D01*
X131242608Y-122124491D01*
X131146020Y-121881463D01*
X131129927Y-121857378D01*
X130981839Y-121783517D01*
X130946483Y-121818872D01*
X130946483Y-121748161D01*
X130872622Y-121600073D01*
X130512352Y-121444728D01*
X130120058Y-121439077D01*
X129755463Y-121583980D01*
X129731378Y-121600073D01*
X129657517Y-121748161D01*
X130302000Y-122392645D01*
X130946483Y-121748161D01*
X130946483Y-121818872D01*
X130337355Y-122428000D01*
X130981839Y-123072483D01*
X131129927Y-122998622D01*
X131285272Y-122638352D01*
X131290923Y-122246058D01*
X131290923Y-125455000D01*
X130946483Y-125455000D01*
X130946483Y-123107839D01*
X130302000Y-122463355D01*
X130266645Y-122498710D01*
X130266645Y-122428000D01*
X129622161Y-121783517D01*
X129474073Y-121857378D01*
X129318728Y-122217648D01*
X129313077Y-122609942D01*
X129457980Y-122974537D01*
X129474073Y-122998622D01*
X129622161Y-123072483D01*
X130266645Y-122428000D01*
X130266645Y-122498710D01*
X129657517Y-123107839D01*
X129731378Y-123255927D01*
X130091648Y-123411272D01*
X130483942Y-123416923D01*
X130848537Y-123272020D01*
X130872622Y-123255927D01*
X130946483Y-123107839D01*
X130946483Y-125455000D01*
X128558660Y-125455000D01*
X128558660Y-121737110D01*
X128418361Y-121397563D01*
X128158804Y-121137552D01*
X127819501Y-120996661D01*
X127452110Y-120996340D01*
X127112563Y-121136639D01*
X126852552Y-121396196D01*
X126711661Y-121735499D01*
X126711340Y-122102890D01*
X126851639Y-122442437D01*
X127111196Y-122702448D01*
X127450499Y-122843339D01*
X127817890Y-122843660D01*
X128157437Y-122703361D01*
X128417448Y-122443804D01*
X128558339Y-122104501D01*
X128558660Y-121737110D01*
X128558660Y-125455000D01*
X126071131Y-125455000D01*
X126071131Y-121740084D01*
X125927977Y-121380231D01*
X125912447Y-121356991D01*
X125765679Y-121284676D01*
X125730324Y-121320031D01*
X125730324Y-121249321D01*
X125658009Y-121102553D01*
X125302329Y-120949323D01*
X124915084Y-120943869D01*
X124555231Y-121087023D01*
X124531991Y-121102553D01*
X124459676Y-121249321D01*
X125095000Y-121884645D01*
X125730324Y-121249321D01*
X125730324Y-121320031D01*
X125130355Y-121920000D01*
X125765679Y-122555324D01*
X125912447Y-122483009D01*
X126065677Y-122127329D01*
X126071131Y-121740084D01*
X126071131Y-125455000D01*
X125730324Y-125455000D01*
X125730324Y-122590679D01*
X125095000Y-121955355D01*
X125059645Y-121990710D01*
X125059645Y-121920000D01*
X124424321Y-121284676D01*
X124277553Y-121356991D01*
X124124323Y-121712671D01*
X124118869Y-122099916D01*
X124262023Y-122459769D01*
X124277553Y-122483009D01*
X124424321Y-122555324D01*
X125059645Y-121920000D01*
X125059645Y-121990710D01*
X124459676Y-122590679D01*
X124531991Y-122737447D01*
X124887671Y-122890677D01*
X125274916Y-122896131D01*
X125634769Y-122752977D01*
X125658009Y-122737447D01*
X125730324Y-122590679D01*
X125730324Y-125455000D01*
X123478660Y-125455000D01*
X123478660Y-121737110D01*
X123338361Y-121397563D01*
X123078804Y-121137552D01*
X122739501Y-120996661D01*
X122372110Y-120996340D01*
X122032563Y-121136639D01*
X121772552Y-121396196D01*
X121631661Y-121735499D01*
X121631340Y-122102890D01*
X121771639Y-122442437D01*
X122031196Y-122702448D01*
X122370499Y-122843339D01*
X122737890Y-122843660D01*
X123077437Y-122703361D01*
X123337448Y-122443804D01*
X123478339Y-122104501D01*
X123478660Y-121737110D01*
X123478660Y-125455000D01*
X120988500Y-125455000D01*
X120988500Y-122673201D01*
X120988500Y-122563799D01*
X120988500Y-122013750D01*
X120988500Y-121826250D01*
X120988500Y-121276201D01*
X120988500Y-121166799D01*
X120946634Y-121065725D01*
X120869275Y-120988366D01*
X120768201Y-120946500D01*
X120108750Y-120946500D01*
X120040000Y-121015250D01*
X120040000Y-121895000D01*
X120919750Y-121895000D01*
X120988500Y-121826250D01*
X120988500Y-122013750D01*
X120919750Y-121945000D01*
X120040000Y-121945000D01*
X120040000Y-122824750D01*
X120108750Y-122893500D01*
X120768201Y-122893500D01*
X120869275Y-122851634D01*
X120946634Y-122774275D01*
X120988500Y-122673201D01*
X120988500Y-125455000D01*
X119990000Y-125455000D01*
X119990000Y-122824750D01*
X119990000Y-121945000D01*
X119990000Y-121895000D01*
X119990000Y-121015250D01*
X119921250Y-120946500D01*
X119261799Y-120946500D01*
X119160725Y-120988366D01*
X119083366Y-121065725D01*
X119041500Y-121166799D01*
X119041500Y-121276201D01*
X119041500Y-121826250D01*
X119110250Y-121895000D01*
X119990000Y-121895000D01*
X119990000Y-121945000D01*
X119110250Y-121945000D01*
X119041500Y-122013750D01*
X119041500Y-122563799D01*
X119041500Y-122673201D01*
X119083366Y-122774275D01*
X119160725Y-122851634D01*
X119261799Y-122893500D01*
X119921250Y-122893500D01*
X119990000Y-122824750D01*
X119990000Y-125455000D01*
X95673164Y-125455000D01*
X95673164Y-119549776D01*
X95673164Y-119210224D01*
X95627774Y-119048051D01*
X95434767Y-118741638D01*
X95139193Y-118532410D01*
X94786050Y-118452220D01*
X94132000Y-118452220D01*
X94132000Y-119355000D01*
X95619716Y-119355000D01*
X95673164Y-119210224D01*
X95673164Y-119549776D01*
X95619716Y-119405000D01*
X94132000Y-119405000D01*
X94132000Y-120307780D01*
X94786050Y-120307780D01*
X95139193Y-120227590D01*
X95434767Y-120018362D01*
X95627774Y-119711949D01*
X95673164Y-119549776D01*
X95673164Y-125455000D01*
X95668840Y-125455000D01*
X95668840Y-124460000D01*
X95668840Y-121920000D01*
X95602023Y-121584088D01*
X95411744Y-121299316D01*
X95126972Y-121109037D01*
X94791060Y-121042220D01*
X94082000Y-121042220D01*
X94082000Y-120307780D01*
X94082000Y-119405000D01*
X94082000Y-119355000D01*
X94082000Y-118452220D01*
X93427950Y-118452220D01*
X93074807Y-118532410D01*
X92779233Y-118741638D01*
X92586226Y-119048051D01*
X92540836Y-119210224D01*
X92594284Y-119355000D01*
X94082000Y-119355000D01*
X94082000Y-119405000D01*
X92594284Y-119405000D01*
X92540836Y-119549776D01*
X92586226Y-119711949D01*
X92779233Y-120018362D01*
X93074807Y-120227590D01*
X93427950Y-120307780D01*
X94082000Y-120307780D01*
X94082000Y-121042220D01*
X93422940Y-121042220D01*
X93087028Y-121109037D01*
X92802256Y-121299316D01*
X92611977Y-121584088D01*
X92545160Y-121920000D01*
X92611977Y-122255912D01*
X92802256Y-122540684D01*
X93087028Y-122730963D01*
X93422940Y-122797780D01*
X94791060Y-122797780D01*
X95126972Y-122730963D01*
X95411744Y-122540684D01*
X95602023Y-122255912D01*
X95668840Y-121920000D01*
X95668840Y-124460000D01*
X95602023Y-124124088D01*
X95411744Y-123839316D01*
X95126972Y-123649037D01*
X94791060Y-123582220D01*
X93422940Y-123582220D01*
X93087028Y-123649037D01*
X92802256Y-123839316D01*
X92611977Y-124124088D01*
X92545160Y-124460000D01*
X92611977Y-124795912D01*
X92802256Y-125080684D01*
X93087028Y-125270963D01*
X93422940Y-125337780D01*
X94791060Y-125337780D01*
X95126972Y-125270963D01*
X95411744Y-125080684D01*
X95602023Y-124795912D01*
X95668840Y-124460000D01*
X95668840Y-125455000D01*
X89175000Y-125455000D01*
X89175000Y-75422000D01*
X92001762Y-75422000D01*
X92001762Y-73935000D01*
X133788622Y-73935000D01*
X133727625Y-73960266D01*
X133650266Y-74037625D01*
X133608400Y-74138699D01*
X133608400Y-74248101D01*
X133608400Y-74836250D01*
X133677150Y-74905000D01*
X134595000Y-74905000D01*
X134595000Y-74885000D01*
X134645000Y-74885000D01*
X134645000Y-74905000D01*
X135562850Y-74905000D01*
X135631600Y-74836250D01*
X135631600Y-74248101D01*
X135631600Y-74138699D01*
X135589734Y-74037625D01*
X135512375Y-73960266D01*
X135451377Y-73935000D01*
X173715000Y-73935000D01*
X173715000Y-125455000D01*
M02*
