  0
SECTION
  2
HEADER
  9
$ACADVER
  1
AC1009
  9
$INSBASE
 10
0.0
 20
0.0
 30
0.0
  9
$EXTMIN
 10
40.947518313383803
 20
30.726093386320152
 30
0.0
  9
$EXTMAX
 10
103.3118335303871
 20
62.808994212903691
 30
0.0
  9
$LIMMIN
 10
0.0
 20
0.0
  9
$LIMMAX
 10
12.0
 20
9.0
  9
$ORTHOMODE
 70
     0
  9
$REGENMODE
 70
     1
  9
$FILLMODE
 70
     1
  9
$QTEXTMODE
 70
     0
  9
$MIRRTEXT
 70
     0
  9
$DRAGMODE
 70
     2
  9
$LTSCALE
 40
1.0
  9
$OSMODE
 70
    37
  9
$ATTMODE
 70
     1
  9
$TEXTSIZE
 40
0.2
  9
$TRACEWID
 40
0.05
  9
$TEXTSTYLE
  7
STANDARD
  9
$CLAYER
  8
0
  9
$CELTYPE
  6
BYLAYER
  9
$CECOLOR
 62
   256
  9
$DIMSCALE
 40
1.0
  9
$DIMASZ
 40
0.18
  9
$DIMEXO
 40
0.0625
  9
$DIMDLI
 40
0.38
  9
$DIMRND
 40
0.0
  9
$DIMDLE
 40
0.0
  9
$DIMEXE
 40
0.18
  9
$DIMTP
 40
0.0
  9
$DIMTM
 40
0.0
  9
$DIMTXT
 40
0.18
  9
$DIMCEN
 40
0.09
  9
$DIMTSZ
 40
0.0
  9
$DIMTOL
 70
     0
  9
$DIMLIM
 70
     0
  9
$DIMTIH
 70
     1
  9
$DIMTOH
 70
     1
  9
$DIMSE1
 70
     0
  9
$DIMSE2
 70
     0
  9
$DIMTAD
 70
     0
  9
$DIMZIN
 70
     0
  9
$DIMBLK
  1

  9
$DIMASO
 70
     1
  9
$DIMSHO
 70
     1
  9
$DIMPOST
  1

  9
$DIMAPOST
  1

  9
$DIMALT
 70
     0
  9
$DIMALTD
 70
     2
  9
$DIMALTF
 40
25.399999999999999
  9
$DIMLFAC
 40
1.0
  9
$DIMTOFL
 70
     0
  9
$DIMTVP
 40
0.0
  9
$DIMTIX
 70
     0
  9
$DIMSOXD
 70
     0
  9
$DIMSAH
 70
     0
  9
$DIMBLK1
  1

  9
$DIMBLK2
  1

  9
$DIMSTYLE
  2
STANDARD
  9
$DIMCLRD
 70
     0
  9
$DIMCLRE
 70
     0
  9
$DIMCLRT
 70
     0
  9
$DIMTFAC
 40
1.0
  9
$DIMGAP
 40
0.09
  9
$LUNITS
 70
     2
  9
$LUPREC
 70
     4
  9
$SKETCHINC
 40
0.1
  9
$FILLETRAD
 40
0.0
  9
$AUNITS
 70
     0
  9
$AUPREC
 70
     0
  9
$MENU
  1
.
  9
$ELEVATION
 40
0.0
  9
$PELEVATION
 40
0.0
  9
$THICKNESS
 40
0.0
  9
$LIMCHECK
 70
     0
  9
$BLIPMODE
 70
     0
  9
$CHAMFERA
 40
0.0
  9
$CHAMFERB
 40
0.0
  9
$SKPOLY
 70
     0
  9
$TDCREATE
 40
2457143.7106852662
  9
$TDUPDATE
 40
2457143.7134564011
  9
$TDINDWG
 40
0.0027721296
  9
$TDUSRTIMER
 40
0.0027720949
  9
$USRTIMER
 70
     1
  9
$ANGBASE
 50
0.0
  9
$ANGDIR
 70
     0
  9
$PDMODE
 70
     0
  9
$PDSIZE
 40
0.0
  9
$PLINEWID
 40
0.0
  9
$COORDS
 70
     1
  9
$SPLFRAME
 70
     0
  9
$SPLINETYPE
 70
     6
  9
$SPLINESEGS
 70
     8
  9
$ATTDIA
 70
     0
  9
$ATTREQ
 70
     1
  9
$HANDLING
 70
     1
  9
$HANDSEED
  5
324
  9
$SURFTAB1
 70
     6
  9
$SURFTAB2
 70
     6
  9
$SURFTYPE
 70
     6
  9
$SURFU
 70
     6
  9
$SURFV
 70
     6
  9
$UCSNAME
  2

  9
$UCSORG
 10
0.0
 20
0.0
 30
0.0
  9
$UCSXDIR
 10
1.0
 20
0.0
 30
0.0
  9
$UCSYDIR
 10
0.0
 20
1.0
 30
0.0
  9
$PUCSNAME
  2

  9
$PUCSORG
 10
0.0
 20
0.0
 30
0.0
  9
$PUCSXDIR
 10
1.0
 20
0.0
 30
0.0
  9
$PUCSYDIR
 10
0.0
 20
1.0
 30
0.0
  9
$USERI1
 70
     0
  9
$USERI2
 70
     0
  9
$USERI3
 70
     0
  9
$USERI4
 70
     0
  9
$USERI5
 70
     0
  9
$USERR1
 40
0.0
  9
$USERR2
 40
0.0
  9
$USERR3
 40
0.0
  9
$USERR4
 40
0.0
  9
$USERR5
 40
0.0
  9
$WORLDVIEW
 70
     1
  9
$SHADEDGE
 70
     3
  9
$SHADEDIF
 70
    70
  9
$TILEMODE
 70
     1
  9
$MAXACTVP
 70
    64
  9
$PLIMCHECK
 70
     0
  9
$PEXTMIN
 10
0.0
 20
0.0
 30
0.0
  9
$PEXTMAX
 10
0.0
 20
0.0
 30
0.0
  9
$PLIMMIN
 10
0.0
 20
0.0
  9
$PLIMMAX
 10
12.0
 20
9.0
  9
$UNITMODE
 70
     0
  9
$VISRETAIN
 70
     1
  9
$PLINEGEN
 70
     0
  9
$PSLTSCALE
 70
     1
  0
ENDSEC
  0
SECTION
  2
TABLES
  0
TABLE
  2
VPORT
 70
     1
  0
VPORT
  2
*ACTIVE
 70
     0
 10
0.0
 20
0.0
 11
1.0
 21
1.0
 12
76.814540977048182
 22
39.302311524501562
 13
0.0
 23
0.0
 14
0.5
 24
0.5
 15
0.5
 25
0.5
 16
0.0
 26
0.0
 36
1.0
 17
0.0
 27
0.0
 37
0.0
 40
30.773882504504861
 41
2.3295454545454541
 42
50.0
 43
0.0
 44
0.0
 50
0.0
 51
0.0
 71
     0
 72
  1000
 73
     1
 74
     3
 75
     0
 76
     1
 77
     0
 78
     0
  0
ENDTAB
  0
TABLE
  2
LTYPE
 70
     2
  0
LTYPE
  2
CONTINUOUS
 70
     0
  3
Solid line
 72
    65
 73
     0
 40
0.0
  0
LTYPE
  2
AM_ISO08W050
 70
     0
  3
____ . ____ . ____ . ____ . ____ . ____ . ____
 72
    65
 73
     4
 40
18.0
 49
12.0
 49
-1.5
 49
3.0
 49
-1.5
  0
ENDTAB
  0
TABLE
  2
LAYER
 70
     4
  0
LAYER
  2
0
 70
     0
 62
     7
  6
CONTINUOUS
  0
LAYER
  2
AM_7
 70
     0
 62
     4
  6
AM_ISO08W050
  0
LAYER
  2
DEFPOINTS
 70
     0
 62
     7
  6
CONTINUOUS
  0
LAYER
  2
AM_4
 70
     0
 62
     3
  6
CONTINUOUS
  0
ENDTAB
  0
TABLE
  2
STYLE
 70
     2
  0
STYLE
  2
STANDARD
 70
     0
 40
0.0
 41
1.0
 50
0.0
 71
     0
 42
0.2
  3
txt
  4

  0
STYLE
  2
BESCHRIFTUNG
 70
     0
 40
0.0
 41
1.0
 50
0.0
 71
     0
 42
0.2
  3
txt
  4

  0
ENDTAB
  0
TABLE
  2
VIEW
 70
     0
  0
ENDTAB
  0
TABLE
  2
UCS
 70
     0
  0
ENDTAB
  0
TABLE
  2
APPID
 70
     9
  0
APPID
  2
ACAD
 70
     0
  0
APPID
  2
ACADANNOPO
 70
     0
  0
APPID
  2
ACADANNOTATIVE
 70
     0
  0
APPID
  2
ACAD_DSTYLE_DIMJAG
 70
     0
  0
APPID
  2
ACAD_DSTYLE_DIMTALN
 70
     0
  0
APPID
  2
ACAD_MLEADERVER
 70
     0
  0
APPID
  2
ACAD_PSEXT
 70
     0
  0
APPID
  2
ACAECLAYERSTANDARD
 70
     0
  0
APPID
  2
ACAD_DSTYLE_DIMRADIAL_EXTENSION
 70
     0
  0
ENDTAB
  0
TABLE
  2
DIMSTYLE
 70
     3
  0
DIMSTYLE
  2
STANDARD
 70
     0
  3

  4

  5

  6

  7

 40
1.0
 41
0.18
 42
0.0625
 43
0.38
 44
0.18
 45
0.0
 46
0.0
 47
0.0
 48
0.0
140
0.18
141
0.09
142
0.0
143
25.399999999999999
144
1.0
145
0.0
146
1.0
147
0.09
 71
     0
 72
     0
 73
     1
 74
     1
 75
     0
 76
     0
 77
     0
 78
     0
170
     0
171
     2
172
     0
173
     0
174
     0
175
     0
176
     0
177
     0
178
     0
  0
DIMSTYLE
  2
BESCHRIFTUNG
 70
     0
  3

  4

  5

  6

  7

 40
0.0
 41
0.18
 42
0.0625
 43
0.38
 44
0.18
 45
0.0
 46
0.0
 47
0.0
 48
0.0
140
0.18
141
0.09
142
0.0
143
25.399999999999999
144
1.0
145
0.0
146
1.0
147
0.09
 71
     0
 72
     0
 73
     1
 74
     1
 75
     0
 76
     0
 77
     0
 78
     0
170
     0
171
     2
172
     0
173
     0
174
     0
175
     0
176
     0
177
     0
178
     0
  0
DIMSTYLE
  2
ISO-25
 70
     0
  3

  4

  5

  6

  7

 40
1.0
 41
2.5
 42
0.625
 43
3.75
 44
1.25
 45
0.0
 46
0.0
 47
0.0
 48
0.0
140
2.5
141
2.5
142
0.0
143
0.03937007874016
144
1.0
145
0.0
146
1.0
147
0.625
 71
     0
 72
     0
 73
     0
 74
     0
 75
     0
 76
     0
 77
     1
 78
     8
170
     0
171
     3
172
     1
173
     0
174
     0
175
     0
176
     0
177
     0
178
     0
  0
ENDTAB
  0
ENDSEC
  0
SECTION
  2
BLOCKS
  0
BLOCK
  8
0
  2
$MODEL_SPACE
 70
     0
 10
0.0
 20
0.0
 30
0.0
  3
$MODEL_SPACE
  1

  0
ENDBLK
  5
21
  8
0
  0
BLOCK
 67
     1
  8
0
  2
$PAPER_SPACE
 70
     0
 10
0.0
 20
0.0
 30
0.0
  3
$PAPER_SPACE
  1

  0
ENDBLK
  5
76
 67
     1
  8
0
  0
BLOCK
  8
0
  2
*D1
 70
     1
 10
0.0
 20
0.0
 30
0.0
  3
*D1
  1

  0
LINE
  5
1A6
  8
AM_4
 62
     0
 10
3864.6204534957142
 20
2062.7166795854391
 30
0.0
 11
3864.6204534957142
 21
2074.2074498082511
 31
0.0
  0
LINE
  5
1A7
  8
AM_4
 62
     0
 10
3899.6204534957142
 20
2062.7166795854391
 30
0.0
 11
3899.6204534957142
 21
2074.2074498082511
 31
0.0
  0
LINE
  5
1A8
  8
AM_4
 62
     0
 10
3867.1204534957142
 20
2072.9574498082511
 30
0.0
 11
3897.1204534957142
 21
2072.9574498082511
 31
0.0
  0
SOLID
  5
1A9
  8
AM_4
 62
     0
 10
3867.1204534957142
 20
2073.3741164749172
 30
0.0
 11
3867.1204534957142
 21
2072.5407831415851
 31
0.0
 12
3864.6204534957142
 22
2072.9574498082511
 32
0.0
 13
3864.6204534957142
 23
2072.9574498082511
 33
0.0
  0
SOLID
  5
1AA
  8
AM_4
 62
     0
 10
3897.1204534957142
 20
2073.3741164749172
 30
0.0
 11
3897.1204534957142
 21
2072.5407831415851
 31
0.0
 12
3899.6204534957142
 22
2072.9574498082511
 32
0.0
 13
3899.6204534957142
 23
2072.9574498082511
 33
0.0
  0
INSERT
  5
1AB
  8
0
  2
*U14
 10
0.0
 20
0.0
 30
0.0
  0
POINT
  5
1AC
  8
DEFPOINTS
 62
     0
 10
3864.6204534957142
 20
2062.0916795854391
 30
0.0
  0
POINT
  5
1AD
  8
DEFPOINTS
 62
     0
 10
3899.6204534957142
 20
2062.0916795854391
 30
0.0
  0
POINT
  5
1AE
  8
DEFPOINTS
 62
     0
 10
3899.6204534957142
 20
2072.9574498082511
 30
0.0
  0
ENDBLK
  5
1AF
  8
0
  0
BLOCK
  8
0
  2
*D2
 70
     1
 10
0.0
 20
0.0
 30
0.0
  3
*D2
  1

  0
LINE
  5
1B2
  8
AM_4
 62
     0
 10
3897.2454534957142
 20
2055.0916795854391
 30
0.0
 11
3908.5569174994162
 21
2055.0916795854391
 31
0.0
  0
LINE
  5
1B3
  8
AM_4
 62
     0
 10
3900.2454534957142
 20
2062.0916795854391
 30
0.0
 11
3908.5569174994162
 21
2062.0916795854391
 31
0.0
  0
LINE
  5
1B4
  8
AM_4
 62
     0
 10
3907.3069174994162
 20
2057.5916795854391
 30
0.0
 11
3907.3069174994162
 21
2059.5916795854391
 31
0.0
  0
SOLID
  5
1B5
  8
AM_4
 62
     0
 10
3906.8902508327501
 20
2057.5916795854391
 30
0.0
 11
3907.7235841660831
 21
2057.5916795854391
 31
0.0
 12
3907.3069174994162
 22
2055.0916795854391
 32
0.0
 13
3907.3069174994162
 23
2055.0916795854391
 33
0.0
  0
SOLID
  5
1B6
  8
AM_4
 62
     0
 10
3906.8902508327501
 20
2059.5916795854391
 30
0.0
 11
3907.7235841660831
 21
2059.5916795854391
 31
0.0
 12
3907.3069174994162
 22
2062.0916795854391
 32
0.0
 13
3907.3069174994162
 23
2062.0916795854391
 33
0.0
  0
INSERT
  5
1B7
  8
0
  2
*U15
 10
0.0
 20
0.0
 30
0.0
  0
POINT
  5
1B8
  8
DEFPOINTS
 62
     0
 10
3896.6204534957142
 20
2055.0916795854391
 30
0.0
  0
POINT
  5
1B9
  8
DEFPOINTS
 62
     0
 10
3899.6204534957142
 20
2062.0916795854391
 30
0.0
  0
POINT
  5
1BA
  8
DEFPOINTS
 62
     0
 10
3907.3069174994162
 20
2062.0916795854391
 30
0.0
  0
ENDBLK
  5
1BB
  8
0
  0
BLOCK
  8
0
  2
*D3
 70
     1
 10
0.0
 20
0.0
 30
0.0
  3
*D3
  1

  0
LINE
  5
1BE
  8
AM_4
 62
     0
 10
3867.6204534957142
 20
2055.7166795854391
 30
0.0
 11
3867.6204534957142
 21
2068.4704123402771
 31
0.0
  0
LINE
  5
1BF
  8
AM_4
 62
     0
 10
3896.6204534957142
 20
2055.7166795854391
 30
0.0
 11
3896.6204534957142
 21
2068.4704123402771
 31
0.0
  0
LINE
  5
1C0
  8
AM_4
 62
     0
 10
3870.1204534957142
 20
2067.2204123402771
 30
0.0
 11
3894.1204534957142
 21
2067.2204123402771
 31
0.0
  0
SOLID
  5
1C1
  8
AM_4
 62
     0
 10
3870.1204534957142
 20
2067.6370790069441
 30
0.0
 11
3870.1204534957142
 21
2066.803745673611
 31
0.0
 12
3867.6204534957142
 22
2067.2204123402771
 32
0.0
 13
3867.6204534957142
 23
2067.2204123402771
 33
0.0
  0
SOLID
  5
1C2
  8
AM_4
 62
     0
 10
3894.1204534957142
 20
2067.6370790069441
 30
0.0
 11
3894.1204534957142
 21
2066.803745673611
 31
0.0
 12
3896.6204534957142
 22
2067.2204123402771
 32
0.0
 13
3896.6204534957142
 23
2067.2204123402771
 33
0.0
  0
INSERT
  5
1C3
  8
0
  2
*U16
 10
0.0
 20
0.0
 30
0.0
  0
POINT
  5
1C4
  8
DEFPOINTS
 62
     0
 10
3867.6204534957142
 20
2055.0916795854391
 30
0.0
  0
POINT
  5
1C5
  8
DEFPOINTS
 62
     0
 10
3896.6204534957142
 20
2055.0916795854391
 30
0.0
  0
POINT
  5
1C6
  8
DEFPOINTS
 62
     0
 10
3896.6204534957142
 20
2067.2204123402771
 30
0.0
  0
ENDBLK
  5
1C7
  8
0
  0
BLOCK
  8
0
  2
*D4
 70
     1
 10
0.0
 20
0.0
 30
0.0
  3
*D4
  1

  0
LINE
  5
1CA
  8
AM_4
 62
     0
 10
3852.2378373288179
 20
2055.0740157911009
 30
0.0
 11
3863.520456198808
 21
2055.0869715755498
 31
0.0
  0
LINE
  5
1CB
  8
AM_4
 62
     0
 10
3871.7204507926222
 20
2055.0963875953289
 30
0.0
 11
3874.220449144394
 21
2055.0992583330672
 31
0.0
  0
INSERT
  5
1CC
  8
0
  2
*U17
 10
0.0
 20
0.0
 30
0.0
  0
LINE
  5
1CD
  8
AM_4
 62
     0
 10
3869.2204524408498
 20
2055.0935168575911
 30
0.0
 11
3866.0204545505808
 21
2055.0898423132871
 31
0.0
  0
SOLID
  5
1CE
  8
AM_4
 62
     0
 10
3871.7199723363319
 20
2055.5130539872912
 30
0.0
 11
3871.7209292489119
 21
2054.6797212033671
 31
0.0
 12
3869.2204524408498
 22
2055.0935168575911
 32
0.0
 13
3869.2204524408498
 23
2055.0935168575911
 33
0.0
  0
SOLID
  5
1CF
  8
AM_4
 62
     0
 10
3863.5199777425182
 20
2055.5036379675121
 30
0.0
 11
3863.5209346550969
 21
2054.670305183588
 31
0.0
 12
3866.0204545505808
 22
2055.0898423132871
 32
0.0
 13
3866.0204545505808
 23
2055.0898423132871
 33
0.0
  0
POINT
  5
1D0
  8
DEFPOINTS
 62
     0
 10
3866.0204545505808
 20
2055.0898423132871
 30
0.0
  0
POINT
  5
1D1
  8
DEFPOINTS
 62
     0
 10
3869.2204524408498
 20
2055.0935168575911
 30
0.0
  0
ENDBLK
  5
1D2
  8
0
  0
BLOCK
  8
0
  2
*D5
 70
     1
 10
0.0
 20
0.0
 30
0.0
  3
*D5
  1

  0
LINE
  5
1D5
  8
AM_4
 62
     0
 10
3852.7210106945849
 20
2046.0563620421231
 30
0.0
 11
3869.5712536004421
 21
2048.3547615296388
 31
0.0
  0
LINE
  5
1D6
  8
AM_4
 62
     0
 10
3875.2189568779149
 20
2049.1251170901551
 30
0.0
 11
3877.6960197189128
 21
2049.4629923359948
 31
0.0
  0
INSERT
  5
1D7
  8
0
  2
*U18
 10
0.0
 20
0.0
 30
0.0
  0
LINE
  5
1D8
  8
AM_4
 62
     0
 10
3872.7418940369189
 20
2048.7872418443139
 30
0.0
 11
3872.0483164414391
 21
2048.6926367754791
 31
0.0
  0
SOLID
  5
1D9
  8
AM_4
 62
     0
 10
3875.1626443369419
 20
2049.5379608969879
 30
0.0
 11
3875.2752694188889
 21
2048.7122732833218
 31
0.0
 12
3872.7418940369189
 22
2048.7872418443139
 32
0.0
 13
3872.7418940369189
 23
2048.7872418443139
 33
0.0
  0
SOLID
  5
1DA
  8
AM_4
 62
     0
 10
3869.514941059469
 20
2048.7676053364712
 30
0.0
 11
3869.6275661414161
 21
2047.9419177228051
 31
0.0
 12
3872.0483164414391
 22
2048.6926367754791
 32
0.0
 13
3872.0483164414391
 23
2048.6926367754791
 33
0.0
  0
POINT
  5
1DB
  8
DEFPOINTS
 62
     0
 10
3872.0483164414391
 20
2048.6926367754791
 30
0.0
  0
POINT
  5
1DC
  8
DEFPOINTS
 62
     0
 10
3872.7418940369189
 20
2048.7872418443139
 30
0.0
  0
ENDBLK
  5
1DD
  8
0
  0
BLOCK
  8
0
  2
*D6
 70
     1
 10
0.0
 20
0.0
 30
0.0
  3
*D6
  1

  0
LINE
  5
1E0
  8
AM_4
 62
     0
 10
3882.7454534957151
 20
2049.7055517101812
 30
0.0
 11
3914.60215254582
 21
2049.7055517101812
 31
0.0
  0
LINE
  5
1E1
  8
AM_4
 62
     0
 10
3882.7454534957142
 20
2050.2055517101812
 30
0.0
 11
3914.60215254582
 21
2050.2055517101812
 31
0.0
  0
LINE
  5
1E2
  8
AM_4
 62
     0
 10
3913.35215254582
 20
2047.205551710181
 30
0.0
 11
3913.35215254582
 21
2044.705551710181
 31
0.0
  0
LINE
  5
1E3
  8
AM_4
 62
     0
 10
3913.35215254582
 20
2052.7055517101812
 30
0.0
 11
3913.35215254582
 21
2061.0258109189122
 31
0.0
  0
LINE
  5
1E4
  8
AM_4
 62
     0
 10
3913.35215254582
 20
2049.7055517101812
 30
0.0
 11
3913.35215254582
 21
2050.2055517101812
 31
0.0
  0
SOLID
  5
1E5
  8
AM_4
 62
     0
 10
3912.9354858791539
 20
2047.205551710181
 30
0.0
 11
3913.7688192124861
 21
2047.205551710181
 31
0.0
 12
3913.35215254582
 22
2049.7055517101812
 32
0.0
 13
3913.35215254582
 23
2049.7055517101812
 33
0.0
  0
SOLID
  5
1E6
  8
AM_4
 62
     0
 10
3912.9354858791539
 20
2052.7055517101812
 30
0.0
 11
3913.7688192124861
 21
2052.7055517101812
 31
0.0
 12
3913.35215254582
 22
2050.2055517101812
 32
0.0
 13
3913.35215254582
 23
2050.2055517101812
 33
0.0
  0
INSERT
  5
1E7
  8
0
  2
*U19
 10
0.0
 20
0.0
 30
0.0
  0
POINT
  5
1E8
  8
DEFPOINTS
 62
     0
 10
3882.1204534957151
 20
2049.7055517101812
 30
0.0
  0
POINT
  5
1E9
  8
DEFPOINTS
 62
     0
 10
3882.1204534957142
 20
2050.2055517101812
 30
0.0
  0
POINT
  5
1EA
  8
DEFPOINTS
 62
     0
 10
3913.35215254582
 20
2050.2055517101812
 30
0.0
  0
ENDBLK
  5
1EB
  8
0
  0
BLOCK
  8
0
  2
*D8
 70
     1
 10
0.0
 20
0.0
 30
0.0
  3
*D8
  1

  0
LINE
  5
258
  8
AM_4
 62
     0
 10
53.33013448028089
 20
48.737221261578583
 30
0.0
 11
53.33013448028089
 21
60.227991484390571
 31
0.0
  0
LINE
  5
259
  8
AM_4
 62
     0
 10
88.330134480280876
 20
48.737221261578583
 30
0.0
 11
88.330134480280876
 21
60.227991484390571
 31
0.0
  0
LINE
  5
25A
  8
AM_4
 62
     0
 10
55.83013448028089
 20
58.977991484390571
 30
0.0
 11
85.830134480280876
 21
58.977991484390571
 31
0.0
  0
SOLID
  5
25B
  8
AM_4
 62
     0
 10
55.83013448028089
 20
59.394658151057229
 30
0.0
 11
55.83013448028089
 21
58.561324817723907
 31
0.0
 12
53.33013448028089
 22
58.977991484390571
 32
0.0
 13
53.33013448028089
 23
58.977991484390571
 33
0.0
  0
SOLID
  5
25C
  8
AM_4
 62
     0
 10
85.830134480280876
 20
59.394658151057229
 30
0.0
 11
85.830134480280876
 21
58.561324817723907
 31
0.0
 12
88.330134480280876
 22
58.977991484390571
 32
0.0
 13
88.330134480280876
 23
58.977991484390571
 33
0.0
  0
INSERT
  5
25D
  8
0
  2
*U20
 10
0.0
 20
0.0
 30
0.0
  0
POINT
  5
25E
  8
DEFPOINTS
 62
     0
 10
53.33013448028089
 20
48.112221261578583
 30
0.0
  0
POINT
  5
25F
  8
DEFPOINTS
 62
     0
 10
88.330134480280876
 20
48.112221261578583
 30
0.0
  0
POINT
  5
260
  8
DEFPOINTS
 62
     0
 10
88.330134480280876
 20
58.977991484390571
 30
0.0
  0
ENDBLK
  5
257
  8
0
  0
BLOCK
  8
0
  2
*D9
 70
     1
 10
0.0
 20
0.0
 30
0.0
  3
*D9
  1

  0
LINE
  5
264
  8
AM_4
 62
     0
 10
85.95513448028089
 20
41.112221261578583
 30
0.0
 11
97.266598483983344
 21
41.112221261578583
 31
0.0
  0
LINE
  5
265
  8
AM_4
 62
     0
 10
88.955134480280876
 20
48.112221261578583
 30
0.0
 11
97.266598483983344
 21
48.112221261578583
 31
0.0
  0
LINE
  5
266
  8
AM_4
 62
     0
 10
96.016598483983344
 20
43.612221261578583
 30
0.0
 11
96.016598483983344
 21
45.612221261578583
 31
0.0
  0
SOLID
  5
267
  8
AM_4
 62
     0
 10
95.599931817316659
 20
43.612221261578583
 30
0.0
 11
96.433265150650001
 21
43.612221261578583
 31
0.0
 12
96.016598483983344
 22
41.112221261578583
 32
0.0
 13
96.016598483983344
 23
41.112221261578583
 33
0.0
  0
SOLID
  5
268
  8
AM_4
 62
     0
 10
95.599931817316659
 20
45.612221261578583
 30
0.0
 11
96.433265150650001
 21
45.612221261578583
 31
0.0
 12
96.016598483983344
 22
48.112221261578583
 32
0.0
 13
96.016598483983344
 23
48.112221261578583
 33
0.0
  0
INSERT
  5
269
  8
0
  2
*U21
 10
0.0
 20
0.0
 30
0.0
  0
POINT
  5
26A
  8
DEFPOINTS
 62
     0
 10
85.33013448028089
 20
41.112221261578583
 30
0.0
  0
POINT
  5
26B
  8
DEFPOINTS
 62
     0
 10
88.330134480280876
 20
48.112221261578583
 30
0.0
  0
POINT
  5
26C
  8
DEFPOINTS
 62
     0
 10
96.016598483983344
 20
48.112221261578583
 30
0.0
  0
ENDBLK
  5
263
  8
0
  0
BLOCK
  8
0
  2
*D10
 70
     1
 10
0.0
 20
0.0
 30
0.0
  3
*D10
  1

  0
LINE
  5
270
  8
AM_4
 62
     0
 10
56.33013448028089
 20
41.737221261578583
 30
0.0
 11
56.33013448028089
 21
54.490954016416559
 31
0.0
  0
LINE
  5
271
  8
AM_4
 62
     0
 10
85.33013448028089
 20
41.737221261578583
 30
0.0
 11
85.33013448028089
 21
54.490954016416559
 31
0.0
  0
LINE
  5
272
  8
AM_4
 62
     0
 10
58.83013448028089
 20
53.240954016416559
 30
0.0
 11
82.83013448028089
 21
53.240954016416559
 31
0.0
  0
SOLID
  5
273
  8
AM_4
 62
     0
 10
58.83013448028089
 20
53.657620683083231
 30
0.0
 11
58.83013448028089
 21
52.824287349749902
 31
0.0
 12
56.33013448028089
 22
53.240954016416559
 32
0.0
 13
56.33013448028089
 23
53.240954016416559
 33
0.0
  0
SOLID
  5
274
  8
AM_4
 62
     0
 10
82.83013448028089
 20
53.657620683083231
 30
0.0
 11
82.83013448028089
 21
52.824287349749902
 31
0.0
 12
85.33013448028089
 22
53.240954016416559
 32
0.0
 13
85.33013448028089
 23
53.240954016416559
 33
0.0
  0
INSERT
  5
275
  8
0
  2
*U22
 10
0.0
 20
0.0
 30
0.0
  0
POINT
  5
276
  8
DEFPOINTS
 62
     0
 10
56.33013448028089
 20
41.112221261578583
 30
0.0
  0
POINT
  5
277
  8
DEFPOINTS
 62
     0
 10
85.33013448028089
 20
41.112221261578583
 30
0.0
  0
POINT
  5
278
  8
DEFPOINTS
 62
     0
 10
85.33013448028089
 20
53.240954016416559
 30
0.0
  0
ENDBLK
  5
26F
  8
0
  0
BLOCK
  8
0
  2
*D11
 70
     1
 10
0.0
 20
0.0
 30
0.0
  3
*D11
  1

  0
LINE
  5
29D
  8
AM_4
 62
     0
 10
40.947518313383803
 20
41.094557467240399
 30
0.0
 11
52.230137183374119
 21
41.107513251689113
 31
0.0
  0
LINE
  5
29E
  8
AM_4
 62
     0
 10
60.430131777188471
 20
41.116929271468059
 30
0.0
 11
62.93013012896089
 21
41.119800009205541
 31
0.0
  0
INSERT
  5
29F
  8
0
  2
*U24
 10
0.0
 20
0.0
 30
0.0
  0
LINE
  5
2A0
  8
AM_4
 62
     0
 10
57.930133425416052
 20
41.114058533730571
 30
0.0
 11
54.730135535146538
 21
41.110383989426587
 31
0.0
  0
SOLID
  5
2A1
  8
AM_4
 62
     0
 10
60.429653320898893
 20
41.53359566343012
 30
0.0
 11
60.430610233478049
 21
40.700262879505992
 31
0.0
 12
57.930133425416052
 22
41.114058533730571
 32
0.0
 13
57.930133425416052
 23
41.114058533730571
 33
0.0
  0
SOLID
  5
2A2
  8
AM_4
 62
     0
 10
52.229658727084541
 20
41.524179643651188
 30
0.0
 11
52.230615639663696
 21
40.690846859727053
 31
0.0
 12
54.730135535146538
 22
41.110383989426587
 32
0.0
 13
54.730135535146538
 23
41.110383989426587
 33
0.0
  0
POINT
  5
2A3
  8
DEFPOINTS
 62
     0
 10
54.730135535146538
 20
41.110383989426587
 30
0.0
  0
POINT
  5
2A4
  8
DEFPOINTS
 62
     0
 10
57.930133425416052
 20
41.114058533730571
 30
0.0
  0
ENDBLK
  5
27B
  8
0
  0
BLOCK
  8
0
  2
*D12
 70
     1
 10
0.0
 20
0.0
 30
0.0
  3
*D12
  1

  0
LINE
  5
2A5
  8
AM_4
 62
     0
 10
41.430691679151948
 20
32.076903718262848
 30
0.0
 11
58.280934585010463
 21
34.375303205777939
 31
0.0
  0
LINE
  5
2A6
  8
AM_4
 62
     0
 10
63.92863786248342
 20
35.145658766294403
 30
0.0
 11
66.40570070348042
 21
35.483534012134967
 31
0.0
  0
INSERT
  5
2A7
  8
0
  2
*U25
 10
0.0
 20
0.0
 30
0.0
  0
LINE
  5
2A8
  8
AM_4
 62
     0
 10
61.451575021486413
 20
34.807783520453832
 30
0.0
 11
60.757997426007471
 21
34.713178451618511
 31
0.0
  0
SOLID
  5
2A9
  8
AM_4
 62
     0
 10
63.87232532150999
 20
35.558502573127228
 30
0.0
 11
63.984950403456843
 21
34.732814959461571
 31
0.0
 12
61.451575021486413
 22
34.807783520453832
 32
0.0
 13
61.451575021486413
 23
34.807783520453832
 33
0.0
  0
SOLID
  5
2AA
  8
AM_4
 62
     0
 10
58.224622044037027
 20
34.788147012610779
 30
0.0
 11
58.337247125983893
 21
33.9624593989451
 31
0.0
 12
60.757997426007471
 22
34.713178451618511
 32
0.0
 13
60.757997426007471
 23
34.713178451618511
 33
0.0
  0
POINT
  5
2AB
  8
DEFPOINTS
 62
     0
 10
60.757997426007471
 20
34.713178451618511
 30
0.0
  0
POINT
  5
2AC
  8
DEFPOINTS
 62
     0
 10
61.451575021486413
 20
34.807783520453832
 30
0.0
  0
ENDBLK
  5
286
  8
0
  0
BLOCK
  8
0
  2
*D13
 70
     1
 10
0.0
 20
0.0
 30
0.0
  3
*D13
  1

  0
LINE
  5
292
  8
AM_4
 62
     0
 10
71.455134480281799
 20
35.72609338632023
 30
0.0
 11
103.3118335303871
 21
35.726093386320223
 31
0.0
  0
LINE
  5
293
  8
AM_4
 62
     0
 10
71.45513448028089
 20
36.22609338632023
 30
0.0
 11
103.3118335303871
 21
36.22609338632023
 31
0.0
  0
LINE
  5
294
  8
AM_4
 62
     0
 10
102.0618335303871
 20
33.226093386320223
 30
0.0
 11
102.0618335303871
 21
30.726093386320219
 31
0.0
  0
LINE
  5
295
  8
AM_4
 62
     0
 10
102.0618335303871
 20
38.726093386320223
 30
0.0
 11
102.0618335303871
 21
47.046352595051459
 31
0.0
  0
LINE
  5
296
  8
AM_4
 62
     0
 10
102.0618335303871
 20
35.726093386320223
 30
0.0
 11
102.0618335303871
 21
36.22609338632023
 31
0.0
  0
SOLID
  5
297
  8
AM_4
 62
     0
 10
101.6451668637205
 20
33.226093386320223
 30
0.0
 11
102.4785001970538
 21
33.226093386320223
 31
0.0
 12
102.0618335303871
 22
35.726093386320223
 32
0.0
 13
102.0618335303871
 23
35.726093386320223
 33
0.0
  0
SOLID
  5
298
  8
AM_4
 62
     0
 10
101.6451668637205
 20
38.726093386320223
 30
0.0
 11
102.4785001970538
 21
38.726093386320223
 31
0.0
 12
102.0618335303871
 22
36.22609338632023
 32
0.0
 13
102.0618335303871
 23
36.22609338632023
 33
0.0
  0
INSERT
  5
299
  8
0
  2
*U23
 10
0.0
 20
0.0
 30
0.0
  0
POINT
  5
29A
  8
DEFPOINTS
 62
     0
 10
70.830134480281799
 20
35.72609338632023
 30
0.0
  0
POINT
  5
29B
  8
DEFPOINTS
 62
     0
 10
70.83013448028089
 20
36.22609338632023
 30
0.0
  0
POINT
  5
29C
  8
DEFPOINTS
 62
     0
 10
102.0618335303871
 20
36.22609338632023
 30
0.0
  0
ENDBLK
  5
291
  8
0
  0
BLOCK
  8
0
  2
*U14
 70
     1
 10
0.0
 20
0.0
 30
0.0
  3
*U14
  1

  0
TEXT
  5
2F5
  8
AM_4
 62
     0
 10
3880.174682690802
 20
2073.6267881438589
 30
0.0
 40
2.5
  1
35
  0
ENDBLK
  5
2F7
  8
0
  0
BLOCK
  8
0
  2
*U15
 70
     1
 10
0.0
 20
0.0
 30
0.0
  3
*U15
  1

  0
TEXT
  5
2F9
  8
AM_4
 62
     0
 10
3906.6819174994162
 20
2057.6170888623828
 30
0.0
 40
2.5
  1
7
 50
90.0
  0
ENDBLK
  5
2FB
  8
0
  0
BLOCK
  8
0
  2
*U16
 70
     1
 10
0.0
 20
0.0
 30
0.0
  3
*U16
  1

  0
TEXT
  5
2FD
  8
AM_4
 62
     0
 10
3880.2036731410071
 20
2067.8880453552838
 30
0.0
 40
2.5
  1
29
  0
ENDBLK
  5
2FF
  8
0
  0
BLOCK
  8
0
  2
*U17
 70
     1
 10
0.0
 20
0.0
 30
0.0
  3
*U17
  1

  0
TEXT
  5
301
  8
AM_4
 62
     0
 10
3852.7200098345502
 20
2056.194113179974
 30
0.0
 40
2.5
  1
Ø3,2
 50
0.0657924770374637
  0
ENDBLK
  5
303
  8
0
  0
BLOCK
  8
0
  2
*U18
 70
     1
 10
0.0
 20
0.0
 30
0.0
  3
*U18
  1

  0
TEXT
  5
305
  8
AM_4
 62
     0
 10
3853.0487270769358
 20
2047.2309728110929
 30
0.0
 40
2.5
  1
Ø0,7
 50
7.7672994345988347
  0
ENDBLK
  5
307
  8
0
  0
BLOCK
  8
0
  2
*U19
 70
     1
 10
0.0
 20
0.0
 30
0.0
  3
*U19
  1

  0
TEXT
  5
309
  8
AM_4
 62
     0
 10
3912.2326095717408
 20
2055.6855994591579
 30
0.0
 40
2.5
  1
0,5
 50
90.0
  0
ENDBLK
  5
30B
  8
0
  0
BLOCK
  8
0
  2
*U20
 70
     1
 10
0.0
 20
0.0
 30
0.0
  3
*U20
  1

  0
TEXT
  5
30D
  8
AM_4
 62
     0
 10
68.884363675369571
 20
59.647329819997658
 30
0.0
 40
2.5
  1
35
  0
ENDBLK
  5
30F
  8
0
  0
BLOCK
  8
0
  2
*U21
 70
     1
 10
0.0
 20
0.0
 30
0.0
  3
*U21
  1

  0
TEXT
  5
311
  8
AM_4
 62
     0
 10
95.391598483983316
 20
43.637630538522657
 30
0.0
 40
2.5
  1
7
 50
90.0
  0
ENDBLK
  5
313
  8
0
  0
BLOCK
  8
0
  2
*U22
 70
     1
 10
0.0
 20
0.0
 30
0.0
  3
*U22
  1

  0
TEXT
  5
315
  8
AM_4
 62
     0
 10
68.913354125574202
 20
53.908587031423387
 30
0.0
 40
2.5
  1
29
  0
ENDBLK
  5
317
  8
0
  0
BLOCK
  8
0
  2
*U23
 70
     1
 10
0.0
 20
0.0
 30
0.0
  3
*U23
  1

  0
TEXT
  5
319
  8
AM_4
 62
     0
 10
100.942290556308
 20
41.706141135297038
 30
0.0
 40
2.5
  1
0,5
 50
90.0
  0
ENDBLK
  5
31B
  8
0
  0
BLOCK
  8
0
  2
*U24
 70
     1
 10
0.0
 20
0.0
 30
0.0
  3
*U24
  1

  0
TEXT
  5
31D
  8
AM_4
 62
     0
 10
41.429690819115599
 20
42.214654856112958
 30
0.0
 40
2.5
  1
Ø3,2
 50
0.0657924770374637
  0
ENDBLK
  5
31F
  8
0
  0
BLOCK
  8
0
  2
*U25
 70
     1
 10
0.0
 20
0.0
 30
0.0
  3
*U25
  1

  0
TEXT
  5
321
  8
AM_4
 62
     0
 10
41.758408061504142
 20
33.251514487233067
 30
0.0
 40
2.5
  1
Ø0,7
 50
7.7672994345981241
  0
ENDBLK
  5
323
  8
0
  0
ENDSEC
  0
SECTION
  2
ENTITIES
  0
LINE
  5
229
  8
0
 10
88.330134480281814
 20
35.629796878359542
 30
0.0
 11
88.330134480280876
 21
48.112221261578583
 31
0.0
  0
LINE
  5
22A
  8
0
 10
53.33013448028089
 20
35.629796878359087
 30
0.0
 11
53.33013448028089
 21
48.112221261578583
 31
0.0
  0
ARC
  5
22B
  8
0
 10
70.830134480281799
 20
3.2260933863202288
 30
0.0
 40
32.5
 50
65.892452443227739
 51
114.1075475567722
  0
ARC
  5
22C
  8
0
 10
85.330134480281799
 20
35.629796878359542
 30
0.0
 40
3.0
 50
245.89245244322771
 51
0.0
  0
ARC
  5
22D
  8
0
 10
56.33013448028089
 20
35.629796878359087
 30
0.0
 40
3.0
 50
180.0
 51
294.10754755677232
  0
LINE
  5
231
  8
0
 10
88.330134480280876
 20
48.112221261578583
 30
0.0
 11
53.33013448028089
 21
48.112221261578583
 31
0.0
  0
CIRCLE
  5
23E
  8
0
 10
56.33013448028089
 20
41.112221261578583
 30
0.0
 40
1.6000000000000001
  0
CIRCLE
  5
23F
  8
0
 10
85.33013448028089
 20
41.112221261578583
 30
0.0
 40
1.6000000000000001
  0
CIRCLE
  5
240
  8
0
 10
70.83013448028089
 20
36.22609338632023
 30
0.0
 40
0.35
  0
CIRCLE
  5
241
  8
0
 10
61.104786223747062
 20
34.760480986036193
 30
0.0
 40
0.35
  0
CIRCLE
  5
242
  8
0
 10
80.555482736815634
 20
34.76048098603664
 30
0.0
 40
0.35
  0
ENDSEC
  0
EOF
